<svg width="67" height="66" viewBox="0 0 67 66" fill="none" xmlns="http://www.w3.org/2000/svg">
<path d="M15.3657 10.8497C13.1099 10.8497 11.2407 12.6906 11.2407 14.9122V51.4747C11.2407 53.6964 13.1099 55.5372 15.3657 55.5372H52.4907C54.7466 55.5372 56.6157 53.6964 56.6157 51.4747V14.9122C56.6157 12.6906 54.7466 10.8497 52.4907 10.8497H15.3657ZM15.3657 14.9122H52.4907V51.4747H41.7915V37.7638H47.1411L47.9146 31.67H41.7915V27.7345C41.7915 25.9572 42.2346 24.7511 44.8208 24.7511H48.1724V19.2286C47.6003 19.1572 45.6184 19.0382 43.3384 19.0382C38.585 19.0382 35.3462 21.855 35.3462 27.0997V31.67H29.9321V37.7638H35.3462V51.4747H15.3657V14.9122Z" fill="#33506F"/>
</svg>
