<svg width="645" height="689" viewBox="0 0 645 689" fill="none" xmlns="http://www.w3.org/2000/svg">
<g opacity="0.94">
<g opacity="0.7" clip-path="url(#clip0)">
<path d="M337.457 464.306L253.287 447.945C248.419 446.999 245.24 442.286 246.186 437.418L270.051 314.643C270.998 309.775 275.711 306.596 280.579 307.542L364.749 323.903C369.616 324.85 372.796 329.563 371.849 334.431L347.984 457.206C347.038 462.074 342.325 465.253 337.457 464.306Z" fill="#EFAEB8"/>
<path d="M346.65 363.699L282.451 351.22C279.805 350.706 278.078 348.145 278.592 345.499L282.006 327.939C282.52 325.293 285.081 323.566 287.726 324.08L351.926 336.559C354.571 337.073 356.299 339.635 355.785 342.28L352.371 359.841C351.857 362.486 349.296 364.213 346.65 363.699Z" fill="#7A7989"/>
<path d="M288.409 383.777L274.649 381.102C273.064 380.794 272.029 379.259 272.337 377.674L275.012 363.915C275.32 362.33 276.855 361.295 278.44 361.603L292.199 364.278C293.784 364.586 294.819 366.12 294.511 367.705L291.836 381.465C291.528 383.05 289.994 384.085 288.409 383.777Z" fill="#375778"/>
<path d="M283.017 411.514L269.258 408.839C267.673 408.531 266.638 406.997 266.946 405.412L269.62 391.653C269.928 390.068 271.463 389.032 273.048 389.341L286.807 392.015C288.392 392.323 289.427 393.858 289.119 395.443L286.445 409.202C286.137 410.787 284.602 411.822 283.017 411.514Z" fill="#375778"/>
<path d="M277.626 439.251L263.866 436.577C262.281 436.269 261.246 434.734 261.554 433.15L264.229 419.39C264.537 417.805 266.071 416.77 267.656 417.078L281.416 419.753C283.001 420.061 284.036 421.596 283.728 423.18L281.053 436.94C280.745 438.525 279.211 439.56 277.626 439.251Z" fill="#375778"/>
<path d="M315.549 389.052L301.79 386.378C300.205 386.069 299.169 384.535 299.478 382.95L302.152 369.191C302.46 367.606 303.995 366.571 305.58 366.879L319.339 369.553C320.924 369.861 321.959 371.396 321.651 372.981L318.977 386.74C318.668 388.325 317.134 389.36 315.549 389.052Z" fill="#375778"/>
<path d="M310.157 416.79L296.398 414.115C294.813 413.807 293.778 412.272 294.086 410.687L296.761 396.928C297.069 395.343 298.603 394.308 300.188 394.616L313.947 397.291C315.532 397.599 316.568 399.133 316.259 400.718L313.585 414.478C313.277 416.063 311.742 417.098 310.157 416.79Z" fill="#375778"/>
<path d="M304.766 444.527L291.006 441.852C289.421 441.544 288.386 440.01 288.694 438.425L291.369 424.666C291.677 423.081 293.212 422.046 294.797 422.354L308.556 425.028C310.141 425.336 311.176 426.871 310.868 428.456L308.193 442.215C307.885 443.8 306.351 444.835 304.766 444.527Z" fill="#375778"/>
<path d="M342.69 394.328L328.93 391.653C327.345 391.345 326.31 389.81 326.618 388.226L329.293 374.466C329.601 372.881 331.135 371.846 332.72 372.154L346.48 374.829C348.065 375.137 349.1 376.671 348.792 378.256L346.117 392.016C345.809 393.601 344.274 394.636 342.69 394.328Z" fill="#375778"/>
<path d="M341.087 402.566L327.328 399.892C325.743 399.584 324.208 400.619 323.9 402.204L319.867 422.952L319.323 425.751L315.834 443.7C315.526 445.285 316.561 446.82 318.146 447.128L331.905 449.802C333.49 450.11 335.025 449.075 335.333 447.49L338.822 429.541L339.366 426.742L343.399 405.994C343.707 404.409 342.672 402.875 341.087 402.566Z" fill="#EF8BBD"/>
<path d="M364.748 323.902L346.574 320.37C350.576 321.147 353.189 325.022 352.411 329.024L332.346 432.251C331.568 436.253 327.693 438.866 323.692 438.088L256.128 424.955C252.126 424.177 249.512 420.302 250.29 416.301L246.185 437.417C245.239 442.285 248.418 446.998 253.286 447.945L337.456 464.306C342.324 465.252 347.037 462.073 347.983 457.205L371.848 334.43C372.795 329.562 369.616 324.849 364.748 323.902Z" fill="#DD9CA6"/>
<path d="M351.925 336.559L350.982 336.376L345.706 363.516L346.65 363.699C349.295 364.213 351.856 362.486 352.37 359.84L355.784 342.28C356.298 339.634 354.571 337.073 351.925 336.559Z" fill="#62616E"/>
<path d="M263.866 436.577L277.625 439.251C279.21 439.56 280.744 438.524 281.052 436.94L282.39 430.06L262.891 426.27L261.554 433.15C261.246 434.735 262.281 436.269 263.866 436.577Z" fill="#2B4158"/>
<path d="M291.006 441.852L304.766 444.527C306.351 444.835 307.885 443.8 308.193 442.215L309.531 435.336L290.032 431.545L288.694 438.425C288.386 440.01 289.422 441.544 291.006 441.852Z" fill="#2B4158"/>
<path d="M346.479 374.829L343.616 374.272L339.826 393.771L342.689 394.328C344.274 394.636 345.808 393.601 346.116 392.016L348.791 378.257C349.099 376.672 348.064 375.137 346.479 374.829Z" fill="#2B4158"/>
<path d="M341.087 402.566L338.224 402.01L332.346 432.251C331.568 436.253 327.694 438.866 323.692 438.088L317.172 436.821L315.835 443.7C315.526 445.285 316.562 446.82 318.147 447.128L331.906 449.802C333.491 450.11 335.025 449.075 335.333 447.491L338.822 429.542L339.367 426.742L343.4 405.993C343.707 404.409 342.672 402.874 341.087 402.566Z" fill="#E068BD"/>
<path d="M315.999 343.92C313.338 343.403 310.681 342.863 307.934 342.284C306.154 341.909 305.014 340.161 305.39 338.381C305.766 336.601 307.498 335.465 309.294 335.837C314.718 336.981 319.787 337.967 325.245 338.938C325.263 338.941 325.28 338.944 325.298 338.948C327.06 339.29 328.227 340.985 327.912 342.759C327.592 344.55 325.882 345.744 324.091 345.425C321.326 344.933 318.661 344.437 315.999 343.92Z" fill="white"/>
<path d="M295.099 339.79L291.332 339.058C289.546 338.71 288.38 336.981 288.727 335.195C289.074 333.409 290.803 332.242 292.589 332.59L296.356 333.322C298.142 333.669 299.309 335.398 298.961 337.184C298.614 338.97 296.885 340.137 295.099 339.79Z" fill="white"/>
<path d="M327.482 422.171C326.41 421.963 325.71 420.925 325.918 419.853L326.626 416.212C326.835 415.14 327.872 414.44 328.944 414.648C330.015 414.857 330.715 415.895 330.507 416.966L329.799 420.608C329.591 421.679 328.553 422.379 327.482 422.171Z" fill="#B74A96"/>
<path d="M330.521 435.091C329.45 434.883 328.75 433.845 328.958 432.773L329.666 429.132C329.874 428.06 330.912 427.36 331.983 427.568C333.055 427.777 333.755 428.815 333.547 429.886L332.839 433.528C332.631 434.599 331.593 435.299 330.521 435.091Z" fill="#B74A96"/>
<path d="M402.087 347.17C404.377 344.689 404.223 340.822 401.743 338.531C399.262 336.241 395.395 336.395 393.104 338.875C390.814 341.356 390.968 345.223 393.448 347.514C395.929 349.804 399.796 349.65 402.087 347.17Z" fill="#375778"/>
<path d="M263.239 296.362C264.642 296.635 266 295.719 266.273 294.316C266.546 292.913 265.629 291.555 264.227 291.282C262.824 291.009 261.465 291.925 261.193 293.328C260.92 294.731 261.836 296.089 263.239 296.362Z" fill="#375778"/>
<path d="M392.4 309.017L393.324 315.143C393.363 315.405 393.498 315.633 393.697 315.773L398.342 319.056C398.998 319.52 398.776 320.666 397.993 320.85L392.457 322.154C392.22 322.209 392.01 322.37 391.875 322.599L388.723 327.932C388.278 328.686 387.26 328.488 387.13 327.622L386.206 321.497C386.166 321.234 386.031 321.007 385.832 320.866L381.188 317.583C380.531 317.119 380.754 315.974 381.536 315.789L387.072 314.486C387.31 314.43 387.52 314.269 387.655 314.041L390.806 308.707C391.251 307.954 392.269 308.152 392.4 309.017Z" fill="#EFAEB8"/>
<path d="M249.959 306.923L250.883 313.049C250.922 313.311 251.057 313.539 251.256 313.68L255.901 316.963C256.557 317.426 256.334 318.572 255.552 318.756L250.016 320.06C249.779 320.116 249.568 320.277 249.433 320.505L246.282 325.839C245.837 326.592 244.819 326.394 244.688 325.529L243.764 319.403C243.725 319.141 243.59 318.913 243.391 318.772L238.746 315.49C238.09 315.026 238.313 313.88 239.095 313.696L244.631 312.392C244.868 312.336 245.078 312.175 245.214 311.947L248.365 306.614C248.81 305.86 249.828 306.058 249.959 306.923Z" fill="#EFAEB8"/>
</g>
<g opacity="0.7" clip-path="url(#clip1)">
<path d="M133.563 318.14C137.414 317.955 138.805 314.332 136.067 311.618L115.619 291.349L91.2914 267.235C90.0209 265.975 88.1372 265.252 86.35 265.338L52.1354 266.98L23.3772 268.36C19.5265 268.545 18.1356 272.169 20.8736 274.882L41.3216 295.151L65.6492 319.265C66.9199 320.525 68.8036 321.248 70.5906 321.162L104.805 319.52L133.563 318.14Z" fill="#3471B1"/>
<path d="M97.1515 341.843L110.087 308.145C111.795 303.695 98.6117 294.495 80.6406 287.597C62.6694 280.698 46.7162 278.714 45.0079 283.164L32.0725 316.862" fill="#3471B1"/>
<path d="M61.5189 337.41C79.4899 344.309 95.4432 346.293 97.1514 341.843C98.8597 337.393 85.6761 328.193 67.705 321.295C49.7339 314.396 33.7807 312.411 32.0725 316.862C30.3642 321.312 43.5478 330.512 61.5189 337.41Z" fill="#365474"/>
<path d="M80.6406 287.597C79.476 287.149 78.3199 286.723 77.1757 286.318C89.9495 291.654 98.9276 298.222 97.6607 301.522L87.3184 328.464C85.9526 332.023 73.1973 330.436 58.8289 324.92C44.4604 319.405 33.9199 312.049 35.2857 308.491L32.0725 316.862C30.3642 321.312 43.5479 330.512 61.5188 337.41C79.4897 344.309 95.4431 346.294 97.1515 341.843L110.087 308.145C111.795 303.695 98.6117 294.495 80.6406 287.597Z" fill="#295583"/>
<path d="M85.6805 329.839C81.5663 331.368 70.7536 329.497 58.829 324.92C50.4303 321.696 43.341 317.843 39.1714 314.488C35.2753 314.454 32.7028 315.219 32.0723 316.861C30.364 321.312 43.5476 330.511 61.5187 337.41C79.4898 344.308 95.4431 346.293 97.1513 341.843C98.2053 339.098 93.5898 334.544 85.6805 329.839Z" fill="#2B4158"/>
<path d="M40.6835 294.43C39.3485 293.917 38.6816 292.419 39.1941 291.084L42.5908 282.236C43.9415 278.717 48.6699 277.512 57.0457 278.555C63.9777 279.417 72.6869 281.77 81.5687 285.179C90.4505 288.589 98.4969 292.668 104.226 296.665C111.147 301.496 113.856 305.554 112.505 309.073C111.992 310.408 110.494 311.075 109.159 310.562C107.846 310.058 107.18 308.601 107.646 307.283C107.598 306.668 106.205 304.206 100.359 300.296C95.027 296.729 87.6948 293.078 79.7129 290.014C71.7312 286.95 63.8389 284.757 57.4901 283.84C50.5374 282.835 47.8531 283.729 47.4013 284.155L44.0291 292.94C43.5164 294.275 42.0186 294.942 40.6835 294.43Z" fill="#1D3F5E"/>
<path d="M116.474 335.655C115.139 335.142 114.472 333.645 114.984 332.31L125.795 304.148C126.307 302.813 127.805 302.146 129.14 302.658C130.475 303.171 131.142 304.669 130.63 306.004L119.819 334.165C119.307 335.501 117.809 336.167 116.474 335.655Z" fill="#1D3F5E"/>
<path d="M111.638 348.253C108.772 347.153 107.341 343.938 108.441 341.072L111.96 331.903C112.36 330.862 113.529 330.341 114.57 330.741L121.176 333.277C122.217 333.677 122.738 334.845 122.338 335.887L118.818 345.056C117.718 347.921 114.503 349.353 111.638 348.253Z" fill="#CD8893"/>
<path d="M83.1756 315.959C82.3747 315.651 81.9745 314.752 82.2819 313.952L83.4667 310.865C83.7742 310.064 84.6729 309.664 85.4738 309.972C86.275 310.279 86.6749 311.178 86.3675 311.979L85.1827 315.065C84.8755 315.866 83.9767 316.266 83.1756 315.959Z" fill="#1D3F5E"/>
<path d="M91.4827 314.591C90.6818 314.283 90.2816 313.385 90.589 312.584L91.7738 309.497C92.0812 308.696 92.9801 308.296 93.781 308.604C94.5819 308.911 94.9821 309.81 94.6746 310.611L93.4898 313.697C93.1823 314.498 92.2836 314.898 91.4827 314.591Z" fill="#1D3F5E"/>
<path d="M92.617 326.65C91.8161 326.343 91.4159 325.444 91.7233 324.643L92.9081 321.557C93.2155 320.756 94.1143 320.356 94.9153 320.663C95.7164 320.971 96.1163 321.869 95.8089 322.67L94.6241 325.757C94.3167 326.558 93.4179 326.958 92.617 326.65Z" fill="#1D3F5E"/>
<path d="M47.5827 305.098C46.2477 304.585 45.5808 303.087 46.0933 301.752L47.6096 297.802C48.1221 296.467 49.6199 295.8 50.955 296.313C52.2901 296.825 52.9569 298.323 52.4445 299.658L50.9281 303.608C50.4156 304.943 48.9176 305.61 47.5827 305.098Z" fill="white"/>
<path d="M51.9183 293.803C50.5832 293.291 49.9163 291.793 50.4288 290.458L50.9934 288.987C51.5059 287.652 53.0037 286.985 54.3388 287.498C55.6739 288.01 56.3407 289.508 55.8283 290.843L55.2637 292.314C54.7511 293.649 53.2531 294.316 51.9183 293.803Z" fill="white"/>
<path d="M120.55 266.627C119.599 269.103 116.821 270.34 114.345 269.39C111.869 268.439 110.632 265.661 111.583 263.185C112.533 260.709 115.311 259.472 117.787 260.423C120.263 261.373 121.5 264.151 120.55 266.627Z" fill="#3471B1"/>
<path d="M58.1748 225.185C59.2008 224.729 59.6622 223.527 59.2054 222.501C58.7486 221.475 57.5466 221.013 56.5207 221.47C55.4948 221.927 55.0334 223.129 55.4901 224.155C55.9469 225.181 57.1489 225.642 58.1748 225.185Z" fill="#3471B1"/>
<path d="M93.2923 225.523L93.1716 230.39C93.1665 230.599 93.2398 230.793 93.3745 230.929L96.5215 234.104C96.9662 234.553 96.6374 235.409 96.0068 235.445L91.5436 235.699C91.3526 235.71 91.1677 235.806 91.032 235.964L87.8648 239.662C87.4172 240.184 86.6563 239.892 86.6736 239.205L86.7943 234.337C86.7995 234.129 86.7262 233.934 86.5914 233.798L83.4444 230.623C82.9997 230.174 83.3285 229.318 83.9591 229.282L88.4223 229.028C88.6134 229.017 88.7982 228.922 88.9339 228.763L92.1011 225.065C92.5484 224.543 93.3094 224.835 93.2923 225.523Z" fill="#EFAEB8"/>
<path d="M147.598 250.053L147.475 256.63C147.47 256.911 147.572 257.175 147.758 257.36L152.099 261.678C152.712 262.288 152.269 263.443 151.405 263.486L145.289 263.79C145.027 263.803 144.775 263.931 144.59 264.144L140.281 269.114C139.672 269.816 138.627 269.415 138.644 268.485L138.768 261.909C138.773 261.627 138.671 261.363 138.485 261.178L134.143 256.86C133.53 256.25 133.973 255.095 134.837 255.052L140.953 254.748C141.215 254.735 141.467 254.608 141.652 254.395L145.961 249.425C146.57 248.722 147.616 249.124 147.598 250.053Z" fill="#EFAEB8"/>
<path d="M52.1088 233.757L51.9853 240.334C51.98 240.616 52.0822 240.88 52.2683 241.065L56.6098 245.383C57.2231 245.993 56.7798 247.147 55.9159 247.19L49.8001 247.494C49.5383 247.507 49.2858 247.635 49.1011 247.848L44.7921 252.818C44.1833 253.52 43.1377 253.119 43.1551 252.19L43.2786 245.613C43.2839 245.331 43.1817 245.067 42.9957 244.882L38.6541 240.564C38.0408 239.954 38.484 238.8 39.348 238.757L45.4637 238.453C45.7255 238.44 45.978 238.312 46.1627 238.099L50.4718 233.129C51.0806 232.427 52.1265 232.828 52.1088 233.757Z" fill="#EFAEB8"/>
</g>
<g opacity="0.7" clip-path="url(#clip2)">
<path d="M323.638 596.573C320.539 593.474 320.539 588.448 323.638 585.348L334.8 574.186C337.9 571.087 342.926 571.087 346.025 574.186C349.125 577.286 349.125 582.311 346.025 585.411L334.863 596.573C331.763 599.673 326.738 599.673 323.638 596.573Z" fill="#4081C5"/>
<path d="M317.161 659.809C316.562 659.809 315.964 659.581 315.507 659.124L261.087 604.704C260.173 603.79 260.173 602.309 261.087 601.396C262.001 600.483 263.481 600.483 264.395 601.396L318.815 655.816C319.729 656.729 319.729 658.21 318.815 659.124C318.358 659.581 317.76 659.809 317.161 659.809Z" fill="#446878"/>
<path d="M234.69 644.408C233.879 644.408 233.091 643.986 232.659 643.232C232.016 642.111 232.404 640.682 233.524 640.04L253.575 628.542C254.696 627.9 256.126 628.287 256.768 629.408C257.411 630.529 257.023 631.958 255.903 632.601L235.852 644.098C235.485 644.308 235.085 644.408 234.69 644.408Z" fill="#446878"/>
<path d="M278.86 688.582C278.465 688.582 278.065 688.482 277.698 688.272C276.578 687.629 276.19 686.2 276.833 685.079L288.33 665.028C288.972 663.907 290.401 663.519 291.523 664.163C292.644 664.805 293.031 666.234 292.388 667.355L280.891 687.406C280.459 688.16 279.671 688.582 278.86 688.582Z" fill="#446878"/>
<path d="M246.738 640.063C243.356 633.66 245.804 625.727 252.207 622.345L318.12 587.522L324.245 599.116L246.738 640.063Z" fill="#EFAEB8"/>
<path d="M280.478 673.803L280.841 673.994C287.244 677.377 295.177 674.929 298.559 668.526L333.382 602.613L321.425 596.297L280.478 673.803Z" fill="#EFAEB8"/>
<path d="M327.404 599.455L292.393 665.725C290.709 668.911 286.762 670.129 283.576 668.446L283.367 668.335L280.478 673.803L280.841 673.995C287.244 677.377 295.177 674.929 298.559 668.526L333.382 602.613L327.404 599.455Z" fill="#D58C98"/>
<path d="M318.828 620.32C329.286 620.32 337.764 611.842 337.764 601.384C337.764 590.926 329.286 582.447 318.828 582.447C308.369 582.447 299.891 590.926 299.891 601.384C299.891 611.842 308.369 620.32 318.828 620.32Z" fill="#4081C5"/>
<path d="M332.217 587.994C327.863 583.639 321.916 581.852 316.251 582.625C319.097 583.076 321.833 584.395 324.027 586.589C329.548 592.11 329.548 601.062 324.027 606.584C318.505 612.105 309.553 612.105 304.032 606.584C301.838 604.39 300.519 601.654 300.069 598.807C299.295 604.472 301.083 610.419 305.437 614.774C312.832 622.169 324.822 622.169 332.217 614.774C339.612 607.379 339.612 595.389 332.217 587.994Z" fill="#2E659F"/>
<path d="M336.378 596.598C335.454 596.598 334.579 596.047 334.21 595.137C333.375 593.08 332.149 591.233 330.564 589.648C328.947 588.032 328.053 587.541 326.573 586.728C326.371 586.617 326.163 586.503 325.945 586.381C324.817 585.752 324.412 584.327 325.041 583.199C325.67 582.071 327.095 581.666 328.223 582.295C328.432 582.411 328.632 582.521 328.825 582.627C330.412 583.499 331.784 584.252 333.872 586.34C335.902 588.37 337.474 590.739 338.545 593.379C339.031 594.576 338.454 595.94 337.256 596.426C336.969 596.543 336.671 596.598 336.378 596.598Z" fill="#1D3F5E"/>
<path d="M318.828 608.188C322.585 608.188 325.631 605.142 325.631 601.384C325.631 597.626 322.585 594.58 318.828 594.58C315.07 594.58 312.024 597.626 312.024 601.384C312.024 605.142 315.07 608.188 318.828 608.188Z" fill="#EFAEB8"/>
<path d="M255.827 574.92C255.827 577.316 253.885 579.258 251.489 579.258C249.093 579.258 247.15 577.316 247.15 574.92C247.151 572.524 249.093 570.582 251.489 570.582C253.885 570.582 255.827 572.524 255.827 574.92Z" fill="#4081C5"/>
<path d="M296.17 580.561C297.185 580.561 298.008 579.738 298.008 578.724C298.008 577.709 297.185 576.886 296.17 576.886C295.156 576.886 294.333 577.709 294.333 578.724C294.333 579.738 295.156 580.561 296.17 580.561Z" fill="#4081C5"/>
<path d="M241.259 595.628L242.733 599.772C242.796 599.949 242.921 600.09 243.079 600.161L246.76 601.82C247.281 602.054 247.281 602.883 246.76 603.117L243.079 604.776C242.921 604.847 242.796 604.988 242.733 605.165L241.259 609.309C241.051 609.894 240.315 609.894 240.106 609.309L238.632 605.165C238.569 604.988 238.444 604.847 238.287 604.776L234.605 603.117C234.085 602.883 234.085 602.054 234.605 601.82L238.287 600.161C238.444 600.09 238.569 599.949 238.632 599.772L240.106 595.628C240.315 595.042 241.051 595.042 241.259 595.628Z" fill="#EFAEB8"/>
<path d="M276.635 571.339L278.661 576.925C278.747 577.165 278.919 577.354 279.136 577.45L284.195 579.686C284.91 580.002 284.91 581.12 284.195 581.435L279.136 583.671C278.919 583.767 278.747 583.957 278.661 584.196L276.635 589.783C276.349 590.572 275.337 590.572 275.051 589.783L273.026 584.196C272.94 583.957 272.768 583.767 272.551 583.671L267.492 581.435C266.777 581.119 266.777 580.002 267.492 579.686L272.551 577.45C272.768 577.354 272.94 577.165 273.026 576.925L275.051 571.339C275.338 570.55 276.349 570.55 276.635 571.339Z" fill="#EFAEB8"/>
</g>
<g clip-path="url(#clip3)">
<g opacity="0.7">
<path d="M138.473 116.4C135.83 108.669 127.419 104.544 119.688 107.187C111.956 109.831 107.831 118.241 110.475 125.973C113.118 133.704 121.528 137.829 129.26 135.186C136.991 132.542 141.116 124.132 138.473 116.4Z" fill="#EF8BBD"/>
<path d="M118.324 107.697C117.721 107.972 117.147 108.286 116.6 108.629C121.79 107.172 127.41 109.672 129.715 114.73C132.263 120.32 129.796 126.916 124.206 129.464C119.148 131.769 113.267 129.968 110.306 125.464C110.494 126.082 110.721 126.695 110.996 127.298C114.385 134.735 123.161 138.016 130.597 134.627C138.034 131.238 141.315 122.462 137.926 115.026C134.537 107.589 125.761 104.308 118.324 107.697Z" fill="#E068BD"/>
<path d="M144.24 164.563C137.717 167.536 129.551 165.605 121.248 159.126C113.329 152.947 106.111 143.274 100.923 131.889C95.7347 120.504 93.1699 108.711 93.7015 98.6811C94.2589 88.1637 98.1585 80.7342 104.682 77.7612C111.206 74.7882 119.371 76.7194 127.674 83.1987C135.593 89.3778 142.811 99.0506 147.999 110.435C153.187 121.82 155.752 133.614 155.221 143.643C154.663 154.161 150.764 161.59 144.24 164.563ZM106.42 81.5748C101.388 83.8681 98.3573 90.0221 97.8868 98.9029C97.3903 108.271 99.8229 119.369 104.737 130.151C109.65 140.933 116.43 150.05 123.826 155.822C130.837 161.293 137.47 163.043 142.502 160.75C147.534 158.456 150.565 152.302 151.035 143.422C151.532 134.053 149.099 122.956 144.185 112.173C139.272 101.391 132.492 92.2745 125.096 86.5029C118.085 81.0316 111.452 79.2814 106.42 81.5748Z" fill="#1D3F5E"/>
<path d="M118.613 159.89C109.94 163.842 102.234 163.893 96.7641 159.992C90.9277 155.829 88.5173 147.792 89.9769 137.361C91.3689 127.414 96.1368 116.327 103.402 106.141C110.668 95.9553 119.599 87.8374 128.55 83.283C137.936 78.5063 146.321 78.1693 152.158 82.3324C157.994 86.4956 160.405 94.5327 158.945 104.963C157.553 114.91 152.785 125.998 145.52 136.183L143.814 134.967L145.52 136.183C138.255 146.369 129.323 154.487 120.371 159.041C119.782 159.342 119.195 159.624 118.613 159.89ZM132.064 86.2403C131.531 86.483 130.994 86.7419 130.451 87.0186C122.089 91.2729 113.695 98.9285 106.814 108.575C99.9333 118.221 95.428 128.651 94.1277 137.942C92.895 146.75 94.6958 153.369 99.1979 156.58C103.392 159.571 109.619 159.383 116.858 156.085C117.391 155.842 117.928 155.583 118.471 155.306C126.833 151.052 135.227 143.396 142.108 133.75C148.989 124.103 153.494 113.674 154.795 104.383C156.027 95.5752 154.227 88.9561 149.724 85.7446C145.531 82.7533 139.303 82.9412 132.064 86.2403Z" fill="#1D3F5E"/>
<path d="M157.526 142.156C156.943 142.422 156.346 142.678 155.732 142.927C146.422 146.695 134.435 148.109 121.982 146.91C109.528 145.711 98.0323 142.035 89.612 136.56C80.7822 130.819 76.2979 123.727 76.9852 116.591C77.6723 109.455 83.4268 103.348 93.1905 99.3975C102.501 95.6296 114.487 94.2149 126.94 95.414C139.394 96.613 150.89 100.289 159.31 105.764C168.14 111.506 172.624 118.597 171.937 125.734C171.293 132.421 166.198 138.204 157.526 142.156ZM93.1172 103.989C85.8772 107.289 81.6508 111.865 81.157 116.993C80.6269 122.497 84.4411 128.199 91.897 133.047C99.7622 138.161 110.589 141.603 122.384 142.739C134.178 143.874 145.463 142.561 154.16 139.042C162.404 135.705 167.235 130.837 167.765 125.332C168.295 119.827 164.481 114.126 157.026 109.278C149.16 104.164 138.333 100.722 126.539 99.586C114.744 98.4505 103.459 99.7632 94.7627 103.283C94.1981 103.511 93.6495 103.747 93.1172 103.989Z" fill="#1D3F5E"/>
<path d="M122.27 83.2089C123.941 80.683 123.249 77.2803 120.723 75.6088C118.197 73.9373 114.794 74.6299 113.123 77.1558C111.451 79.6817 112.144 83.0844 114.67 84.7559C117.196 86.4275 120.598 85.7348 122.27 83.2089Z" fill="#2E659F"/>
<path d="M86.1604 129.157C88.2102 126.928 88.0649 123.46 85.836 121.41C83.607 119.36 80.1383 119.505 78.0885 121.734C76.0387 123.963 76.1839 127.432 78.4129 129.482C80.6419 131.532 84.1105 131.386 86.1604 129.157Z" fill="#2E659F"/>
<path d="M132.376 153.861C135.132 152.605 136.348 149.353 135.092 146.597C133.836 143.84 130.584 142.624 127.827 143.88C125.071 145.137 123.855 148.389 125.111 151.145C126.367 153.901 129.62 155.118 132.376 153.861Z" fill="#2E659F"/>
<path d="M120.424 118.207C121.162 119.826 120.448 121.735 118.829 122.473C117.211 123.21 115.301 122.496 114.563 120.878C113.826 119.26 114.54 117.35 116.158 116.612C117.777 115.875 119.687 116.589 120.424 118.207Z" fill="#E7EFFA"/>
<path d="M84.9771 84.0135C85.8672 85.9667 85.0053 88.2718 83.0522 89.162C81.099 90.0521 78.7939 89.1904 77.9037 87.237C77.0135 85.2837 77.8755 82.9787 79.8287 82.0886C81.7818 81.1985 84.087 82.0604 84.9771 84.0135Z" fill="#2E659F"/>
<path d="M135.987 70.4291C136.364 71.2562 135.999 72.2325 135.172 72.6094C134.344 72.9863 133.368 72.6215 132.991 71.7942C132.614 70.9671 132.979 69.9908 133.806 69.6138C134.633 69.2371 135.61 69.602 135.987 70.4291Z" fill="#2E659F"/>
<path d="M65.5809 101.125L68.322 103.956C68.4393 104.077 68.5933 104.146 68.7482 104.145L72.366 104.129C72.8771 104.127 73.185 104.803 72.848 105.187L70.4628 107.907C70.3606 108.023 70.3111 108.185 70.3256 108.353L70.6637 112.279C70.7114 112.833 70.1112 113.107 69.724 112.707L66.9829 109.876C66.8656 109.755 66.7115 109.686 66.5566 109.687L62.9389 109.703C62.4277 109.705 62.1198 109.029 62.4568 108.645L64.8421 105.925C64.9442 105.808 64.9938 105.647 64.9793 105.479L64.6411 101.553C64.5934 100.999 65.1935 100.725 65.5809 101.125Z" fill="#EFAEB8"/>
<path d="M142.096 48.9041L145.822 52.706C145.982 52.8689 146.192 52.9596 146.404 52.9572L151.359 52.9006C152.059 52.8926 152.474 53.8033 152.009 54.3265L148.716 58.0292C148.575 58.1878 148.505 58.4061 148.523 58.6332L148.948 63.9398C149.008 64.6895 148.183 65.0654 147.657 64.5283L143.93 60.7263C143.771 60.5635 143.56 60.4728 143.348 60.4754L138.393 60.5316C137.693 60.5398 137.278 59.6289 137.743 59.1057L141.037 55.4032C141.178 55.2445 141.247 55.0263 141.229 54.799L140.804 49.4924C140.744 48.7426 141.569 48.3667 142.096 48.9041Z" fill="#EFAEB8"/>
</g>
</g>
<g clip-path="url(#clip4)">
<g opacity="0.7">
<path d="M304.62 233.312L313.688 239.429L306.517 250.06L297.449 243.943L304.62 233.312Z" fill="#183C5C"/>
<path opacity="0.3" d="M304.62 233.312L313.688 239.429L306.517 250.06L297.449 243.943" fill="#00CFFF"/>
<path d="M338.493 253.433C336.309 253.858 334.195 252.432 333.77 250.248L317.082 164.396C316.658 162.212 318.084 160.097 320.268 159.673C322.452 159.248 324.567 160.674 324.991 162.858L341.679 248.71C342.104 250.894 340.677 253.009 338.493 253.433Z" fill="#183C5C"/>
<path opacity="0.3" d="M338.493 253.433C336.309 253.858 334.195 252.432 333.77 250.248L317.082 164.396C316.658 162.212 318.084 160.097 320.268 159.673C322.452 159.248 324.567 160.674 324.991 162.858L341.679 248.71C342.104 250.894 340.677 253.009 338.493 253.433Z" fill="#00CFFF"/>
<path d="M344.742 233.181C334.789 238.902 321.995 238.816 311.904 231.847C298.212 222.39 294.549 203.545 303.702 189.648C310.447 179.406 322.278 174.534 333.649 176.11C336.207 176.464 338.359 174.212 337.867 171.677C337.561 170.106 336.295 168.894 334.711 168.674C320.664 166.72 306.051 172.672 297.621 185.221C285.913 202.651 290.54 226.454 307.925 238.229C320.442 246.707 336.221 246.751 348.512 239.678C349.899 238.88 350.619 237.282 350.313 235.711C349.821 233.176 346.981 231.894 344.742 233.181Z" fill="#183C5C"/>
<path d="M309.5 260.108L287.029 244.951C284.972 243.563 284.429 240.769 285.817 238.712C287.204 236.654 289.998 236.111 292.055 237.499L314.527 252.656C316.584 254.044 317.127 256.837 315.739 258.895C314.351 260.953 311.558 261.496 309.5 260.108Z" fill="#183C5C"/>
<path d="M316.05 226.316C326.965 233.678 341.781 230.798 349.143 219.884C356.505 208.969 353.625 194.153 342.71 186.791C331.796 179.429 316.98 182.309 309.618 193.224C302.256 204.138 305.136 218.954 316.05 226.316Z" fill="#8BB6EF"/>
<path d="M316.05 226.315C317.684 227.417 319.406 228.288 321.178 228.939C320.962 220.911 314 216.255 313.436 214.313C312.583 211.378 318.086 210.483 316.816 207.386C315.367 203.856 308.659 202.686 305.911 202.35C304.304 211.354 307.98 220.872 316.05 226.315Z" fill="#EFAEB8"/>
<path d="M319.88 184.687C315.85 186.433 312.255 189.312 309.618 193.223C309.515 193.375 309.414 193.529 309.315 193.683C316.493 197.463 321.915 197.31 323.779 194.862C325.357 192.79 321.427 186.861 319.88 184.687Z" fill="#EFAEB8"/>
<path d="M346.885 190.364C343.729 190.098 336.004 189.909 334.866 194.282C334.117 197.157 336.052 198.615 337.302 199.903C339.206 201.866 337.749 203.856 335.877 204.544C334.654 204.994 330.553 207.644 329.593 209.914C326.948 216.17 339.045 222.055 346.077 223.572C347.199 222.469 348.228 221.238 349.143 219.883C355.454 210.525 354.237 198.301 346.885 190.364Z" fill="#EFAEB8"/>
<path d="M342.711 186.79C342.108 186.384 341.493 186.01 340.868 185.666C348.57 192.055 350.319 203.369 344.605 211.84C338.518 220.864 326.269 223.244 317.246 217.158C308.775 211.444 306.158 200.299 310.905 191.49C310.455 192.043 310.025 192.62 309.618 193.223C302.256 204.137 305.136 218.953 316.051 226.315C326.965 233.677 341.781 230.797 349.143 219.883C356.505 208.968 353.625 194.152 342.711 186.79Z" fill="#8388EF"/>
<path d="M310.9 191.499C310.452 192.05 310.022 192.622 309.617 193.222C309.514 193.375 309.414 193.529 309.315 193.683C309.477 193.768 309.637 193.849 309.797 193.931C310.106 193.105 310.472 192.292 310.9 191.499Z" fill="#C38790"/>
<path d="M321.178 228.939C320.962 220.911 314 216.255 313.436 214.312C313.374 214.099 313.346 213.896 313.346 213.702C310.662 210.597 309.061 206.77 308.658 202.8C307.585 202.578 306.617 202.436 305.911 202.35C304.304 211.354 307.98 220.872 316.05 226.315C317.684 227.417 319.406 228.288 321.178 228.939Z" fill="#C38790"/>
<path d="M346.076 223.572C347.199 222.469 348.228 221.238 349.142 219.882C355.454 210.525 354.237 198.301 346.884 190.364C346.341 190.318 345.663 190.275 344.907 190.256C348.973 196.669 349.121 205.142 344.604 211.84C342.246 215.335 338.963 217.833 335.302 219.229C338.714 221.319 342.909 222.889 346.076 223.572Z" fill="#C38790"/>
<path d="M327.035 190.751C326.697 190.523 326.432 190.182 326.302 189.763C325.998 188.784 326.546 187.745 327.524 187.442C330.424 186.543 333.446 187.222 333.573 187.252C334.571 187.482 335.194 188.478 334.963 189.476C334.733 190.473 333.74 191.095 332.744 190.868C332.691 190.856 330.533 190.393 328.622 190.985C328.064 191.158 327.485 191.054 327.035 190.751Z" fill="white"/>
<path d="M343.281 203.291C342.771 202.947 342.637 202.255 342.981 201.746L343.856 200.448C344.2 199.938 344.892 199.803 345.401 200.147C345.911 200.491 346.045 201.183 345.702 201.692L344.826 202.99C344.482 203.5 343.79 203.634 343.281 203.291Z" fill="#A36A9D"/>
<path d="M345.684 209.805C345.174 209.461 345.04 208.769 345.383 208.26L346.259 206.962C346.603 206.452 347.294 206.318 347.804 206.661C348.314 207.005 348.448 207.697 348.104 208.206L347.229 209.505C346.885 210.014 346.193 210.148 345.684 209.805Z" fill="#A36A9D"/>
<path d="M339.221 211.426C338.711 211.082 338.577 210.391 338.92 209.881L339.796 208.583C340.14 208.073 340.832 207.939 341.341 208.283C341.851 208.626 341.985 209.318 341.641 209.828L340.766 211.126C340.422 211.636 339.73 211.77 339.221 211.426Z" fill="#A36A9D"/>
<path d="M275.527 222.747C274.465 224.323 272.326 224.738 270.751 223.676C269.176 222.613 268.76 220.475 269.823 218.9C270.885 217.324 273.024 216.909 274.599 217.971C276.174 219.034 276.59 221.172 275.527 222.747Z" fill="#183C5C"/>
<path d="M352.409 189.93C353.076 190.38 353.981 190.204 354.431 189.537C354.881 188.87 354.705 187.964 354.038 187.514C353.371 187.064 352.465 187.24 352.015 187.907C351.565 188.574 351.741 189.48 352.409 189.93Z" fill="#183C5C"/>
<path d="M364.134 222.721L363.266 226.099C363.228 226.244 363.248 226.391 363.32 226.508L365.005 229.231C365.243 229.616 364.876 230.161 364.43 230.084L361.274 229.542C361.138 229.519 360.994 229.556 360.874 229.645L358.067 231.716C357.671 232.008 357.186 231.682 357.309 231.205L358.178 227.826C358.215 227.682 358.196 227.534 358.123 227.417L356.438 224.694C356.2 224.309 356.568 223.764 357.014 223.841L360.17 224.383C360.305 224.406 360.45 224.369 360.57 224.281L363.377 222.21C363.773 221.917 364.257 222.244 364.134 222.721Z" fill="#253A6A"/>
<path d="M372.666 198.369L371.52 202.94C371.471 203.136 371.5 203.337 371.6 203.496L373.934 207.21C374.264 207.734 373.769 208.469 373.159 208.36L368.841 207.587C368.656 207.553 368.459 207.602 368.296 207.721L364.487 210.496C363.949 210.888 363.284 210.439 363.445 209.793L364.592 205.222C364.641 205.026 364.612 204.826 364.512 204.667L362.177 200.953C361.848 200.428 362.343 199.694 362.953 199.803L367.271 200.576C367.456 200.609 367.653 200.561 367.816 200.442L371.625 197.667C372.163 197.275 372.828 197.724 372.666 198.369Z" fill="#253A6A"/>
</g>
</g>
<g clip-path="url(#clip5)">
<g opacity="0.7">
<path d="M512.314 555.901C512.555 556.497 512.568 557.185 512.298 557.824L501.897 582.326C501.355 583.603 499.88 584.198 498.604 583.656C497.327 583.114 496.731 581.64 497.273 580.363L507.673 555.861C508.215 554.584 509.69 553.988 510.967 554.53C511.605 554.801 512.073 555.305 512.314 555.901Z" fill="#1D3F5E"/>
<path d="M519.414 561.676C519.654 562.272 519.668 562.96 519.397 563.598L511.77 581.565C511.228 582.842 509.754 583.438 508.477 582.896C507.2 582.354 506.604 580.879 507.146 579.602L514.773 561.635C515.315 560.358 516.789 559.762 518.066 560.304C518.704 560.575 519.173 561.08 519.414 561.676Z" fill="#1D3F5E"/>
<path d="M461.223 534.214C461.464 534.811 461.477 535.498 461.207 536.137L451.521 558.954C450.979 560.231 449.504 560.827 448.227 560.285C446.951 559.743 446.355 558.268 446.897 556.991L456.582 534.174C457.124 532.897 458.599 532.301 459.876 532.843C460.514 533.114 460.982 533.618 461.223 534.214Z" fill="#1D3F5E"/>
<path d="M468.323 539.988C468.563 540.584 468.577 541.272 468.306 541.911L460.679 559.878C460.137 561.155 458.663 561.751 457.386 561.209C456.109 560.666 455.513 559.192 456.055 557.915L463.682 539.948C464.224 538.671 465.698 538.075 466.975 538.617C467.614 538.888 468.082 539.392 468.323 539.988Z" fill="#1D3F5E"/>
<path d="M502.786 555.851C503.026 556.447 503.04 557.135 502.769 557.773L494.798 576.552C494.256 577.829 492.781 578.425 491.504 577.883C490.228 577.341 489.632 575.866 490.174 574.589L498.145 555.811C498.687 554.534 500.161 553.938 501.438 554.48C502.076 554.751 502.545 555.255 502.786 555.851Z" fill="#1D3F5E"/>
<path d="M563.391 577.582C563.631 578.178 563.645 578.866 563.374 579.504L553.487 602.796C552.945 604.073 551.471 604.669 550.194 604.127C548.917 603.584 548.321 602.11 548.863 600.833L558.75 577.542C559.292 576.265 560.767 575.669 562.043 576.211C562.682 576.482 563.15 576.986 563.391 577.582Z" fill="#1D3F5E"/>
<path d="M553.862 577.532C554.102 578.128 554.116 578.816 553.845 579.454L546.537 596.671C545.995 597.948 544.52 598.544 543.243 598.002C541.967 597.46 541.371 595.985 541.913 594.708L549.221 577.491C549.763 576.215 551.237 575.619 552.514 576.161C553.153 576.432 553.621 576.936 553.862 577.532Z" fill="#1D3F5E"/>
<path d="M571.491 578.422C570.059 581.795 566.164 583.369 562.792 581.937C549.406 576.255 540.568 580.942 530.335 586.37C520.304 591.689 508.935 597.718 494.223 591.473C479.655 585.29 476.557 573.34 473.823 562.796C470.912 551.567 468.397 541.869 453.452 535.525C450.079 534.094 448.506 530.199 449.938 526.826C451.369 523.453 455.264 521.879 458.637 523.311C479.6 532.209 483.519 547.322 486.667 559.466C489.344 569.789 491.256 575.799 499.408 579.259C507.889 582.859 514.017 580.004 524.117 574.647C535.102 568.821 548.773 561.571 567.976 569.722C571.349 571.154 572.923 575.049 571.491 578.422Z" fill="#CF9FB7"/>
<path d="M467.728 546.67C467.728 546.67 467.728 546.67 467.728 546.671C470.88 551.451 472.298 556.914 473.823 562.797C476.557 573.34 479.656 585.29 494.224 591.474C508.935 597.719 520.304 591.689 530.335 586.37C535.403 583.682 540.129 581.177 545.234 580.021L545.235 580.021C543.829 575.839 542.739 571.546 541.773 567.215C541.772 567.215 541.772 567.215 541.771 567.215C535.088 568.83 529.303 571.897 524.117 574.647C514.02 580.002 507.893 582.857 499.416 579.263C499.413 579.261 499.411 579.26 499.408 579.259C499.402 579.257 499.397 579.254 499.392 579.252C491.253 575.79 489.342 569.782 486.667 559.466C485.105 553.439 483.351 546.68 479.419 540.313C479.418 540.312 479.418 540.31 479.417 540.309C475.504 542.401 471.595 544.498 467.728 546.67Z" fill="#E1B0B8"/>
<path d="M558.522 610.789C557.09 614.162 553.196 615.735 549.823 614.304C528.859 605.406 524.941 590.292 521.792 578.149C519.115 567.825 517.204 561.816 509.051 558.355C500.571 554.755 494.443 557.611 484.342 562.968C473.357 568.793 459.687 576.043 440.484 567.892C437.111 566.46 435.537 562.565 436.969 559.193C438.4 555.82 442.295 554.246 445.668 555.678C459.053 561.359 467.892 556.672 478.125 551.245C488.156 545.926 499.524 539.896 514.236 546.141C528.804 552.325 531.903 564.275 534.636 574.818C537.548 586.048 540.063 595.746 555.007 602.09C558.38 603.521 559.954 607.416 558.522 610.789Z" fill="#2E659F"/>
<path d="M549.009 533.626C546.54 534.349 545.124 536.937 545.847 539.406C546.57 541.875 549.157 543.29 551.626 542.567C554.095 541.844 555.511 539.257 554.788 536.788C554.065 534.319 551.478 532.904 549.009 533.626Z" fill="#CF9FB7"/>
<path d="M477.605 619.457C476.55 619.726 475.912 620.8 476.181 621.856C476.45 622.912 477.524 623.55 478.58 623.281C479.636 623.011 480.274 621.937 480.004 620.882C479.735 619.826 478.661 619.188 477.605 619.457Z" fill="#CF9FB7"/>
<path d="M500.763 621.157L504.296 618.023C504.447 617.889 504.537 617.708 504.544 617.522L504.715 613.189C504.739 612.577 505.564 612.244 506.007 612.667L509.139 615.666C509.274 615.794 509.464 615.862 509.666 615.853L514.384 615.654C515.051 615.625 515.347 616.358 514.848 616.801L511.315 619.935C511.164 620.07 511.074 620.25 511.067 620.436L510.896 624.769C510.872 625.381 510.047 625.715 509.604 625.291L506.472 622.293C506.338 622.164 506.147 622.096 505.945 622.105L501.227 622.305C500.56 622.333 500.264 621.6 500.763 621.157Z" fill="#EFAEB8"/>
<path d="M481.623 523.164L485.156 520.03C485.307 519.895 485.397 519.714 485.405 519.529L485.575 515.196C485.599 514.584 486.425 514.25 486.867 514.674L490 517.672C490.134 517.801 490.324 517.869 490.526 517.86L495.245 517.66C495.912 517.632 496.208 518.365 495.709 518.808L492.175 521.942C492.024 522.076 491.934 522.257 491.927 522.443L491.757 526.776C491.732 527.388 490.907 527.721 490.465 527.298L487.332 524.299C487.198 524.171 487.008 524.103 486.806 524.112L482.087 524.311C481.42 524.34 481.124 523.607 481.623 523.164Z" fill="#EFAEB8"/>
<path d="M514.454 519.208L517.987 516.074C518.138 515.939 518.228 515.759 518.235 515.573L518.406 511.24C518.43 510.628 519.255 510.295 519.698 510.718L522.83 513.717C522.964 513.845 523.155 513.913 523.357 513.904L528.075 513.704C528.742 513.676 529.038 514.409 528.539 514.852L525.006 517.986C524.855 518.121 524.765 518.301 524.758 518.487L524.587 522.82C524.563 523.432 523.738 523.765 523.295 523.342L520.163 520.344C520.029 520.215 519.838 520.147 519.636 520.156L514.918 520.356C514.251 520.384 513.955 519.651 514.454 519.208Z" fill="#EFAEB8"/>
<path d="M451.938 606.651L456.686 602.387C456.889 602.205 457.009 601.957 457.017 601.703L457.208 595.767C457.235 594.928 458.347 594.479 458.95 595.063L463.211 599.201C463.393 599.378 463.651 599.473 463.924 599.463L470.301 599.232C471.202 599.199 471.609 600.206 470.938 600.809L466.191 605.072C465.987 605.255 465.868 605.502 465.86 605.756L465.668 611.692C465.641 612.531 464.529 612.981 463.927 612.396L459.665 608.259C459.483 608.082 459.225 607.987 458.952 607.997L452.576 608.228C451.675 608.26 451.268 607.253 451.938 606.651Z" fill="#EFAEB8"/>
</g>
</g>
<g opacity="0.7" clip-path="url(#clip6)">
<path d="M530.13 373.603L517.074 350.048C514.985 346.281 510.238 344.92 506.47 347.008L502.99 348.937C499.223 351.025 497.861 355.773 499.95 359.54L513.006 383.095C514.056 384.989 514.286 387.239 513.6 389.292C508.192 405.487 506.909 433.165 514.619 447.075C525.7 464.828 540.176 456.798 559.206 446.25C578.237 435.701 593.666 427.154 583.534 408.875C575.824 394.966 551.671 381.387 535.072 377.391C532.966 376.884 531.18 375.497 530.13 373.603Z" fill="#7BA6D3"/>
<path d="M519.038 414.482C518.598 423.656 519.948 431.755 522.264 438.159C528.178 452.837 539.727 445.88 554.496 437.751C568.933 429.805 582.401 422.853 572.165 410.649C567.842 405.495 561.565 399.839 553.552 395.35L519.038 414.482Z" fill="#EFAEB8"/>
<path d="M535.071 377.391C532.966 376.884 531.18 375.497 530.13 373.603L517.074 350.049C514.985 346.281 510.238 344.92 506.471 347.008L502.99 348.937C502.351 349.292 501.784 349.724 501.288 350.213C503.91 349.678 507.181 351.973 508.547 354.437L519.087 373.45C519.934 374.979 521.376 376.099 523.075 376.508C536.474 379.733 555.474 389.588 561.698 400.816C569.877 415.57 557.422 422.47 542.061 430.985C529.407 437.999 519.249 443.63 511.061 437.39C511.92 441.027 513.093 444.321 514.619 447.075C525.7 464.828 540.176 456.798 559.207 446.25C578.237 435.701 593.666 427.154 583.534 408.875C575.824 394.965 551.671 381.387 535.071 377.391Z" fill="#466E97"/>
<path d="M561.593 400.632C561.628 400.693 561.665 400.754 561.699 400.816C569.877 415.57 557.423 422.47 542.061 430.985C534.918 434.944 528.57 438.462 522.923 439.653C529.012 452.333 540.258 445.588 554.496 437.751C568.933 429.805 582.401 422.852 572.165 410.649C569.415 407.369 565.87 403.887 561.593 400.632Z" fill="#D18E98"/>
<path d="M515.653 350.498L501.084 358.574C497.66 360.472 493.345 359.235 491.447 355.811C489.549 352.387 490.787 348.072 494.211 346.174L508.78 338.098C512.204 336.2 516.519 337.437 518.417 340.861C520.315 344.286 519.077 348.6 515.653 350.498Z" fill="#2B4158"/>
<path d="M619.755 412.687C614.284 415.72 607.39 413.743 604.357 408.272L571.702 349.361L591.515 338.379L624.17 397.289C627.203 402.76 625.226 409.654 619.755 412.687Z" fill="#7BA6D3"/>
<path d="M594.219 342.78L573.954 354.013C570.201 356.094 565.47 354.737 563.39 350.984C561.309 347.23 562.665 342.5 566.419 340.419L586.684 329.186C590.438 327.105 595.167 328.462 597.248 332.216C599.329 335.969 597.973 340.699 594.219 342.78Z" fill="#2B4158"/>
<path d="M620.222 412.428L619.731 412.7L584.086 348.397L594.017 342.892L624.429 397.756C627.319 402.97 625.435 409.538 620.222 412.428Z" fill="#466E97"/>
<path d="M596.13 370.066L586.223 375.558C584.793 376.351 582.99 375.834 582.197 374.403C581.404 372.973 581.921 371.17 583.352 370.377L593.258 364.886C594.689 364.093 596.491 364.61 597.284 366.04C598.077 367.471 597.56 369.273 596.13 370.066Z" fill="#95CDE6"/>
<path d="M602.118 380.869L592.211 386.36C590.78 387.153 588.978 386.636 588.185 385.206C587.392 383.775 587.909 381.972 589.339 381.179L599.246 375.688C600.676 374.895 602.479 375.412 603.272 376.843C604.065 378.273 603.548 380.076 602.118 380.869Z" fill="#95CDE6"/>
<path d="M608.105 391.671L598.199 397.163C596.768 397.955 594.966 397.439 594.173 396.008C593.38 394.577 593.897 392.775 595.327 391.982L605.234 386.491C606.664 385.698 608.467 386.215 609.26 387.645C610.053 389.076 609.536 390.878 608.105 391.671Z" fill="#95CDE6"/>
<path d="M557.468 411.311C556.609 411.787 555.528 411.477 555.052 410.619L553.315 407.484C552.839 406.626 553.149 405.544 554.007 405.069C554.865 404.593 555.947 404.903 556.423 405.761L558.16 408.896C558.636 409.754 558.326 410.836 557.468 411.311Z" fill="#B74A96"/>
<path d="M555.341 427.11C554.483 427.586 553.401 427.276 552.925 426.417L551.188 423.283C550.713 422.425 551.022 421.343 551.881 420.867C552.739 420.392 553.821 420.702 554.297 421.56L556.034 424.694C556.51 425.553 556.2 426.634 555.341 427.11Z" fill="#B74A96"/>
<path d="M539.808 426.864C536.872 428.492 533.158 427.427 531.53 424.49C529.903 421.554 530.967 417.84 533.904 416.212C536.841 414.585 540.554 415.649 542.182 418.586C543.81 421.523 542.745 425.236 539.808 426.864ZM535.627 419.321C534.404 419.998 533.961 421.545 534.639 422.767C535.316 423.99 536.863 424.433 538.085 423.756C539.308 423.078 539.751 421.532 539.073 420.309C538.396 419.087 536.85 418.643 535.627 419.321Z" fill="#B74A96"/>
<path d="M522.767 405.598C522.225 405.898 521.586 406.032 520.925 405.94C519.305 405.715 518.174 404.219 518.4 402.598C518.722 400.282 519.179 397.963 519.76 395.704C520.167 394.121 521.782 393.166 523.366 393.574C524.95 393.981 525.904 395.596 525.497 397.18C524.971 399.222 524.557 401.32 524.266 403.414C524.133 404.374 523.554 405.162 522.767 405.598Z" fill="white"/>
<path d="M526.674 391.344C525.891 391.778 524.922 391.854 524.04 391.464C522.544 390.803 521.866 389.054 522.528 387.558C522.673 387.23 522.821 386.913 522.968 386.615C523.692 385.149 525.468 384.547 526.934 385.271C528.401 385.996 529.003 387.771 528.278 389.238C528.162 389.473 528.052 389.712 527.946 389.952C527.674 390.566 527.219 391.042 526.674 391.344Z" fill="white"/>
<path d="M516.333 314.442C517.803 317.095 516.845 320.439 514.192 321.909C511.538 323.38 508.195 322.422 506.725 319.768C505.254 317.115 506.212 313.772 508.866 312.301C511.519 310.83 514.862 311.789 516.333 314.442Z" fill="#EFAEB8"/>
<path d="M577.421 308.155C578.044 309.278 577.638 310.694 576.515 311.317C575.391 311.94 573.975 311.534 573.352 310.41C572.73 309.286 573.135 307.871 574.259 307.248C575.383 306.625 576.799 307.031 577.421 308.155Z" fill="#EFAEB8"/>
<path d="M454.875 337.788L459.051 341.472C459.229 341.63 459.454 341.709 459.672 341.69L464.768 341.267C465.488 341.208 465.996 342.125 465.564 342.704L462.505 346.801C462.374 346.976 462.322 347.209 462.361 347.444L463.273 352.938C463.402 353.714 462.586 354.166 461.996 353.645L457.82 349.961C457.642 349.803 457.417 349.724 457.199 349.742L452.103 350.165C451.383 350.225 450.875 349.308 451.307 348.729L454.366 344.632C454.497 344.456 454.549 344.224 454.51 343.989L453.598 338.495C453.469 337.719 454.285 337.267 454.875 337.788Z" fill="#F7C4DB"/>
<path d="M566.785 275.754L570.961 279.439C571.14 279.597 571.365 279.676 571.583 279.657L576.678 279.234C577.398 279.175 577.907 280.092 577.475 280.671L574.416 284.768C574.285 284.943 574.233 285.176 574.272 285.411L575.183 290.904C575.312 291.681 574.497 292.133 573.907 291.612L569.731 287.928C569.552 287.77 569.327 287.691 569.109 287.709L564.014 288.132C563.294 288.192 562.786 287.274 563.217 286.696L566.277 282.599C566.407 282.423 566.46 282.191 566.421 281.956L565.509 276.462C565.38 275.686 566.196 275.234 566.785 275.754Z" fill="#F7C4DB"/>
<path d="M542.469 311.173L548.141 316.117C548.384 316.328 548.69 316.433 548.989 316.406L555.964 315.777C556.949 315.688 557.635 316.925 557.037 317.714L552.808 323.296C552.626 323.535 552.553 323.85 552.604 324.168L553.79 331.598C553.958 332.647 552.837 333.268 552.036 332.57L546.364 327.627C546.121 327.415 545.815 327.31 545.516 327.337L538.541 327.966C537.556 328.055 536.87 326.818 537.468 326.03L541.697 320.448C541.879 320.209 541.952 319.893 541.901 319.575L540.715 312.146C540.547 311.096 541.667 310.475 542.469 311.173Z" fill="#F7C4DB"/>
</g>
<g opacity="0.7" clip-path="url(#clip7)">
<path d="M151.053 510.658L137.88 515.981C136.868 516.389 136.379 517.541 136.788 518.553L139.819 526.055C140.228 527.067 141.38 527.556 142.391 527.147L155.564 521.825C156.576 521.416 157.065 520.265 156.656 519.253L153.625 511.75C153.216 510.738 152.064 510.25 151.053 510.658Z" fill="#8BB6EF"/>
<path d="M121.223 520.58C109.391 525.36 95.8622 519.488 91.0043 507.464C86.1464 495.44 91.7993 481.818 103.631 477.038L99.2158 468.711C81.2053 475.988 73.0176 497.759 80.9278 517.337C88.8381 536.916 109.851 546.889 127.862 539.612" fill="#D797A1"/>
<path d="M150.139 501.28L118.898 513.903C116.071 515.045 112.854 513.679 111.712 510.853C110.57 508.026 111.936 504.809 114.762 503.667L146.003 491.045C148.83 489.903 152.047 491.269 153.189 494.095C154.331 496.922 152.965 500.138 150.139 501.28Z" fill="#D797A1"/>
<path d="M111.313 540.826L128.982 533.687C130.921 532.903 131.858 530.696 131.075 528.756L121.49 505.034C120.707 503.094 118.499 502.157 116.559 502.941L105.222 507.521C103.713 508.131 102.762 509.637 102.86 511.262L106.113 537.542C106.269 540.126 108.913 541.796 111.313 540.826Z" fill="#3E7CBD"/>
<path d="M116.559 502.941L110.955 505.205C112.382 504.629 113.968 505.225 114.497 506.536L120.976 522.572C121.506 523.883 120.779 525.413 119.352 525.989L106.358 531.24C106.025 531.374 105.688 531.444 105.36 531.458L106.112 537.542C106.269 540.126 108.913 541.795 111.312 540.826L128.981 533.687C130.921 532.903 131.858 530.696 131.074 528.756L121.49 505.034C120.707 503.094 118.499 502.157 116.559 502.941Z" fill="#2E659F"/>
<path d="M167.763 526.947L113.633 548.816C110.293 550.166 106.491 548.552 105.141 545.212C103.791 541.871 105.405 538.069 108.746 536.72L162.875 514.85C166.216 513.5 170.018 515.114 171.368 518.455C172.717 521.795 171.103 525.597 167.763 526.947Z" fill="#355270"/>
<path d="M162.876 514.85L157.275 517.113C159.232 516.322 161.46 517.268 162.25 519.225C163.041 521.182 162.095 523.41 160.138 524.2L109.105 544.819C107.526 545.457 105.771 544.964 104.737 543.721C104.811 544.222 104.943 544.722 105.141 545.212C106.491 548.552 110.293 550.166 113.633 548.816L167.763 526.946C171.104 525.597 172.718 521.795 171.368 518.454C170.018 515.114 166.216 513.5 162.876 514.85Z" fill="#2B4158"/>
<path d="M128.4 486.499L123.791 490.25C121.807 491.865 118.889 491.565 117.275 489.581L106.62 476.488L118.415 466.89L129.069 479.983C130.684 481.967 130.384 484.884 128.4 486.499Z" fill="#355270"/>
<path d="M118.633 466.024L105.052 471.511L81.4133 454.353C78.7773 452.439 79.2757 448.373 82.2957 447.153L86.8073 445.33C88.1323 444.795 89.6396 444.98 90.7961 445.819L118.633 466.024Z" fill="#355270"/>
<path d="M123.625 472.295L110.853 482.688C108.607 484.515 105.305 484.176 103.477 481.93L93.0842 469.159C91.2566 466.913 91.5957 463.61 93.8416 461.783L106.614 451.39C108.859 449.562 112.162 449.901 113.989 452.147L124.383 464.919C126.21 467.165 125.871 470.467 123.625 472.295Z" fill="#3E7CBD"/>
<path d="M124.383 464.919L113.99 452.147C112.162 449.901 108.859 449.562 106.614 451.39L102.308 454.893C103.98 453.533 106.438 453.785 107.798 455.457L115.534 464.963C116.894 466.635 116.642 469.093 114.97 470.453L105.464 478.189C103.792 479.549 101.334 479.297 99.9739 477.625L103.477 481.931C105.305 484.176 108.607 484.516 110.853 482.688L123.625 472.295C125.871 470.467 126.21 467.165 124.383 464.919Z" fill="#2E659F"/>
<path d="M95.1751 471.881C94.6627 472.088 94.0546 471.949 93.6861 471.499C93.2325 470.945 93.3139 470.128 93.8682 469.675L114.281 452.965C114.835 452.512 115.652 452.593 116.106 453.147C116.559 453.701 116.478 454.518 115.924 454.972L95.5109 471.681C95.4069 471.767 95.2937 471.833 95.1751 471.881Z" fill="#EFAEB8"/>
<path d="M103.097 480.894C102.585 481.101 101.977 480.963 101.608 480.512C101.155 479.958 101.236 479.141 101.79 478.688L121.17 462.824C121.724 462.371 122.541 462.452 122.994 463.006C123.448 463.56 123.366 464.377 122.812 464.831L103.433 480.695C103.329 480.78 103.216 480.846 103.097 480.894Z" fill="#EFAEB8"/>
<path d="M112.496 524.428C112.341 524.49 112.177 524.536 112.004 524.562C110.824 524.738 109.724 523.924 109.547 522.744L109.104 519.779C108.928 518.599 109.742 517.499 110.922 517.322C112.102 517.146 113.202 517.96 113.379 519.14L113.822 522.105C113.973 523.113 113.401 524.062 112.496 524.428Z" fill="white"/>
<path d="M111.129 515.285C110.975 515.348 110.81 515.393 110.638 515.419C109.458 515.596 108.357 514.782 108.181 513.602L108.098 513.045C107.921 511.864 108.736 510.765 109.916 510.588C111.096 510.412 112.196 511.226 112.372 512.406L112.455 512.962C112.606 513.97 112.035 514.919 111.129 515.285Z" fill="white"/>
<path d="M152.812 443.972C152.48 441.783 150.435 440.279 148.247 440.612C146.058 440.944 144.554 442.988 144.886 445.177C145.219 447.366 147.263 448.87 149.452 448.537C151.64 448.205 153.145 446.161 152.812 443.972Z" fill="#355270"/>
<path d="M139.743 465.971C140.612 465.62 141.032 464.63 140.681 463.761C140.33 462.892 139.341 462.472 138.471 462.823C137.602 463.174 137.182 464.164 137.533 465.033C137.885 465.902 138.874 466.322 139.743 465.971Z" fill="#355270"/>
<path d="M124.101 437.255L126.798 440.295C126.913 440.425 127.069 440.502 127.229 440.509L130.957 440.655C131.484 440.676 131.77 441.386 131.406 441.767L128.826 444.462C128.716 444.578 128.657 444.741 128.665 444.915L128.837 448.975C128.861 449.549 128.23 449.804 127.849 449.374L125.152 446.334C125.037 446.204 124.881 446.127 124.721 446.12L120.993 445.974C120.467 445.953 120.18 445.243 120.544 444.862L123.124 442.167C123.235 442.051 123.293 441.888 123.286 441.714L123.114 437.654C123.089 437.08 123.72 436.826 124.101 437.255Z" fill="#3E7CBD"/>
<path d="M154.077 461.302L157.745 465.387C157.902 465.561 158.115 465.664 158.334 465.672L163.442 465.836C164.163 465.86 164.55 466.817 164.047 467.335L160.487 471.001C160.335 471.158 160.253 471.38 160.262 471.615L160.461 477.102C160.489 477.877 159.622 478.227 159.104 477.65L155.435 473.565C155.278 473.39 155.066 473.287 154.847 473.28L149.739 473.116C149.017 473.092 148.631 472.135 149.134 471.617L152.694 467.95C152.846 467.793 152.927 467.572 152.919 467.337L152.72 461.85C152.692 461.075 153.559 460.725 154.077 461.302Z" fill="#3E7CBD"/>
</g>
<g clip-path="url(#clip8)">
<g opacity="0.7">
<path d="M463.299 53.4846L446.482 62.999C442.997 64.9707 441.771 69.394 443.742 72.8788L500.121 172.528C502.093 176.013 506.516 177.24 510.001 175.268L526.818 165.754C530.303 163.782 531.529 159.359 529.558 155.874L473.179 56.2245C471.207 52.7398 466.784 51.5129 463.299 53.4846ZM467.907 81.2491C465.586 82.5625 462.64 81.7453 461.326 79.424C460.013 77.1025 460.83 74.1562 463.151 72.8429C465.473 71.5296 468.419 72.3467 469.733 74.668C471.046 76.9893 470.229 79.9358 467.907 81.2491Z" fill="#EFAEB8"/>
<path d="M463.299 53.4846L457.087 56.9989C459.636 55.5568 463.116 56.8867 464.86 59.9691L514.729 148.113C516.474 151.195 515.821 154.863 513.272 156.305L500.972 163.264C498.424 164.706 494.943 163.377 493.199 160.294L500.121 172.528C502.093 176.013 506.516 177.24 510.001 175.268L526.818 165.754C530.303 163.782 531.529 159.359 529.558 155.874L473.179 56.2245C471.207 52.7398 466.784 51.5129 463.299 53.4846Z" fill="#D1919B"/>
<path d="M611.887 111.992L489.697 44.2615C486.855 42.6859 483.734 45.8346 485.334 48.6631L543.99 152.338C544.866 153.886 546.831 154.431 548.378 153.555L611.911 117.61C614.101 116.371 614.087 113.211 611.887 111.992ZM573.849 113.641L550.822 126.669C550.261 126.986 549.549 126.789 549.232 126.228L527.972 88.6517C527.392 87.6267 528.523 86.4854 529.554 87.0564L573.84 111.605C574.638 112.047 574.643 113.192 573.849 113.641Z" fill="#2E659F"/>
<path d="M611.887 111.992L489.698 44.2615C488.368 43.5245 486.978 43.8214 486.038 44.6355C486.562 44.5123 487.191 44.6374 487.845 45.1137L581.917 113.641C583.611 114.875 583.933 117.511 582.488 118.328L540.597 142.029C539.577 142.606 538.118 141.958 537.339 140.581L543.991 152.338C544.867 153.886 546.831 154.431 548.379 153.555L611.911 117.61C614.101 116.371 614.088 113.211 611.887 111.992Z" fill="#1D3F5E"/>
<path d="M477.207 95.2848L461.46 104.194C460.695 104.627 459.725 104.358 459.293 103.594C458.86 102.829 459.13 101.859 459.894 101.427L475.641 92.5171C476.406 92.0847 477.376 92.3539 477.808 93.118C478.24 93.8821 477.972 94.8524 477.207 95.2848Z" fill="#CB7B87"/>
<path d="M477.847 108.625L467.332 114.574C466.567 115.006 465.597 114.737 465.165 113.973C464.732 113.209 465.002 112.239 465.766 111.806L476.281 105.857C477.045 105.425 478.015 105.694 478.448 106.458C478.88 107.222 478.611 108.192 477.847 108.625Z" fill="#CB7B87"/>
<path d="M488.952 116.044L473.205 124.954C472.44 125.386 471.47 125.117 471.038 124.353C470.606 123.589 470.875 122.618 471.639 122.186L487.386 113.276C488.151 112.844 489.121 113.113 489.553 113.877C489.986 114.641 489.717 115.612 488.952 116.044Z" fill="#CB7B87"/>
<path d="M489.592 129.384L479.077 135.333C478.312 135.766 477.342 135.496 476.91 134.732C476.478 133.968 476.747 132.998 477.511 132.565L488.026 126.616C488.79 126.184 489.76 126.453 490.193 127.217C490.625 127.981 490.356 128.951 489.592 129.384Z" fill="#CB7B87"/>
<path d="M500.697 136.803L484.95 145.713C484.185 146.145 483.215 145.876 482.783 145.112C482.351 144.348 482.62 143.378 483.384 142.945L499.132 134.036C499.896 133.603 500.866 133.872 501.298 134.637C501.731 135.401 501.462 136.371 500.697 136.803Z" fill="#CB7B87"/>
<path d="M501.337 150.143L490.822 156.092C490.058 156.525 489.087 156.256 488.655 155.492C488.223 154.727 488.492 153.757 489.256 153.324L499.771 147.375C500.535 146.943 501.505 147.212 501.938 147.976C502.371 148.741 502.102 149.711 501.337 150.143Z" fill="#CB7B87"/>
<path d="M512.443 157.563L496.695 166.472C495.931 166.905 494.96 166.635 494.528 165.871C494.096 165.107 494.365 164.137 495.129 163.704L510.877 154.795C511.641 154.362 512.611 154.632 513.043 155.396C513.476 156.16 513.207 157.13 512.443 157.563Z" fill="#CB7B87"/>
<path d="M515.965 82.3944C514.691 83.1152 513.075 82.6667 512.354 81.3928L509.125 75.6858C508.404 74.4118 508.852 72.7949 510.126 72.0741C511.4 71.3533 513.017 71.8017 513.738 73.0757L516.967 78.7827C517.688 80.0568 517.239 81.6737 515.965 82.3944Z" fill="white"/>
<path d="M508.627 69.4234C507.353 70.1442 505.736 69.6958 505.015 68.4218L504.443 67.4105C503.722 66.1365 504.17 64.5196 505.444 63.7988C506.718 63.078 508.335 63.5264 509.056 64.8004L509.628 65.8117C510.349 67.0856 509.9 68.7027 508.627 69.4234Z" fill="white"/>
<path d="M551.589 28.8988C550.723 26.326 547.935 24.9426 545.362 25.8088C542.789 26.6749 541.406 29.4626 542.272 32.0354C543.138 34.6081 545.926 35.9915 548.498 35.1254C551.071 34.2592 552.455 31.4715 551.589 28.8988Z" fill="#2E659F"/>
<path d="M584.086 74.7195C584.929 73.9386 584.98 72.6219 584.199 71.7786C583.418 70.9353 582.101 70.8847 581.258 71.6656C580.415 72.4465 580.364 73.7632 581.145 74.6065C581.926 75.4498 583.242 75.5004 584.086 74.7195Z" fill="#2E659F"/>
<path d="M508.221 28.0548L511.987 31.3191C512.148 31.4589 512.349 31.5279 512.545 31.5099L517.101 31.0915C517.744 31.0326 518.207 31.8498 517.824 32.3709L515.119 36.0608C515.003 36.2189 514.959 36.4272 514.996 36.6373L515.854 41.546C515.976 42.2394 515.25 42.6502 514.718 42.1891L510.952 38.9249C510.791 38.7851 510.59 38.7161 510.394 38.7341L505.838 39.1524C505.195 39.2116 504.732 38.3942 505.114 37.873L507.82 34.1831C507.935 34.0251 507.98 33.8168 507.943 33.6067L507.085 28.6979C506.963 28.0045 507.69 27.5937 508.221 28.0548Z" fill="#CF9FB7"/>
<path d="M563.167 36.8724L568.28 41.2515C568.499 41.439 568.774 41.5301 569.042 41.5036L575.278 40.8861C576.159 40.7989 576.782 41.9007 576.254 42.6108L572.512 47.6385C572.352 47.8537 572.289 48.1366 572.337 48.4207L573.456 55.0594C573.615 55.9972 572.617 56.5617 571.895 55.9431L566.781 51.564C566.562 51.3764 566.287 51.2853 566.02 51.3118L559.784 51.9292C558.902 52.0164 558.279 50.9146 558.808 50.2045L562.549 45.1768C562.709 44.9616 562.773 44.6787 562.725 44.3948L561.605 37.7561C561.447 36.8182 562.444 36.2537 563.167 36.8724Z" fill="#CF9FB7"/>
</g>
</g>
</g>
<defs>
<clipPath id="clip0">
<rect width="167.788" height="167.788" fill="white" transform="translate(245.537 277.675) rotate(11)"/>
</clipPath>
<clipPath id="clip1">
<rect width="126" height="126" fill="white" transform="translate(46.1245 201.716) rotate(21)"/>
</clipPath>
<clipPath id="clip2">
<rect width="118" height="118" fill="white" transform="translate(231.35 570.582)"/>
</clipPath>
<clipPath id="clip3">
<rect width="106.665" height="106.665" fill="white" transform="translate(52.2427 89.2697) rotate(-24.5)"/>
</clipPath>
<clipPath id="clip4">
<rect width="90.4656" height="90.4656" fill="white" transform="translate(314.831 154.582) rotate(34)"/>
</clipPath>
<clipPath id="clip5">
<rect width="124" height="124" fill="white" transform="translate(468.769 650.004) rotate(-112)"/>
</clipPath>
<clipPath id="clip6">
<rect width="146" height="146" fill="white" transform="translate(446.075 342.03) rotate(-29)"/>
</clipPath>
<clipPath id="clip7">
<rect width="106" height="106" fill="white" transform="translate(52.2427 459.295) rotate(-22)"/>
</clipPath>
<clipPath id="clip8">
<rect width="132.435" height="132.435" fill="white" transform="translate(437.815 65.6322) rotate(-29.5)"/>
</clipPath>
</defs>
</svg>
