<svg width="229" height="370" viewBox="0 0 229 370" fill="none" xmlns="http://www.w3.org/2000/svg">
<g opacity="0.94">
<g clip-path="url(#clip0)">
<g opacity="0.7">
<path d="M202.845 183.118C201.618 179.528 197.713 177.613 194.124 178.841C190.534 180.068 188.619 183.973 189.846 187.562C191.074 191.152 194.978 193.067 198.568 191.839C202.157 190.612 204.072 186.707 202.845 183.118Z" fill="#EF8BBD"/>
<path d="M193.491 179.077C193.21 179.205 192.944 179.351 192.69 179.51C195.1 178.833 197.709 179.994 198.779 182.342C199.962 184.938 198.817 188 196.221 189.183C193.873 190.253 191.142 189.417 189.768 187.326C189.855 187.613 189.96 187.897 190.088 188.178C191.662 191.63 195.736 193.154 199.189 191.58C202.641 190.007 204.164 185.932 202.591 182.48C201.018 179.027 196.943 177.504 193.491 179.077Z" fill="#E068BD"/>
<path d="M205.522 205.478C202.494 206.859 198.703 205.962 194.848 202.954C191.171 200.085 187.82 195.594 185.412 190.309C183.003 185.023 181.812 179.548 182.059 174.891C182.318 170.009 184.128 166.559 187.157 165.179C190.185 163.799 193.976 164.695 197.831 167.703C201.508 170.572 204.859 175.063 207.268 180.349C209.676 185.634 210.867 191.11 210.62 195.766C210.362 200.649 208.551 204.098 205.522 205.478ZM187.964 166.95C185.627 168.014 184.22 170.871 184.002 174.994C183.771 179.344 184.901 184.496 187.182 189.502C189.463 194.508 192.611 198.74 196.045 201.42C199.3 203.96 202.379 204.773 204.715 203.708C207.052 202.643 208.459 199.786 208.677 195.663C208.908 191.314 207.778 186.161 205.497 181.155C203.216 176.15 200.068 171.917 196.634 169.237C193.379 166.697 190.3 165.885 187.964 166.95Z" fill="#1D3F5E"/>
<path d="M193.625 203.309C189.598 205.144 186.02 205.167 183.481 203.356C180.771 201.423 179.652 197.692 180.33 192.849C180.976 188.231 183.19 183.084 186.563 178.355C189.936 173.626 194.082 169.857 198.238 167.743C202.596 165.525 206.489 165.368 209.198 167.301C211.908 169.234 213.027 172.965 212.349 177.808C211.703 182.426 209.49 187.574 206.117 192.303L205.325 191.738L206.117 192.303C202.744 197.031 198.597 200.8 194.441 202.915C194.167 203.054 193.895 203.186 193.625 203.309ZM199.87 169.116C199.622 169.228 199.373 169.348 199.121 169.477C195.239 171.452 191.341 175.006 188.147 179.485C184.952 183.963 182.861 188.805 182.257 193.119C181.685 197.208 182.521 200.281 184.611 201.772C186.558 203.161 189.449 203.074 192.81 201.542C193.057 201.429 193.307 201.309 193.559 201.181C197.441 199.206 201.338 195.651 204.533 191.173C207.727 186.694 209.819 181.852 210.423 177.538C210.995 173.449 210.159 170.376 208.069 168.885C206.122 167.497 203.23 167.584 199.87 169.116Z" fill="#1D3F5E"/>
<path d="M211.691 195.076C211.42 195.199 211.143 195.318 210.858 195.433C206.535 197.183 200.97 197.839 195.189 197.283C189.407 196.726 184.07 195.019 180.16 192.477C176.061 189.812 173.979 186.519 174.298 183.206C174.617 179.893 177.289 177.058 181.822 175.224C186.144 173.475 191.709 172.818 197.491 173.375C203.273 173.931 208.61 175.638 212.519 178.18C216.619 180.845 218.7 184.138 218.381 187.451C218.082 190.556 215.717 193.241 211.691 195.076ZM181.788 177.356C178.426 178.888 176.464 181.012 176.235 183.393C175.989 185.949 177.76 188.596 181.221 190.846C184.873 193.221 189.899 194.819 195.375 195.346C200.851 195.873 206.09 195.264 210.128 193.63C213.955 192.081 216.198 189.82 216.445 187.265C216.691 184.709 214.92 182.062 211.458 179.811C207.807 177.437 202.78 175.839 197.304 175.312C191.828 174.784 186.589 175.394 182.552 177.028C182.29 177.134 182.035 177.243 181.788 177.356Z" fill="#1D3F5E"/>
<path d="M195.323 167.708C196.099 166.535 195.777 164.956 194.604 164.18C193.432 163.404 191.852 163.725 191.076 164.898C190.3 166.071 190.621 167.65 191.794 168.426C192.967 169.202 194.546 168.881 195.323 167.708Z" fill="#2E659F"/>
<path d="M178.558 189.041C179.51 188.006 179.442 186.395 178.407 185.444C177.373 184.492 175.762 184.559 174.811 185.594C173.859 186.629 173.926 188.24 174.961 189.191C175.996 190.143 177.606 190.075 178.558 189.041Z" fill="#2E659F"/>
<path d="M200.014 200.51C201.294 199.927 201.859 198.417 201.275 197.137C200.692 195.858 199.182 195.293 197.903 195.876C196.623 196.459 196.058 197.969 196.642 199.249C197.225 200.529 198.735 201.093 200.014 200.51Z" fill="#2E659F"/>
<path d="M194.465 183.957C194.808 184.708 194.476 185.595 193.725 185.937C192.974 186.28 192.087 185.948 191.745 185.197C191.402 184.445 191.734 183.559 192.485 183.216C193.236 182.874 194.123 183.205 194.465 183.957Z" fill="#E7EFFA"/>
<path d="M178.009 168.082C178.422 168.989 178.022 170.059 177.115 170.472C176.208 170.885 175.138 170.485 174.725 169.578C174.311 168.671 174.711 167.601 175.618 167.188C176.525 166.775 177.595 167.175 178.009 168.082Z" fill="#2E659F"/>
<path d="M201.691 161.775C201.866 162.159 201.696 162.612 201.312 162.787C200.928 162.962 200.475 162.793 200.3 162.409C200.125 162.025 200.294 161.571 200.678 161.396C201.062 161.221 201.516 161.391 201.691 161.775Z" fill="#2E659F"/>
<path d="M169.003 176.026L170.276 177.34C170.33 177.397 170.402 177.428 170.474 177.428L172.153 177.421C172.391 177.42 172.534 177.733 172.377 177.912L171.27 179.175C171.222 179.229 171.199 179.304 171.206 179.382L171.363 181.204C171.385 181.462 171.107 181.589 170.927 181.403L169.654 180.089C169.6 180.033 169.528 180.001 169.456 180.001L167.777 180.008C167.539 180.009 167.396 179.696 167.553 179.517L168.66 178.255C168.708 178.2 168.731 178.126 168.724 178.048L168.567 176.225C168.545 175.968 168.823 175.841 169.003 176.026Z" fill="#EFAEB8"/>
<path d="M204.527 151.782L206.257 153.547C206.331 153.622 206.429 153.664 206.527 153.663L208.828 153.637C209.153 153.633 209.345 154.056 209.129 154.299L207.6 156.018C207.535 156.092 207.503 156.193 207.511 156.298L207.708 158.762C207.736 159.11 207.353 159.285 207.109 159.035L205.379 157.27C205.304 157.195 205.207 157.152 205.108 157.154L202.808 157.18C202.483 157.184 202.29 156.761 202.506 156.518L204.035 154.799C204.101 154.725 204.133 154.624 204.124 154.518L203.927 152.055C203.899 151.707 204.282 151.532 204.527 151.782Z" fill="#EFAEB8"/>
</g>
</g>
<g clip-path="url(#clip1)">
<g opacity="0.7">
<path d="M122.497 325.81C122.609 326.087 122.615 326.406 122.489 326.703L117.661 338.078C117.409 338.671 116.724 338.948 116.132 338.696C115.539 338.444 115.262 337.76 115.514 337.167L120.342 325.791C120.594 325.199 121.279 324.922 121.871 325.174C122.168 325.3 122.385 325.534 122.497 325.81Z" fill="#1D3F5E"/>
<path d="M125.793 328.491C125.905 328.768 125.911 329.087 125.785 329.384L122.245 337.725C121.993 338.318 121.308 338.595 120.716 338.343C120.123 338.091 119.846 337.407 120.098 336.814L123.639 328.472C123.89 327.879 124.575 327.603 125.168 327.854C125.464 327.98 125.681 328.214 125.793 328.491Z" fill="#1D3F5E"/>
<path d="M98.777 315.742C98.8889 316.019 98.895 316.338 98.7693 316.634L94.2726 327.228C94.021 327.82 93.3364 328.097 92.7435 327.845C92.1508 327.594 91.8743 326.909 92.1257 326.316L96.6224 315.723C96.8741 315.13 97.5587 314.853 98.1515 315.105C98.4479 315.231 98.6652 315.465 98.777 315.742Z" fill="#1D3F5E"/>
<path d="M102.073 318.422C102.185 318.699 102.191 319.019 102.065 319.315L98.5244 327.656C98.2727 328.249 97.5881 328.526 96.9953 328.274C96.4026 328.023 96.126 327.338 96.3775 326.745L99.9183 318.404C100.17 317.811 100.855 317.534 101.447 317.786C101.744 317.912 101.961 318.146 102.073 318.422Z" fill="#1D3F5E"/>
<path d="M118.073 325.787C118.185 326.064 118.191 326.383 118.065 326.679L114.365 335.398C114.113 335.991 113.428 336.267 112.836 336.016C112.243 335.764 111.966 335.079 112.218 334.486L115.919 325.768C116.17 325.175 116.855 324.899 117.448 325.15C117.744 325.276 117.961 325.51 118.073 325.787Z" fill="#1D3F5E"/>
<path d="M146.21 335.876C146.322 336.153 146.328 336.472 146.203 336.768L141.612 347.582C141.361 348.175 140.676 348.451 140.083 348.2C139.491 347.948 139.214 347.263 139.466 346.671L144.056 335.857C144.307 335.264 144.992 334.988 145.585 335.239C145.881 335.365 146.098 335.599 146.21 335.876Z" fill="#1D3F5E"/>
<path d="M141.786 335.853C141.898 336.129 141.904 336.449 141.778 336.745L138.385 344.738C138.134 345.331 137.449 345.608 136.856 345.356C136.264 345.105 135.987 344.42 136.239 343.827L139.632 335.834C139.883 335.241 140.568 334.964 141.161 335.216C141.457 335.342 141.674 335.576 141.786 335.853Z" fill="#1D3F5E"/>
<path d="M149.971 336.266C149.306 337.832 147.498 338.562 145.932 337.898C139.718 335.26 135.614 337.436 130.863 339.956C126.206 342.425 120.928 345.225 114.098 342.325C107.334 339.454 105.896 333.906 104.627 329.011C103.275 323.798 102.107 319.295 95.1692 316.35C93.6032 315.686 92.8728 313.877 93.5374 312.311C94.2021 310.745 96.0104 310.015 97.5763 310.68C107.309 314.811 109.128 321.827 110.59 327.465C111.833 332.258 112.72 335.048 116.505 336.655C120.442 338.326 123.287 337 127.977 334.513C133.077 331.809 139.424 328.443 148.339 332.227C149.905 332.892 150.636 334.7 149.971 336.266Z" fill="#CF9FB7"/>
<path d="M101.797 321.524C101.797 321.524 101.797 321.525 101.797 321.525C103.26 323.744 103.919 326.28 104.627 329.012C105.896 333.906 107.335 339.455 114.098 342.325C120.928 345.225 126.206 342.426 130.863 339.956C133.216 338.708 135.41 337.545 137.781 337.008L137.781 337.008C137.129 335.066 136.622 333.074 136.174 331.063C136.173 331.063 136.173 331.063 136.173 331.063C133.07 331.813 130.384 333.236 127.977 334.513C123.289 337 120.444 338.325 116.509 336.656C116.507 336.656 116.506 336.655 116.505 336.655C116.502 336.654 116.5 336.652 116.497 336.651C112.719 335.044 111.832 332.255 110.59 327.465C109.865 324.667 109.05 321.529 107.225 318.573C107.224 318.572 107.224 318.572 107.224 318.571C105.407 319.542 103.592 320.516 101.797 321.524Z" fill="#E1B0B8"/>
<path d="M143.95 351.293C143.285 352.859 141.477 353.589 139.911 352.925C130.178 348.794 128.359 341.777 126.897 336.139C125.654 331.346 124.767 328.556 120.982 326.95C117.045 325.278 114.2 326.604 109.51 329.091C104.41 331.796 98.0636 335.162 89.1482 331.377C87.5823 330.712 86.8517 328.904 87.5164 327.338C88.1811 325.772 89.9893 325.042 91.5553 325.707C97.7696 328.344 101.873 326.168 106.624 323.649C111.281 321.179 116.559 318.38 123.389 321.279C130.153 324.15 131.591 329.698 132.86 334.593C134.212 339.806 135.38 344.309 142.318 347.254C143.884 347.919 144.615 349.727 143.95 351.293Z" fill="#2E659F"/>
<path d="M139.533 315.469C138.387 315.804 137.73 317.006 138.065 318.152C138.401 319.298 139.602 319.955 140.748 319.62C141.895 319.284 142.552 318.083 142.216 316.937C141.881 315.79 140.679 315.133 139.533 315.469Z" fill="#CF9FB7"/>
<path d="M106.383 355.317C105.893 355.442 105.596 355.941 105.721 356.431C105.846 356.921 106.345 357.217 106.835 357.092C107.325 356.967 107.621 356.469 107.497 355.979C107.372 355.488 106.873 355.192 106.383 355.317Z" fill="#CF9FB7"/>
<path d="M117.134 356.106L118.774 354.651C118.845 354.589 118.886 354.505 118.89 354.419L118.969 352.407C118.98 352.123 119.363 351.968 119.569 352.165L121.023 353.557C121.085 353.617 121.174 353.648 121.267 353.644L123.458 353.551C123.768 353.538 123.905 353.879 123.673 354.084L122.033 355.539C121.963 355.602 121.921 355.686 121.918 355.772L121.839 357.783C121.827 358.068 121.444 358.222 121.239 358.026L119.785 356.634C119.722 356.574 119.634 356.543 119.54 356.547L117.349 356.639C117.04 356.652 116.902 356.312 117.134 356.106Z" fill="#EFAEB8"/>
<path d="M108.248 310.611L109.889 309.156C109.959 309.094 110.001 309.01 110.004 308.924L110.083 306.912C110.094 306.628 110.477 306.473 110.683 306.67L112.137 308.062C112.2 308.121 112.288 308.153 112.382 308.149L114.572 308.056C114.882 308.043 115.019 308.383 114.788 308.589L113.147 310.044C113.077 310.106 113.035 310.19 113.032 310.277L112.953 312.288C112.942 312.572 112.559 312.727 112.353 312.531L110.899 311.138C110.836 311.079 110.748 311.047 110.654 311.051L108.464 311.144C108.154 311.157 108.017 310.817 108.248 310.611Z" fill="#EFAEB8"/>
<path d="M123.491 308.775L125.131 307.32C125.201 307.257 125.243 307.173 125.246 307.087L125.325 305.076C125.337 304.791 125.72 304.637 125.925 304.833L127.379 306.225C127.442 306.285 127.53 306.316 127.624 306.312L129.815 306.22C130.124 306.206 130.262 306.547 130.03 306.752L128.39 308.208C128.319 308.27 128.278 308.354 128.274 308.44L128.195 310.452C128.184 310.736 127.801 310.891 127.595 310.694L126.141 309.302C126.079 309.242 125.99 309.211 125.897 309.215L123.706 309.308C123.396 309.321 123.259 308.98 123.491 308.775Z" fill="#EFAEB8"/>
<path d="M94.4665 349.372L96.6706 347.392C96.7649 347.308 96.8205 347.193 96.8243 347.075L96.9131 344.319C96.9257 343.929 97.4421 343.721 97.7216 343.992L99.7001 345.913C99.7847 345.995 99.9045 346.039 100.031 346.034L102.992 345.927C103.41 345.912 103.599 346.38 103.287 346.659L101.083 348.639C100.989 348.723 100.933 348.838 100.93 348.956L100.841 351.712C100.828 352.102 100.312 352.31 100.032 352.039L98.0539 350.118C97.9692 350.036 97.8495 349.992 97.7228 349.997L94.7624 350.104C94.3442 350.119 94.1552 349.651 94.4665 349.372Z" fill="#EFAEB8"/>
</g>
</g>
<g opacity="0.7" clip-path="url(#clip2)">
<path d="M39.0241 117.466L32.9625 106.53C31.993 104.781 29.7889 104.149 28.0397 105.119L26.424 106.014C24.6748 106.984 24.0427 109.188 25.0124 110.937L31.074 121.872C31.5614 122.752 31.6683 123.796 31.3498 124.75C28.8392 132.268 28.2433 145.119 31.8229 151.576C36.9673 159.819 43.6883 156.091 52.5234 151.193C61.3586 146.296 68.5219 142.328 63.8179 133.841C60.2384 127.384 49.0249 121.08 41.3184 119.224C40.3409 118.989 39.5116 118.345 39.0241 117.466Z" fill="#7BA6D3"/>
<path d="M33.8743 136.445C33.6701 140.704 34.2969 144.464 35.3719 147.437C38.1178 154.252 43.4799 151.022 50.3364 147.248C57.0392 143.559 63.2919 140.331 58.5397 134.665C56.5326 132.272 53.6184 129.646 49.8983 127.562L33.8743 136.445Z" fill="#EFAEB8"/>
<path d="M41.3183 119.224C40.3409 118.989 39.5116 118.345 39.0243 117.466L32.9626 106.53C31.993 104.781 29.7891 104.149 28.0398 105.119L26.4241 106.014C26.1274 106.179 25.8638 106.379 25.6337 106.606C26.851 106.358 28.3698 107.423 29.004 108.568L33.897 117.395C34.2905 118.105 34.9599 118.625 35.7488 118.814C41.9695 120.312 50.7908 124.887 53.6803 130.1C57.4774 136.95 51.695 140.153 44.5633 144.106C38.6887 147.363 33.9723 149.977 30.1711 147.08C30.5701 148.768 31.1144 150.298 31.823 151.576C36.9674 159.819 43.6883 156.091 52.5235 151.193C61.3586 146.296 68.522 142.328 63.818 133.841C60.2383 127.384 49.0249 121.079 41.3183 119.224Z" fill="#466E97"/>
<path d="M53.6313 130.014C53.6475 130.043 53.6645 130.071 53.6803 130.1C57.4774 136.95 51.695 140.153 44.5633 144.106C41.2469 145.945 38.2999 147.578 35.678 148.131C38.505 154.018 43.7259 150.886 50.3362 147.248C57.0389 143.558 63.2918 140.331 58.5396 134.665C57.2625 133.142 55.6168 131.526 53.6313 130.014Z" fill="#D18E98"/>
<path d="M32.3031 106.739L25.539 110.488C23.9493 111.369 21.9462 110.795 21.065 109.205C20.1838 107.616 20.7582 105.613 22.3479 104.731L29.112 100.982C30.7017 100.101 32.7048 100.675 33.586 102.265C34.4672 103.855 33.8928 105.858 32.3031 106.739Z" fill="#2B4158"/>
<path d="M80.6341 135.611C78.094 137.019 74.8933 136.102 73.4853 133.561L58.3247 106.211L67.5233 101.112L82.6839 128.463C84.0919 131.003 83.1743 134.203 80.6341 135.611Z" fill="#7BA6D3"/>
<path d="M68.7785 103.156L59.3703 108.371C57.6276 109.337 55.4315 108.707 54.4655 106.964C53.4995 105.222 54.1292 103.025 55.8719 102.059L65.2801 96.8444C67.023 95.8783 69.2189 96.5081 70.1849 98.2509C71.151 99.9936 70.5214 102.19 68.7785 103.156Z" fill="#2B4158"/>
<path d="M80.851 135.491L80.6229 135.617L64.0743 105.763L68.6848 103.208L82.8041 128.679C84.1457 131.1 83.2712 134.149 80.851 135.491Z" fill="#466E97"/>
<path d="M69.6656 115.824L65.0663 118.373C64.4022 118.741 63.5653 118.501 63.1971 117.837C62.829 117.173 63.0689 116.336 63.7331 115.968L68.3324 113.419C68.9966 113.05 69.8335 113.29 70.2016 113.955C70.5698 114.619 70.3298 115.456 69.6656 115.824Z" fill="#95CDE6"/>
<path d="M72.4455 120.839L67.8462 123.388C67.1821 123.757 66.3452 123.517 65.977 122.853C65.6089 122.188 65.8488 121.351 66.513 120.983L71.1123 118.434C71.7765 118.066 72.6134 118.306 72.9815 118.97C73.3497 119.634 73.1097 120.471 72.4455 120.839Z" fill="#95CDE6"/>
<path d="M75.2256 125.854L70.6263 128.404C69.9621 128.772 69.1252 128.532 68.7571 127.868C68.3889 127.204 68.6289 126.367 69.293 125.999L73.8924 123.449C74.5565 123.081 75.3934 123.321 75.7616 123.985C76.1297 124.649 75.8897 125.486 75.2256 125.854Z" fill="#95CDE6"/>
<path d="M51.7161 134.973C51.3177 135.193 50.8156 135.049 50.5946 134.651L49.7881 133.196C49.5672 132.797 49.7111 132.295 50.1096 132.074C50.508 131.853 51.0102 131.997 51.2312 132.396L52.0377 133.851C52.2585 134.25 52.1146 134.752 51.7161 134.973Z" fill="#B74A96"/>
<path d="M50.7288 142.307C50.3303 142.528 49.8281 142.384 49.6072 141.986L48.8006 140.531C48.5798 140.132 48.7237 139.63 49.1222 139.409C49.5207 139.188 50.0229 139.332 50.2438 139.731L51.0504 141.186C51.2713 141.584 51.1273 142.086 50.7288 142.307Z" fill="#B74A96"/>
<path d="M43.5173 142.193C42.154 142.949 40.4299 142.454 39.6742 141.091C38.9185 139.728 39.4129 138.004 40.7762 137.248C42.1396 136.492 43.8637 136.987 44.6194 138.35C45.3751 139.713 44.8808 141.437 43.5173 142.193ZM41.5761 138.691C41.0085 139.006 40.8026 139.724 41.1173 140.291C41.432 140.859 42.1498 141.065 42.7174 140.75C43.2851 140.435 43.4909 139.718 43.1762 139.15C42.8616 138.582 42.1438 138.376 41.5761 138.691Z" fill="#B74A96"/>
<path d="M35.6055 132.32C35.354 132.459 35.0572 132.521 34.7505 132.479C33.9983 132.374 33.4733 131.68 33.578 130.927C33.7275 129.852 33.9401 128.775 34.2098 127.727C34.3988 126.991 35.1482 126.548 35.8839 126.738C36.6193 126.927 37.0622 127.676 36.873 128.412C36.6291 129.36 36.4369 130.334 36.3017 131.306C36.2397 131.752 35.9708 132.118 35.6055 132.32Z" fill="white"/>
<path d="M37.4196 125.703C37.0561 125.904 36.6059 125.939 36.1964 125.758C35.5018 125.451 35.1874 124.639 35.4944 123.945C35.5618 123.792 35.6305 123.645 35.6987 123.507C36.0349 122.826 36.8595 122.547 37.5403 122.883C38.2212 123.219 38.5006 124.044 38.1643 124.725C38.1103 124.834 38.0592 124.945 38.0099 125.056C37.8837 125.341 37.6727 125.562 37.4196 125.703Z" fill="white"/>
<path d="M32.6184 89.9993C33.3012 91.2311 32.8562 92.7833 31.6245 93.4661C30.3926 94.1489 28.8405 93.7038 28.1576 92.472C27.4748 91.2401 27.9198 89.688 29.1517 89.0051C30.3835 88.3223 31.9356 88.7674 32.6184 89.9993Z" fill="#EFAEB8"/>
<path d="M60.9801 87.0801C61.2693 87.6017 61.0808 88.2591 60.5592 88.5482C60.0376 88.8374 59.3802 88.649 59.091 88.1272C58.8018 87.6056 58.9902 86.9482 59.512 86.659C60.0337 86.37 60.691 86.5584 60.9801 87.0801Z" fill="#EFAEB8"/>
<path d="M4.08544 100.838L6.02415 102.548C6.10715 102.622 6.21146 102.658 6.31273 102.65L8.67838 102.453C9.01267 102.426 9.24881 102.852 9.04815 103.12L7.62792 105.022C7.56708 105.104 7.54294 105.212 7.56103 105.321L7.98427 107.871C8.04416 108.232 7.66553 108.442 7.39166 108.2L5.45295 106.489C5.36995 106.416 5.26564 106.38 5.16437 106.388L2.79872 106.584C2.46454 106.612 2.22841 106.186 2.42896 105.917L3.84918 104.015C3.90995 103.934 3.93417 103.826 3.91608 103.717L3.49283 101.166C3.43294 100.806 3.81158 100.596 4.08544 100.838Z" fill="#F7C4DB"/>
<path d="M56.0421 72.0377L57.9808 73.7483C58.0638 73.8215 58.1681 73.8582 58.2694 73.8497L60.635 73.6532C60.9692 73.6256 61.2054 74.0516 61.0048 74.3203L59.5846 76.2224C59.5237 76.3038 59.4996 76.4118 59.5177 76.5209L59.9409 79.0714C60.0008 79.4318 59.6222 79.6417 59.3483 79.3999L57.4096 77.6894C57.3266 77.6161 57.2223 77.5795 57.121 77.5879L54.7554 77.7844C54.4212 77.8121 54.1851 77.3861 54.3856 77.1173L55.8058 75.2153C55.8666 75.1338 55.8908 75.0259 55.8727 74.9168L55.4495 72.3662C55.3897 72.0058 55.7682 71.796 56.0421 72.0377Z" fill="#F7C4DB"/>
<path d="M44.7528 88.4817L47.386 90.7767C47.4988 90.875 47.641 90.9235 47.7797 90.911L51.018 90.6189C51.4755 90.5777 51.794 91.1521 51.5164 91.5182L49.5527 94.1096C49.4686 94.2206 49.4344 94.367 49.458 94.5146L50.0089 97.964C50.0868 98.4513 49.5665 98.7397 49.1945 98.4154L46.5613 96.1203C46.4485 96.0221 46.3062 95.9735 46.1676 95.986L42.9293 96.2781C42.4717 96.3193 42.1534 95.745 42.4309 95.3789L44.3946 92.7874C44.4787 92.6765 44.5129 92.5301 44.4893 92.3824L43.9384 88.9331C43.8605 88.4457 44.3806 88.1574 44.7528 88.4817Z" fill="#F7C4DB"/>
</g>
<g clip-path="url(#clip3)">
<g opacity="0.7">
<path d="M115.06 25.6068L107.252 30.024C105.635 30.9394 105.065 32.9931 105.98 34.6109L132.155 80.8751C133.071 82.493 135.125 83.0626 136.742 82.1472L144.55 77.73C146.168 76.8146 146.737 74.7611 145.822 73.143L119.647 26.8789C118.731 25.261 116.678 24.6914 115.06 25.6068ZM117.2 38.497C116.122 39.1068 114.754 38.7274 114.144 37.6497C113.534 36.5719 113.914 35.204 114.991 34.5943C116.069 33.9845 117.437 34.3639 118.047 35.4416C118.657 36.5193 118.277 37.8873 117.2 38.497Z" fill="#EFAEB8"/>
<path d="M115.06 25.6068L112.176 27.2384C113.359 26.5689 114.975 27.1863 115.785 28.6174L138.938 69.5397C139.747 70.9709 139.444 72.6738 138.261 73.3433L132.551 76.5741C131.367 77.2437 129.752 76.6262 128.942 75.195L132.155 80.8751C133.071 82.493 135.125 83.0626 136.742 82.1472L144.55 77.73C146.168 76.8146 146.737 74.7611 145.822 73.143L119.647 26.8789C118.731 25.261 116.678 24.6914 115.06 25.6068Z" fill="#D1919B"/>
<path d="M184.045 52.7698L127.316 21.3248C125.997 20.5933 124.547 22.0552 125.29 23.3684L152.523 71.5014C152.929 72.22 153.841 72.4729 154.56 72.0664L184.056 55.3782C185.073 54.8031 185.067 53.3361 184.045 52.7698ZM166.385 53.5356L155.695 59.5841C155.434 59.7315 155.104 59.6398 154.956 59.3793L145.086 41.9338C144.817 41.4579 145.342 40.9281 145.82 41.1932L166.381 52.5902C166.751 52.7954 166.754 53.3271 166.385 53.5356Z" fill="#2E659F"/>
<path d="M184.045 52.7698L127.316 21.3248C126.699 20.9827 126.053 21.1205 125.617 21.4985C125.86 21.4413 126.152 21.4994 126.456 21.7205L170.13 53.5354C170.917 54.1085 171.066 55.3321 170.396 55.7115L150.947 66.7151C150.473 66.9831 149.796 66.6822 149.434 66.043L152.523 71.5015C152.929 72.2201 153.841 72.473 154.56 72.0665L184.056 55.3783C185.073 54.8031 185.067 53.3361 184.045 52.7698Z" fill="#1D3F5E"/>
<path d="M121.517 45.0134L114.206 49.1498C113.851 49.3506 113.401 49.2257 113.2 48.8708C112.999 48.516 113.124 48.0656 113.479 47.8649L120.79 43.7284C121.145 43.5276 121.596 43.6527 121.796 44.0074C121.997 44.3621 121.872 44.8126 121.517 45.0134Z" fill="#CB7B87"/>
<path d="M121.814 51.2067L116.932 53.9687C116.578 54.1695 116.127 54.0446 115.926 53.6897C115.726 53.3349 115.851 52.8844 116.205 52.6837L121.087 49.9217C121.442 49.721 121.893 49.846 122.093 50.2007C122.294 50.5555 122.169 51.0059 121.814 51.2067Z" fill="#CB7B87"/>
<path d="M126.97 54.6513L119.659 58.7877C119.304 58.9885 118.854 58.8635 118.653 58.5087C118.452 58.154 118.577 57.7034 118.932 57.5027L126.243 53.3663C126.598 53.1655 127.048 53.2905 127.249 53.6453C127.45 54 127.325 54.4505 126.97 54.6513Z" fill="#CB7B87"/>
<path d="M127.267 60.8445L122.385 63.6066C122.031 63.8074 121.58 63.6823 121.379 63.3276C121.179 62.9729 121.304 62.5223 121.658 62.3216L126.54 59.5596C126.895 59.3589 127.345 59.4839 127.546 59.8386C127.747 60.1934 127.622 60.6438 127.267 60.8445Z" fill="#CB7B87"/>
<path d="M132.423 64.2891L125.112 68.4256C124.757 68.6263 124.306 68.5013 124.106 68.1466C123.905 67.7918 124.03 67.3413 124.385 67.1406L131.696 63.0042C132.051 62.8034 132.501 62.9284 132.702 63.2831C132.903 63.6379 132.778 64.0884 132.423 64.2891Z" fill="#CB7B87"/>
<path d="M132.72 70.4824L127.838 73.2445C127.483 73.4452 127.033 73.3202 126.832 72.9655C126.632 72.6106 126.756 72.1601 127.111 71.9594L131.993 69.1974C132.348 68.9966 132.798 69.1216 132.999 69.4764C133.2 69.8313 133.075 70.2816 132.72 70.4824Z" fill="#CB7B87"/>
<path d="M137.876 73.927L130.565 78.0635C130.21 78.2642 129.759 78.1392 129.559 77.7845C129.358 77.4296 129.483 76.9792 129.838 76.7785L137.149 72.642C137.504 72.4413 137.954 72.5663 138.155 72.921C138.355 73.2758 138.231 73.7262 137.876 73.927Z" fill="#CB7B87"/>
<path d="M139.511 39.0287C138.92 39.3634 138.169 39.1552 137.835 38.5637L136.336 35.9141C136.001 35.3227 136.209 34.572 136.801 34.2373C137.392 33.9027 138.143 34.1109 138.477 34.7024L139.977 37.3519C140.311 37.9435 140.103 38.6942 139.511 39.0287Z" fill="white"/>
<path d="M136.104 33.0067C135.513 33.3414 134.762 33.1332 134.428 32.5417L134.162 32.0722C133.827 31.4807 134.036 30.73 134.627 30.3954C135.219 30.0607 135.969 30.2689 136.304 30.8604L136.569 31.3299C136.904 31.9213 136.696 32.6721 136.104 33.0067Z" fill="white"/>
<path d="M156.05 14.1924C155.648 12.9979 154.354 12.3557 153.16 12.7578C151.965 13.1599 151.323 14.4542 151.725 15.6486C152.127 16.843 153.421 17.4853 154.616 17.0832C155.81 16.6811 156.453 15.3868 156.05 14.1924Z" fill="#2E659F"/>
<path d="M171.138 35.4655C171.529 35.103 171.553 34.4917 171.19 34.1001C170.828 33.7086 170.216 33.6851 169.825 34.0477C169.433 34.4102 169.41 35.0215 169.772 35.4131C170.135 35.8046 170.746 35.8281 171.138 35.4655Z" fill="#2E659F"/>
<path d="M135.916 13.8005L137.664 15.3161C137.739 15.381 137.833 15.413 137.923 15.4046L140.039 15.2104C140.337 15.1831 140.552 15.5625 140.375 15.8044L139.119 17.5175C139.065 17.5909 139.044 17.6876 139.061 17.7851L139.46 20.0641C139.516 20.386 139.179 20.5767 138.932 20.3627L137.184 18.8472C137.109 18.7823 137.016 18.7503 136.925 18.7586L134.81 18.9528C134.511 18.9803 134.296 18.6008 134.474 18.3588L135.73 16.6457C135.784 16.5724 135.804 16.4757 135.787 16.3781L135.389 14.0991C135.332 13.7772 135.669 13.5865 135.916 13.8005Z" fill="#CF9FB7"/>
<path d="M161.426 17.8943L163.8 19.9274C163.901 20.0144 164.029 20.0567 164.153 20.0444L167.048 19.7577C167.458 19.7173 167.747 20.2288 167.501 20.5585L165.765 22.8927C165.69 22.9926 165.661 23.1239 165.683 23.2558L166.203 26.3379C166.276 26.7733 165.813 27.0354 165.478 26.7482L163.104 24.7151C163.002 24.6281 162.874 24.5858 162.75 24.598L159.855 24.8847C159.446 24.9252 159.156 24.4137 159.402 24.084L161.139 21.7498C161.213 21.6499 161.243 21.5185 161.22 21.3867L160.7 18.3046C160.627 17.8691 161.09 17.6071 161.426 17.8943Z" fill="#CF9FB7"/>
</g>
</g>
</g>
<defs>
<clipPath id="clip0">
<rect width="49.5212" height="49.5212" fill="white" transform="translate(162.811 170.522) rotate(-24.5)"/>
</clipPath>
<clipPath id="clip1">
<rect width="57.5693" height="57.5693" fill="white" transform="translate(102.28 369.499) rotate(-112)"/>
</clipPath>
<clipPath id="clip2">
<rect width="67.7833" height="67.7833" fill="white" transform="translate(0 102.807) rotate(-29)"/>
</clipPath>
<clipPath id="clip3">
<rect width="61.4854" height="61.4854" fill="white" transform="translate(103.229 31.2466) rotate(-29.5)"/>
</clipPath>
</defs>
</svg>
