<svg width="142" height="442" viewBox="0 0 142 442" fill="none" xmlns="http://www.w3.org/2000/svg">
<g opacity="0.7" clip-path="url(#clip0)">
<path d="M50.8786 230.928C50.9745 232.927 52.8553 233.649 54.2641 232.227L64.7851 221.613L77.3024 208.985C77.9562 208.326 78.3315 207.348 78.287 206.42L77.4345 188.66L76.7181 173.733C76.6222 171.734 74.7414 171.012 73.3327 172.433L62.8117 183.047L50.2944 195.675C49.6406 196.335 49.2652 197.312 49.3098 198.24L50.1622 216L50.8786 230.928Z" fill="#3471B1"/>
<path d="M38.5749 212.027L56.0667 218.742C58.3768 219.628 63.1523 212.785 66.7331 203.457C70.314 194.128 71.3441 185.847 69.0341 184.961L51.5423 178.246" fill="#3471B1"/>
<path d="M40.8758 193.531C37.2949 202.859 36.2647 211.14 38.5747 212.027C40.8847 212.914 45.6601 206.071 49.2409 196.742C52.8218 187.414 53.852 179.133 51.542 178.246C49.232 177.359 44.4566 184.203 40.8758 193.531Z" fill="#365474"/>
<path d="M66.7331 203.457C66.9652 202.852 67.1864 202.252 67.3967 201.658C64.627 208.289 61.2179 212.949 59.5048 212.291L45.5195 206.923C43.6725 206.214 44.4962 199.593 47.3592 192.135C50.2222 184.676 54.0403 179.205 55.8873 179.914L51.5423 178.246C49.2322 177.359 44.4567 184.203 40.8759 193.531C37.2951 202.859 36.2648 211.14 38.5749 212.027L56.0669 218.742C58.3768 219.628 63.1523 212.785 66.7331 203.457V203.457Z" fill="#295583"/>
<path d="M44.8059 206.073C44.0119 203.937 44.9833 198.325 47.3593 192.135C49.0328 187.775 51.0325 184.095 52.7742 181.931C52.7919 179.909 52.3949 178.573 51.5423 178.246C49.2323 177.359 44.4569 184.203 40.876 193.531C37.2952 202.859 36.2651 211.14 38.575 212.027C39.9999 212.574 42.3634 210.178 44.8059 206.073Z" fill="#2B4158"/>
<path d="M63.186 182.716C63.452 182.023 64.2295 181.676 64.9225 181.943L69.5157 183.706C71.3423 184.407 71.9673 186.861 71.4263 191.209C70.9787 194.807 69.7575 199.328 67.9878 203.938C66.218 208.549 64.1005 212.725 62.0255 215.699C59.5182 219.292 57.4115 220.698 55.585 219.997C54.892 219.73 54.5458 218.953 54.8118 218.26C55.0735 217.578 55.8299 217.232 56.514 217.474C56.8335 217.45 58.1114 216.726 60.1411 213.692C61.9924 210.924 63.8878 207.118 65.4782 202.975C67.0686 198.832 68.2068 194.735 68.683 191.44C69.2046 187.831 68.7404 186.437 68.5191 186.203L63.9591 184.452C63.2661 184.186 62.92 183.409 63.186 182.716V182.716Z" fill="#1D3F5E"/>
<path d="M41.7869 222.057C42.053 221.364 42.8304 221.018 43.5235 221.284L58.1417 226.895C58.8347 227.161 59.1808 227.939 58.9148 228.632C58.6488 229.325 57.8713 229.671 57.1783 229.405L42.5601 223.793C41.8671 223.527 41.521 222.75 41.7869 222.057Z" fill="#1D3F5E"/>
<path d="M35.2477 219.547C35.8187 218.059 37.4876 217.316 38.9751 217.887L43.7343 219.714C44.275 219.922 44.5451 220.528 44.3375 221.069L43.0214 224.498C42.8138 225.038 42.2071 225.309 41.6664 225.101L36.9072 223.274C35.4198 222.703 34.6767 221.034 35.2477 219.547V219.547Z" fill="#CD8893"/>
<path d="M52.0109 204.773C52.1705 204.357 52.637 204.149 53.0527 204.309L54.6548 204.924C55.0707 205.084 55.2783 205.55 55.1187 205.966C54.9591 206.382 54.4926 206.589 54.0768 206.43L52.4747 205.815C52.059 205.655 51.8512 205.189 52.0109 204.773Z" fill="#1D3F5E"/>
<path d="M52.7208 209.085C52.8804 208.669 53.347 208.461 53.7627 208.621L55.3648 209.236C55.7805 209.395 55.9883 209.862 55.8287 210.278C55.6691 210.693 55.2025 210.901 54.7868 210.741L53.1847 210.126C52.7688 209.967 52.5612 209.5 52.7208 209.085Z" fill="#1D3F5E"/>
<path d="M46.4611 209.674C46.6206 209.258 47.0872 209.05 47.5029 209.21L49.105 209.825C49.5208 209.984 49.7285 210.451 49.5689 210.867C49.4093 211.282 48.9428 211.49 48.527 211.33L46.9249 210.715C46.5092 210.556 46.3015 210.089 46.4611 209.674Z" fill="#1D3F5E"/>
<path d="M57.6486 186.297C57.9146 185.604 58.6921 185.258 59.3851 185.524L61.4356 186.311C62.1286 186.577 62.4748 187.355 62.2087 188.048C61.9427 188.741 61.1652 189.087 60.4722 188.821L58.4217 188.034C57.7287 187.768 57.3826 186.99 57.6486 186.297Z" fill="white"/>
<path d="M63.5113 188.548C63.7773 187.855 64.5548 187.509 65.2478 187.775L66.0113 188.068C66.7043 188.334 67.0505 189.111 66.7844 189.804C66.5184 190.497 65.7409 190.843 65.0479 190.577L64.2844 190.284C63.5913 190.018 63.2453 189.241 63.5113 188.548Z" fill="white"/>
<path d="M77.6179 224.173C76.3325 223.679 75.6906 222.237 76.184 220.952C76.6774 219.667 78.1193 219.025 79.4046 219.518C80.69 220.011 81.332 221.453 80.8386 222.739C80.3452 224.024 78.9032 224.666 77.6179 224.173V224.173Z" fill="#3471B1"/>
<path d="M99.1292 191.795C99.3663 192.328 99.9903 192.567 100.523 192.33C101.055 192.093 101.295 191.469 101.058 190.937C100.821 190.404 100.197 190.165 99.6642 190.402C99.1316 190.639 98.8921 191.263 99.1292 191.795Z" fill="#3471B1"/>
<path d="M98.954 210.024L96.4274 209.961C96.3192 209.959 96.2181 209.997 96.1475 210.067L94.4994 211.7C94.2666 211.931 93.822 211.76 93.8034 211.433L93.6717 209.116C93.6661 209.017 93.6164 208.921 93.5342 208.851L91.6146 207.207C91.3434 206.974 91.495 206.579 91.852 206.588L94.3786 206.651C94.4867 206.654 94.588 206.616 94.6585 206.546L96.3065 204.912C96.5394 204.681 96.984 204.852 97.0025 205.179L97.1342 207.496C97.1399 207.595 97.1896 207.691 97.2718 207.762L99.1913 209.406C99.4626 209.638 99.311 210.033 98.954 210.024V210.024Z" fill="#EFAEB8"/>
<path d="M86.221 238.213L82.807 238.149C82.6609 238.146 82.5238 238.199 82.4279 238.296L80.1864 240.549C79.8697 240.867 79.2703 240.637 79.2481 240.189L79.0903 237.014C79.0835 236.878 79.0172 236.747 78.9068 236.651L76.3268 234.415C75.9624 234.099 76.1707 233.556 76.653 233.565L80.0669 233.629C80.2131 233.632 80.3502 233.579 80.4461 233.482L82.6875 231.229C83.0042 230.91 83.6036 231.14 83.6259 231.589L83.7836 234.763C83.7904 234.899 83.8567 235.031 83.9671 235.126L86.5471 237.363C86.9116 237.679 86.7033 238.222 86.221 238.213V238.213Z" fill="#EFAEB8"/>
<path d="M94.6795 188.646L91.2656 188.582C91.1194 188.58 90.9823 188.633 90.8864 188.729L88.645 190.983C88.3283 191.301 87.729 191.071 87.7067 190.623L87.5489 187.448C87.5421 187.312 87.4758 187.181 87.3654 187.085L84.7855 184.848C84.421 184.532 84.6293 183.99 85.1116 183.999L88.5256 184.063C88.6717 184.066 88.8088 184.013 88.9047 183.916L91.146 181.662C91.4627 181.344 92.0621 181.574 92.0844 182.022L92.2421 185.197C92.2489 185.333 92.3152 185.464 92.4256 185.56L95.0056 187.797C95.3701 188.113 95.1617 188.656 94.6795 188.646V188.646Z" fill="#EFAEB8"/>
</g>
<g clip-path="url(#clip1)">
<g opacity="0.7">
<path d="M104.449 45.4605C108.463 44.0884 110.604 39.7227 109.232 35.7094C107.859 31.6961 103.494 29.555 99.4805 30.9271C95.4673 32.2992 93.3262 36.6649 94.6983 40.6782C96.0703 44.6914 100.436 46.8325 104.449 45.4605Z" fill="#EF8BBD"/>
<path d="M108.967 35.0018C108.824 34.6885 108.661 34.3909 108.483 34.1067C109.24 36.8007 107.942 39.718 105.317 40.9145C102.415 42.2368 98.9908 40.9566 97.6684 38.055C96.4719 35.4295 97.4065 32.3764 99.7446 30.8395C99.4239 30.9374 99.1057 31.0549 98.7924 31.1977C94.9322 32.9569 93.229 37.5123 94.9882 41.3724C96.7474 45.2326 101.303 46.9358 105.163 45.1766C109.023 43.4174 110.726 38.862 108.967 35.0018V35.0018Z" fill="#E068BD"/>
<path d="M79.449 48.4538C77.9058 45.0676 78.9082 40.829 82.2715 36.519C85.4789 32.4087 90.4999 28.662 96.4094 25.9689C102.319 23.2757 108.441 21.9444 113.647 22.2203C119.106 22.5097 122.963 24.5339 124.506 27.9201C126.049 31.3064 125.047 35.5449 121.684 39.8549C118.476 43.9651 113.455 47.7119 107.546 50.4051C101.636 53.0982 95.5143 54.4294 90.308 54.1536C84.8488 53.8644 80.9922 51.8401 79.449 48.4538V48.4538ZM122.527 28.8223C121.336 26.2102 118.142 24.637 113.532 24.3928C108.669 24.1351 102.908 25.3978 97.3116 27.9484C91.7148 30.499 86.9825 34.0182 83.9866 37.8574C81.1467 41.4968 80.2382 44.9396 81.4286 47.5517C82.619 50.1638 85.8133 51.7369 90.4232 51.9811C95.2862 52.2388 101.047 50.976 106.643 48.4254C112.24 45.8748 116.973 42.3558 119.968 38.5166C122.808 34.8772 123.717 31.4345 122.527 28.8223V28.8223Z" fill="#1D3F5E"/>
<path d="M81.8753 35.1515C79.8236 30.6495 79.7971 26.6492 81.8222 23.8101C83.9832 20.7805 88.155 19.5293 93.5693 20.287C98.7325 21.0095 104.488 23.4845 109.775 27.2557C115.062 31.027 119.276 35.663 121.64 40.3096C124.12 45.1816 124.295 49.5342 122.133 52.5638C119.972 55.5933 115.801 56.8445 110.386 56.0868C105.223 55.3642 99.4678 52.8893 94.1806 49.1181L94.8123 48.2325L94.1806 49.1181C88.8935 45.3468 84.6797 40.7109 82.3155 36.0641C82.1597 35.7579 82.0129 35.4535 81.8753 35.1515V35.1515ZM120.105 42.1335C119.979 41.857 119.845 41.5782 119.701 41.2962C117.493 36.9559 113.519 32.5985 108.512 29.0269C103.504 25.4551 98.0906 23.1165 93.2677 22.4416C88.696 21.8017 85.2602 22.7365 83.5932 25.0734C82.0405 27.2502 82.1381 30.4826 83.8504 34.2404C83.9764 34.5169 84.1108 34.7957 84.2545 35.0777C86.4628 39.418 90.4366 43.7753 95.4439 47.3471C100.451 50.9188 105.865 53.2575 110.688 53.9324C115.259 54.5723 118.695 53.6376 120.362 51.3006C121.915 49.1237 121.818 45.8912 120.105 42.1335V42.1335Z" fill="#1D3F5E"/>
<path d="M91.0803 55.35C90.9425 55.0477 90.8094 54.7378 90.6803 54.4189C88.7245 49.5862 87.9902 43.3644 88.6126 36.9C89.235 30.4356 91.143 24.4683 93.9851 20.0976C96.9653 15.5142 100.647 13.1865 104.351 13.5433C108.055 13.8999 111.225 16.887 113.275 21.9551C115.231 26.7878 115.966 33.0096 115.343 39.4739C114.721 45.9384 112.813 51.9056 109.971 56.2764C106.99 60.8598 103.309 63.1875 99.6049 62.8308C96.1338 62.4965 93.1318 59.8515 91.0803 55.35V55.35ZM110.892 21.917C109.179 18.1589 106.804 15.9651 104.142 15.7088C101.285 15.4336 98.3253 17.4135 95.8088 21.2836C93.1541 25.3663 91.3674 30.9864 90.7779 37.1086C90.1885 43.2309 90.8699 49.0887 92.6968 53.6028C94.4289 57.8823 96.9559 60.3901 99.8133 60.6653C102.671 60.9404 105.63 58.9606 108.147 55.0904C110.801 51.0078 112.588 45.3877 113.178 39.2653C113.767 33.143 113.086 27.2853 111.259 22.7712C111.14 22.4781 111.018 22.1933 110.892 21.917V21.917Z" fill="#1D3F5E"/>
<path d="M121.678 37.05C122.989 37.9176 124.756 37.5581 125.623 36.247C126.491 34.9358 126.131 33.1696 124.82 32.3019C123.509 31.4343 121.743 31.7938 120.875 33.1049C120.008 34.4161 120.367 36.1823 121.678 37.05Z" fill="#2E659F"/>
<path d="M97.8273 18.3063C98.9843 19.3703 100.785 19.295 101.849 18.1379C102.913 16.9809 102.837 15.1804 101.68 14.1164C100.523 13.0524 98.7229 13.1278 97.6589 14.2848C96.5948 15.4418 96.6702 17.2423 97.8273 18.3063Z" fill="#2E659F"/>
<path d="M85.004 42.2958C85.656 43.7265 87.3443 44.3577 88.775 43.7057C90.2057 43.0538 90.8369 41.3654 90.1849 39.9348C89.5329 38.5041 87.8446 37.8728 86.4139 38.5248C84.9833 39.1768 84.352 40.8652 85.004 42.2958Z" fill="#2E659F"/>
<path d="M103.512 36.0917C102.672 36.4745 101.68 36.1039 101.298 35.2638C100.915 34.4237 101.285 33.4324 102.125 33.0495C102.965 32.6667 103.957 33.0374 104.34 33.8774C104.722 34.7174 104.352 35.7088 103.512 36.0917Z" fill="#E7EFFA"/>
<path d="M121.261 17.692C120.247 18.154 119.05 17.7067 118.588 16.6928C118.126 15.679 118.574 14.4825 119.588 14.0204C120.601 13.5583 121.798 14.0057 122.26 15.0196C122.722 16.0334 122.275 17.23 121.261 17.692Z" fill="#2E659F"/>
<path d="M128.312 44.1699C127.883 44.3656 127.376 44.1762 127.181 43.7469C126.985 43.3175 127.174 42.8108 127.604 42.6151C128.033 42.4194 128.54 42.6088 128.736 43.0382C128.931 43.4675 128.742 43.9743 128.312 44.1699Z" fill="#2E659F"/>
<path d="M112.379 7.62362L110.909 9.04647C110.846 9.10736 110.811 9.18733 110.811 9.26772L110.819 11.1456C110.821 11.4109 110.47 11.5708 110.27 11.3958L108.858 10.1577C108.798 10.1047 108.714 10.079 108.627 10.0865L106.589 10.262C106.301 10.2868 106.159 9.97522 106.367 9.77423L107.836 8.35137C107.899 8.29049 107.935 8.21052 107.934 8.13012L107.926 6.25223C107.925 5.9869 108.276 5.82708 108.475 6.002L109.887 7.24013C109.948 7.29313 110.031 7.31888 110.119 7.31134L112.156 7.13583C112.444 7.11103 112.586 7.42257 112.379 7.62362V7.62362Z" fill="#EFAEB8"/>
<path d="M139.486 47.3411L137.512 49.2753C137.428 49.3582 137.381 49.4673 137.382 49.5775L137.411 52.1496C137.415 52.513 136.943 52.7285 136.671 52.4869L134.749 50.7774C134.667 50.7042 134.553 50.668 134.436 50.6774L131.681 50.8979C131.292 50.9291 131.097 50.5009 131.375 50.2276L133.349 48.2933C133.434 48.2105 133.481 48.1013 133.479 47.9912L133.45 45.419C133.446 45.0556 133.919 44.8401 134.19 45.0817L136.112 46.7913C136.195 46.8645 136.308 46.9006 136.426 46.8912L139.18 46.6707C139.569 46.6396 139.765 47.0678 139.486 47.3411V47.3411Z" fill="#EFAEB8"/>
</g>
</g>
<g clip-path="url(#clip2)">
<g opacity="0.7">
<path d="M92.6455 291.095L89.4707 295.802L83.9524 292.079L87.1272 287.373L92.6455 291.095Z" fill="#183C5C"/>
<path opacity="0.3" d="M92.6455 291.095L89.4707 295.802L83.9524 292.079L87.1272 287.373" fill="#00CFFF"/>
<path d="M82.2008 308.677C81.9804 307.544 82.7208 306.446 83.8545 306.226L128.418 297.563C129.552 297.343 130.65 298.083 130.87 299.217C131.09 300.351 130.35 301.448 129.216 301.669L84.6525 310.331C83.5188 310.551 82.4211 309.811 82.2008 308.677Z" fill="#183C5C"/>
<path opacity="0.3" d="M82.2008 308.677C81.9804 307.544 82.7208 306.446 83.8545 306.226L128.418 297.563C129.552 297.343 130.65 298.083 130.87 299.217C131.09 300.351 130.35 301.448 129.216 301.669L84.6525 310.331C83.5188 310.551 82.4211 309.811 82.2008 308.677Z" fill="#00CFFF"/>
<path d="M92.7136 311.921C89.7442 306.755 89.7885 300.114 93.4063 294.876C98.3151 287.768 108.097 285.867 115.311 290.618C120.627 294.12 123.156 300.261 122.338 306.163C122.154 307.491 123.323 308.608 124.639 308.352C125.454 308.194 126.084 307.537 126.198 306.714C127.212 299.423 124.123 291.838 117.608 287.462C108.561 281.385 96.2055 283.786 90.0934 292.811C85.6928 299.308 85.6698 307.498 89.3413 313.878C89.7555 314.598 90.5849 314.972 91.4002 314.813C92.7162 314.558 93.3817 313.084 92.7136 311.921V311.921Z" fill="#183C5C"/>
<path d="M78.7367 293.628L86.6044 281.964C87.3248 280.895 88.7748 280.614 89.8429 281.334C90.911 282.054 91.1928 283.504 90.4724 284.573L82.6047 296.237C81.8842 297.305 80.4343 297.587 79.3662 296.866C78.2981 296.146 78.0163 294.696 78.7367 293.628Z" fill="#183C5C"/>
<path d="M96.2761 297.028C92.4547 302.693 93.9496 310.384 99.6151 314.205C105.281 318.027 112.971 316.532 116.793 310.866C120.614 305.201 119.119 297.51 113.454 293.689C107.788 289.867 100.097 291.362 96.2761 297.028Z" fill="#8BB6EF"/>
<path d="M96.2777 297.027C95.7055 297.876 95.2534 298.77 94.9158 299.689C99.0826 299.577 101.5 295.963 102.508 295.67C104.031 295.228 104.496 298.084 106.103 297.425C107.936 296.673 108.543 293.191 108.717 291.764C104.044 290.93 99.1032 292.838 96.2777 297.027V297.027Z" fill="#EFAEB8"/>
<path d="M117.886 299.015C116.98 296.924 115.485 295.058 113.455 293.688C113.376 293.635 113.296 293.583 113.216 293.532C111.254 297.257 111.334 300.072 112.605 301.039C113.68 301.859 116.758 299.818 117.886 299.015V299.015Z" fill="#EFAEB8"/>
<path d="M114.939 313.033C115.077 311.395 115.175 307.385 112.906 306.794C111.413 306.406 110.656 307.41 109.988 308.059C108.969 309.047 107.936 308.291 107.579 307.319C107.345 306.684 105.969 304.555 104.791 304.057C101.544 302.684 98.4889 308.964 97.7015 312.614C98.2743 313.196 98.9132 313.73 99.6167 314.205C104.474 317.481 110.819 316.85 114.939 313.033V313.033Z" fill="#EFAEB8"/>
<path d="M116.794 310.867C117.005 310.554 117.198 310.235 117.377 309.911C114.061 313.908 108.188 314.816 103.791 311.85C99.1069 308.691 97.871 302.333 101.03 297.649C103.996 293.251 109.781 291.893 114.354 294.357C114.067 294.124 113.767 293.9 113.455 293.689C107.789 289.868 100.098 291.363 96.2771 297.028C92.4557 302.694 93.9506 310.384 99.616 314.206C105.281 318.027 112.972 316.532 116.794 310.867V310.867Z" fill="#8388EF"/>
<path d="M114.35 294.354C114.064 294.122 113.766 293.899 113.455 293.688C113.376 293.635 113.296 293.583 113.216 293.532C113.171 293.616 113.13 293.699 113.087 293.782C113.516 293.942 113.938 294.132 114.35 294.354V294.354Z" fill="#C38790"/>
<path d="M94.9154 299.689C99.0822 299.577 101.499 295.963 102.508 295.67C102.618 295.638 102.724 295.624 102.824 295.624C104.436 294.23 106.423 293.4 108.483 293.19C108.599 292.634 108.672 292.131 108.717 291.764C104.043 290.93 99.1028 292.838 96.2773 297.027C95.7051 297.876 95.253 298.77 94.9154 299.689Z" fill="#C38790"/>
<path d="M97.7011 312.614C98.2738 313.196 98.9128 313.731 99.6163 314.205C104.473 317.481 110.819 316.85 114.939 313.033C114.962 312.751 114.985 312.399 114.994 312.007C111.666 314.117 107.268 314.194 103.791 311.849C101.977 310.625 100.68 308.922 99.9556 307.021C98.8704 308.792 98.0557 310.97 97.7011 312.614V312.614Z" fill="#C38790"/>
<path d="M114.738 302.73C114.856 302.554 115.033 302.416 115.251 302.349C115.759 302.191 116.298 302.475 116.456 302.983C116.922 304.489 116.57 306.057 116.554 306.123C116.435 306.641 115.918 306.964 115.399 306.845C114.882 306.725 114.559 306.21 114.677 305.693C114.683 305.666 114.923 304.545 114.616 303.553C114.526 303.264 114.58 302.963 114.738 302.73Z" fill="white"/>
<path d="M108.229 311.163C108.407 310.898 108.766 310.828 109.031 311.007L109.705 311.461C109.969 311.64 110.039 311.999 109.861 312.263C109.682 312.528 109.323 312.598 109.059 312.419L108.385 311.965C108.12 311.786 108.05 311.427 108.229 311.163Z" fill="#A36A9D"/>
<path d="M104.847 312.41C105.026 312.145 105.385 312.076 105.649 312.254L106.323 312.708C106.588 312.887 106.658 313.246 106.479 313.511C106.301 313.775 105.942 313.845 105.677 313.666L105.003 313.212C104.739 313.034 104.669 312.674 104.847 312.41Z" fill="#A36A9D"/>
<path d="M104.006 309.055C104.184 308.79 104.543 308.721 104.808 308.899L105.481 309.354C105.746 309.532 105.816 309.891 105.637 310.156C105.459 310.42 105.1 310.49 104.835 310.311L104.162 309.857C103.897 309.679 103.827 309.319 104.006 309.055Z" fill="#A36A9D"/>
<path d="M98.1295 275.993C97.3118 275.442 97.0961 274.332 97.6476 273.514C98.1991 272.697 99.3091 272.481 100.127 273.032C100.945 273.584 101.16 274.694 100.609 275.512C100.057 276.329 98.9472 276.545 98.1295 275.993Z" fill="#183C5C"/>
<path d="M115.164 315.901C114.931 316.247 115.022 316.717 115.368 316.951C115.715 317.184 116.185 317.093 116.418 316.747C116.652 316.4 116.561 315.93 116.214 315.697C115.868 315.463 115.398 315.555 115.164 315.901Z" fill="#183C5C"/>
<path d="M98.1436 321.988L96.3901 321.537C96.315 321.517 96.2383 321.528 96.1778 321.565L94.7642 322.44C94.5644 322.563 94.2816 322.373 94.3213 322.141L94.6028 320.503C94.6148 320.433 94.5956 320.358 94.5495 320.295L93.4745 318.838C93.3227 318.632 93.4922 318.381 93.7399 318.445L95.4934 318.896C95.5685 318.915 95.6453 318.905 95.7057 318.867L97.1194 317.993C97.3191 317.869 97.602 318.06 97.5622 318.291L97.2808 319.93C97.2687 320 97.288 320.075 97.334 320.137L98.409 321.594C98.5609 321.8 98.3914 322.051 98.1436 321.988Z" fill="#253A6A"/>
<path d="M110.784 326.416L108.411 325.821C108.309 325.796 108.205 325.811 108.123 325.863L106.195 327.074C105.923 327.246 105.541 326.988 105.598 326.672L105.999 324.43C106.016 324.334 105.991 324.232 105.93 324.148L104.489 322.17C104.286 321.891 104.519 321.546 104.854 321.63L107.227 322.225C107.328 322.25 107.432 322.235 107.515 322.183L109.443 320.972C109.715 320.8 110.096 321.058 110.04 321.374L109.638 323.616C109.621 323.712 109.646 323.814 109.708 323.898L111.148 325.876C111.352 326.155 111.119 326.5 110.784 326.416V326.416Z" fill="#253A6A"/>
</g>
</g>
<g clip-path="url(#clip3)">
<g opacity="0.7">
<path d="M67.0364 361.323L62.0977 352.593C61.0742 350.784 58.7782 350.148 56.9693 351.171L5.24347 380.436C3.4345 381.46 2.79772 383.756 3.82112 385.565L8.75983 394.294C9.78329 396.103 12.0793 396.74 13.8883 395.716L65.6142 366.451C67.423 365.428 68.0599 363.132 67.0364 361.323V361.323ZM52.6244 363.715C51.9427 362.51 52.3669 360.98 53.5718 360.299C54.7769 359.617 56.3062 360.041 56.9879 361.246C57.6697 362.451 57.2455 363.98 56.0406 364.662C54.8356 365.344 53.3062 364.92 52.6244 363.715Z" fill="#EFAEB8"/>
<path d="M67.0364 361.323L65.2122 358.098C65.9608 359.421 65.2705 361.228 63.6704 362.133L17.917 388.019C16.3169 388.924 14.4129 388.586 13.6644 387.263L10.0521 380.878C9.30358 379.555 9.9939 377.749 11.5941 376.843L5.24347 380.436C3.4345 381.46 2.79772 383.756 3.82112 385.565L8.75983 394.294C9.78329 396.103 12.0793 396.74 13.8883 395.716L65.6142 366.451C67.423 365.428 68.0599 363.132 67.0364 361.323V361.323Z" fill="#D1919B"/>
<path d="M36.6669 438.452L71.8242 375.026C72.642 373.55 71.0076 371.93 69.5393 372.761L15.724 403.208C14.9205 403.663 14.6378 404.682 15.0923 405.486L33.7506 438.464C34.3936 439.601 36.0338 439.594 36.6669 438.452V438.452ZM35.8107 418.707L29.0482 406.754C28.8834 406.463 28.9859 406.094 29.2771 405.929L48.7821 394.893C49.3142 394.592 49.9067 395.179 49.6102 395.714L36.8678 418.703C36.6383 419.117 36.0439 419.119 35.8107 418.707Z" fill="#2E659F"/>
<path d="M36.667 438.451L71.8243 375.026C72.2068 374.335 72.0527 373.614 71.6301 373.126C71.6941 373.398 71.6291 373.725 71.3819 374.064L35.8111 422.894C35.1703 423.774 33.8022 423.941 33.3781 423.191L21.0755 401.446C20.7758 400.917 21.1122 400.16 21.8269 399.755L15.724 403.208C14.9206 403.663 14.6378 404.682 15.0923 405.486L33.7506 438.464C34.3938 439.601 36.0339 439.594 36.667 438.451V438.451Z" fill="#1D3F5E"/>
<path d="M45.3392 368.542L40.7144 360.368C40.4899 359.971 40.6296 359.468 41.0263 359.243C41.423 359.019 41.9266 359.159 42.151 359.555L46.7758 367.73C47.0003 368.126 46.8605 368.63 46.4639 368.854C46.0673 369.079 45.5636 368.939 45.3392 368.542Z" fill="#CB7B87"/>
<path d="M38.4148 368.874L35.3267 363.416C35.1022 363.019 35.2419 362.516 35.6386 362.291C36.0353 362.067 36.5389 362.207 36.7633 362.603L39.8514 368.062C40.0759 368.458 39.9361 368.962 39.5395 369.186C39.1428 369.411 38.6393 369.271 38.4148 368.874Z" fill="#CB7B87"/>
<path d="M34.5633 374.639L29.9385 366.464C29.714 366.068 29.8538 365.564 30.2504 365.34C30.647 365.115 31.1508 365.255 31.3752 365.652L35.9999 373.826C36.2244 374.223 36.0846 374.726 35.688 374.951C35.2914 375.175 34.7877 375.035 34.5633 374.639Z" fill="#CB7B87"/>
<path d="M27.6389 374.971L24.5508 369.513C24.3263 369.116 24.4661 368.612 24.8627 368.388C25.2593 368.164 25.7631 368.303 25.9875 368.7L29.0755 374.158C29.3 374.555 29.1602 375.058 28.7636 375.283C28.367 375.507 27.8634 375.368 27.6389 374.971Z" fill="#CB7B87"/>
<path d="M23.7879 380.735L19.1631 372.561C18.9386 372.164 19.0784 371.661 19.475 371.436C19.8718 371.212 20.3754 371.352 20.5998 371.748L25.2246 379.922C25.449 380.319 25.3093 380.823 24.9126 381.047C24.516 381.272 24.0124 381.132 23.7879 380.735Z" fill="#CB7B87"/>
<path d="M16.8634 381.068L13.7753 375.609C13.5508 375.213 13.6906 374.709 14.0872 374.485C14.484 374.26 14.9877 374.4 15.2121 374.797L18.3001 380.255C18.5246 380.651 18.3848 381.155 17.9882 381.379C17.5914 381.604 17.0879 381.464 16.8634 381.068Z" fill="#CB7B87"/>
<path d="M13.012 386.832L8.38723 378.658C8.16277 378.261 8.30253 377.757 8.69915 377.533C9.09588 377.308 9.5995 377.448 9.82389 377.845L14.4487 386.019C14.6731 386.416 14.5334 386.919 14.1368 387.144C13.7401 387.368 13.2365 387.229 13.012 386.832Z" fill="#CB7B87"/>
<path d="M52.0303 388.661C51.6562 387.999 51.8889 387.16 52.5503 386.786L55.5126 385.11C56.1739 384.736 57.0132 384.969 57.3874 385.63C57.7615 386.291 57.5288 387.13 56.8675 387.505L53.9051 389.181C53.2437 389.555 52.4044 389.322 52.0303 388.661Z" fill="white"/>
<path d="M58.7632 384.852C58.389 384.19 58.6218 383.351 59.2831 382.977L59.808 382.68C60.4693 382.306 61.3086 382.538 61.6828 383.2C62.0569 383.861 61.8242 384.7 61.1629 385.074L60.6379 385.371C59.9767 385.745 59.1373 385.513 58.7632 384.852Z" fill="white"/>
<path d="M79.7986 407.153C81.1341 406.703 81.8522 405.256 81.4026 403.92C80.953 402.585 79.5059 401.867 78.1705 402.316C76.835 402.766 76.1169 404.213 76.5665 405.548C77.0161 406.884 78.4632 407.602 79.7986 407.153Z" fill="#2E659F"/>
<path d="M56.014 424.021C56.4193 424.459 57.1028 424.485 57.5405 424.08C57.9783 423.674 58.0045 422.991 57.5992 422.553C57.1938 422.115 56.5104 422.089 56.0726 422.494C55.6349 422.9 55.6086 423.583 56.014 424.021Z" fill="#2E659F"/>
<path d="M80.2366 384.641L78.5422 386.596C78.4696 386.679 78.4338 386.784 78.4432 386.885L78.6603 389.25C78.6909 389.585 78.2667 389.825 77.9962 389.626L76.0808 388.222C75.9988 388.162 75.8907 388.139 75.7816 388.158L73.2336 388.603C72.8737 388.666 72.6605 388.29 72.8998 388.013L74.5942 386.059C74.6667 385.975 74.7026 385.871 74.6932 385.769L74.4761 383.404C74.4454 383.07 74.8697 382.83 75.1402 383.029L77.0555 384.433C77.1375 384.493 77.2457 384.516 77.3547 384.497L79.9028 384.051C80.2627 383.988 80.476 384.365 80.2366 384.641V384.641Z" fill="#CF9FB7"/>
<path d="M75.6597 413.162L73.3866 415.817C73.2893 415.931 73.242 416.073 73.2558 416.212L73.5763 419.449C73.6216 419.906 73.0497 420.23 72.681 419.956L70.0713 418.014C69.9596 417.93 69.8127 417.897 69.6653 417.922L66.2193 418.504C65.7325 418.586 65.4394 418.068 65.7606 417.693L68.0337 415.038C68.131 414.925 68.1783 414.782 68.1646 414.644L67.8441 411.406C67.7988 410.949 68.3707 410.625 68.7393 410.9L71.3491 412.842C71.4608 412.925 71.6076 412.958 71.755 412.933L75.201 412.352C75.6878 412.27 75.9809 412.787 75.6597 413.162Z" fill="#CF9FB7"/>
</g>
</g>
<defs>
<clipPath id="clip0">
<rect width="65.4038" height="65.4038" fill="white" transform="translate(111.312 185.54) rotate(111)"/>
</clipPath>
<clipPath id="clip1">
<rect width="55.3675" height="55.3675" fill="white" transform="translate(118.533 0.69989) rotate(65.5)"/>
</clipPath>
<clipPath id="clip2">
<rect width="46.9587" height="46.9587" fill="white" transform="translate(133.513 296.395) rotate(124)"/>
</clipPath>
<clipPath id="clip3">
<rect width="68.744" height="68.744" fill="white" transform="translate(60.731 348.095) rotate(60.5)"/>
</clipPath>
</defs>
</svg>
