<svg width="115" height="441" viewBox="0 0 115 441" fill="none" xmlns="http://www.w3.org/2000/svg">
<g opacity="0.7" clip-path="url(#clip0)">
<path d="M61.4455 180.321L49.2191 187.098C47.2635 188.182 46.5568 190.646 47.6408 192.602L48.6422 194.408C49.7262 196.364 52.1904 197.071 54.1462 195.986L66.3726 189.209C67.3557 188.664 68.5237 188.545 69.5898 188.901C77.996 191.708 92.3633 192.374 99.5834 188.372C108.799 182.62 104.631 175.106 99.1549 165.228C93.6794 155.349 89.2426 147.34 79.7546 152.6C72.5345 156.602 65.4861 169.139 63.412 177.755C63.1489 178.848 62.4286 179.776 61.4455 180.321V180.321Z" fill="#7BA6D3"/>
<path d="M82.6651 186.078C87.427 186.307 91.6311 185.606 94.9554 184.404C102.574 181.334 98.9632 175.339 94.7437 167.673C90.6188 160.179 87.0101 153.188 80.6754 158.501C78.0001 160.745 75.0642 164.003 72.7343 168.163L82.6651 186.078Z" fill="#EFAEB8"/>
<path d="M63.412 177.756C63.1489 178.848 62.4286 179.776 61.4456 180.321L49.2192 187.098C47.2634 188.182 46.5568 190.646 47.6409 192.602L48.6423 194.408C48.8261 194.74 49.0504 195.035 49.3044 195.292C49.0269 193.931 50.2178 192.233 51.497 191.524L61.3662 186.053C62.1598 185.613 62.7413 184.865 62.9535 183.983C64.6277 177.028 69.743 167.165 75.5711 163.934C83.23 159.689 86.8114 166.154 91.2313 174.128C94.872 180.696 97.7953 185.969 94.5559 190.219C96.4438 189.773 98.1539 189.164 99.5833 188.372C108.798 182.62 104.63 175.106 99.1549 165.228C93.6793 155.349 89.2426 147.34 79.7546 152.6C72.5344 156.602 65.4859 169.139 63.412 177.756V177.756Z" fill="#466E97"/>
<path d="M75.4757 163.989C75.5075 163.971 75.5393 163.952 75.5711 163.934C83.23 159.689 86.8114 166.154 91.2313 174.128C93.2866 177.836 95.1125 181.13 95.7309 184.062C102.312 180.901 98.8115 175.064 94.7435 167.673C90.6186 160.179 87.0098 153.188 80.6752 158.501C78.9729 159.929 77.1656 161.769 75.4757 163.989V163.989Z" fill="#D18E98"/>
<path d="M49.4525 187.835L53.6445 195.398C54.6297 197.175 53.9875 199.415 52.2102 200.4C50.4328 201.385 48.1932 200.743 47.208 198.966L43.016 191.403C42.0308 189.626 42.673 187.386 44.4503 186.401C46.2277 185.416 48.4673 186.058 49.4525 187.835Z" fill="#2B4158"/>
<path d="M81.7335 133.799C83.3077 136.639 82.2816 140.217 79.4416 141.791L48.8623 158.742L43.1615 148.457L73.7408 131.507C76.5808 129.932 80.1592 130.958 81.7335 133.799Z" fill="#7BA6D3"/>
<path d="M45.4462 147.054L51.2769 157.573C52.357 159.521 51.6529 161.976 49.7044 163.056C47.7559 164.137 45.3006 163.432 44.2206 161.484L38.3899 150.965C37.3097 149.016 38.0138 146.561 39.9623 145.481C41.9108 144.401 44.3661 145.105 45.4462 147.054V147.054Z" fill="#2B4158"/>
<path d="M81.599 133.556L81.7403 133.811L48.3616 152.313L45.5043 147.158L73.9832 131.372C76.6893 129.872 80.099 130.85 81.599 133.556Z" fill="#466E97"/>
<path d="M59.61 146.062L62.4604 151.204C62.8721 151.947 62.6038 152.882 61.8612 153.294C61.1186 153.706 60.1829 153.437 59.7713 152.695L56.9209 147.553C56.5093 146.81 56.7776 145.874 57.5201 145.463C58.2627 145.051 59.1984 145.319 59.61 146.062Z" fill="#95CDE6"/>
<path d="M65.2172 142.954L68.0676 148.096C68.4792 148.839 68.2109 149.774 67.4684 150.186C66.7258 150.597 65.7901 150.329 65.3785 149.587L62.5281 144.444C62.1164 143.702 62.3848 142.766 63.1273 142.354C63.8699 141.943 64.8056 142.211 65.2172 142.954Z" fill="#95CDE6"/>
<path d="M70.8244 139.845L73.6748 144.988C74.0864 145.73 73.8181 146.666 73.0755 147.078C72.3329 147.489 71.3973 147.221 70.9857 146.478L68.1352 141.336C67.7236 140.594 67.9919 139.658 68.7345 139.246C69.4771 138.835 70.4128 139.103 70.8244 139.845Z" fill="#95CDE6"/>
<path d="M81.0192 166.13C81.2661 166.576 81.1051 167.137 80.6595 167.384L79.0326 168.286C78.5872 168.533 78.0256 168.372 77.7787 167.926C77.5318 167.481 77.6927 166.919 78.1383 166.672L79.7652 165.771C80.2107 165.524 80.7723 165.685 81.0192 166.13Z" fill="#B74A96"/>
<path d="M89.2199 167.234C89.4669 167.68 89.3059 168.241 88.8603 168.488L87.2336 169.39C86.7881 169.637 86.2265 169.476 85.9795 169.03C85.7326 168.585 85.8935 168.023 86.3391 167.776L87.9659 166.875C88.4115 166.628 88.9729 166.789 89.2199 167.234Z" fill="#B74A96"/>
<path d="M89.0923 175.297C89.9372 176.821 89.3844 178.749 87.8602 179.594C86.3359 180.439 84.4082 179.886 83.5633 178.362C82.7183 176.837 83.2711 174.91 84.7954 174.065C86.3198 173.22 88.2473 173.773 89.0923 175.297ZM85.1768 177.468C85.5286 178.102 86.3311 178.332 86.9658 177.981C87.6006 177.629 87.8306 176.826 87.4788 176.191C87.127 175.557 86.3245 175.327 85.6898 175.678C85.0552 176.03 84.8249 176.833 85.1768 177.468Z" fill="#B74A96"/>
<path d="M78.0537 184.143C78.2095 184.424 78.2788 184.756 78.2311 185.099C78.1142 185.94 77.3377 186.527 76.4967 186.41C75.2945 186.243 74.0905 186.005 72.918 185.703C72.096 185.492 71.6006 184.654 71.8122 183.832C72.0237 183.009 72.8616 182.514 73.6839 182.726C74.7442 182.998 75.8329 183.213 76.9201 183.364C77.4183 183.434 77.8273 183.734 78.0537 184.143V184.143Z" fill="white"/>
<path d="M70.6548 182.115C70.8801 182.521 70.9193 183.024 70.717 183.482C70.3738 184.259 69.4661 184.61 68.6894 184.267C68.5191 184.192 68.3545 184.115 68.2 184.039C67.4388 183.663 67.1264 182.741 67.5024 181.98C67.8784 181.218 68.8002 180.906 69.5615 181.282C69.6837 181.342 69.8074 181.4 69.9319 181.455C70.2507 181.596 70.498 181.832 70.6548 182.115Z" fill="white"/>
<path d="M30.7365 187.483C32.1137 186.719 33.8492 187.217 34.6126 188.594C35.376 189.971 34.8784 191.707 33.5011 192.47C32.1238 193.233 30.3885 192.736 29.625 191.359C28.8616 189.981 29.3592 188.246 30.7365 187.483Z" fill="#EFAEB8"/>
<path d="M27.4728 155.773C28.056 155.449 28.791 155.66 29.1142 156.243C29.4375 156.826 29.2269 157.561 28.6435 157.885C28.0603 158.208 27.3253 157.997 27.002 157.414C26.6788 156.831 26.8895 156.096 27.4728 155.773Z" fill="#EFAEB8"/>
<path d="M42.8547 219.384L44.7671 217.216C44.8491 217.124 44.89 217.007 44.8806 216.894L44.6609 214.249C44.6299 213.875 45.1062 213.611 45.4067 213.835L47.5333 215.423C47.6243 215.491 47.7451 215.518 47.8671 215.498L50.7187 215.025C51.1216 214.958 51.3563 215.381 51.086 215.687L49.1735 217.855C49.0916 217.948 49.0507 218.064 49.0601 218.178L49.2798 220.823C49.3107 221.196 48.8344 221.46 48.534 221.236L46.4073 219.648C46.3162 219.58 46.1956 219.553 46.0736 219.573L43.222 220.047C42.8191 220.114 42.5844 219.69 42.8547 219.384V219.384Z" fill="#F7C4DB"/>
<path d="M10.6547 161.294L12.5672 159.126C12.6491 159.033 12.6901 158.917 12.6806 158.803L12.4609 156.158C12.43 155.785 12.9063 155.521 13.2068 155.745L15.3334 157.333C15.4244 157.401 15.5451 157.428 15.6671 157.408L18.5188 156.934C18.9217 156.867 19.1563 157.291 18.886 157.597L16.9736 159.765C16.8917 159.857 16.8507 159.974 16.8602 160.087L17.0798 162.732C17.1108 163.106 16.6345 163.37 16.334 163.146L14.2074 161.558C14.1163 161.49 13.9956 161.463 13.8737 161.483L11.022 161.956C10.619 162.023 10.3844 161.6 10.6547 161.294V161.294Z" fill="#F7C4DB"/>
<path d="M29.0399 173.916L31.6059 170.972C31.7157 170.845 31.7701 170.686 31.7561 170.531L31.4295 166.911C31.3834 166.399 32.0256 166.043 32.4349 166.354L35.3323 168.549C35.4563 168.643 35.62 168.681 35.7851 168.655L39.6416 168.039C40.1865 167.952 40.5089 168.534 40.1463 168.95L37.5803 171.894C37.4705 172.02 37.4162 172.179 37.4302 172.334L37.7567 175.954C37.8029 176.466 37.1608 176.822 36.7514 176.512L33.854 174.316C33.7299 174.222 33.5662 174.184 33.4011 174.21L29.5446 174.826C28.9997 174.913 28.6774 174.332 29.0399 173.916Z" fill="#F7C4DB"/>
</g>
<g clip-path="url(#clip1)">
<g opacity="0.7">
<path d="M77.7685 29.5784C73.7552 30.9505 71.6141 35.3162 72.9862 39.3295C74.3583 43.3428 78.724 45.4839 82.7372 44.1118C86.7505 42.7397 88.8916 38.374 87.5195 34.3607C86.1474 30.3474 81.7817 28.2063 77.7685 29.5784Z" fill="#EF8BBD"/>
<path d="M73.2508 40.0371C73.3936 40.3504 73.5565 40.648 73.7343 40.9322C72.978 38.2382 74.2757 35.3209 76.9012 34.1244C79.8028 32.802 83.227 34.0823 84.5493 36.9839C85.7458 39.6094 84.8113 42.6625 82.4732 44.1994C82.7939 44.1015 83.1121 43.984 83.4254 43.8412C87.2855 42.082 88.9887 37.5266 87.2296 33.6665C85.4704 29.8063 80.915 28.1031 77.0548 29.8623C73.1948 31.6215 71.4916 36.1769 73.2508 40.0371V40.0371Z" fill="#E068BD"/>
<path d="M102.769 26.5851C104.312 29.9713 103.31 34.2099 99.9463 38.5199C96.7389 42.6301 91.7179 46.3769 85.8083 49.07C79.8987 51.7632 73.777 53.0945 68.5707 52.8185C63.1114 52.5292 59.2549 50.505 57.7117 47.1188C56.1685 43.7325 57.1709 39.494 60.5342 35.184C63.7416 31.0738 68.7625 27.327 74.6721 24.6338C80.5817 21.9407 86.7035 20.6094 91.9097 20.8853C97.369 21.1745 101.226 23.1988 102.769 26.5851V26.5851ZM59.6913 46.2166C60.8817 48.8287 64.076 50.4018 68.6859 50.6461C73.5488 50.9038 79.3093 49.6411 84.9062 47.0904C90.5029 44.5398 95.2352 41.0207 98.2311 37.1815C101.071 33.5421 101.98 30.0993 100.789 27.4872C99.5988 24.8751 96.4044 23.302 91.7946 23.0578C86.9316 22.8 81.1712 24.0629 75.5743 26.6135C69.9774 29.1641 65.2452 32.6831 62.2493 36.5223C59.4093 40.1616 58.5008 43.6044 59.6913 46.2166V46.2166Z" fill="#1D3F5E"/>
<path d="M100.343 39.8874C102.394 44.3893 102.421 48.3896 100.396 51.2288C98.2349 54.2584 94.063 55.5096 88.6487 54.7519C83.4855 54.0294 77.7302 51.5544 72.4431 47.7832C67.1558 44.0119 62.942 39.3759 60.578 34.7293C58.0985 29.8572 57.9235 25.5047 60.0845 22.4751C62.2455 19.4455 66.4174 18.1944 71.8317 18.9521C76.9949 19.6747 82.7502 22.1496 88.0374 25.9208L87.4057 26.8063L88.0374 25.9208C93.3245 29.6921 97.5383 34.328 99.9025 38.9748C100.058 39.2809 100.205 39.5854 100.343 39.8874V39.8874ZM62.113 32.9054C62.239 33.1819 62.3734 33.4606 62.517 33.7427C64.7253 38.083 68.6992 42.4404 73.7064 46.012C78.7137 49.5838 84.1274 51.9224 88.9503 52.5973C93.522 53.2372 96.9578 52.3024 98.6248 49.9655C100.178 47.7887 100.08 44.5563 98.3676 40.7985C98.2416 40.522 98.1072 40.2432 97.9636 39.9612C95.7552 35.6208 91.7814 31.2635 86.7741 27.6918C81.7668 24.1201 76.3532 21.7814 71.5303 21.1064C66.9585 20.4666 63.5227 21.4013 61.8557 23.7383C60.303 25.9152 60.4005 29.1477 62.113 32.9054V32.9054Z" fill="#1D3F5E"/>
<path d="M91.1378 19.6889C91.2755 19.9912 91.4086 20.301 91.5377 20.62C93.4935 25.4527 94.2279 31.6745 93.6054 38.1389C92.983 44.6032 91.075 50.5705 88.2329 54.9413C85.2527 59.5247 81.5714 61.8524 77.8672 61.4956C74.163 61.139 70.9931 58.1519 68.9426 53.0838C66.9868 48.2511 66.2525 42.0293 66.8749 35.5649C67.4972 29.1005 69.4052 23.1333 72.2474 18.7625C75.2276 14.1791 78.9089 11.8514 82.6131 12.2081C86.0843 12.5423 89.0862 15.1874 91.1378 19.6889V19.6889ZM71.3262 53.1219C73.0388 56.88 75.4141 59.0738 78.0758 59.3301C80.9332 59.6053 83.8927 57.6254 86.4092 53.7553C89.0639 49.6726 90.8506 44.0525 91.4401 37.9303C92.0295 31.8079 91.3481 25.9502 89.5212 21.4361C87.7891 17.1566 85.2621 14.6488 82.4047 14.3736C79.5473 14.0985 76.5878 16.0783 74.0713 19.9484C71.4167 24.0311 69.63 29.6512 69.0405 35.7735C68.451 41.8959 69.1325 47.7536 70.9594 52.2677C71.0778 52.5608 71.2002 52.8456 71.3262 53.1219V53.1219Z" fill="#1D3F5E"/>
<path d="M60.5395 37.9889C59.2283 37.1212 57.4621 37.4808 56.5944 38.7919C55.7268 40.1031 56.0863 41.8693 57.3974 42.737C58.7086 43.6046 60.4749 43.2451 61.3425 41.9339C62.2102 40.6228 61.8506 38.8565 60.5395 37.9889Z" fill="#2E659F"/>
<path d="M84.3905 56.7326C83.2335 55.6685 81.433 55.7439 80.369 56.9009C79.305 58.058 79.3803 59.8585 80.5374 60.9225C81.6944 61.9865 83.4949 61.9111 84.5589 60.7541C85.6229 59.5971 85.5475 57.7966 84.3905 56.7326Z" fill="#2E659F"/>
<path d="M97.2138 32.743C96.5618 31.3124 94.8734 30.6811 93.4428 31.3331C92.0121 31.9851 91.3808 33.6735 92.0328 35.1041C92.6848 36.5348 94.3732 37.166 95.8038 36.514C97.2345 35.862 97.8657 34.1737 97.2138 32.743Z" fill="#2E659F"/>
<path d="M78.7065 38.9472C79.5466 38.5644 80.5379 38.935 80.9207 39.7751C81.3035 40.6151 80.933 41.6065 80.0929 41.9893C79.2528 42.3722 78.2614 42.0015 77.8786 41.1614C77.4959 40.3214 77.8664 39.3301 78.7065 38.9472Z" fill="#E7EFFA"/>
<path d="M60.957 57.3469C61.9708 56.8848 63.1674 57.3322 63.6294 58.3461C64.0915 59.3599 63.6442 60.5564 62.6302 61.0185C61.6163 61.4806 60.4198 61.0331 59.9578 60.0193C59.4958 59.0055 59.9431 57.8089 60.957 57.3469Z" fill="#2E659F"/>
<path d="M53.9058 30.869C54.3351 30.6733 54.8419 30.8627 55.0376 31.292C55.2332 31.7214 55.0438 32.2281 54.6144 32.4238C54.1851 32.6195 53.6783 32.4301 53.4826 32.0007C53.2871 31.5714 53.4765 31.0646 53.9058 30.869Z" fill="#2E659F"/>
<path d="M69.8393 67.4153L71.3087 65.9924C71.3716 65.9315 71.4071 65.8515 71.4067 65.7712L71.3986 63.8933C71.3974 63.6279 71.7482 63.4681 71.9477 63.643L73.3596 64.8812C73.42 64.9342 73.5036 64.9599 73.5909 64.9524L75.6287 64.7769C75.9167 64.7521 76.0587 65.0637 75.851 65.2646L74.3816 66.6875C74.3187 66.7484 74.2832 66.8284 74.2836 66.9088L74.2917 68.7866C74.2929 69.052 73.9422 69.2118 73.7427 69.0369L72.3307 67.7987C72.2702 67.7458 72.1867 67.72 72.0995 67.7275L70.0616 67.903C69.7738 67.9278 69.6318 67.6163 69.8393 67.4153V67.4153Z" fill="#EFAEB8"/>
<path d="M42.7326 27.6978L44.7061 25.7636C44.7906 25.6807 44.8377 25.5715 44.8365 25.4613L44.8071 22.8893C44.8029 22.5258 45.2757 22.3104 45.5472 22.5519L47.4692 24.2615C47.5515 24.3347 47.6649 24.3708 47.7827 24.3614L50.5373 24.141C50.9264 24.1098 51.1215 24.538 50.8428 24.8113L48.8692 26.7455C48.7847 26.8284 48.7376 26.9376 48.739 27.0477L48.7682 29.6199C48.7724 29.9833 48.2996 30.1987 48.028 29.9572L46.1061 28.2476C46.0238 28.1743 45.9105 28.1383 45.7925 28.1477L43.0379 28.3682C42.6488 28.3992 42.4536 27.9711 42.7326 27.6978V27.6978Z" fill="#EFAEB8"/>
</g>
</g>
<g opacity="0.7" clip-path="url(#clip2)">
<path d="M85.9247 389.529L88.6873 396.367C88.8995 396.892 89.4973 397.146 90.0225 396.934L93.9168 395.36C94.442 395.148 94.6958 394.55 94.4836 394.025L91.721 387.187C91.5088 386.662 90.911 386.408 90.3858 386.621L86.4915 388.194C85.9663 388.406 85.7125 389.004 85.9247 389.529Z" fill="#8BB6EF"/>
<path d="M91.0747 405.013C93.5559 411.155 90.5078 418.177 84.2665 420.699C78.0252 423.221 70.9542 420.286 68.4729 414.145L64.1508 416.437C67.928 425.785 79.2286 430.036 89.3914 425.93C99.5543 421.823 104.731 410.916 100.954 401.567" fill="#D797A1"/>
<path d="M81.0568 390.004L87.6086 406.22C88.2014 407.687 87.4925 409.357 86.0254 409.95C84.5582 410.543 82.8884 409.834 82.2956 408.367L75.7437 392.15C75.1509 390.683 75.8598 389.013 77.3269 388.42C78.7941 387.828 80.464 388.536 81.0568 390.004Z" fill="#D797A1"/>
<path d="M101.584 410.157L97.8784 400.986C97.4716 399.979 96.3256 399.492 95.3187 399.899L83.0052 404.874C81.9983 405.281 81.5119 406.427 81.9186 407.434L84.2962 413.319C84.6128 414.102 85.3945 414.596 86.238 414.545L99.8795 412.857C101.221 412.775 102.087 411.403 101.584 410.157V410.157Z" fill="#3E7CBD"/>
<path d="M81.9186 407.434L83.0939 410.343C82.7948 409.602 83.104 408.779 83.7846 408.504L92.1085 405.141C92.7892 404.866 93.5834 405.243 93.8826 405.984L96.6078 412.729C96.6776 412.902 96.714 413.077 96.7212 413.247L99.8794 412.856C101.221 412.775 102.087 411.403 101.584 410.157L97.8782 400.986C97.4714 399.979 96.3254 399.492 95.3185 399.899L83.005 404.874C81.9982 405.281 81.5118 406.427 81.9186 407.434Z" fill="#2E659F"/>
<path d="M94.3794 380.855L105.732 408.953C106.432 410.687 105.594 412.66 103.861 413.361C102.127 414.061 100.153 413.224 99.4525 411.49L88.1003 383.392C87.3997 381.658 88.2375 379.685 89.9714 378.984C91.7053 378.283 93.6789 379.121 94.3794 380.855Z" fill="#355270"/>
<path d="M88.1003 383.392L89.275 386.3C88.8645 385.284 89.3554 384.127 90.3713 383.717C91.3873 383.306 92.5436 383.797 92.954 384.813L103.657 411.303C103.988 412.123 103.732 413.034 103.087 413.571C103.347 413.532 103.606 413.464 103.86 413.361C105.594 412.66 106.432 410.687 105.732 408.953L94.3793 380.855C93.6788 379.121 91.7052 378.284 89.9713 378.984C88.2375 379.685 87.3998 381.658 88.1003 383.392V383.392Z" fill="#2B4158"/>
<path d="M73.3841 401.288L75.3312 403.681C76.1693 404.71 76.0138 406.225 74.9839 407.063L68.1878 412.593L63.2056 406.471L70.0017 400.94C71.0317 400.102 72.546 400.258 73.3841 401.288V401.288Z" fill="#355270"/>
<path d="M62.7561 406.358L65.6042 413.407L56.6975 425.677C55.7043 427.046 53.5937 426.787 52.9603 425.219L52.0141 422.878C51.7362 422.19 51.8322 421.407 52.2679 420.807L62.7561 406.358Z" fill="#355270"/>
<path d="M66.0108 403.766L71.4057 410.396C72.3544 411.561 72.1783 413.276 71.0125 414.224L64.383 419.619C63.2172 420.568 61.503 420.392 60.5543 419.226L55.1596 412.596C54.2109 411.431 54.3869 409.716 55.5527 408.768L62.1823 403.373C63.348 402.424 65.0622 402.6 66.0108 403.766V403.766Z" fill="#3E7CBD"/>
<path d="M62.1821 403.373L55.5525 408.768C54.3867 409.717 54.2106 411.431 55.1594 412.597L56.9779 414.831C56.2718 413.964 56.4028 412.688 57.2706 411.982L62.2052 407.966C63.0729 407.26 64.3487 407.391 65.0549 408.259L69.0703 413.193C69.7764 414.061 69.6454 415.337 68.7777 416.043L71.0125 414.225C72.1783 413.276 72.3543 411.562 71.4057 410.396L66.0108 403.766C65.0621 402.6 63.3479 402.424 62.1821 403.373V403.373Z" fill="#2E659F"/>
<path d="M65.796 418.534C65.9034 418.8 65.8316 419.116 65.5979 419.307C65.3103 419.542 64.8862 419.5 64.6508 419.212L55.9774 408.617C55.7423 408.329 55.7842 407.905 56.0718 407.669C56.3594 407.434 56.7836 407.476 57.019 407.764L65.6924 418.36C65.7367 418.414 65.7711 418.472 65.796 418.534Z" fill="#EFAEB8"/>
<path d="M70.4746 414.422C70.5821 414.688 70.5102 415.004 70.2766 415.195C69.989 415.43 69.5648 415.388 69.3294 415.1L61.0949 405.041C60.8597 404.753 60.9017 404.329 61.1894 404.094C61.477 403.858 61.9012 403.901 62.1365 404.188L70.371 414.248C70.4152 414.302 70.4498 414.361 70.4746 414.422Z" fill="#EFAEB8"/>
<path d="M93.0719 409.543C93.1044 409.623 93.128 409.709 93.1415 409.798C93.233 410.411 92.8106 410.982 92.1978 411.074L90.6589 411.304C90.0461 411.395 89.4752 410.973 89.3835 410.36C89.292 409.747 89.7144 409.176 90.3272 409.085L91.8661 408.855C92.3894 408.777 92.8821 409.073 93.0719 409.543Z" fill="white"/>
<path d="M88.3265 410.253C88.3589 410.333 88.3825 410.418 88.3959 410.508C88.4876 411.121 88.0653 411.692 87.4525 411.783L87.1634 411.827C86.5505 411.918 85.9801 411.495 85.8882 410.883C85.7967 410.27 86.2193 409.699 86.8321 409.607L87.1203 409.564C87.6436 409.486 88.1366 409.783 88.3265 410.253V410.253Z" fill="white"/>
<path d="M51.3092 388.616C50.1732 388.789 49.3923 389.85 49.565 390.986C49.7377 392.122 50.7987 392.903 51.9347 392.73C53.0708 392.557 53.8517 391.496 53.679 390.36C53.5062 389.224 52.4453 388.443 51.3092 388.616Z" fill="#355270"/>
<path d="M62.7284 395.4C62.5461 394.949 62.0326 394.731 61.5814 394.913C61.1302 395.095 60.9122 395.609 61.0945 396.06C61.2768 396.511 61.7903 396.729 62.2415 396.547C62.6927 396.364 62.9107 395.851 62.7284 395.4Z" fill="#355270"/>
<path d="M47.8226 403.519L49.4006 402.119C49.4682 402.059 49.5082 401.979 49.5115 401.896L49.5876 399.961C49.5984 399.687 49.9669 399.538 50.1645 399.727L51.5636 401.067C51.6236 401.124 51.7085 401.154 51.7987 401.15L53.9062 401.061C54.204 401.049 54.3363 401.376 54.1133 401.574L52.5353 402.974C52.4678 403.034 52.4277 403.114 52.4245 403.197L52.3483 405.132C52.3375 405.406 51.969 405.555 51.7714 405.366L50.3723 404.026C50.3123 403.969 50.2274 403.939 50.1372 403.942L48.0297 404.032C47.7319 404.044 47.5997 403.717 47.8226 403.519V403.519Z" fill="#3E7CBD"/>
<path d="M60.3048 387.959L62.4251 386.055C62.5158 385.974 62.5693 385.863 62.573 385.75L62.6585 383.098C62.6706 382.724 63.1674 382.523 63.4363 382.784L65.3396 384.632C65.4211 384.711 65.5362 384.753 65.6582 384.749L68.5062 384.646C68.9085 384.631 69.0903 385.081 68.7907 385.35L66.6704 387.254C66.5797 387.336 66.5262 387.446 66.5225 387.56L66.437 390.211C66.4249 390.586 65.9281 390.786 65.6592 390.525L63.7559 388.678C63.6744 388.598 63.5593 388.556 63.4373 388.561L60.5894 388.664C60.187 388.678 60.0052 388.228 60.3048 387.959V387.959Z" fill="#3E7CBD"/>
</g>
<g clip-path="url(#clip3)">
<g opacity="0.7">
<path d="M41.6702 289.481L44.845 284.774L50.3633 288.496L47.1885 293.203L41.6702 289.481Z" fill="#183C5C"/>
<path opacity="0.3" d="M41.6702 289.481L44.845 284.774L50.3633 288.496L47.1885 293.203" fill="#00CFFF"/>
<path d="M52.1147 271.898C52.335 273.032 51.5947 274.129 50.461 274.35L5.89719 283.012C4.76351 283.232 3.66585 282.492 3.44548 281.358C3.22511 280.225 3.96549 279.127 5.09918 278.907L49.663 270.244C50.7967 270.024 51.8943 270.764 52.1147 271.898Z" fill="#183C5C"/>
<path opacity="0.3" d="M52.1147 271.898C52.335 273.032 51.5947 274.129 50.461 274.35L5.89719 283.012C4.76351 283.232 3.66585 282.492 3.44548 281.358C3.22511 280.225 3.96549 279.127 5.09918 278.907L49.663 270.244C50.7967 270.024 51.8943 270.764 52.1147 271.898Z" fill="#00CFFF"/>
<path d="M41.6021 268.654C44.5715 273.82 44.5272 280.462 40.9094 285.7C36.0006 292.807 26.2185 294.709 19.0048 289.957C13.6885 286.456 11.1596 280.315 11.9775 274.412C12.1615 273.085 10.9923 271.967 9.67646 272.223C8.86121 272.381 8.23216 273.039 8.11774 273.861C7.1036 281.152 10.1931 288.738 16.7072 293.113C25.7547 299.191 38.1102 296.789 44.2222 287.765C48.6229 281.268 48.6459 273.077 44.9744 266.697C44.5601 265.977 43.7307 265.604 42.9154 265.762C41.5995 266.018 40.934 267.492 41.6021 268.654V268.654Z" fill="#183C5C"/>
<path d="M55.5792 286.948L47.7115 298.612C46.9911 299.68 45.5411 299.962 44.473 299.241C43.405 298.521 43.1231 297.071 43.8435 296.003L51.7112 284.339C52.4317 283.271 53.8816 282.989 54.9497 283.709C56.0178 284.43 56.2996 285.88 55.5792 286.948Z" fill="#183C5C"/>
<path d="M38.0394 283.548C41.8608 277.882 40.3659 270.192 34.7004 266.37C29.0349 262.549 21.3442 264.044 17.5228 269.709C13.7014 275.375 15.1963 283.065 20.8618 286.887C26.5273 290.708 34.2179 289.213 38.0394 283.548Z" fill="#8BB6EF"/>
<path d="M38.0379 283.548C38.6101 282.7 39.0622 281.806 39.3999 280.886C35.2331 280.998 32.8159 284.612 31.8077 284.905C30.2843 285.348 29.8199 282.491 28.2124 283.151C26.3798 283.903 25.7725 287.384 25.5984 288.811C30.2718 289.645 35.2124 287.737 38.0379 283.548V283.548Z" fill="#EFAEB8"/>
<path d="M16.4298 281.56C17.3362 283.652 18.8305 285.518 20.8605 286.887C20.9398 286.94 21.0196 286.993 21.0996 287.044C23.0617 283.318 22.9822 280.504 21.7114 279.536C20.6359 278.717 17.5582 280.757 16.4298 281.56V281.56Z" fill="#EFAEB8"/>
<path d="M19.3768 267.543C19.2386 269.18 19.1407 273.19 21.4104 273.781C22.9028 274.17 23.6595 273.165 24.3282 272.517C25.3471 271.528 26.3802 272.285 26.7373 273.256C26.9707 273.891 28.3466 276.02 29.5249 276.518C32.7721 277.891 35.827 271.612 36.6144 267.962C36.0417 267.379 35.4027 266.845 34.6992 266.371C29.842 263.094 23.4967 263.726 19.3768 267.543V267.543Z" fill="#EFAEB8"/>
<path d="M17.5218 269.709C17.3108 270.021 17.117 270.341 16.9382 270.665C20.2546 266.667 26.1273 265.759 30.5246 268.725C35.2085 271.885 36.4444 278.243 33.2851 282.927C30.3191 287.324 24.534 288.682 19.9614 286.218C20.2486 286.452 20.548 286.675 20.8608 286.886C26.5263 290.708 34.217 289.213 38.0384 283.547C41.8598 277.882 40.3648 270.191 34.6994 266.37C29.0339 262.548 21.3433 264.043 17.5218 269.709V269.709Z" fill="#8388EF"/>
<path d="M19.9656 286.221C20.2517 286.454 20.5489 286.677 20.8603 286.887C20.9395 286.94 21.0194 286.993 21.0994 287.044C21.1437 286.96 21.1857 286.877 21.2279 286.794C20.7994 286.633 20.3776 286.443 19.9656 286.221V286.221Z" fill="#C38790"/>
<path d="M39.3998 280.886C35.233 280.998 32.8158 284.612 31.8076 284.905C31.6967 284.937 31.5915 284.952 31.491 284.951C29.879 286.345 27.8925 287.176 25.832 287.385C25.7167 287.942 25.643 288.444 25.5983 288.811C30.2718 289.645 35.2124 287.737 38.0379 283.548C38.6101 282.7 39.0622 281.806 39.3998 280.886Z" fill="#C38790"/>
<path d="M36.6141 267.962C36.0414 267.379 35.4024 266.845 34.6989 266.37C29.8418 263.094 23.4965 263.726 19.3766 267.543C19.3528 267.824 19.3302 268.176 19.3208 268.569C22.6494 266.458 27.0476 266.381 30.5241 268.726C32.3384 269.95 33.635 271.654 34.3596 273.555C35.4447 271.783 36.2595 269.606 36.6141 267.962V267.962Z" fill="#C38790"/>
<path d="M19.5773 277.846C19.4589 278.021 19.2823 278.159 19.0644 278.227C18.5565 278.384 18.017 278.1 17.8596 277.592C17.393 276.087 17.7456 274.518 17.761 274.452C17.8806 273.934 18.3976 273.611 18.9157 273.731C19.4329 273.85 19.7558 274.366 19.6381 274.883C19.6321 274.91 19.3917 276.03 19.6991 277.022C19.789 277.312 19.7348 277.612 19.5773 277.846Z" fill="white"/>
<path d="M26.0866 269.413C25.9082 269.677 25.5492 269.747 25.2846 269.569L24.6108 269.114C24.3463 268.936 24.2765 268.577 24.4549 268.312C24.6333 268.048 24.9924 267.978 25.2569 268.156L25.9307 268.611C26.1952 268.789 26.265 269.148 26.0866 269.413Z" fill="#A36A9D"/>
<path d="M29.468 268.166C29.2896 268.43 28.9304 268.5 28.666 268.322L27.9921 267.867C27.7276 267.689 27.6578 267.33 27.8362 267.065C28.0147 266.8 28.3738 266.731 28.6382 266.909L29.3121 267.364C29.5765 267.542 29.6464 267.901 29.468 268.166Z" fill="#A36A9D"/>
<path d="M30.3095 271.521C30.1311 271.785 29.772 271.855 29.5075 271.676L28.8337 271.222C28.5692 271.043 28.4994 270.684 28.6778 270.42C28.8562 270.155 29.2153 270.086 29.4798 270.264L30.1536 270.719C30.4182 270.897 30.4879 271.256 30.3095 271.521Z" fill="#A36A9D"/>
<path d="M36.1862 304.582C37.0038 305.134 37.2196 306.244 36.6681 307.061C36.1165 307.879 35.0065 308.095 34.1888 307.543C33.3711 306.992 33.1554 305.882 33.7069 305.064C34.2585 304.246 35.3685 304.031 36.1862 304.582Z" fill="#183C5C"/>
<path d="M19.1513 264.675C19.3848 264.328 19.2935 263.858 18.9472 263.625C18.6009 263.391 18.1308 263.482 17.8973 263.829C17.6637 264.175 17.7551 264.645 18.1014 264.879C18.4476 265.112 18.9177 265.021 19.1513 264.675Z" fill="#183C5C"/>
<path d="M36.1725 258.588L37.9261 259.039C38.0011 259.058 38.0779 259.048 38.1384 259.01L39.552 258.136C39.7517 258.012 40.0346 258.203 39.9948 258.434L39.7134 260.073C39.7013 260.143 39.7206 260.218 39.7666 260.28L40.8416 261.737C40.9935 261.943 40.824 262.194 40.5763 262.131L38.8227 261.68C38.7477 261.66 38.6709 261.671 38.6104 261.708L37.1968 262.583C36.997 262.706 36.7142 262.516 36.7539 262.284L37.0354 260.646C37.0475 260.575 37.0282 260.501 36.9822 260.438L35.9072 258.981C35.7553 258.775 35.9248 258.524 36.1725 258.588Z" fill="#253A6A"/>
<path d="M23.5322 254.159L25.905 254.754C26.0066 254.78 26.1108 254.765 26.1933 254.713L28.1211 253.501C28.3934 253.33 28.7747 253.587 28.718 253.904L28.3166 256.145C28.2995 256.241 28.3246 256.343 28.3863 256.428L29.8267 258.405C30.0303 258.684 29.7974 259.03 29.4621 258.946L27.0893 258.351C26.9877 258.325 26.8835 258.34 26.801 258.392L24.8732 259.604C24.6009 259.775 24.2196 259.518 24.2763 259.201L24.6777 256.96C24.6948 256.864 24.6697 256.762 24.608 256.677L23.1676 254.7C22.9641 254.421 23.197 254.075 23.5322 254.159V254.159Z" fill="#253A6A"/>
</g>
</g>
<defs>
<clipPath id="clip0">
<rect width="75.7854" height="75.7854" fill="white" transform="translate(45.0566 223.952) rotate(-119)"/>
</clipPath>
<clipPath id="clip1">
<rect width="55.3675" height="55.3675" fill="white" transform="translate(63.6855 74.339) rotate(-114.5)"/>
</clipPath>
<clipPath id="clip2">
<rect width="55.0223" height="55.0223" fill="white" transform="translate(59.2632 440.819) rotate(-112)"/>
</clipPath>
<clipPath id="clip3">
<rect width="46.9587" height="46.9587" fill="white" transform="translate(0.802979 284.181) rotate(-56)"/>
</clipPath>
</defs>
</svg>
