<svg width="324" height="255" viewBox="0 0 324 255" fill="none" xmlns="http://www.w3.org/2000/svg">
<g opacity="0.7" clip-path="url(#clip0)">
<path d="M155.305 137.987L111.614 129.495C109.087 129.003 107.437 126.557 107.928 124.03L120.316 60.3002C120.807 57.7735 123.253 56.1233 125.78 56.6144L169.471 65.107C171.998 65.5982 173.648 68.0447 173.157 70.5715L160.769 134.301C160.278 136.828 157.831 138.478 155.305 137.987Z" fill="#EFAEB8"/>
<path d="M160.076 85.7636L126.751 79.286C125.378 79.019 124.481 77.6896 124.748 76.3165L126.52 67.2011C126.787 65.828 128.117 64.9312 129.49 65.1981L162.814 71.6758C164.187 71.9427 165.084 73.2722 164.817 74.6453L163.045 83.7607C162.778 85.1338 161.449 86.0305 160.076 85.7636Z" fill="#7A7989"/>
<path d="M129.844 96.1853L122.702 94.797C121.879 94.6371 121.342 93.8406 121.502 93.0178L122.89 85.8757C123.05 85.0529 123.847 84.5157 124.669 84.6756L131.812 86.0639C132.634 86.2238 133.172 87.0204 133.012 87.8431L131.623 94.9852C131.463 95.808 130.667 96.3453 129.844 96.1853Z" fill="#375778"/>
<path d="M127.045 110.583L119.903 109.195C119.08 109.035 118.543 108.238 118.703 107.416L120.091 100.274C120.251 99.4508 121.048 98.9135 121.871 99.0735L129.013 100.462C129.835 100.622 130.373 101.418 130.213 102.241L128.824 109.383C128.665 110.206 127.868 110.743 127.045 110.583Z" fill="#375778"/>
<path d="M124.247 124.981L117.105 123.593C116.282 123.433 115.745 122.636 115.905 121.814L117.293 114.672C117.453 113.849 118.249 113.312 119.072 113.472L126.214 114.86C127.037 115.02 127.574 115.816 127.414 116.639L126.026 123.781C125.866 124.604 125.07 125.141 124.247 124.981Z" fill="#375778"/>
<path d="M143.932 98.9238L136.79 97.5355C135.967 97.3755 135.43 96.579 135.59 95.7563L136.978 88.6141C137.138 87.7913 137.935 87.2541 138.757 87.414L145.899 88.8023C146.722 88.9622 147.259 89.7588 147.099 90.5815L145.711 97.7237C145.551 98.5464 144.755 99.0837 143.932 98.9238Z" fill="#375778"/>
<path d="M141.134 113.322L133.991 111.933C133.169 111.773 132.631 110.977 132.791 110.154L134.18 103.012C134.34 102.189 135.136 101.652 135.959 101.812L143.101 103.2C143.924 103.36 144.461 104.157 144.301 104.979L142.913 112.122C142.753 112.944 141.956 113.482 141.134 113.322Z" fill="#375778"/>
<path d="M138.335 127.72L131.193 126.331C130.37 126.171 129.833 125.375 129.993 124.552L131.381 117.41C131.541 116.587 132.337 116.05 133.16 116.21L140.302 117.598C141.125 117.758 141.662 118.555 141.502 119.377L140.114 126.52C139.954 127.342 139.158 127.879 138.335 127.72Z" fill="#375778"/>
<path d="M158.02 101.662L150.878 100.274C150.055 100.114 149.518 99.3174 149.678 98.4947L151.066 91.3525C151.226 90.5298 152.022 89.9925 152.845 90.1524L159.987 91.5407C160.81 91.7006 161.347 92.4972 161.187 93.3199L159.799 100.462C159.639 101.285 158.843 101.822 158.02 101.662Z" fill="#375778"/>
<path d="M157.188 105.939L150.046 104.55C149.224 104.391 148.427 104.928 148.267 105.75L146.174 116.52L145.891 117.973L144.08 127.29C143.92 128.113 144.458 128.91 145.28 129.069L152.422 130.458C153.245 130.618 154.042 130.08 154.202 129.258L156.013 119.941L156.295 118.488L158.389 107.718C158.548 106.895 158.011 106.099 157.188 105.939Z" fill="#EF8BBD"/>
<path d="M169.47 65.1059L160.036 63.2722C162.114 63.6759 163.47 65.6871 163.067 67.7646L152.651 121.347C152.247 123.424 150.236 124.781 148.159 124.377L113.088 117.56C111.011 117.156 109.654 115.145 110.058 113.068L107.927 124.029C107.436 126.556 109.086 129.002 111.613 129.494L155.304 137.986C157.83 138.477 160.277 136.827 160.768 134.3L173.156 70.5705C173.647 68.0436 171.997 65.5971 169.47 65.1059Z" fill="#DD9CA6"/>
<path d="M162.814 71.6757L162.325 71.5806L159.586 85.6684L160.076 85.7635C161.449 86.0304 162.778 85.1337 163.045 83.7606L164.817 74.6452C165.084 73.2721 164.188 71.9427 162.814 71.6757Z" fill="#62616E"/>
<path d="M117.105 123.593L124.247 124.981C125.07 125.141 125.866 124.604 126.026 123.781L126.72 120.21L116.599 118.243L115.904 121.814C115.745 122.637 116.282 123.433 117.105 123.593Z" fill="#2B4158"/>
<path d="M131.192 126.331L138.335 127.72C139.157 127.879 139.954 127.342 140.114 126.52L140.808 122.949L130.687 120.981L129.992 124.552C129.832 125.375 130.37 126.171 131.192 126.331Z" fill="#2B4158"/>
<path d="M159.987 91.5408L158.501 91.252L156.534 101.373L158.02 101.662C158.842 101.822 159.639 101.285 159.799 100.462L161.187 93.32C161.347 92.4973 160.81 91.7008 159.987 91.5408Z" fill="#2B4158"/>
<path d="M157.188 105.939L155.702 105.65L152.651 121.347C152.247 123.424 150.236 124.781 148.159 124.377L144.774 123.719L144.08 127.29C143.92 128.113 144.458 128.91 145.28 129.07L152.422 130.458C153.245 130.618 154.042 130.08 154.202 129.258L156.013 119.941L156.295 118.488L158.389 107.718C158.548 106.895 158.011 106.099 157.188 105.939Z" fill="#E068BD"/>
<path d="M144.165 75.4966C142.784 75.2281 141.405 74.9482 139.979 74.6475C139.055 74.4527 138.464 73.5454 138.659 72.6214C138.853 71.6973 139.753 71.1081 140.685 71.3011C143.501 71.895 146.131 72.4064 148.965 72.9105C148.974 72.9122 148.983 72.9139 148.992 72.9157C149.907 73.0935 150.513 73.9731 150.349 74.894C150.183 75.8237 149.296 76.4436 148.366 76.2779C146.931 76.0224 145.547 75.7652 144.165 75.4966Z" fill="white"/>
<path d="M133.317 73.3527L131.362 72.9726C130.434 72.7924 129.829 71.8948 130.009 70.9677C130.189 70.0406 131.087 69.4351 132.014 69.6153L133.969 69.9954C134.896 70.1756 135.502 71.0732 135.322 72.0003C135.141 72.9274 134.244 73.5329 133.317 73.3527Z" fill="white"/>
<path d="M150.126 116.115C149.57 116.007 149.207 115.468 149.315 114.912L149.682 113.022C149.79 112.465 150.329 112.102 150.885 112.21C151.441 112.318 151.805 112.857 151.697 113.413L151.329 115.304C151.221 115.86 150.682 116.223 150.126 116.115Z" fill="#B74A96"/>
<path d="M151.704 122.821C151.148 122.713 150.784 122.175 150.892 121.618L151.26 119.728C151.368 119.172 151.907 118.809 152.463 118.917C153.019 119.025 153.382 119.564 153.274 120.12L152.907 122.01C152.799 122.566 152.26 122.93 151.704 122.821Z" fill="#B74A96"/>
<path d="M188.851 77.1835C190.04 75.8959 189.961 73.8884 188.673 72.6994C187.385 71.5105 185.378 71.5904 184.189 72.8779C183 74.1655 183.08 76.1731 184.367 77.362C185.655 78.5509 187.663 78.471 188.851 77.1835Z" fill="#375778"/>
<path d="M116.779 50.8104C117.507 50.9519 118.212 50.4763 118.354 49.7482C118.495 49.02 118.02 48.3149 117.292 48.1734C116.563 48.0318 115.858 48.5074 115.717 49.2356C115.575 49.9638 116.051 50.6688 116.779 50.8104Z" fill="#375778"/>
<path d="M183.823 57.3792L184.303 60.5589C184.323 60.6949 184.393 60.8134 184.497 60.8863L186.908 62.5904C187.248 62.8311 187.133 63.4259 186.727 63.5215L183.853 64.1983C183.73 64.2272 183.621 64.3106 183.55 64.4292L181.915 67.1978C181.684 67.5888 181.155 67.4861 181.087 67.037L180.608 63.8572C180.587 63.721 180.517 63.6028 180.414 63.5298L178.003 61.8258C177.662 61.5851 177.778 60.9903 178.184 60.8947L181.058 60.2179C181.181 60.189 181.29 60.1053 181.36 59.9869L182.996 57.2184C183.227 56.8273 183.755 56.93 183.823 57.3792Z" fill="#EFAEB8"/>
<path d="M109.885 56.2925L110.365 59.4723C110.385 59.6085 110.456 59.7268 110.559 59.7997L112.97 61.5037C113.31 61.7444 113.195 62.3392 112.789 62.4348L109.915 63.1116C109.792 63.1405 109.683 63.224 109.613 63.3426L107.977 66.1111C107.746 66.5022 107.217 66.3995 107.149 65.9503L106.67 62.7706C106.649 62.6344 106.579 62.5161 106.476 62.4431L104.065 60.7391C103.724 60.4984 103.84 59.9036 104.246 59.808L107.12 59.1312C107.243 59.1023 107.352 59.0187 107.422 58.9003L109.058 56.1317C109.289 55.7407 109.818 55.8434 109.885 56.2925Z" fill="#EFAEB8"/>
</g>
<g opacity="0.7" clip-path="url(#clip1)">
<path d="M163.778 206.855C162.169 205.246 162.169 202.638 163.778 201.029L169.572 195.235C171.181 193.626 173.79 193.626 175.399 195.235C177.008 196.844 177.008 199.452 175.399 201.061L169.605 206.855C167.996 208.464 165.387 208.464 163.778 206.855Z" fill="#4081C5"/>
<path d="M160.416 239.68C160.105 239.68 159.795 239.561 159.558 239.324L131.309 211.076C130.835 210.602 130.835 209.833 131.309 209.359C131.784 208.885 132.552 208.885 133.026 209.359L161.275 237.607C161.749 238.081 161.749 238.85 161.275 239.324C161.038 239.561 160.727 239.68 160.416 239.68Z" fill="#446878"/>
<path d="M117.607 231.685C117.186 231.685 116.777 231.466 116.553 231.075C116.219 230.493 116.42 229.751 117.002 229.418L127.41 223.45C127.992 223.116 128.734 223.317 129.067 223.899C129.401 224.481 129.2 225.223 128.618 225.556L118.21 231.524C118.019 231.633 117.812 231.685 117.607 231.685Z" fill="#446878"/>
<path d="M140.534 254.615C140.33 254.615 140.122 254.563 139.932 254.454C139.35 254.12 139.149 253.378 139.482 252.797L145.45 242.389C145.784 241.807 146.525 241.606 147.108 241.939C147.689 242.273 147.89 243.015 147.557 243.597L141.589 254.005C141.365 254.396 140.955 254.615 140.534 254.615Z" fill="#446878"/>
<path d="M123.861 229.43C122.105 226.106 123.376 221.988 126.7 220.233L160.913 202.157L164.093 208.175L123.861 229.43Z" fill="#EFAEB8"/>
<path d="M141.375 246.943L141.563 247.043C144.887 248.799 149.004 247.528 150.76 244.204L168.836 209.99L162.629 206.712L141.375 246.943Z" fill="#EFAEB8"/>
<path d="M165.733 208.351L147.559 242.75C146.685 244.404 144.636 245.036 142.983 244.163L142.874 244.105L141.375 246.944L141.563 247.043C144.886 248.799 149.004 247.528 150.76 244.204L168.836 209.991L165.733 208.351Z" fill="#D58C98"/>
<path d="M161.281 219.182C166.709 219.182 171.11 214.781 171.11 209.352C171.11 203.924 166.709 199.523 161.281 199.523C155.852 199.523 151.451 203.924 151.451 209.352C151.451 214.781 155.852 219.182 161.281 219.182Z" fill="#4081C5"/>
<path d="M168.231 202.402C165.971 200.142 162.884 199.214 159.943 199.615C161.421 199.849 162.841 200.534 163.98 201.672C166.846 204.538 166.846 209.185 163.98 212.051C161.114 214.918 156.467 214.918 153.601 212.051C152.462 210.913 151.777 209.493 151.544 208.015C151.142 210.955 152.07 214.042 154.33 216.303C158.169 220.141 164.392 220.141 168.231 216.303C172.07 212.464 172.07 206.241 168.231 202.402Z" fill="#2E659F"/>
<path d="M170.391 206.868C169.911 206.868 169.457 206.582 169.265 206.11C168.832 205.042 168.195 204.083 167.373 203.261C166.534 202.422 166.07 202.167 165.301 201.745C165.196 201.687 165.088 201.628 164.975 201.565C164.39 201.238 164.179 200.499 164.506 199.913C164.833 199.327 165.572 199.117 166.158 199.444C166.266 199.504 166.37 199.561 166.47 199.616C167.294 200.069 168.006 200.459 169.09 201.543C170.143 202.597 170.96 203.827 171.516 205.197C171.768 205.819 171.468 206.527 170.847 206.779C170.697 206.839 170.543 206.868 170.391 206.868Z" fill="#1D3F5E"/>
<path d="M161.281 212.884C163.231 212.884 164.812 211.303 164.812 209.352C164.812 207.402 163.231 205.821 161.281 205.821C159.33 205.821 157.749 207.402 157.749 209.352C157.749 211.303 159.33 212.884 161.281 212.884Z" fill="#EFAEB8"/>
<path d="M128.579 195.616C128.579 196.859 127.57 197.868 126.327 197.868C125.083 197.868 124.075 196.859 124.075 195.616C124.075 194.372 125.083 193.364 126.327 193.364C127.57 193.364 128.579 194.372 128.579 195.616Z" fill="#4081C5"/>
<path d="M149.52 198.544C150.047 198.544 150.474 198.117 150.474 197.59C150.474 197.063 150.047 196.636 149.52 196.636C148.993 196.636 148.566 197.063 148.566 197.59C148.566 198.117 148.993 198.544 149.52 198.544Z" fill="#4081C5"/>
<path d="M121.017 206.364L121.782 208.516C121.815 208.608 121.88 208.681 121.961 208.717L123.872 209.579C124.142 209.7 124.142 210.13 123.872 210.252L121.961 211.113C121.88 211.15 121.815 211.223 121.782 211.315L121.017 213.466C120.909 213.77 120.527 213.77 120.418 213.466L119.653 211.315C119.621 211.223 119.556 211.15 119.474 211.113L117.563 210.252C117.293 210.13 117.293 209.7 117.563 209.579L119.474 208.717C119.556 208.681 119.621 208.608 119.653 208.516L120.418 206.364C120.527 206.061 120.909 206.061 121.017 206.364Z" fill="#EFAEB8"/>
<path d="M139.38 193.757L140.432 196.656C140.477 196.781 140.566 196.879 140.678 196.929L143.304 198.09C143.675 198.254 143.675 198.834 143.304 198.997L140.678 200.158C140.566 200.208 140.477 200.306 140.432 200.43L139.38 203.33C139.232 203.74 138.707 203.74 138.558 203.33L137.507 200.43C137.462 200.306 137.373 200.208 137.26 200.158L134.634 198.997C134.263 198.833 134.263 198.253 134.634 198.09L137.26 196.929C137.373 196.879 137.462 196.781 137.507 196.656L138.558 193.757C138.707 193.347 139.232 193.347 139.38 193.757Z" fill="#EFAEB8"/>
</g>
<g clip-path="url(#clip2)">
<g opacity="0.7">
<path d="M261.716 185.743C261.841 186.053 261.848 186.41 261.707 186.741L256.309 199.46C256.027 200.123 255.262 200.432 254.599 200.15C253.936 199.869 253.627 199.104 253.908 198.441L259.307 185.722C259.588 185.06 260.354 184.75 261.017 185.032C261.348 185.172 261.591 185.434 261.716 185.743Z" fill="#1D3F5E"/>
<path d="M265.401 188.741C265.526 189.05 265.533 189.407 265.392 189.739L261.433 199.065C261.152 199.728 260.386 200.037 259.724 199.756C259.061 199.474 258.752 198.709 259.033 198.046L262.992 188.72C263.273 188.057 264.039 187.748 264.701 188.029C265.033 188.17 265.276 188.431 265.401 188.741Z" fill="#1D3F5E"/>
<path d="M235.195 174.486C235.32 174.796 235.327 175.153 235.187 175.484L230.159 187.328C229.878 187.991 229.112 188.3 228.45 188.019C227.787 187.737 227.478 186.972 227.759 186.309L232.786 174.465C233.068 173.802 233.833 173.493 234.496 173.774C234.827 173.915 235.07 174.177 235.195 174.486Z" fill="#1D3F5E"/>
<path d="M238.88 177.483C239.005 177.793 239.012 178.15 238.872 178.481L234.913 187.808C234.631 188.47 233.866 188.78 233.203 188.498C232.54 188.217 232.231 187.451 232.512 186.789L236.471 177.462C236.753 176.8 237.518 176.49 238.181 176.772C238.512 176.912 238.755 177.174 238.88 177.483Z" fill="#1D3F5E"/>
<path d="M256.769 185.717C256.894 186.027 256.901 186.384 256.761 186.715L252.623 196.463C252.342 197.125 251.576 197.435 250.914 197.153C250.251 196.872 249.942 196.107 250.223 195.444L254.36 185.696C254.642 185.033 255.407 184.724 256.07 185.006C256.401 185.146 256.644 185.408 256.769 185.717Z" fill="#1D3F5E"/>
<path d="M288.228 196.997C288.353 197.307 288.36 197.664 288.219 197.995L283.087 210.085C282.806 210.748 282.041 211.057 281.378 210.776C280.715 210.495 280.406 209.729 280.687 209.066L285.819 196.976C286.1 196.314 286.866 196.004 287.529 196.286C287.86 196.426 288.103 196.688 288.228 196.997Z" fill="#1D3F5E"/>
<path d="M283.282 196.971C283.407 197.281 283.414 197.638 283.274 197.969L279.48 206.906C279.199 207.569 278.433 207.878 277.77 207.597C277.108 207.315 276.799 206.55 277.08 205.887L280.873 196.95C281.155 196.287 281.92 195.978 282.583 196.26C282.914 196.4 283.157 196.662 283.282 196.971Z" fill="#1D3F5E"/>
<path d="M292.433 197.433C291.69 199.184 289.668 200.001 287.917 199.258C280.969 196.309 276.382 198.742 271.07 201.559C265.863 204.32 259.962 207.45 252.325 204.208C244.763 200.998 243.155 194.795 241.736 189.322C240.225 183.493 238.919 178.459 231.162 175.167C229.411 174.423 228.594 172.402 229.337 170.651C230.081 168.9 232.102 168.083 233.853 168.826C244.735 173.445 246.769 181.29 248.403 187.594C249.792 192.952 250.785 196.072 255.016 197.868C259.419 199.737 262.599 198.255 267.843 195.474C273.545 192.45 280.641 188.687 290.609 192.918C292.359 193.661 293.176 195.683 292.433 197.433Z" fill="#CF9FB7"/>
<path d="M238.571 180.951C238.571 180.952 238.572 180.952 238.572 180.952C240.208 183.433 240.944 186.269 241.736 189.323C243.155 194.795 244.763 200.998 252.325 204.208C259.961 207.45 265.863 204.32 271.069 201.559C273.7 200.164 276.153 198.863 278.803 198.264L278.804 198.263C278.074 196.092 277.508 193.864 277.007 191.616C277.006 191.616 277.006 191.616 277.006 191.616C273.537 192.454 270.534 194.046 267.842 195.474C262.601 198.254 259.42 199.736 255.02 197.87C255.019 197.869 255.017 197.869 255.016 197.868C255.013 197.867 255.01 197.865 255.008 197.864C250.783 196.067 249.791 192.949 248.403 187.594C247.592 184.465 246.681 180.957 244.64 177.652C244.64 177.651 244.639 177.65 244.639 177.65C242.608 178.735 240.579 179.824 238.571 180.951Z" fill="#E1B0B8"/>
<path d="M285.701 214.234C284.958 215.985 282.936 216.802 281.185 216.059C270.304 211.44 268.27 203.595 266.635 197.291C265.246 191.933 264.254 188.813 260.022 187.017C255.62 185.149 252.439 186.631 247.196 189.411C241.494 192.435 234.398 196.199 224.43 191.967C222.679 191.224 221.862 189.203 222.605 187.452C223.349 185.701 225.37 184.884 227.121 185.627C234.069 188.577 238.657 186.144 243.969 183.326C249.175 180.565 255.077 177.436 262.713 180.677C270.275 183.887 271.884 190.09 273.302 195.563C274.814 201.392 276.119 206.426 283.876 209.719C285.627 210.462 286.444 212.484 285.701 214.234Z" fill="#2E659F"/>
<path d="M280.763 174.181C279.482 174.556 278.747 175.899 279.122 177.181C279.497 178.462 280.84 179.197 282.122 178.822C283.403 178.447 284.138 177.104 283.763 175.822C283.388 174.541 282.045 173.806 280.763 174.181Z" fill="#CF9FB7"/>
<path d="M243.699 218.734C243.151 218.873 242.82 219.431 242.96 219.979C243.099 220.527 243.657 220.858 244.205 220.718C244.753 220.579 245.084 220.021 244.944 219.473C244.805 218.925 244.247 218.594 243.699 218.734Z" fill="#CF9FB7"/>
<path d="M255.72 219.616L257.553 217.989C257.632 217.92 257.679 217.826 257.682 217.729L257.771 215.48C257.783 215.163 258.212 214.99 258.442 215.209L260.068 216.766C260.137 216.832 260.236 216.868 260.341 216.863L262.79 216.759C263.136 216.745 263.29 217.125 263.031 217.355L261.197 218.982C261.118 219.052 261.072 219.146 261.068 219.242L260.979 221.491C260.967 221.809 260.539 221.982 260.309 221.762L258.683 220.206C258.613 220.139 258.515 220.104 258.41 220.108L255.96 220.212C255.614 220.227 255.46 219.846 255.72 219.616Z" fill="#EFAEB8"/>
<path d="M245.785 168.75L247.619 167.123C247.697 167.053 247.744 166.959 247.748 166.863L247.836 164.614C247.849 164.296 248.277 164.123 248.507 164.343L250.133 165.899C250.203 165.966 250.301 166.001 250.406 165.997L252.856 165.893C253.202 165.879 253.355 166.259 253.096 166.489L251.262 168.116C251.184 168.186 251.137 168.279 251.133 168.376L251.045 170.625C251.032 170.943 250.604 171.116 250.374 170.896L248.748 169.339C248.679 169.273 248.58 169.238 248.475 169.242L246.026 169.346C245.68 169.36 245.526 168.98 245.785 168.75Z" fill="#EFAEB8"/>
<path d="M262.826 166.697L264.66 165.07C264.739 165 264.786 164.906 264.789 164.81L264.878 162.561C264.89 162.243 265.319 162.07 265.548 162.29L267.175 163.846C267.244 163.913 267.343 163.948 267.448 163.944L269.897 163.84C270.243 163.825 270.397 164.206 270.138 164.436L268.304 166.063C268.225 166.132 268.179 166.226 268.175 166.322L268.086 168.572C268.074 168.889 267.646 169.062 267.416 168.842L265.79 167.286C265.72 167.219 265.621 167.184 265.517 167.189L263.067 167.292C262.721 167.307 262.567 166.926 262.826 166.697Z" fill="#EFAEB8"/>
<path d="M230.376 212.086L232.84 209.873C232.946 209.778 233.008 209.65 233.012 209.518L233.112 206.437C233.126 206.001 233.703 205.768 234.015 206.071L236.228 208.219C236.322 208.311 236.456 208.36 236.598 208.355L239.908 208.235C240.375 208.218 240.587 208.741 240.238 209.054L237.774 211.267C237.669 211.362 237.606 211.49 237.602 211.622L237.503 214.703C237.489 215.139 236.912 215.372 236.599 215.069L234.387 212.921C234.292 212.829 234.158 212.78 234.017 212.785L230.707 212.905C230.239 212.922 230.028 212.399 230.376 212.086Z" fill="#EFAEB8"/>
</g>
</g>
<g opacity="0.7" clip-path="url(#clip3)">
<path d="M263.69 57.3419L256.913 45.1154C255.829 43.1598 253.365 42.4531 251.409 43.5372L249.602 44.5385C247.647 45.6225 246.94 48.0868 248.024 50.0425L254.801 62.269C255.346 63.2521 255.466 64.42 255.11 65.4861C252.303 73.8923 251.637 88.2596 255.639 95.4797C261.39 104.695 268.905 100.527 278.783 95.0513C288.661 89.5757 296.67 85.139 291.411 75.651C287.409 68.4309 274.872 61.3824 266.255 59.3083C265.162 59.0452 264.235 58.325 263.69 57.3419Z" fill="#7BA6D3"/>
<path d="M257.932 78.5615C257.704 83.3233 258.405 87.5275 259.607 90.8518C262.677 98.4708 268.672 94.8596 276.338 90.6401C283.832 86.5152 290.823 82.9064 285.51 76.5718C283.266 73.8965 280.007 70.9605 275.848 68.6307L257.932 78.5615Z" fill="#EFAEB8"/>
<path d="M266.255 59.3084C265.162 59.0453 264.235 58.325 263.69 57.342L256.913 45.1155C255.829 43.1598 253.365 42.4532 251.409 43.5373L249.603 44.5387C249.271 44.7225 248.976 44.9468 248.719 45.2008C250.08 44.9232 251.778 46.1142 252.487 47.3934L257.958 57.2626C258.398 58.0562 259.146 58.6377 260.028 58.8499C266.983 60.5241 276.846 65.6394 280.077 71.4675C284.322 79.1264 277.857 82.7078 269.883 87.1276C263.315 90.7684 258.042 93.6917 253.792 90.4523C254.238 92.3402 254.847 94.0503 255.639 95.4796C261.391 104.695 268.905 100.527 278.783 95.0513C288.662 89.5757 296.671 85.139 291.411 75.651C287.409 68.4308 274.872 61.3823 266.255 59.3084Z" fill="#466E97"/>
<path d="M280.022 71.3722C280.04 71.404 280.059 71.4358 280.076 71.4676C284.322 79.1265 277.857 82.7079 269.883 87.1278C266.175 89.1831 262.88 91.009 259.949 91.6274C263.11 98.209 268.947 94.708 276.338 90.64C283.832 86.5151 290.823 82.9063 285.509 76.5717C284.082 74.8694 282.242 73.0621 280.022 71.3722Z" fill="#D18E98"/>
<path d="M256.176 45.3488L248.613 49.5409C246.836 50.5261 244.596 49.8839 243.611 48.1065C242.626 46.3292 243.268 44.0896 245.045 43.1044L252.608 38.9123C254.385 37.9271 256.625 38.5693 257.61 40.3467C258.595 42.124 257.953 44.3636 256.176 45.3488Z" fill="#2B4158"/>
<path d="M310.212 77.6298C307.372 79.204 303.794 78.1779 302.219 75.3379L285.269 44.7586L295.554 39.0578L312.504 69.6371C314.078 72.4771 313.052 76.0555 310.212 77.6298Z" fill="#7BA6D3"/>
<path d="M296.957 41.3426L286.438 47.1733C284.49 48.2534 282.034 47.5493 280.954 45.6008C279.874 43.6523 280.578 41.197 282.527 40.117L293.046 34.2863C294.994 33.2061 297.449 33.9102 298.529 35.8587C299.61 37.8072 298.906 40.2625 296.957 41.3426Z" fill="#2B4158"/>
<path d="M310.455 77.4953L310.2 77.6367L291.698 44.2579L296.852 41.4006L312.639 69.8796C314.139 72.5857 313.161 75.9954 310.455 77.4953Z" fill="#466E97"/>
<path d="M297.949 55.5063L292.807 58.3567C292.064 58.7683 291.129 58.5 290.717 57.7574C290.305 57.0149 290.574 56.0792 291.316 55.6676L296.459 52.8172C297.201 52.4055 298.137 52.6738 298.548 53.4164C298.96 54.159 298.692 55.0947 297.949 55.5063Z" fill="#95CDE6"/>
<path d="M301.057 61.1136L295.915 63.964C295.172 64.3756 294.237 64.1073 293.825 63.3647C293.413 62.6222 293.682 61.6865 294.424 61.2749L299.566 58.4245C300.309 58.0128 301.245 58.2811 301.656 59.0237C302.068 59.7663 301.8 60.702 301.057 61.1136Z" fill="#95CDE6"/>
<path d="M304.165 66.7209L299.023 69.5713C298.281 69.9829 297.345 69.7146 296.933 68.972C296.522 68.2295 296.79 67.2938 297.533 66.8822L302.675 64.0318C303.417 63.6201 304.353 63.8884 304.765 64.631C305.176 65.3736 304.908 66.3093 304.165 66.7209Z" fill="#95CDE6"/>
<path d="M277.881 76.9157C277.435 77.1626 276.874 77.0016 276.627 76.556L275.725 74.9291C275.478 74.4836 275.639 73.9221 276.084 73.6752C276.53 73.4282 277.092 73.5892 277.339 74.0348L278.24 75.6617C278.487 76.1072 278.326 76.6688 277.881 76.9157Z" fill="#B74A96"/>
<path d="M276.777 85.1164C276.331 85.3633 275.77 85.2024 275.523 84.7568L274.621 83.13C274.374 82.6845 274.535 82.123 274.981 81.876C275.426 81.6291 275.988 81.79 276.235 82.2356L277.136 83.8624C277.383 84.308 277.222 84.8694 276.777 85.1164Z" fill="#B74A96"/>
<path d="M268.714 84.9887C267.19 85.8336 265.262 85.2808 264.417 83.7566C263.572 82.2323 264.125 80.3046 265.649 79.4597C267.174 78.6147 269.101 79.1675 269.946 80.6918C270.791 82.2162 270.238 84.1437 268.714 84.9887ZM266.544 81.0732C265.909 81.4249 265.679 82.2275 266.031 82.8622C266.382 83.497 267.185 83.727 267.82 83.3752C268.454 83.0234 268.684 82.2209 268.333 81.5862C267.981 80.9516 267.178 80.7213 266.544 81.0732Z" fill="#B74A96"/>
<path d="M259.868 73.95C259.587 74.1058 259.255 74.1751 258.912 74.1274C258.071 74.0105 257.484 73.234 257.601 72.393C257.768 71.1908 258.006 69.9868 258.308 68.8143C258.519 67.9923 259.357 67.4969 260.179 67.7085C261.002 67.92 261.497 68.7579 261.285 69.5802C261.012 70.6405 260.798 71.7292 260.646 72.8164C260.577 73.3146 260.277 73.7236 259.868 73.95Z" fill="white"/>
<path d="M261.896 66.5512C261.49 66.7765 260.987 66.8157 260.529 66.6134C259.752 66.2703 259.401 65.3625 259.744 64.5859C259.819 64.4155 259.896 64.2509 259.972 64.0964C260.348 63.3352 261.27 63.0228 262.031 63.3988C262.793 63.7748 263.105 64.6966 262.729 65.4579C262.669 65.5801 262.611 65.7038 262.556 65.8283C262.415 66.1472 262.179 66.3944 261.896 66.5512Z" fill="white"/>
<path d="M256.528 26.633C257.292 28.0102 256.794 29.7457 255.417 30.5091C254.04 31.2725 252.304 30.7749 251.541 29.3976C250.778 28.0203 251.275 26.2849 252.652 25.5215C254.03 24.7581 255.765 25.2557 256.528 26.633Z" fill="#EFAEB8"/>
<path d="M288.238 23.3692C288.561 23.9524 288.351 24.6874 287.768 25.0107C287.184 25.334 286.449 25.1233 286.126 24.54C285.803 23.9568 286.013 23.2218 286.597 22.8984C287.18 22.5753 287.915 22.786 288.238 23.3692Z" fill="#EFAEB8"/>
<path d="M224.627 38.7511L226.795 40.6635C226.887 40.7455 227.004 40.7864 227.117 40.777L229.762 40.5573C230.136 40.5263 230.4 41.0026 230.176 41.3031L228.588 43.4297C228.52 43.5207 228.493 43.6415 228.513 43.7635L228.986 46.6151C229.053 47.018 228.63 47.2527 228.324 46.9824L226.156 45.0699C226.063 44.988 225.947 44.947 225.833 44.9565L223.188 45.1762C222.815 45.2071 222.551 44.7308 222.775 44.4304L224.363 42.3037C224.431 42.2126 224.458 42.092 224.438 41.97L223.964 39.1183C223.897 38.7154 224.321 38.4808 224.627 38.7511Z" fill="#F7C4DB"/>
<path d="M282.717 6.55103L284.885 8.46349C284.978 8.54541 285.094 8.58637 285.208 8.57691L287.853 8.35724C288.226 8.32631 288.49 8.80259 288.266 9.10306L286.678 11.2297C286.61 11.3207 286.583 11.4414 286.603 11.5634L287.076 14.4151C287.143 14.818 286.72 15.0526 286.414 14.7823L284.246 12.8699C284.153 12.788 284.037 12.747 283.924 12.7565L281.279 12.9761C280.905 13.0071 280.641 12.5308 280.865 12.2303L282.453 10.1037C282.521 10.0126 282.548 9.89194 282.528 9.76997L282.055 6.9183C281.988 6.51533 282.411 6.28074 282.717 6.55103Z" fill="#F7C4DB"/>
<path d="M270.095 24.9363L273.039 27.5023C273.165 27.6121 273.325 27.6664 273.48 27.6524L277.1 27.3259C277.612 27.2797 277.968 27.922 277.657 28.3312L275.462 31.2286C275.368 31.3527 275.33 31.5164 275.356 31.6815L275.972 35.538C276.059 36.0829 275.477 36.4053 275.061 36.0427L272.117 33.4767C271.991 33.3669 271.832 33.3125 271.677 33.3265L268.057 33.6531C267.545 33.6992 267.189 33.0571 267.499 32.6477L269.695 29.7503C269.789 29.6263 269.827 29.4626 269.801 29.2975L269.185 25.441C269.098 24.8961 269.679 24.5737 270.095 24.9363Z" fill="#F7C4DB"/>
</g>
<g opacity="0.7" clip-path="url(#clip4)">
<path d="M51.8658 47.3415L45.0281 50.1042C44.5029 50.3164 44.2492 50.9141 44.4614 51.4393L46.0348 55.3337C46.247 55.8589 46.8448 56.1126 47.37 55.9004L54.2077 53.1378C54.7329 52.9256 54.9866 52.3278 54.7744 51.8026L53.201 47.9083C52.9888 47.3831 52.391 47.1294 51.8658 47.3415Z" fill="#8BB6EF"/>
<path d="M36.3816 52.4916C30.2403 54.9728 23.2176 51.9247 20.6959 45.6834C18.1743 39.4421 21.1086 32.3711 27.2499 29.8898L24.9583 25.5677C15.6095 29.3449 11.3594 40.6455 15.4654 50.8083C19.5715 60.9712 30.4789 66.1479 39.8277 62.3707" fill="#D797A1"/>
<path d="M51.3916 42.4736L35.1752 49.0255C33.708 49.6183 32.0381 48.9094 31.4454 47.4423C30.8526 45.9751 31.5614 44.3053 33.0286 43.7125L49.245 37.1606C50.7122 36.5678 52.3821 37.2767 52.9748 38.7438C53.5676 40.211 52.8588 41.8808 51.3916 42.4736Z" fill="#D797A1"/>
<path d="M31.238 63.0008L40.4095 59.2953C41.4164 58.8885 41.9028 57.7425 41.496 56.7356L36.521 44.4221C36.1142 43.4152 34.9681 42.9288 33.9614 43.3355L28.0766 45.7131C27.2932 46.0296 26.7995 46.8114 26.8505 47.6549L28.5387 61.2964C28.6199 62.6376 29.9923 63.5041 31.238 63.0008Z" fill="#3E7CBD"/>
<path d="M33.9614 43.3356L31.0524 44.5109C31.7929 44.2117 32.616 44.5209 32.891 45.2016L36.2541 53.5255C36.5291 54.2061 36.1517 55.0004 35.4113 55.2995L28.666 58.0248C28.4933 58.0946 28.3183 58.131 28.1478 58.1382L28.5387 61.2963C28.6198 62.6375 29.9922 63.504 31.2379 63.0007L40.4095 59.2952C41.4163 58.8884 41.9027 57.7424 41.4959 56.7355L36.5209 44.422C36.1142 43.4152 34.9682 42.9288 33.9614 43.3356Z" fill="#2E659F"/>
<path d="M60.5398 55.7964L32.4421 67.1485C30.7082 67.8491 28.7346 67.0114 28.0341 65.2774C27.3335 63.5435 28.1712 61.57 29.9052 60.8694L58.0028 49.5172C59.7368 48.8167 61.7103 49.6544 62.4108 51.3883C63.1114 53.1223 62.2737 55.0958 60.5398 55.7964Z" fill="#355270"/>
<path d="M58.0027 49.5172L55.0953 50.6919C56.1113 50.2814 57.2676 50.7723 57.6781 51.7882C58.0886 52.8041 57.5977 53.9604 56.5817 54.3709L30.0915 65.0736C29.2717 65.4049 28.3608 65.1486 27.8239 64.5036C27.8625 64.7635 27.9313 65.023 28.0341 65.2773C28.7346 67.0112 30.7081 67.8489 32.4421 67.1484L60.5397 55.7962C62.2737 55.0956 63.1114 53.1221 62.4108 51.3882C61.7102 49.6544 59.7367 48.8167 58.0027 49.5172Z" fill="#2B4158"/>
<path d="M40.1074 34.8009L37.7147 36.748C36.6848 37.5861 35.1704 37.4306 34.3323 36.4007L28.802 29.6046L34.9244 24.6224L40.4547 31.4185C41.2929 32.4485 41.1373 33.9628 40.1074 34.8009Z" fill="#355270"/>
<path d="M35.0371 24.173L27.9878 27.0211L15.7174 18.1144C14.3491 17.1212 14.6078 15.0106 16.1754 14.3772L18.5173 13.431C19.2051 13.1531 19.9875 13.2491 20.5878 13.6848L35.0371 24.173Z" fill="#355270"/>
<path d="M37.6293 27.4277L30.9997 32.8226C29.8339 33.7713 28.1197 33.5952 27.1711 32.4294L21.7762 25.7999C20.8275 24.6341 21.0035 22.9199 22.1693 21.9712L28.799 16.5765C29.9647 15.6278 31.6789 15.8038 32.6276 16.9696L38.0225 23.5992C38.9711 24.7649 38.7951 26.4791 37.6293 27.4277Z" fill="#3E7CBD"/>
<path d="M38.022 23.5991L32.6272 16.9695C31.6785 15.8037 29.9643 15.6276 28.7985 16.5764L26.5638 18.3949C27.4315 17.6889 28.7073 17.8198 29.4135 18.6876L33.4289 23.6222C34.1351 24.4899 34.004 25.7657 33.1363 26.4719L28.2018 30.4873C27.334 31.1934 26.0582 31.0624 25.352 30.1947L27.1706 32.4295C28.1192 33.5953 29.8334 33.7713 30.9992 32.8227L37.6288 27.4278C38.7947 26.4791 38.9707 24.7649 38.022 23.5991Z" fill="#2E659F"/>
<path d="M22.8611 27.2129C22.5952 27.3203 22.2795 27.2485 22.0882 27.0148C21.8527 26.7272 21.895 26.3031 22.1827 26.0677L32.7785 17.3943C33.0664 17.1592 33.4902 17.2011 33.7257 17.4887C33.9612 17.7763 33.9189 18.2005 33.6312 18.4359L23.0354 27.1093C22.9814 27.1536 22.9227 27.188 22.8611 27.2129Z" fill="#EFAEB8"/>
<path d="M26.9729 31.8915C26.707 31.9989 26.3913 31.9271 26.2 31.6934C25.9645 31.4058 26.0068 30.9817 26.2945 30.7463L36.3539 22.5118C36.6417 22.2766 37.0656 22.3186 37.3011 22.6063C37.5366 22.8939 37.4942 23.318 37.2066 23.5534L27.1472 31.7879C27.0932 31.8321 27.0344 31.8667 26.9729 31.8915Z" fill="#EFAEB8"/>
<path d="M31.852 54.4889C31.7716 54.5214 31.6862 54.545 31.5967 54.5585C30.9839 54.65 30.413 54.2276 30.3213 53.6148L30.0912 52.0759C29.9996 51.4631 30.4222 50.8922 31.0348 50.8005C31.6476 50.709 32.2185 51.1314 32.3102 51.7442L32.5403 53.2831C32.6184 53.8064 32.3218 54.2991 31.852 54.4889Z" fill="white"/>
<path d="M31.1424 49.7432C31.0621 49.7757 30.9768 49.7993 30.8873 49.8127C30.2746 49.9044 29.7035 49.4821 29.6118 48.8692L29.5686 48.5801C29.4772 47.9673 29.9 47.3968 30.5124 47.305C31.1252 47.2135 31.6961 47.6361 31.7877 48.2489L31.8307 48.5371C31.9091 49.0604 31.6124 49.5534 31.1424 49.7432Z" fill="white"/>
<path d="M52.779 12.7261C52.6063 11.59 51.5453 10.8091 50.4092 10.9818C49.2731 11.1546 48.4921 12.2155 48.6648 13.3516C48.8375 14.4876 49.8985 15.2685 51.0346 15.0958C52.1707 14.9231 52.9517 13.8621 52.779 12.7261Z" fill="#355270"/>
<path d="M45.9952 24.1452C46.4463 23.9629 46.6643 23.4494 46.482 22.9982C46.2997 22.547 45.7862 22.329 45.335 22.5113C44.8838 22.6936 44.6658 23.2071 44.8481 23.6583C45.0304 24.1095 45.544 24.3275 45.9952 24.1452Z" fill="#355270"/>
<path d="M37.8757 9.23942L39.2756 10.8174C39.3354 10.885 39.4163 10.925 39.4991 10.9283L41.4343 11.0045C41.7077 11.0152 41.8565 11.3837 41.6674 11.5814L40.3282 12.9805C40.2708 13.0404 40.2406 13.1253 40.2445 13.2155L40.3336 15.323C40.3463 15.6208 40.0189 15.7531 39.8211 15.5301L38.4213 13.9522C38.3613 13.8846 38.2805 13.8445 38.1976 13.8413L36.2624 13.7651C35.989 13.7543 35.8402 13.3859 36.0293 13.1882L37.3685 11.7891C37.4259 11.7292 37.4561 11.6443 37.4523 11.554L37.3632 9.4465C37.3504 9.14878 37.6778 9.0165 37.8757 9.23942Z" fill="#3E7CBD"/>
<path d="M53.4353 21.7216L55.3394 23.8419C55.4209 23.9327 55.5313 23.9861 55.6448 23.9899L58.2962 24.0754C58.6708 24.0874 58.8715 24.5843 58.6104 24.8532L56.7626 26.7565C56.6835 26.8379 56.6412 26.9531 56.6456 27.0751L56.7488 29.923C56.7634 30.3253 56.3135 30.5071 56.0445 30.2076L54.1404 28.0873C54.0589 27.9965 53.9485 27.9431 53.8349 27.9393L51.1835 27.8538C50.8089 27.8418 50.6082 27.3449 50.8693 27.076L52.7171 25.1727C52.7963 25.0913 52.8385 24.9761 52.8341 24.8541L52.7309 22.0062C52.7163 21.6039 53.1663 21.4221 53.4353 21.7216Z" fill="#3E7CBD"/>
</g>
<defs>
<clipPath id="clip0">
<rect width="87.0952" height="87.0952" fill="white" transform="translate(107.59 41.1102) rotate(11)"/>
</clipPath>
<clipPath id="clip1">
<rect width="61.2512" height="61.2512" fill="white" transform="translate(115.873 193.364)"/>
</clipPath>
<clipPath id="clip2">
<rect width="64.3657" height="64.3657" fill="white" transform="translate(239.112 234.59) rotate(-112)"/>
</clipPath>
<clipPath id="clip3">
<rect width="75.7854" height="75.7854" fill="white" transform="translate(220.059 40.953) rotate(-29)"/>
</clipPath>
<clipPath id="clip4">
<rect width="55.0223" height="55.0223" fill="white" transform="translate(0.575684 20.68) rotate(-22)"/>
</clipPath>
</defs>
</svg>
