<svg width="441" height="115" viewBox="0 0 441 115" fill="none" xmlns="http://www.w3.org/2000/svg">
<g opacity="0.7" clip-path="url(#clip0)">
<path d="M260.872 61.6353L254.094 49.4089C253.01 47.4533 250.546 46.7465 248.59 47.8306L246.784 48.832C244.828 49.916 244.121 52.3802 245.206 54.336L251.983 66.5624C252.528 67.5455 252.647 68.7135 252.291 69.7796C249.484 78.1857 248.818 92.5531 252.82 99.7732C258.572 108.988 266.086 104.82 275.964 99.3447C285.843 93.8692 293.852 89.4324 288.592 79.9444C284.59 72.7243 272.053 65.6759 263.437 63.6018C262.344 63.3387 261.416 62.6184 260.872 61.6353Z" fill="#7BA6D3"/>
<path d="M255.113 82.855C254.885 87.6168 255.586 91.8209 256.788 95.1453C259.858 102.764 265.853 99.1531 273.519 94.9336C281.013 90.8086 288.004 87.1999 282.691 80.8653C280.447 78.1899 277.189 75.254 273.029 72.9241L255.113 82.855Z" fill="#EFAEB8"/>
<path d="M263.436 63.6018C262.343 63.3388 261.416 62.6184 260.871 61.6354L254.094 49.409C253.01 47.4533 250.546 46.7467 248.59 47.8308L246.784 48.8321C246.452 49.016 246.157 49.2402 245.9 49.4942C247.261 49.2167 248.959 50.4077 249.668 51.6868L255.139 61.5561C255.579 62.3497 256.327 62.9311 257.209 63.1433C264.164 64.8176 274.027 69.9328 277.258 75.761C281.503 83.4198 275.038 87.0012 267.064 91.4211C260.496 95.0619 255.223 97.9852 250.973 94.7458C251.419 96.6337 252.028 98.3437 252.82 99.7731C258.572 108.988 266.086 104.82 275.964 99.3448C285.842 93.8692 293.851 89.4324 288.592 79.9444C284.59 72.7243 272.053 65.6758 263.436 63.6018Z" fill="#466E97"/>
<path d="M277.203 75.6657C277.221 75.6975 277.24 75.7292 277.258 75.7611C281.503 83.4199 275.038 87.0013 267.064 91.4212C263.356 93.4765 260.061 95.3024 257.13 95.9209C260.291 102.502 266.128 99.0015 273.519 94.9335C281.013 90.8086 288.004 87.1998 282.691 80.8652C281.263 79.1629 279.423 77.3556 277.203 75.6657Z" fill="#D18E98"/>
<path d="M253.357 49.6423L245.794 53.8343C244.017 54.8195 241.777 54.1773 240.792 52.4C239.807 50.6226 240.449 48.383 242.226 47.3978L249.789 43.2058C251.566 42.2206 253.806 42.8628 254.791 44.6401C255.776 46.4175 255.134 48.6571 253.357 49.6423Z" fill="#2B4158"/>
<path d="M307.394 81.9233C304.554 83.4975 300.975 82.4714 299.401 79.6314L282.45 49.0521L292.735 43.3513L309.685 73.9306C311.26 76.7705 310.234 80.349 307.394 81.9233Z" fill="#7BA6D3"/>
<path d="M294.138 45.6361L283.619 51.4668C281.671 52.5468 279.216 51.8428 278.136 49.8943C277.056 47.9458 277.76 45.4905 279.708 44.4104L290.227 38.5797C292.176 37.4996 294.631 38.2037 295.711 40.1522C296.791 42.1007 296.087 44.5559 294.138 45.6361Z" fill="#2B4158"/>
<path d="M307.636 81.7888L307.381 81.9301L288.879 48.5514L294.034 45.6941L309.82 74.1731C311.32 76.8792 310.342 80.2888 307.636 81.7888Z" fill="#466E97"/>
<path d="M295.13 59.7998L289.988 62.6502C289.245 63.0618 288.31 62.7935 287.898 62.0509C287.486 61.3083 287.755 60.3726 288.497 59.961L293.639 57.1106C294.382 56.699 295.318 56.9673 295.729 57.7099C296.141 58.4525 295.873 59.3881 295.13 59.7998Z" fill="#95CDE6"/>
<path d="M298.238 65.4071L293.096 68.2575C292.354 68.6691 291.418 68.4008 291.006 67.6582C290.595 66.9156 290.863 65.9799 291.606 65.5683L296.748 62.7179C297.49 62.3063 298.426 62.5746 298.838 63.3172C299.249 64.0598 298.981 64.9954 298.238 65.4071Z" fill="#95CDE6"/>
<path d="M301.347 71.0143L296.204 73.8648C295.462 74.2764 294.526 74.0081 294.114 73.2655C293.703 72.5229 293.971 71.5872 294.714 71.1756L299.856 68.3252C300.599 67.9136 301.534 68.1819 301.946 68.9245C302.357 69.6671 302.089 70.6027 301.347 71.0143Z" fill="#95CDE6"/>
<path d="M275.062 81.2091C274.616 81.4561 274.055 81.2951 273.808 80.8495L272.906 79.2226C272.659 78.7771 272.82 78.2156 273.266 77.9686C273.711 77.7217 274.273 77.8826 274.52 78.3282L275.421 79.9551C275.668 80.4007 275.507 80.9622 275.062 81.2091Z" fill="#B74A96"/>
<path d="M273.958 89.4098C273.512 89.6568 272.951 89.4959 272.704 89.0503L271.802 87.4235C271.555 86.978 271.716 86.4165 272.162 86.1695C272.607 85.9225 273.169 86.0834 273.416 86.529L274.317 88.1558C274.564 88.6014 274.403 89.1628 273.958 89.4098Z" fill="#B74A96"/>
<path d="M265.895 89.2821C264.371 90.1271 262.443 89.5743 261.598 88.05C260.753 86.5258 261.306 84.5981 262.83 83.7532C264.355 82.9082 266.282 83.461 267.127 84.9852C267.972 86.5097 267.419 88.4372 265.895 89.2821ZM263.725 85.3666C263.09 85.7184 262.86 86.5209 263.212 87.1557C263.563 87.7904 264.366 88.0205 265.001 87.6687C265.635 87.3168 265.865 86.5144 265.514 85.8796C265.162 85.245 264.359 85.0148 263.725 85.3666Z" fill="#B74A96"/>
<path d="M257.049 78.2434C256.768 78.3993 256.436 78.4685 256.093 78.4208C255.252 78.3039 254.665 77.5274 254.782 76.6864C254.949 75.4843 255.187 74.2802 255.489 73.1078C255.7 72.2858 256.538 71.7903 257.36 72.0019C258.183 72.2134 258.678 73.0514 258.466 73.8736C258.194 74.9339 257.979 76.0226 257.828 77.1098C257.758 77.608 257.458 78.017 257.049 78.2434Z" fill="white"/>
<path d="M259.077 70.8447C258.671 71.07 258.168 71.1092 257.71 70.9068C256.933 70.5637 256.582 69.656 256.925 68.8793C257 68.709 257.077 68.5444 257.153 68.3899C257.529 67.6286 258.451 67.3163 259.212 67.6923C259.974 68.0682 260.286 68.9901 259.91 69.7514C259.85 69.8736 259.793 69.9973 259.737 70.1218C259.596 70.4406 259.36 70.6878 259.077 70.8447Z" fill="white"/>
<path d="M253.709 30.9265C254.473 32.3037 253.975 34.0391 252.598 34.8025C251.221 35.566 249.485 35.0684 248.722 33.6911C247.958 32.3137 248.456 30.5784 249.833 29.8149C251.211 29.0515 252.946 29.5491 253.709 30.9265Z" fill="#EFAEB8"/>
<path d="M285.419 27.6627C285.743 28.2459 285.532 28.9809 284.949 29.3042C284.365 29.6274 283.63 29.4168 283.307 28.8334C282.984 28.2502 283.194 27.5152 283.778 27.1919C284.361 26.8687 285.096 27.0795 285.419 27.6627Z" fill="#EFAEB8"/>
<path d="M221.808 43.0445L223.975 44.957C224.068 45.0389 224.185 45.0799 224.298 45.0704L226.943 44.8507C227.317 44.8197 227.581 45.296 227.356 45.5966L225.769 47.7232C225.701 47.8142 225.674 47.9349 225.694 48.0569L226.167 50.9086C226.234 51.3115 225.811 51.5461 225.504 51.2758L223.337 49.3634C223.244 49.2815 223.127 49.2405 223.014 49.25L220.369 49.4696C219.996 49.5006 219.732 49.0243 219.956 48.7238L221.544 46.5972C221.612 46.5061 221.639 46.3854 221.619 46.2635L221.145 43.4118C221.078 43.0089 221.502 42.7742 221.808 43.0445Z" fill="#F7C4DB"/>
<path d="M279.898 10.8445L282.066 12.7569C282.159 12.8389 282.275 12.8798 282.388 12.8704L285.033 12.6507C285.407 12.6198 285.671 13.0961 285.447 13.3965L283.859 15.5231C283.791 15.6141 283.764 15.7349 283.784 15.8569L284.257 18.7085C284.324 19.1114 283.901 19.3461 283.595 19.0758L281.427 17.1633C281.334 17.0814 281.218 17.0405 281.105 17.0499L278.46 17.2696C278.086 17.3005 277.822 16.8242 278.046 16.5238L279.634 14.3972C279.702 14.306 279.729 14.1854 279.709 14.0634L279.236 11.2118C279.169 10.8088 279.592 10.5742 279.898 10.8445Z" fill="#F7C4DB"/>
<path d="M267.276 29.2297L270.22 31.7957C270.346 31.9056 270.505 31.9599 270.66 31.9459L274.281 31.6193C274.793 31.5732 275.149 32.2154 274.838 32.6247L272.643 35.5221C272.549 35.6461 272.511 35.8098 272.537 35.9749L273.153 39.8315C273.24 40.3763 272.658 40.6988 272.242 40.3361L269.298 37.7702C269.172 37.6603 269.013 37.606 268.858 37.62L265.237 37.9466C264.726 37.9927 264.37 37.3506 264.68 36.9412L266.876 34.0438C266.97 33.9197 267.008 33.7561 266.982 33.5909L266.366 29.7344C266.279 29.1895 266.86 28.8672 267.276 29.2297Z" fill="#F7C4DB"/>
</g>
<g clip-path="url(#clip1)">
<g opacity="0.7">
<path d="M411.614 77.9583C410.242 73.945 405.876 71.8039 401.863 73.176C397.849 74.5481 395.708 78.9138 397.08 82.927C398.452 86.9403 402.818 89.0814 406.831 87.7093C410.845 86.3372 412.986 81.9715 411.614 77.9583Z" fill="#EF8BBD"/>
<path d="M401.155 73.4407C400.842 73.5834 400.544 73.7464 400.26 73.9241C402.954 73.1679 405.871 74.4656 407.068 77.091C408.39 79.9927 407.11 83.4168 404.208 84.7392C401.583 85.9357 398.53 85.0011 396.993 82.6631C397.091 82.9838 397.208 83.3019 397.351 83.6152C399.11 87.4754 403.666 89.1786 407.526 87.4194C411.386 85.6602 413.089 81.1048 411.33 77.2447C409.571 73.3847 405.015 71.6815 401.155 73.4407Z" fill="#E068BD"/>
<path d="M414.607 102.959C411.221 104.502 406.982 103.499 402.672 100.136C398.562 96.9288 394.815 91.9078 392.122 85.9982C389.429 80.0886 388.098 73.9668 388.374 68.7606C388.663 63.3012 390.687 59.4447 394.073 57.9015C397.46 56.3583 401.698 57.3608 406.008 60.724C410.118 63.9314 413.865 68.9524 416.558 74.862C419.251 80.7716 420.583 86.8933 420.307 92.0996C420.018 97.5589 417.993 101.415 414.607 102.959ZM394.975 59.8811C392.363 61.0715 390.79 64.2659 390.546 68.8757C390.288 73.7387 391.551 79.4992 394.102 85.096C396.652 90.6928 400.171 95.4251 404.011 98.421C407.65 101.261 411.093 102.169 413.705 100.979C416.317 99.7886 417.89 96.5943 418.134 91.9844C418.392 87.1215 417.129 81.361 414.579 75.7642C412.028 70.1673 408.509 65.4351 404.67 62.4392C401.03 59.5991 397.588 58.6907 394.975 59.8811Z" fill="#1D3F5E"/>
<path d="M401.305 100.533C396.803 102.584 392.803 102.611 389.963 100.586C386.934 98.4247 385.683 94.2528 386.44 88.8386C387.163 83.6754 389.638 77.9201 393.409 72.6329C397.18 67.3457 401.816 63.1319 406.463 60.7678C411.335 58.2883 415.687 58.1134 418.717 60.2744C421.747 62.4354 422.998 66.6072 422.24 72.0216C421.518 77.1848 419.043 82.94 415.271 88.2272L414.386 87.5956L415.271 88.2272C411.5 93.5144 406.864 97.7282 402.217 100.092C401.911 100.248 401.607 100.395 401.305 100.533ZM408.287 62.3028C408.01 62.4288 407.732 62.5632 407.45 62.7069C403.109 64.9152 398.752 68.889 395.18 73.8963C391.608 78.9036 389.27 84.3172 388.595 89.1401C387.955 93.7119 388.89 97.1477 391.227 98.8147C393.404 100.367 396.636 100.27 400.394 98.5574C400.67 98.4314 400.949 98.297 401.231 98.1534C405.571 95.9451 409.929 91.9713 413.5 86.964C417.072 81.9567 419.411 76.543 420.086 71.7201C420.726 67.1484 419.791 63.7125 417.454 62.0455C415.277 60.4928 412.045 60.5903 408.287 62.3028Z" fill="#1D3F5E"/>
<path d="M421.503 91.3276C421.201 91.4654 420.891 91.5985 420.572 91.7276C415.739 93.6834 409.518 94.4177 403.053 93.7953C396.589 93.1729 390.622 91.2648 386.251 88.4228C381.668 85.4426 379.34 81.7613 379.697 78.057C380.053 74.3528 383.04 71.1829 388.108 69.1324C392.941 67.1766 399.163 66.4423 405.627 67.0647C412.092 67.6871 418.059 69.5951 422.43 72.4372C427.013 75.4175 429.341 79.0987 428.984 82.8029C428.65 86.2741 426.005 89.276 421.503 91.3276ZM388.07 71.516C384.312 73.2287 382.118 75.6039 381.862 78.2657C381.587 81.1231 383.567 84.0825 387.437 86.599C391.52 89.2538 397.14 91.0404 403.262 91.6299C409.384 92.2194 415.242 91.5379 419.756 89.711C424.036 87.9789 426.543 85.4519 426.819 82.5945C427.094 79.7372 425.114 76.7776 421.244 74.2612C417.161 71.6065 411.541 69.8199 405.419 69.2303C399.296 68.6409 393.439 69.3223 388.924 71.1492C388.631 71.2677 388.347 71.3901 388.07 71.516Z" fill="#1D3F5E"/>
<path d="M403.203 60.7293C404.071 59.4182 403.711 57.6519 402.4 56.7843C401.089 55.9166 399.323 56.2762 398.455 57.5873C397.587 58.8984 397.947 60.6647 399.258 61.5324C400.569 62.4 402.335 62.0405 403.203 60.7293Z" fill="#2E659F"/>
<path d="M384.46 84.5802C385.524 83.4232 385.448 81.6227 384.291 80.5586C383.134 79.4946 381.334 79.57 380.27 80.727C379.206 81.884 379.281 83.6846 380.438 84.7486C381.595 85.8126 383.396 85.7372 384.46 84.5802Z" fill="#2E659F"/>
<path d="M408.449 97.4035C409.88 96.7515 410.511 95.0632 409.859 93.6325C409.207 92.2018 407.519 91.5706 406.088 92.2226C404.657 92.8746 404.026 94.5629 404.678 95.9936C405.33 97.4243 407.018 98.0555 408.449 97.4035Z" fill="#2E659F"/>
<path d="M402.245 78.8962C402.628 79.7362 402.257 80.7275 401.417 81.1103C400.577 81.4932 399.586 81.1226 399.203 80.2825C398.82 79.4425 399.191 78.451 400.031 78.0682C400.871 77.6855 401.862 78.0561 402.245 78.8962Z" fill="#E7EFFA"/>
<path d="M383.845 61.147C384.307 62.1608 383.86 63.3574 382.846 63.8194C381.832 64.2815 380.636 63.8342 380.174 62.8202C379.711 61.8063 380.159 60.6098 381.173 60.1478C382.187 59.6858 383.383 60.1331 383.845 61.147Z" fill="#2E659F"/>
<path d="M410.323 54.0956C410.519 54.5249 410.33 55.0317 409.9 55.2273C409.471 55.423 408.964 55.2336 408.768 54.8042C408.573 54.3749 408.762 53.8681 409.192 53.6724C409.621 53.4769 410.128 53.6663 410.323 54.0956Z" fill="#2E659F"/>
<path d="M373.777 70.0293L375.2 71.4987C375.261 71.5616 375.341 71.5971 375.421 71.5967L377.299 71.5885C377.564 71.5874 377.724 71.9381 377.549 72.1376L376.311 73.5496C376.258 73.61 376.232 73.6936 376.24 73.7808L376.415 75.8187C376.44 76.1067 376.128 76.2486 375.927 76.041L374.505 74.5716C374.444 74.5087 374.364 74.4732 374.283 74.4736L372.405 74.4817C372.14 74.4828 371.98 74.1321 372.155 73.9326L373.393 72.5207C373.446 72.4602 373.472 72.3767 373.465 72.2894L373.289 70.2516C373.264 69.9637 373.576 69.8218 373.777 70.0293Z" fill="#EFAEB8"/>
<path d="M413.494 42.9224L415.429 44.896C415.511 44.9805 415.621 45.0276 415.731 45.0263L418.303 44.9969C418.666 44.9928 418.882 45.4655 418.64 45.7371L416.931 47.6591C416.857 47.7414 416.821 47.8547 416.831 47.9726L417.051 50.7272C417.082 51.1163 416.654 51.3114 416.381 51.0326L414.447 49.0591C414.364 48.9746 414.255 48.9275 414.144 48.9288L411.572 48.958C411.209 48.9623 410.993 48.4894 411.235 48.2179L412.945 46.296C413.018 46.2136 413.054 46.1003 413.044 45.9824L412.824 43.2278C412.793 42.8386 413.221 42.6435 413.494 42.9224Z" fill="#EFAEB8"/>
</g>
</g>
<g opacity="0.7" clip-path="url(#clip2)">
<path d="M51.6627 86.1145L44.825 88.8771C44.2998 89.0893 44.046 89.6871 44.2582 90.2123L45.8317 94.1067C46.0438 94.6319 46.6416 94.8856 47.1668 94.6734L54.0045 91.9108C54.5297 91.6986 54.7835 91.1008 54.5713 90.5756L52.9979 86.6813C52.7857 86.1561 52.1879 85.9023 51.6627 86.1145Z" fill="#8BB6EF"/>
<path d="M36.1785 91.2646C30.0372 93.7458 23.0144 90.6976 20.4928 84.4564C17.9712 78.2151 20.9055 71.144 27.0468 68.6628L24.7552 64.3407C15.4064 68.1179 11.1563 79.4185 15.2623 89.5813C19.3684 99.7442 30.2757 104.921 39.6246 101.144" fill="#D797A1"/>
<path d="M51.1885 81.2466L34.972 87.7985C33.5048 88.3913 31.835 87.6824 31.2422 86.2153C30.6495 84.7481 31.3582 83.0782 32.8255 82.4854L49.0419 75.9336C50.5091 75.3408 52.1789 76.0497 52.7717 77.5168C53.3645 78.984 52.6557 80.6538 51.1885 81.2466Z" fill="#D797A1"/>
<path d="M31.0348 101.774L40.2064 98.0683C41.2133 97.6615 41.6996 96.5155 41.2928 95.5086L36.3179 83.1951C35.9111 82.1882 34.765 81.7017 33.7582 82.1085L27.8735 84.4861C27.09 84.8026 26.5964 85.5844 26.6474 86.4278L28.3356 100.069C28.4168 101.411 29.7891 102.277 31.0348 101.774Z" fill="#3E7CBD"/>
<path d="M33.7582 82.1086L30.8493 83.2839C31.5898 82.9847 32.4129 83.2939 32.6879 83.9745L36.051 92.2985C36.326 92.9791 35.9486 93.7734 35.2081 94.0725L28.4629 96.7978C28.2901 96.8676 28.1152 96.904 27.9447 96.9112L28.3355 100.069C28.4167 101.41 29.7891 102.277 31.0348 101.774L40.2063 98.0681C41.2132 97.6613 41.6996 96.5153 41.2928 95.5085L36.3178 83.195C35.9111 82.1881 34.7651 81.7018 33.7582 82.1086Z" fill="#2E659F"/>
<path d="M60.3369 94.5693L32.2392 105.922C30.5053 106.622 28.5318 105.784 27.8312 104.05C27.1307 102.316 27.9684 100.343 29.7023 99.6424L57.7999 88.2902C59.5339 87.5897 61.5074 88.4274 62.208 90.1613C62.9085 91.8952 62.0708 93.8688 60.3369 94.5693Z" fill="#355270"/>
<path d="M57.7998 88.2902L54.8924 89.4649C55.9084 89.0544 57.0648 89.5453 57.4752 90.5612C57.8857 91.5771 57.3948 92.7334 56.3789 93.1439L29.8886 103.847C29.0688 104.178 28.158 103.922 27.621 103.277C27.6596 103.536 27.7284 103.796 27.8312 104.05C28.5317 105.784 30.5053 106.622 32.2392 105.921L60.3368 94.5692C62.0708 93.8686 62.9085 91.8951 62.2079 90.1612C61.5073 88.4274 59.5338 87.5896 57.7998 88.2902Z" fill="#2B4158"/>
<path d="M39.9043 73.5739L37.5116 75.521C36.4817 76.3591 34.9673 76.2035 34.1291 75.1737L28.5988 68.3776L34.7213 63.3954L40.2516 70.1915C41.0898 71.2215 40.9342 72.7358 39.9043 73.5739Z" fill="#355270"/>
<path d="M34.8342 62.946L27.7849 65.794L15.5145 56.8874C14.1462 55.8942 14.4049 53.7836 15.9725 53.1502L18.3144 52.204C19.0022 51.9261 19.7846 52.0221 20.3849 52.4578L34.8342 62.946Z" fill="#355270"/>
<path d="M37.4259 66.2007L30.7963 71.5956C29.6305 72.5442 27.9163 72.3682 26.9677 71.2024L21.5728 64.5728C20.6242 63.4071 20.8002 61.6929 21.966 60.7442L28.5956 55.3494C29.7614 54.4008 31.4756 54.5768 32.4242 55.7426L37.8191 62.3722C38.7677 63.5379 38.5917 65.252 37.4259 66.2007Z" fill="#3E7CBD"/>
<path d="M37.8189 62.3721L32.424 55.7425C31.4754 54.5767 29.7612 54.4006 28.5954 55.3493L26.3607 57.1679C27.2284 56.4618 28.5042 56.5928 29.2103 57.4606L33.2258 62.3951C33.9319 63.2629 33.8009 64.5387 32.9332 65.2449L27.9986 69.2603C27.1309 69.9664 25.855 69.8353 25.1489 68.9676L26.9674 71.2025C27.9161 72.3683 29.6303 72.5443 30.7961 71.5956L37.4257 66.2008C38.5916 65.2521 38.7676 63.5379 37.8189 62.3721Z" fill="#2E659F"/>
<path d="M22.658 65.9859C22.392 66.0933 22.0764 66.0215 21.8851 65.7878C21.6496 65.5002 21.6919 65.0761 21.9796 64.8407L32.5754 56.1672C32.8632 55.9321 33.2871 55.974 33.5226 56.2617C33.7581 56.5493 33.7158 56.9734 33.4281 57.2088L22.8323 65.8823C22.7783 65.9266 22.7196 65.961 22.658 65.9859Z" fill="#EFAEB8"/>
<path d="M26.77 70.6645C26.5041 70.7719 26.1884 70.7001 25.9971 70.4664C25.7617 70.1788 25.8039 69.7547 26.0916 69.5193L36.151 61.2848C36.4388 61.0496 36.8627 61.0916 37.0982 61.3793C37.3337 61.6668 37.2913 62.091 37.0037 62.3264L26.9443 70.5609C26.8903 70.6051 26.8315 70.6396 26.77 70.6645Z" fill="#EFAEB8"/>
<path d="M31.6491 93.2619C31.5687 93.2944 31.4833 93.318 31.3938 93.3314C30.781 93.423 30.2101 93.0005 30.1184 92.3878L29.8883 90.8489C29.7967 90.2361 30.2193 89.6651 30.8319 89.5735C31.4447 89.4819 32.0156 89.9044 32.1073 90.5171L32.3374 92.0561C32.4155 92.5794 32.1189 93.0721 31.6491 93.2619Z" fill="white"/>
<path d="M30.9393 88.5162C30.859 88.5487 30.7737 88.5722 30.6842 88.5857C30.0715 88.6773 29.5004 88.2551 29.4087 87.6422L29.3655 87.3531C29.274 86.7403 29.6969 86.1698 30.3093 86.0779C30.9221 85.9865 31.493 86.4091 31.5845 87.0218L31.6276 87.3101C31.706 87.8334 31.4093 88.3263 30.9393 88.5162Z" fill="white"/>
<path d="M52.5761 51.499C52.4034 50.363 51.3424 49.5821 50.2063 49.7548C49.0702 49.9275 48.2892 50.9885 48.4619 52.1245C48.6346 53.2606 49.6956 54.0415 50.8318 53.8688C51.9679 53.696 52.7488 52.6351 52.5761 51.499Z" fill="#355270"/>
<path d="M45.7923 62.9182C46.2435 62.7359 46.4615 62.2223 46.2792 61.7712C46.0969 61.32 45.5833 61.102 45.1321 61.2843C44.6809 61.4666 44.463 61.9801 44.6453 62.4313C44.8275 62.8825 45.3411 63.1005 45.7923 62.9182Z" fill="#355270"/>
<path d="M37.6728 48.0124L39.0727 49.5904C39.1326 49.658 39.2134 49.698 39.2962 49.7013L41.2314 49.7774C41.5048 49.7882 41.6537 50.1567 41.4645 50.3544L40.1253 51.7535C40.068 51.8134 40.0377 51.8983 40.0416 51.9885L40.1308 54.096C40.1434 54.3938 39.816 54.5261 39.6182 54.3031L38.2184 52.7251C38.1584 52.6576 38.0776 52.6175 37.9947 52.6143L36.0595 52.5381C35.7862 52.5273 35.6373 52.1589 35.8264 51.9612L37.1656 50.5621C37.223 50.5022 37.2532 50.4173 37.2495 50.327L37.1603 48.2195C37.1475 47.9218 37.475 47.7895 37.6728 48.0124Z" fill="#3E7CBD"/>
<path d="M53.2326 60.4946L55.1367 62.6149C55.2182 62.7057 55.3286 62.7591 55.4422 62.7628L58.0935 62.8484C58.4682 62.8604 58.6689 63.3572 58.4078 63.6261L56.56 65.5294C56.4808 65.6109 56.4385 65.7261 56.443 65.848L56.5462 68.696C56.5607 69.0983 56.1109 69.2801 55.8418 68.9806L53.9377 66.8602C53.8562 66.7695 53.7458 66.716 53.6322 66.7123L50.9809 66.6268C50.6063 66.6147 50.4056 66.1179 50.6667 65.849L52.5145 63.9457C52.5936 63.8642 52.6359 63.7491 52.6315 63.6271L52.5283 60.7792C52.5137 60.3768 52.9637 60.195 53.2326 60.4946Z" fill="#3E7CBD"/>
</g>
<g clip-path="url(#clip3)">
<g opacity="0.7">
<path d="M151.711 41.8601L156.418 45.0349L152.696 50.5532L147.989 47.3784L151.711 41.8601Z" fill="#183C5C"/>
<path opacity="0.3" d="M151.711 41.8601L156.418 45.0349L152.696 50.5532L147.989 47.3784" fill="#00CFFF"/>
<path d="M169.294 52.3046C168.16 52.5249 167.063 51.7845 166.842 50.6509L158.18 6.08707C157.96 4.95339 158.7 3.85573 159.834 3.63536C160.967 3.41499 162.065 4.15537 162.285 5.28906L170.948 49.8528C171.168 50.9865 170.428 52.0842 169.294 52.3046Z" fill="#183C5C"/>
<path opacity="0.3" d="M169.294 52.3046C168.16 52.5249 167.063 51.7845 166.842 50.6509L158.18 6.08707C157.96 4.95339 158.7 3.85573 159.834 3.63536C160.967 3.41499 162.065 4.15537 162.285 5.28906L170.948 49.8528C171.168 50.9865 170.428 52.0842 169.294 52.3046Z" fill="#00CFFF"/>
<path d="M172.538 41.792C167.372 44.7614 160.73 44.7171 155.492 41.0993C148.385 36.1905 146.484 26.4084 151.235 19.1947C154.736 13.8784 160.877 11.3495 166.78 12.1674C168.108 12.3514 169.225 11.1823 168.969 9.86637C168.811 9.05112 168.153 8.42207 167.331 8.30765C160.04 7.29351 152.454 10.383 148.079 16.8972C142.001 25.9446 144.403 38.3001 153.427 44.4122C159.924 48.8128 168.115 48.8358 174.495 45.1643C175.215 44.75 175.588 43.9207 175.43 43.1054C175.174 41.7894 173.7 41.1239 172.538 41.792Z" fill="#183C5C"/>
<path d="M154.244 55.769L142.58 47.9013C141.512 47.1809 141.23 45.7309 141.951 44.6629C142.671 43.5948 144.121 43.3129 145.189 44.0334L156.853 51.9011C157.922 52.6215 158.203 54.0714 157.483 55.1395C156.763 56.2076 155.313 56.4895 154.244 55.769Z" fill="#183C5C"/>
<path d="M157.644 38.2292C163.31 42.0506 171 40.5557 174.822 34.8902C178.643 29.2247 177.148 21.5341 171.483 17.7127C165.817 13.8912 158.127 15.3862 154.305 21.0516C150.484 26.7171 151.979 34.4078 157.644 38.2292Z" fill="#8BB6EF"/>
<path d="M157.644 38.2279C158.492 38.8001 159.386 39.2522 160.306 39.5899C160.194 35.4231 156.58 33.0059 156.287 31.9977C155.844 30.4743 158.701 30.0099 158.041 28.4024C157.289 26.5698 153.808 25.9625 152.381 25.7884C151.547 30.4618 153.455 35.4024 157.644 38.2279Z" fill="#EFAEB8"/>
<path d="M159.632 16.6196C157.54 17.5261 155.674 19.0204 154.305 21.0504C154.251 21.1296 154.199 21.2095 154.148 21.2895C157.874 23.2516 160.688 23.1721 161.656 21.9012C162.475 20.8258 160.435 17.7481 159.632 16.6196Z" fill="#EFAEB8"/>
<path d="M173.649 19.5667C172.011 19.4285 168.002 19.3306 167.411 21.6003C167.022 23.0927 168.027 23.8494 168.675 24.5181C169.664 25.537 168.907 26.5701 167.936 26.9272C167.301 27.1606 165.172 28.5365 164.674 29.7148C163.301 32.962 169.58 36.0169 173.23 36.8043C173.813 36.2316 174.347 35.5926 174.821 34.8891C178.098 30.0319 177.466 23.6866 173.649 19.5667Z" fill="#EFAEB8"/>
<path d="M171.483 17.7118C171.171 17.5008 170.851 17.307 170.527 17.1282C174.525 20.4446 175.433 26.3173 172.467 30.7146C169.307 35.3985 162.949 36.6344 158.265 33.4751C153.868 30.5091 152.51 24.724 154.974 20.1514C154.74 20.4386 154.517 20.738 154.306 21.0508C150.484 26.7163 151.979 34.407 157.645 38.2284C163.31 42.0498 171.001 40.5549 174.822 34.8894C178.644 29.2239 177.149 21.5333 171.483 17.7118Z" fill="#8388EF"/>
<path d="M154.971 20.1556C154.738 20.4416 154.515 20.7388 154.305 21.0503C154.252 21.1295 154.2 21.2093 154.148 21.2894C154.232 21.3337 154.315 21.3757 154.398 21.4179C154.559 20.9893 154.749 20.5675 154.971 20.1556Z" fill="#C38790"/>
<path d="M160.306 39.5898C160.194 35.423 156.58 33.0059 156.287 31.9977C156.255 31.8868 156.24 31.7815 156.241 31.6811C154.847 30.0691 154.016 28.0826 153.807 26.0221C153.25 25.9067 152.748 25.8331 152.381 25.7884C151.547 30.4618 153.455 35.4024 157.644 38.2279C158.492 38.8002 159.386 39.2522 160.306 39.5898Z" fill="#C38790"/>
<path d="M173.23 36.8041C173.813 36.2314 174.347 35.5924 174.822 34.8889C178.098 30.0318 177.466 23.6865 173.649 19.5666C173.368 19.5428 173.016 19.5202 172.624 19.5108C174.734 22.8394 174.811 27.2376 172.466 30.7141C171.242 32.5284 169.538 33.825 167.638 34.5496C169.409 35.6347 171.586 36.4495 173.23 36.8041Z" fill="#C38790"/>
<path d="M163.346 19.7673C163.171 19.6489 163.033 19.4723 162.965 19.2544C162.808 18.7465 163.092 18.207 163.6 18.0496C165.105 17.583 166.674 17.9357 166.74 17.951C167.258 18.0706 167.581 18.5876 167.461 19.1057C167.342 19.6229 166.827 19.9458 166.309 19.8281C166.282 19.8221 165.162 19.5817 164.17 19.8891C163.88 19.979 163.58 19.9248 163.346 19.7673Z" fill="white"/>
<path d="M171.779 26.2765C171.515 26.0981 171.445 25.7391 171.623 25.4745L172.078 24.8007C172.256 24.5362 172.615 24.4664 172.88 24.6448C173.144 24.8232 173.214 25.1824 173.036 25.4468L172.581 26.1206C172.403 26.3851 172.044 26.4549 171.779 26.2765Z" fill="#A36A9D"/>
<path d="M173.027 29.6579C172.762 29.4795 172.692 29.1204 172.871 28.8559L173.325 28.1821C173.504 27.9175 173.863 27.8478 174.127 28.0262C174.392 28.2046 174.461 28.5637 174.283 28.8282L173.829 29.502C173.65 29.7665 173.291 29.8363 173.027 29.6579Z" fill="#A36A9D"/>
<path d="M169.672 30.4995C169.407 30.3211 169.337 29.962 169.516 29.6975L169.97 29.0237C170.149 28.7592 170.508 28.6894 170.772 28.8678C171.037 29.0462 171.106 29.4053 170.928 29.6698L170.474 30.3436C170.295 30.6082 169.936 30.6779 169.672 30.4995Z" fill="#A36A9D"/>
<path d="M136.61 36.3761C136.058 37.1938 134.948 37.4096 134.131 36.858C133.313 36.3065 133.097 35.1965 133.649 34.3788C134.2 33.5611 135.31 33.3453 136.128 33.8969C136.946 34.4484 137.161 35.5584 136.61 36.3761Z" fill="#183C5C"/>
<path d="M176.517 19.3412C176.864 19.5748 177.334 19.4834 177.567 19.1372C177.801 18.7909 177.71 18.3208 177.363 18.0873C177.017 17.8537 176.547 17.9451 176.313 18.2913C176.08 18.6376 176.171 19.1077 176.517 19.3412Z" fill="#183C5C"/>
<path d="M182.604 36.3623L182.153 38.1159C182.134 38.1909 182.144 38.2677 182.182 38.3282L183.056 39.7418C183.18 39.9415 182.989 40.2244 182.758 40.1846L181.119 39.9032C181.049 39.8911 180.974 39.9104 180.912 39.9564L179.455 41.0314C179.249 41.1833 178.998 41.0138 179.061 40.7661L179.512 39.0125C179.532 38.9375 179.522 38.8607 179.484 38.8002L178.609 37.3866C178.486 37.1868 178.677 36.904 178.908 36.9437L180.546 37.2252C180.617 37.2373 180.692 37.218 180.754 37.172L182.211 36.097C182.417 35.9451 182.668 36.1146 182.604 36.3623Z" fill="#253A6A"/>
<path d="M187.033 23.722L186.438 26.0948C186.412 26.1964 186.427 26.3006 186.479 26.3831L187.691 28.3109C187.862 28.5832 187.605 28.9645 187.288 28.9078L185.047 28.5064C184.951 28.4893 184.849 28.5144 184.764 28.5761L182.787 30.0165C182.508 30.2201 182.162 29.9872 182.246 29.6519L182.841 27.2791C182.867 27.1775 182.852 27.0733 182.8 26.9908L181.588 25.063C181.417 24.7907 181.674 24.4094 181.991 24.4661L184.232 24.8675C184.328 24.8846 184.43 24.8595 184.515 24.7978L186.492 23.3574C186.772 23.1539 187.117 23.3868 187.033 23.722Z" fill="#253A6A"/>
</g>
</g>
<defs>
<clipPath id="clip0">
<rect width="75.7854" height="75.7854" fill="white" transform="translate(217.24 45.2465) rotate(-29)"/>
</clipPath>
<clipPath id="clip1">
<rect width="55.3675" height="55.3675" fill="white" transform="translate(366.853 63.8754) rotate(-24.5)"/>
</clipPath>
<clipPath id="clip2">
<rect width="55.0223" height="55.0223" fill="white" transform="translate(0.372559 59.453) rotate(-22)"/>
</clipPath>
<clipPath id="clip3">
<rect width="46.9587" height="46.9587" fill="white" transform="translate(157.011 0.992798) rotate(34)"/>
</clipPath>
</defs>
</svg>
