<svg width="442" height="142" viewBox="0 0 442 142" fill="none" xmlns="http://www.w3.org/2000/svg">
<g opacity="0.7" clip-path="url(#clip0)">
<path d="M230.885 91.5565C232.884 91.4607 233.606 89.5799 232.185 88.1711L221.571 77.6501L208.943 65.1328C208.283 64.479 207.306 64.1037 206.378 64.1482L188.618 65.0006L173.69 65.717C171.691 65.813 170.969 67.6938 172.391 69.1025L183.005 79.6235L195.633 92.1407C196.292 92.7946 197.27 93.1699 198.197 93.1253L215.958 92.2729L230.885 91.5565Z" fill="#3471B1"/>
<path d="M211.984 103.86L218.699 86.3685C219.586 84.0584 212.742 79.2829 203.414 75.7021C194.086 72.1212 185.805 71.0911 184.918 73.4011L178.203 90.893" fill="#3471B1"/>
<path d="M193.489 101.559C202.817 105.14 211.098 106.17 211.985 103.86C212.871 101.55 206.028 96.7749 196.7 93.1941C187.371 89.6132 179.09 88.583 178.204 90.893C177.317 93.203 184.16 97.9784 193.489 101.559Z" fill="#365474"/>
<path d="M203.414 75.7021C202.809 75.47 202.209 75.2489 201.615 75.0385C208.246 77.8082 212.906 81.2173 212.249 82.9304L206.88 96.9157C206.171 98.7627 199.55 97.939 192.092 95.076C184.634 92.213 179.162 88.3949 179.871 86.5479L178.203 90.893C177.317 93.203 184.16 97.9785 193.488 101.559C202.817 105.14 211.098 106.17 211.984 103.86L218.699 86.3683C219.586 84.0584 212.742 79.2829 203.414 75.7021Z" fill="#295583"/>
<path d="M206.03 97.6292C203.895 98.4232 198.282 97.4518 192.092 95.0758C187.733 93.4023 184.053 91.4026 181.888 89.6609C179.866 89.6432 178.531 90.0402 178.203 90.8928C177.317 93.2028 184.16 97.9782 193.488 101.559C202.817 105.14 211.098 106.17 211.985 103.86C212.532 102.435 210.136 100.072 206.03 97.6292Z" fill="#2B4158"/>
<path d="M182.673 79.249C181.98 78.983 181.634 78.2055 181.9 77.5125L183.663 72.9193C184.364 71.0928 186.819 70.4677 191.166 71.0087C194.765 71.4564 199.285 72.6775 203.896 74.4473C208.506 76.217 212.683 78.3345 215.657 80.4096C219.249 82.9168 220.655 85.0235 219.954 86.8501C219.688 87.5431 218.911 87.8892 218.218 87.6232C217.536 87.3615 217.19 86.6052 217.432 85.921C217.407 85.6016 216.684 84.3237 213.649 82.2939C210.882 80.4426 207.076 78.5472 202.933 76.9568C198.789 75.3664 194.693 74.2283 191.397 73.752C187.788 73.2305 186.395 73.6946 186.16 73.9159L184.41 78.4759C184.144 79.1689 183.366 79.515 182.673 79.249Z" fill="#1D3F5E"/>
<path d="M222.015 100.648C221.322 100.382 220.975 99.6046 221.241 98.9116L226.853 84.2934C227.119 83.6004 227.896 83.2543 228.589 83.5203C229.282 83.7863 229.628 84.5638 229.362 85.2568L223.751 99.875C223.485 100.568 222.707 100.914 222.015 100.648Z" fill="#1D3F5E"/>
<path d="M219.504 107.187C218.017 106.616 217.274 104.947 217.845 103.46L219.672 98.7008C219.879 98.1601 220.486 97.89 221.026 98.0975L224.455 99.4137C224.996 99.6213 225.266 100.228 225.058 100.769L223.232 105.528C222.66 107.015 220.992 107.758 219.504 107.187Z" fill="#CD8893"/>
<path d="M204.73 90.4243C204.315 90.2647 204.107 89.7981 204.266 89.3824L204.881 87.7803C205.041 87.3645 205.508 87.1569 205.923 87.3164C206.339 87.4761 206.547 87.9426 206.387 88.3583L205.772 89.9604C205.613 90.3762 205.146 90.5839 204.73 90.4243Z" fill="#1D3F5E"/>
<path d="M209.042 89.7142C208.626 89.5547 208.418 89.0881 208.578 88.6724L209.193 87.0703C209.353 86.6545 209.819 86.4468 210.235 86.6064C210.651 86.766 210.858 87.2325 210.699 87.6483L210.084 89.2504C209.924 89.6662 209.458 89.8738 209.042 89.7142Z" fill="#1D3F5E"/>
<path d="M209.631 95.9741C209.215 95.8145 209.008 95.348 209.167 94.9322L209.782 93.3301C209.942 92.9144 210.408 92.7067 210.824 92.8662C211.24 93.0259 211.448 93.4924 211.288 93.9081L210.673 95.5102C210.513 95.926 210.047 96.1337 209.631 95.9741Z" fill="#1D3F5E"/>
<path d="M186.255 84.7866C185.562 84.5205 185.216 83.7431 185.482 83.0501L186.269 80.9995C186.535 80.3065 187.312 79.9604 188.005 80.2264C188.698 80.4924 189.044 81.2699 188.778 81.9629L187.991 84.0134C187.725 84.7064 186.948 85.0525 186.255 84.7866Z" fill="white"/>
<path d="M188.505 78.9239C187.812 78.6579 187.466 77.8804 187.732 77.1874L188.025 76.4239C188.291 75.7309 189.069 75.3848 189.762 75.6508C190.455 75.9168 190.801 76.6943 190.535 77.3873L190.242 78.1508C189.976 78.8439 189.198 79.1899 188.505 78.9239Z" fill="white"/>
<path d="M224.13 64.8173C223.636 66.1027 222.195 66.7447 220.909 66.2513C219.624 65.7579 218.982 64.316 219.475 63.0306C219.969 61.7453 221.411 61.1033 222.696 61.5967C223.981 62.0901 224.623 63.532 224.13 64.8173Z" fill="#3471B1"/>
<path d="M191.753 43.3058C192.285 43.0687 192.525 42.4448 192.287 41.9122C192.05 41.3797 191.426 41.1402 190.894 41.3773C190.361 41.6144 190.122 42.2383 190.359 42.7709C190.596 43.3034 191.22 43.5429 191.753 43.3058Z" fill="#3471B1"/>
<path d="M209.981 43.4809L209.919 46.0075C209.916 46.1157 209.954 46.2168 210.024 46.2874L211.658 47.9355C211.888 48.1683 211.718 48.6129 211.39 48.6315L209.074 48.7632C208.975 48.7688 208.879 48.8185 208.808 48.9007L207.164 50.8203C206.932 51.0915 206.537 50.9399 206.546 50.5829L206.608 48.0563C206.611 47.9481 206.573 47.8469 206.503 47.7764L204.87 46.1283C204.639 45.8955 204.809 45.4509 205.137 45.4323L207.453 45.3006C207.553 45.2949 207.649 45.2453 207.719 45.1631L209.363 43.2436C209.595 42.9723 209.99 43.1239 209.981 43.4809Z" fill="#EFAEB8"/>
<path d="M238.17 56.214L238.106 59.6279C238.103 59.7741 238.157 59.9112 238.253 60.0071L240.506 62.2486C240.825 62.5652 240.595 63.1646 240.146 63.1869L236.972 63.3447C236.836 63.3515 236.705 63.4177 236.609 63.5282L234.372 66.1081C234.056 66.4726 233.513 66.2642 233.522 65.782L233.587 62.368C233.589 62.2218 233.536 62.0848 233.44 61.9889L231.186 59.7474C230.868 59.4308 231.098 58.8314 231.546 58.8091L234.721 58.6513C234.857 58.6446 234.988 58.5783 235.084 58.4678L237.32 55.8879C237.637 55.5233 238.179 55.7317 238.17 56.214Z" fill="#EFAEB8"/>
<path d="M188.604 47.7552L188.54 51.1692C188.537 51.3153 188.59 51.4524 188.687 51.5483L190.94 53.7898C191.259 54.1064 191.028 54.7058 190.58 54.7281L187.405 54.8859C187.27 54.8927 187.138 54.9589 187.043 55.0694L184.806 57.6493C184.49 58.0137 183.947 57.8054 183.956 57.3231L184.02 53.9092C184.023 53.763 183.97 53.626 183.873 53.53L181.62 51.2887C181.301 50.9721 181.531 50.3727 181.98 50.3504L185.154 50.1926C185.29 50.1858 185.421 50.1195 185.517 50.0091L187.754 47.4292C188.07 47.0646 188.613 47.273 188.604 47.7552Z" fill="#EFAEB8"/>
</g>
<g clip-path="url(#clip1)">
<g opacity="0.7">
<path d="M45.4181 37.9852C44.046 33.972 39.6803 31.8309 35.667 33.203C31.6538 34.575 29.5127 38.9407 30.8848 42.954C32.2568 46.9673 36.6225 49.1084 40.6358 47.7363C44.6491 46.3642 46.7902 41.9985 45.4181 37.9852Z" fill="#EF8BBD"/>
<path d="M34.9596 33.4676C34.6463 33.6104 34.3487 33.7734 34.0645 33.9511C36.7584 33.1949 39.6758 34.4925 40.8723 37.118C42.1946 40.0196 40.9144 43.4438 38.0128 44.7662C35.3873 45.9627 32.3342 45.0281 30.7972 42.69C30.8951 43.0107 31.0127 43.3289 31.1554 43.6422C32.9146 47.5024 37.47 49.2056 41.3302 47.4464C45.1903 45.6872 46.8935 41.1318 45.1344 37.2717C43.3751 33.4117 38.8197 31.7085 34.9596 33.4676Z" fill="#E068BD"/>
<path d="M48.4115 62.9856C45.0252 64.5288 40.7867 63.5264 36.4767 60.1631C32.3664 56.9557 28.6197 51.9347 25.9265 46.0252C23.2334 40.1156 21.902 33.9938 22.178 28.7875C22.4673 23.3282 24.4915 19.4717 27.8778 17.9285C31.264 16.3853 35.5025 17.3877 39.8126 20.751C43.9227 23.9584 47.6695 28.9794 50.3627 34.8889C53.0559 40.7985 54.3871 46.9203 54.1112 52.1266C53.822 57.5858 51.7977 61.4424 48.4115 62.9856ZM28.7799 19.9081C26.1678 21.0985 24.5947 24.2928 24.3505 28.9027C24.0927 33.7657 25.3555 39.5262 27.9061 45.123C30.4567 50.7198 33.9758 55.4521 37.815 58.448C41.4544 61.2879 44.8972 62.1964 47.5093 61.006C50.1214 59.8156 51.6945 56.6213 51.9388 52.0114C52.1965 47.1484 50.9337 41.388 48.383 35.7911C45.8324 30.1943 42.3134 25.462 38.4742 22.4661C34.8349 19.6261 31.3921 18.7176 28.7799 19.9081Z" fill="#1D3F5E"/>
<path d="M35.1092 60.5596C30.6073 62.6112 26.607 62.6378 23.7678 60.6127C20.7383 58.4517 19.4871 54.2798 20.2447 48.8655C20.9673 43.7023 23.4422 37.9471 27.2135 32.6599C30.9848 27.3727 35.6207 23.1589 40.2674 20.7948C45.1394 18.3153 49.4919 18.1403 52.5215 20.3013C55.5511 22.4623 56.8023 26.6342 56.0445 32.0485C55.322 37.2118 52.847 42.967 49.0758 48.2542L48.1903 47.6225L49.0758 48.2542C45.3046 53.5414 40.6686 57.7552 36.0219 60.1193C35.7157 60.2751 35.4112 60.422 35.1092 60.5596ZM42.0913 22.3298C41.8148 22.4558 41.536 22.5902 41.254 22.7338C36.9136 24.9422 32.5562 28.916 28.9846 33.9233C25.4129 38.9306 23.0743 44.3442 22.3993 49.1671C21.7595 53.7388 22.6942 57.1747 25.0312 58.8417C27.208 60.3944 30.4404 60.2967 34.1982 58.5844C34.4747 58.4584 34.7534 58.324 35.0355 58.1804C39.3758 55.9721 43.7331 51.9983 47.3048 46.991C50.8766 41.9837 53.2153 36.57 53.8902 31.7471C54.5301 27.1753 53.5953 23.7395 51.2584 22.0725C49.0814 20.5198 45.849 20.6173 42.0913 22.3298Z" fill="#1D3F5E"/>
<path d="M55.3078 51.3546C55.0055 51.4923 54.6956 51.6255 54.3766 51.7546C49.5439 53.7104 43.3222 54.4447 36.8578 53.8223C30.3934 53.1999 24.4261 51.2918 20.0553 48.4498C15.472 45.4695 13.1443 41.7883 13.501 38.084C13.8577 34.3798 16.8447 31.2099 21.9129 29.1594C26.7456 27.2036 32.9673 26.4693 39.4317 27.0917C45.8962 27.7141 51.8633 29.6221 56.2342 32.4642C60.8175 35.4445 63.1452 39.1257 62.7886 42.8299C62.4543 46.3011 59.8093 49.303 55.3078 51.3546ZM21.8748 31.543C18.1167 33.2557 15.9228 35.6309 15.6665 38.2927C15.3914 41.1501 17.3712 44.1095 21.2414 46.626C25.3241 49.2808 30.9442 51.0674 37.0664 51.6569C43.1887 52.2464 49.0464 51.5649 53.5606 49.738C57.8401 48.0059 60.3479 45.4789 60.6231 42.6215C60.8981 39.7642 58.9183 36.8046 55.0482 34.2882C50.9656 31.6335 45.3455 29.8469 39.2231 29.2573C33.1008 28.6679 27.2431 29.3493 22.7289 31.1762C22.4359 31.2946 22.1511 31.4171 21.8748 31.543Z" fill="#1D3F5E"/>
<path d="M37.0076 20.7563C37.8752 19.4452 37.5157 17.6789 36.2046 16.8113C34.8934 15.9436 33.1271 16.3031 32.2595 17.6143C31.3918 18.9254 31.7514 20.6917 33.0625 21.5593C34.3737 22.427 36.1399 22.0675 37.0076 20.7563Z" fill="#2E659F"/>
<path d="M18.264 44.6072C19.328 43.4501 19.2526 41.6496 18.0956 40.5856C16.9386 39.5216 15.1381 39.597 14.074 40.754C13.01 41.911 13.0854 43.7115 14.2424 44.7755C15.3994 45.8396 17.1999 45.7642 18.264 44.6072Z" fill="#2E659F"/>
<path d="M42.2533 57.4305C43.684 56.7785 44.3152 55.0902 43.6632 53.6595C43.0112 52.2288 41.3229 51.5976 39.8922 52.2496C38.4615 52.9016 37.8303 54.5899 38.4823 56.0206C39.1343 57.4512 40.8226 58.0825 42.2533 57.4305Z" fill="#2E659F"/>
<path d="M36.0493 38.9231C36.4321 39.7632 36.0615 40.7545 35.2215 41.1373C34.3814 41.5202 33.39 41.1496 33.0072 40.3095C32.6243 39.4694 32.995 38.478 33.8351 38.0952C34.6751 37.7125 35.6665 38.0831 36.0493 38.9231Z" fill="#E7EFFA"/>
<path d="M17.6493 21.174C18.1114 22.1878 17.664 23.3844 16.6502 23.8464C15.6363 24.3084 14.4398 23.8612 13.9777 22.8472C13.5157 21.8333 13.9631 20.6368 14.9769 20.1748C15.9908 19.7128 17.1873 20.1601 17.6493 21.174Z" fill="#2E659F"/>
<path d="M44.1274 14.1226C44.3231 14.5519 44.1337 15.0587 43.7044 15.2543C43.275 15.45 42.7683 15.2606 42.5726 14.8312C42.3769 14.4018 42.5663 13.8951 42.9957 13.6994C43.425 13.5038 43.9318 13.6932 44.1274 14.1226Z" fill="#2E659F"/>
<path d="M7.58108 30.0562L9.00393 31.5257C9.06481 31.5886 9.14479 31.624 9.22518 31.6236L11.1031 31.6155C11.3684 31.6144 11.5282 31.9651 11.3533 32.1646L10.1152 33.5765C10.0621 33.637 10.0364 33.7206 10.044 33.8078L10.2195 35.8457C10.2442 36.1336 9.93268 36.2756 9.73169 36.068L8.30883 34.5986C8.24795 34.5356 8.16798 34.5002 8.08758 34.5006L6.20969 34.5087C5.94436 34.5098 5.78453 34.1591 5.95946 33.9596L7.19759 32.5477C7.25059 32.4872 7.27634 32.4036 7.26879 32.3164L7.09329 30.2785C7.06849 29.9907 7.38003 29.8487 7.58108 30.0562Z" fill="#EFAEB8"/>
<path d="M47.2985 2.94942L49.2328 4.92294C49.3156 5.00747 49.4248 5.05457 49.535 5.05332L52.1071 5.02392C52.4705 5.01979 52.6859 5.49252 52.4444 5.7641L50.7348 7.68609C50.6617 7.76838 50.6255 7.88172 50.6349 7.9996L50.8554 10.7541C50.8865 11.1433 50.4584 11.3384 50.185 11.0596L48.2508 9.0861C48.1679 9.00157 48.0588 8.95447 47.9486 8.95582L45.3765 8.98503C45.0131 8.98925 44.7976 8.51642 45.0391 8.24484L46.7488 6.32296C46.822 6.24062 46.8581 6.12732 46.8486 6.00934L46.6282 3.2548C46.5971 2.86562 47.0253 2.6705 47.2985 2.94942Z" fill="#EFAEB8"/>
</g>
</g>
<g clip-path="url(#clip2)">
<g opacity="0.7">
<path d="M291.052 49.7896L295.759 52.9645L292.037 58.4828L287.33 55.308L291.052 49.7896Z" fill="#183C5C"/>
<path opacity="0.3" d="M291.052 49.7896L295.759 52.9645L292.037 58.4828L287.33 55.308" fill="#00CFFF"/>
<path d="M308.635 60.2341C307.501 60.4545 306.404 59.7141 306.183 58.5804L297.521 14.0166C297.3 12.8829 298.041 11.7853 299.175 11.5649C300.308 11.3445 301.406 12.0849 301.626 13.2186L310.289 57.7824C310.509 58.9161 309.769 60.0137 308.635 60.2341Z" fill="#183C5C"/>
<path opacity="0.3" d="M308.635 60.2341C307.501 60.4545 306.404 59.7141 306.183 58.5804L297.521 14.0166C297.3 12.8829 298.041 11.7853 299.175 11.5649C300.308 11.3445 301.406 12.0849 301.626 13.2186L310.289 57.7824C310.509 58.9161 309.769 60.0137 308.635 60.2341Z" fill="#00CFFF"/>
<path d="M311.879 49.7215C306.713 52.691 300.072 52.6466 294.833 49.0289C287.726 44.12 285.825 34.338 290.576 27.1242C294.077 21.8079 300.218 19.2791 306.121 20.0969C307.449 20.2809 308.566 19.1118 308.31 17.7959C308.152 16.9807 307.494 16.3516 306.672 16.2372C299.381 15.223 291.795 18.3125 287.42 24.8267C281.342 33.8741 283.744 46.2296 292.768 52.3417C299.266 56.7423 307.456 56.7653 313.836 53.0938C314.556 52.6796 314.93 51.8502 314.771 51.0349C314.515 49.7189 313.041 49.0535 311.879 49.7215Z" fill="#183C5C"/>
<path d="M293.586 63.6986L281.921 55.8309C280.853 55.1104 280.571 53.6605 281.292 52.5924C282.012 51.5243 283.462 51.2425 284.53 51.9629L296.195 59.8306C297.263 60.551 297.544 62.001 296.824 63.0691C296.104 64.1371 294.654 64.419 293.586 63.6986Z" fill="#183C5C"/>
<path d="M296.986 46.1587C302.651 49.9802 310.342 48.4852 314.163 42.8198C317.985 37.1543 316.49 29.4636 310.824 25.6422C305.159 21.8208 297.468 23.3157 293.647 28.9812C289.825 34.6467 291.32 42.3373 296.986 46.1587Z" fill="#8BB6EF"/>
<path d="M296.985 46.1575C297.833 46.7297 298.727 47.1818 299.647 47.5194C299.535 43.3526 295.921 40.9355 295.628 39.9273C295.186 38.4038 298.042 37.9394 297.382 36.3319C296.631 34.4994 293.149 33.8921 291.722 33.7179C290.888 38.3914 292.796 43.332 296.985 46.1575Z" fill="#EFAEB8"/>
<path d="M298.973 24.5492C296.881 25.4556 295.015 26.9499 293.646 28.9799C293.592 29.0592 293.54 29.139 293.489 29.219C297.215 31.1811 300.029 31.1016 300.997 29.8308C301.816 28.7553 299.776 25.6776 298.973 24.5492Z" fill="#EFAEB8"/>
<path d="M312.99 27.4963C311.353 27.358 307.343 27.2602 306.752 29.5298C306.363 31.0223 307.368 31.7789 308.016 32.4476C309.005 33.4666 308.248 34.4997 307.277 34.8567C306.642 35.0902 304.513 36.4661 304.015 37.6443C302.642 40.8916 308.921 43.9465 312.571 44.7338C313.154 44.1611 313.688 43.5221 314.162 42.8186C317.439 37.9614 316.807 31.6161 312.99 27.4963Z" fill="#EFAEB8"/>
<path d="M310.825 25.6414C310.512 25.4304 310.193 25.2366 309.868 25.0577C313.866 28.3741 314.774 34.2468 311.808 38.6441C308.649 43.3281 302.29 44.5639 297.606 41.4046C293.209 38.4386 291.851 32.6535 294.315 28.0809C294.082 28.3681 293.858 28.6675 293.647 28.9803C289.826 34.6458 291.321 42.3365 296.986 46.1579C302.652 49.9793 310.342 48.4844 314.164 42.8189C317.985 37.1535 316.49 29.4628 310.825 25.6414Z" fill="#8388EF"/>
<path d="M294.312 28.0851C294.079 28.3712 293.856 28.6684 293.646 28.9798C293.593 29.059 293.541 29.1389 293.489 29.2189C293.573 29.2632 293.656 29.3052 293.739 29.3474C293.9 28.9189 294.09 28.4971 294.312 28.0851Z" fill="#C38790"/>
<path d="M299.647 47.5194C299.535 43.3526 295.921 40.9354 295.628 39.9272C295.596 39.8163 295.582 39.7111 295.582 39.6106C294.188 37.9986 293.357 36.0121 293.148 33.9516C292.591 33.8363 292.089 33.7626 291.722 33.7179C290.888 38.3914 292.796 43.332 296.985 46.1575C297.833 46.7297 298.727 47.1818 299.647 47.5194Z" fill="#C38790"/>
<path d="M312.572 44.7336C313.154 44.1609 313.688 43.5219 314.163 42.8184C317.439 37.9613 316.807 31.616 312.991 27.4962C312.709 27.4723 312.357 27.4498 311.965 27.4403C314.075 30.7689 314.152 35.1672 311.807 38.6436C310.583 40.458 308.879 41.7546 306.979 42.4791C308.75 43.5643 310.928 44.379 312.572 44.7336Z" fill="#C38790"/>
<path d="M302.687 27.6968C302.512 27.5785 302.374 27.4018 302.307 27.184C302.149 26.676 302.433 26.1366 302.941 25.9791C304.446 25.5125 306.015 25.8652 306.081 25.8805C306.599 26.0001 306.922 26.5171 306.803 27.0353C306.683 27.5525 306.168 27.8754 305.651 27.7576C305.623 27.7517 304.503 27.5113 303.511 27.8187C303.221 27.9085 302.921 27.8544 302.687 27.6968Z" fill="white"/>
<path d="M311.12 34.2061C310.855 34.0276 310.786 33.6686 310.964 33.4041L311.419 32.7302C311.597 32.4657 311.956 32.3959 312.221 32.5743C312.485 32.7528 312.555 33.1119 312.377 33.3763L311.922 34.0502C311.744 34.3146 311.384 34.3845 311.12 34.2061Z" fill="#A36A9D"/>
<path d="M312.368 37.5875C312.103 37.409 312.033 37.0499 312.212 36.7854L312.666 36.1116C312.845 35.8471 313.204 35.7773 313.468 35.9557C313.733 36.1341 313.802 36.4933 313.624 36.7577L313.17 37.4316C312.991 37.696 312.632 37.7658 312.368 37.5875Z" fill="#A36A9D"/>
<path d="M309.013 38.4291C308.748 38.2506 308.678 37.8915 308.857 37.6271L309.311 36.9532C309.49 36.6887 309.849 36.6189 310.113 36.7973C310.378 36.9758 310.448 37.3348 310.269 37.5993L309.815 38.2732C309.636 38.5377 309.277 38.6074 309.013 38.4291Z" fill="#A36A9D"/>
<path d="M275.951 44.3056C275.399 45.1233 274.289 45.3391 273.472 44.7875C272.654 44.236 272.438 43.126 272.99 42.3083C273.541 41.4906 274.651 41.2748 275.469 41.8264C276.287 42.3779 276.502 43.4879 275.951 44.3056Z" fill="#183C5C"/>
<path d="M315.858 27.2708C316.205 27.5043 316.675 27.413 316.908 27.0667C317.142 26.7204 317.05 26.2504 316.704 26.0168C316.358 25.7832 315.888 25.8746 315.654 26.2209C315.421 26.5671 315.512 27.0372 315.858 27.2708Z" fill="#183C5C"/>
<path d="M321.945 44.2919L321.494 46.0454C321.475 46.1204 321.485 46.1972 321.522 46.2577L322.397 47.6713C322.521 47.8711 322.33 48.1539 322.098 48.1142L320.46 47.8327C320.39 47.8207 320.315 47.8399 320.253 47.8859L318.796 48.961C318.59 49.1128 318.339 48.9433 318.402 48.6956L318.853 46.9421C318.873 46.867 318.862 46.7902 318.825 46.7297L317.95 45.3161C317.827 45.1163 318.017 44.8335 318.249 44.8733L319.887 45.1547C319.957 45.1668 320.032 45.1475 320.095 45.1015L321.552 44.0265C321.757 43.8746 322.009 44.0441 321.945 44.2919Z" fill="#253A6A"/>
<path d="M326.374 31.6516L325.779 34.0243C325.753 34.1259 325.768 34.2301 325.82 34.3127L327.032 36.2404C327.203 36.5128 326.946 36.8941 326.629 36.8374L324.388 36.436C324.292 36.4188 324.19 36.444 324.105 36.5056L322.128 37.9461C321.849 38.1496 321.503 37.9167 321.587 37.5814L322.182 35.2087C322.208 35.1071 322.193 35.0029 322.141 34.9203L320.929 32.9926C320.758 32.7202 321.015 32.3389 321.332 32.3956L323.573 32.797C323.669 32.8142 323.771 32.789 323.856 32.7274L325.833 31.2869C326.112 31.0834 326.458 31.3163 326.374 31.6516Z" fill="#253A6A"/>
</g>
</g>
<g clip-path="url(#clip3)">
<g opacity="0.7">
<path d="M361.279 75.3984L352.55 80.3371C350.741 81.3606 350.105 83.6567 351.128 85.4655L380.393 137.191C381.417 139 383.713 139.637 385.522 138.614L394.251 133.675C396.06 132.652 396.696 130.356 395.673 128.546L366.408 76.8207C365.384 75.0118 363.088 74.375 361.279 75.3984ZM363.672 89.8104C362.467 90.4921 360.937 90.068 360.255 88.863C359.574 87.658 359.998 86.1286 361.203 85.4469C362.408 84.7652 363.937 85.1893 364.619 86.3943C365.301 87.5992 364.877 89.1287 363.672 89.8104Z" fill="#EFAEB8"/>
<path d="M361.279 75.3984L358.055 77.2226C359.378 76.4741 361.185 77.1644 362.09 78.7644L387.976 124.518C388.881 126.118 388.543 128.022 387.219 128.77L380.835 132.383C379.512 133.131 377.705 132.441 376.8 130.841L380.393 137.191C381.417 139 383.713 139.637 385.522 138.614L394.251 133.675C396.06 132.652 396.696 130.356 395.673 128.546L366.408 76.8207C365.384 75.0118 363.088 74.375 361.279 75.3984Z" fill="#D1919B"/>
<path d="M438.408 105.768L374.983 70.6109C373.507 69.793 371.887 71.4275 372.718 72.8957L403.165 126.711C403.619 127.515 404.639 127.797 405.442 127.343L438.421 108.684C439.558 108.041 439.551 106.401 438.408 105.768ZM418.664 106.624L406.711 113.387C406.42 113.552 406.05 113.449 405.885 113.158L394.85 93.6529C394.549 93.1209 395.136 92.5284 395.671 92.8248L418.659 105.567C419.073 105.797 419.076 106.391 418.664 106.624Z" fill="#2E659F"/>
<path d="M438.408 105.768L374.982 70.6109C374.292 70.2284 373.571 70.3825 373.083 70.805C373.355 70.7411 373.681 70.806 374.021 71.0533L422.851 106.624C423.731 107.265 423.898 108.633 423.148 109.057L401.403 121.36C400.874 121.659 400.116 121.323 399.712 120.608L403.165 126.711C403.619 127.515 404.639 127.797 405.442 127.343L438.421 108.685C439.558 108.041 439.551 106.401 438.408 105.768Z" fill="#1D3F5E"/>
<path d="M368.499 97.096L360.325 101.721C359.928 101.945 359.425 101.806 359.2 101.409C358.976 101.012 359.116 100.509 359.512 100.284L367.687 95.6594C368.083 95.4349 368.587 95.5747 368.811 95.9713C369.036 96.3679 368.896 96.8716 368.499 97.096Z" fill="#CB7B87"/>
<path d="M368.831 104.02L363.373 107.109C362.976 107.333 362.473 107.193 362.248 106.797C362.024 106.4 362.164 105.896 362.56 105.672L368.018 102.584C368.415 102.359 368.919 102.499 369.143 102.896C369.368 103.292 369.228 103.796 368.831 104.02Z" fill="#CB7B87"/>
<path d="M374.596 107.872L366.421 112.496C366.025 112.721 365.521 112.581 365.297 112.185C365.072 111.788 365.212 111.284 365.608 111.06L373.783 106.435C374.179 106.211 374.683 106.35 374.907 106.747C375.132 107.144 374.992 107.647 374.596 107.872Z" fill="#CB7B87"/>
<path d="M374.928 114.796L369.47 117.884C369.073 118.109 368.569 117.969 368.345 117.572C368.12 117.176 368.26 116.672 368.657 116.448L374.115 113.36C374.512 113.135 375.015 113.275 375.24 113.671C375.464 114.068 375.325 114.572 374.928 114.796Z" fill="#CB7B87"/>
<path d="M380.692 118.647L372.518 123.272C372.121 123.497 371.618 123.357 371.393 122.96C371.169 122.563 371.309 122.06 371.705 121.835L379.879 117.211C380.276 116.986 380.78 117.126 381.004 117.523C381.229 117.919 381.089 118.423 380.692 118.647Z" fill="#CB7B87"/>
<path d="M381.025 125.572L375.566 128.66C375.17 128.884 374.666 128.745 374.442 128.348C374.217 127.951 374.357 127.448 374.753 127.223L380.212 124.135C380.608 123.911 381.112 124.05 381.336 124.447C381.561 124.844 381.421 125.347 381.025 125.572Z" fill="#CB7B87"/>
<path d="M386.789 129.423L378.615 134.048C378.218 134.272 377.714 134.133 377.49 133.736C377.265 133.339 377.405 132.836 377.802 132.611L385.976 127.986C386.373 127.762 386.876 127.902 387.101 128.298C387.325 128.695 387.186 129.199 386.789 129.423Z" fill="#CB7B87"/>
<path d="M388.617 90.4049C387.956 90.779 387.117 90.5463 386.743 89.885L385.067 86.9226C384.692 86.2613 384.925 85.422 385.586 85.0478C386.248 84.6737 387.087 84.9064 387.461 85.5677L389.137 88.5301C389.511 89.1915 389.279 90.0308 388.617 90.4049Z" fill="white"/>
<path d="M384.809 83.6719C384.147 84.0461 383.308 83.8133 382.934 83.152L382.637 82.6271C382.263 81.9658 382.496 81.1265 383.157 80.7523C383.818 80.3782 384.657 80.6109 385.032 81.2722L385.329 81.7972C385.703 82.4584 385.47 83.2979 384.809 83.6719Z" fill="white"/>
<path d="M407.11 62.6365C406.66 61.301 405.213 60.5829 403.877 61.0325C402.542 61.4821 401.824 62.9292 402.273 64.2646C402.723 65.6001 404.17 66.3182 405.506 65.8686C406.841 65.419 407.559 63.9719 407.11 62.6365Z" fill="#2E659F"/>
<path d="M423.978 86.421C424.416 86.0157 424.442 85.3322 424.036 84.8944C423.631 84.4567 422.948 84.4304 422.51 84.8358C422.072 85.2411 422.046 85.9246 422.451 86.3623C422.857 86.8001 423.54 86.8264 423.978 86.421Z" fill="#2E659F"/>
<path d="M384.598 62.1984L386.553 63.8928C386.637 63.9654 386.741 64.0012 386.843 63.9918L389.207 63.7747C389.542 63.7441 389.782 64.1683 389.583 64.4388L388.179 66.3541C388.119 66.4362 388.096 66.5443 388.115 66.6534L388.561 69.2014C388.624 69.5613 388.247 69.7745 387.971 69.5352L386.016 67.8408C385.932 67.7683 385.828 67.7324 385.726 67.7418L383.361 67.9589C383.027 67.9896 382.787 67.5653 382.986 67.2948L384.39 65.3795C384.45 65.2974 384.473 65.1893 384.454 65.0803L384.008 62.5322C383.946 62.1723 384.322 61.959 384.598 62.1984Z" fill="#CF9FB7"/>
<path d="M413.119 66.7754L415.774 69.0485C415.888 69.1459 416.03 69.1931 416.169 69.1794L419.406 68.8589C419.863 68.8136 420.187 69.3855 419.913 69.7541L417.971 72.3639C417.887 72.4756 417.854 72.6224 417.879 72.7699L418.461 76.2159C418.543 76.7027 418.025 76.9957 417.65 76.6746L414.995 74.4015C414.882 74.3041 414.739 74.2569 414.601 74.2706L411.363 74.5911C410.906 74.6363 410.582 74.0644 410.857 73.6958L412.799 71.0861C412.882 70.9743 412.915 70.8275 412.89 70.6801L412.309 67.2341C412.227 66.7473 412.744 66.4543 413.119 66.7754Z" fill="#CF9FB7"/>
</g>
</g>
<defs>
<clipPath id="clip0">
<rect width="65.4038" height="65.4038" fill="white" transform="translate(185.498 31.1235) rotate(21)"/>
</clipPath>
<clipPath id="clip1">
<rect width="55.3675" height="55.3675" fill="white" transform="translate(0.657227 23.9023) rotate(-24.5)"/>
</clipPath>
<clipPath id="clip2">
<rect width="46.9587" height="46.9587" fill="white" transform="translate(296.352 8.92233) rotate(34)"/>
</clipPath>
<clipPath id="clip3">
<rect width="68.744" height="68.744" fill="white" transform="translate(348.052 81.704) rotate(-29.5)"/>
</clipPath>
</defs>
</svg>
