<svg width="277" height="147" viewBox="0 0 277 147" fill="none" xmlns="http://www.w3.org/2000/svg">
<g opacity="0.7" clip-path="url(#clip0)">
<path d="M38.619 58.5559L12.5845 53.4953C11.0789 53.2026 10.0955 51.7448 10.3882 50.2391L17.7699 12.2637C18.0625 10.7581 19.5204 9.77473 21.0261 10.0674L47.0606 15.128C48.5662 15.4207 49.5496 16.8785 49.2569 18.3842L41.8752 56.3596C41.5825 57.8653 40.1247 58.8486 38.619 58.5559Z" fill="#EFAEB8"/>
<path d="M41.4621 27.4364L21.6045 23.5765C20.7863 23.4174 20.252 22.6252 20.411 21.807L21.4669 16.3753C21.6259 15.5571 22.4181 15.0228 23.2363 15.1818L43.0939 19.0417C43.9121 19.2008 44.4464 19.993 44.2874 20.8112L43.2316 26.2429C43.0725 27.0611 42.2803 27.5954 41.4621 27.4364Z" fill="#7A7989"/>
<path d="M23.4474 33.6465L19.1915 32.8192C18.7013 32.7239 18.3811 32.2493 18.4764 31.759L19.3037 27.5032C19.399 27.0129 19.8736 26.6928 20.3639 26.7881L24.6198 27.6153C25.11 27.7106 25.4302 28.1853 25.3349 28.6755L24.5076 32.9314C24.4123 33.4216 23.9377 33.7418 23.4474 33.6465Z" fill="#375778"/>
<path d="M21.7798 42.226L17.5239 41.3987C17.0336 41.3034 16.7135 40.8287 16.8088 40.3385L17.636 36.0826C17.7313 35.5924 18.206 35.2722 18.6962 35.3675L22.9521 36.1947C23.4424 36.29 23.7625 36.7647 23.6672 37.2549L22.84 41.5108C22.7447 42.0011 22.27 42.3212 21.7798 42.226Z" fill="#375778"/>
<path d="M20.1121 50.8054L15.8562 49.9781C15.366 49.8828 15.0458 49.4082 15.1411 48.918L15.9683 44.6621C16.0636 44.1719 16.5383 43.8517 17.0285 43.947L21.2844 44.7743C21.7747 44.8696 22.0948 45.3442 21.9995 45.8345L21.1723 50.0904C21.077 50.5806 20.6023 50.9007 20.1121 50.8054Z" fill="#375778"/>
<path d="M31.8421 35.2783L27.5863 34.451C27.096 34.3557 26.7758 33.8811 26.8711 33.3908L27.6984 29.1349C27.7937 28.6447 28.2684 28.3245 28.7586 28.4198L33.0145 29.2471C33.5047 29.3424 33.8249 29.817 33.7296 30.3073L32.9023 34.5632C32.807 35.0534 32.3324 35.3736 31.8421 35.2783Z" fill="#375778"/>
<path d="M30.1745 43.8577L25.9186 43.0305C25.4283 42.9352 25.1082 42.4605 25.2035 41.9703L26.0307 37.7144C26.126 37.2241 26.6007 36.904 27.0909 36.9993L31.3468 37.8265C31.8371 37.9218 32.1572 38.3965 32.0619 38.8867L31.2347 43.1426C31.1393 43.6328 30.6647 43.953 30.1745 43.8577Z" fill="#375778"/>
<path d="M28.5068 52.4372L24.2509 51.6099C23.7606 51.5146 23.4405 51.0399 23.5357 50.5498L24.363 46.2939C24.4583 45.8037 24.933 45.4835 25.4232 45.5788L29.6791 46.4061C30.1693 46.5013 30.4895 46.976 30.3942 47.4663L29.567 51.7221C29.4716 52.2124 28.997 52.5324 28.5068 52.4372Z" fill="#375778"/>
<path d="M40.2369 36.91L35.981 36.0828C35.4907 35.9875 35.1706 35.5128 35.2659 35.0226L36.0931 30.7667C36.1884 30.2764 36.6631 29.9563 37.1533 30.0516L41.4092 30.8788C41.8995 30.9741 42.2196 31.4488 42.1243 31.939L41.2971 36.1949C41.2018 36.6852 40.7271 37.0053 40.2369 36.91Z" fill="#375778"/>
<path d="M39.7414 39.4584L35.4855 38.6311C34.9953 38.5358 34.5206 38.856 34.4253 39.3461L33.1779 45.7638L33.0096 46.6297L31.9304 52.1815C31.8351 52.6717 32.1553 53.1463 32.6455 53.2416L36.9014 54.0688C37.3917 54.1641 37.8663 53.8439 37.9616 53.3538L39.0408 47.802L39.2091 46.9361L40.4565 40.5185C40.5518 40.0283 40.2317 39.5537 39.7414 39.4584Z" fill="#EF8BBD"/>
<path d="M47.0599 15.1269L41.4384 14.0342C42.6762 14.2748 43.4847 15.4732 43.244 16.7111L37.0377 48.64C36.7971 49.8778 35.5986 50.6861 34.3608 50.4455L13.4626 46.3833C12.2248 46.1427 11.4164 44.9442 11.657 43.7065L10.3874 50.2381C10.0947 51.7437 11.078 53.2016 12.5837 53.4943L38.6182 58.5549C40.1239 58.8475 41.5817 57.8642 41.8744 56.3585L49.2561 18.3831C49.549 16.8774 48.5656 15.4196 47.0599 15.1269Z" fill="#DD9CA6"/>
<path d="M43.0936 19.0417L42.8019 18.985L41.1701 27.3796L41.4619 27.4364C42.2801 27.5954 43.0723 27.061 43.2313 26.2428L44.2871 20.8111C44.4463 19.993 43.9119 19.2008 43.0936 19.0417Z" fill="#62616E"/>
<path d="M15.8562 49.9781L20.1121 50.8054C20.6023 50.9007 21.0769 50.5805 21.1722 50.0904L21.5858 47.9624L15.5547 46.7901L15.1411 48.918C15.0459 49.4083 15.3659 49.8829 15.8562 49.9781Z" fill="#2B4158"/>
<path d="M24.2509 51.6099L28.5068 52.4372C28.997 52.5325 29.4717 52.2123 29.567 51.7221L29.9806 49.5942L23.9494 48.4218L23.5358 50.5498C23.4405 51.04 23.7607 51.5146 24.2509 51.6099Z" fill="#2B4158"/>
<path d="M41.4091 30.8789L40.5235 30.7068L39.3512 36.738L40.2367 36.9101C40.727 37.0054 41.2016 36.6853 41.2969 36.195L42.1242 31.9391C42.2195 31.4489 41.8993 30.9742 41.4091 30.8789Z" fill="#2B4158"/>
<path d="M39.7414 39.4584L38.8558 39.2862L37.0377 48.64C36.7971 49.8778 35.5986 50.6861 34.3608 50.4455L32.3441 50.0535L31.9305 52.1815C31.8352 52.6717 32.1554 53.1463 32.6456 53.2416L36.9015 54.0688C37.3918 54.1641 37.8664 53.844 37.9617 53.3538L39.0409 47.802L39.2092 46.9361L40.4567 40.5184C40.5518 40.0283 40.2317 39.5537 39.7414 39.4584Z" fill="#E068BD"/>
<path d="M31.9813 21.3185C31.1581 21.1585 30.3363 20.9917 29.4867 20.8125C28.936 20.6964 28.5837 20.1558 28.6999 19.6052C28.816 19.0546 29.3518 18.7034 29.9073 18.8184C31.5851 19.1723 33.1529 19.4771 34.8412 19.7775C34.8467 19.7784 34.8521 19.7795 34.8575 19.7805C35.4025 19.8865 35.7637 20.4106 35.666 20.9594C35.5673 21.5134 35.0383 21.8828 34.4842 21.784C33.6291 21.6318 32.8046 21.4785 31.9813 21.3185Z" fill="white"/>
<path d="M25.5168 20.041L24.3517 19.8145C23.7993 19.7071 23.4385 19.1722 23.5459 18.6198C23.6533 18.0673 24.1882 17.7065 24.7406 17.8139L25.9057 18.0404C26.4581 18.1478 26.8189 18.6827 26.7115 19.2351C26.6041 19.7875 26.0692 20.1483 25.5168 20.041Z" fill="white"/>
<path d="M35.5331 45.5222C35.2016 45.4578 34.9851 45.1368 35.0496 44.8053L35.2685 43.679C35.3329 43.3476 35.6539 43.131 35.9854 43.1955C36.3168 43.2599 36.5333 43.5809 36.4689 43.9123L36.2499 45.0387C36.1855 45.3702 35.8645 45.5866 35.5331 45.5222Z" fill="#B74A96"/>
<path d="M36.4732 49.5185C36.1418 49.454 35.9253 49.1331 35.9897 48.8016L36.2086 47.6753C36.273 47.3438 36.594 47.1273 36.9255 47.1917C37.2569 47.2562 37.4734 47.5772 37.409 47.9086L37.1901 49.0349C37.1256 49.3664 36.8047 49.5829 36.4732 49.5185Z" fill="#B74A96"/>
<path d="M58.6091 22.3237C59.3175 21.5564 59.2699 20.3602 58.5027 19.6517C57.7355 18.9432 56.5392 18.9909 55.8307 19.7581C55.1223 20.5253 55.1699 21.7216 55.9371 22.43C56.7043 23.1385 57.9006 23.0909 58.6091 22.3237Z" fill="#375778"/>
<path d="M15.6623 6.60842C16.0962 6.69276 16.5163 6.40938 16.6006 5.97547C16.685 5.54156 16.4016 5.12143 15.9677 5.03709C15.5338 4.95274 15.1137 5.23612 15.0293 5.67003C14.945 6.10394 15.2284 6.52407 15.6623 6.60842Z" fill="#375778"/>
<path d="M55.6128 10.5227L55.8985 12.4174C55.9107 12.4985 55.9525 12.5691 56.014 12.6125L57.4507 13.6279C57.6537 13.7714 57.5848 14.1258 57.3428 14.1827L55.6304 14.586C55.5571 14.6033 55.4921 14.653 55.4502 14.7237L54.4755 16.3734C54.3378 16.6064 54.0229 16.5452 53.9826 16.2776L53.6968 14.3828C53.6846 14.3017 53.6429 14.2312 53.5813 14.1877L52.1447 13.1723C51.9416 13.0289 52.0105 12.6744 52.2525 12.6175L53.9649 12.2142C54.0383 12.197 54.1033 12.1471 54.1451 12.0766L55.1198 10.4269C55.2574 10.1938 55.5724 10.255 55.6128 10.5227Z" fill="#EFAEB8"/>
<path d="M11.5545 9.87514L11.8403 11.7699C11.8525 11.851 11.8943 11.9215 11.9558 11.965L13.3924 12.9804C13.5954 13.1238 13.5265 13.4782 13.2846 13.5352L11.5722 13.9385C11.4988 13.9557 11.4337 14.0054 11.392 14.0761L10.4173 15.7258C10.2796 15.9589 9.96464 15.8977 9.92425 15.63L9.63849 13.7353C9.62628 13.6541 9.58453 13.5836 9.52297 13.5402L8.08634 12.5248C7.88333 12.3813 7.95222 12.0269 8.19418 11.9699L9.90658 11.5666C9.97994 11.5494 10.045 11.4996 10.0868 11.429L11.0615 9.7793C11.1993 9.54629 11.5141 9.60748 11.5545 9.87514Z" fill="#EFAEB8"/>
</g>
<g opacity="0.7" clip-path="url(#clip1)">
<path d="M94.2734 83.9818C92.8344 82.5428 92.8344 80.2096 94.2734 78.7705L99.4557 73.5882C100.895 72.1492 103.228 72.1492 104.667 73.5882C106.106 75.0273 106.106 77.3605 104.667 78.7995L99.4847 83.9818C98.0457 85.4209 95.7125 85.4209 94.2734 83.9818Z" fill="#4081C5"/>
<path d="M91.2664 113.34C90.9885 113.34 90.7106 113.234 90.4985 113.022L65.2329 87.7568C64.8088 87.3326 64.8088 86.6451 65.2329 86.221C65.6572 85.7969 66.3446 85.7969 66.7688 86.2209L92.0344 111.486C92.4585 111.911 92.4585 112.598 92.0344 113.022C91.8222 113.234 91.5444 113.34 91.2664 113.34Z" fill="#446878"/>
<path d="M52.9777 106.19C52.6011 106.19 52.2352 105.994 52.0346 105.644C51.7363 105.124 51.9161 104.46 52.4364 104.162L61.7454 98.8242C62.2658 98.5258 62.9295 98.7057 63.2277 99.226C63.526 99.7464 63.3461 100.41 62.8259 100.708L53.5168 106.046C53.3465 106.144 53.1609 106.19 52.9777 106.19Z" fill="#446878"/>
<path d="M73.4841 126.699C73.3009 126.699 73.1153 126.652 72.9449 126.555C72.4245 126.256 72.2447 125.593 72.5431 125.072L77.8809 115.763C78.1791 115.243 78.8423 115.063 79.3631 115.361C79.8835 115.66 80.0633 116.323 79.7649 116.844L74.4271 126.153C74.2265 126.503 73.8606 126.699 73.4841 126.699Z" fill="#446878"/>
<path d="M58.5712 104.173C57.0006 101.2 58.1374 97.5172 61.1101 95.9467L91.7114 79.7798L94.5551 85.1624L58.5712 104.173Z" fill="#EFAEB8"/>
<path d="M74.2355 119.837L74.4039 119.926C77.3767 121.497 81.0596 120.36 82.6301 117.387L98.797 86.7861L93.246 83.8534L74.2355 119.837Z" fill="#EFAEB8"/>
<path d="M96.0216 85.3196L79.7671 116.087C78.9856 117.566 77.1531 118.131 75.6739 117.35L75.5766 117.299L74.2355 119.837L74.4039 119.926C77.3766 121.497 81.0596 120.36 82.6301 117.387L98.797 86.7861L96.0216 85.3196Z" fill="#D58C98"/>
<path d="M92.0399 95.007C96.8954 95.007 100.832 91.0708 100.832 86.2153C100.832 81.3599 96.8954 77.4237 92.0399 77.4237C87.1844 77.4237 83.2483 81.3599 83.2483 86.2153C83.2483 91.0708 87.1844 95.007 92.0399 95.007Z" fill="#4081C5"/>
<path d="M98.2564 79.9988C96.2348 77.9771 93.4737 77.1471 90.8437 77.5063C92.1653 77.7155 93.4355 78.3278 94.4539 79.3463C97.0173 81.9097 97.0173 86.0659 94.4539 88.6293C91.8904 91.1928 87.7342 91.1928 85.1708 88.6293C84.1523 87.6108 83.5401 86.3407 83.3309 85.0191C82.9717 87.6489 83.8016 90.4101 85.8232 92.4318C89.2565 95.8651 94.823 95.8651 98.2564 92.4318C101.69 88.9986 101.69 83.4321 98.2564 79.9988Z" fill="#2E659F"/>
<path d="M100.188 83.9934C99.759 83.9934 99.3527 83.7374 99.1815 83.3152C98.794 82.36 98.2246 81.5026 97.4886 80.7667C96.7382 80.0163 96.3232 79.7884 95.6359 79.4109C95.5423 79.3595 95.4455 79.3064 95.3445 79.25C94.8206 78.9579 94.6326 78.2965 94.9247 77.7726C95.2168 77.2488 95.8783 77.0608 96.4021 77.3529C96.499 77.4069 96.5917 77.4578 96.6814 77.5071C97.4184 77.9118 98.0551 78.2614 99.0245 79.2308C99.967 80.1734 100.697 81.273 101.194 82.499C101.42 83.0548 101.152 83.6881 100.596 83.9134C100.462 83.9677 100.324 83.9934 100.188 83.9934Z" fill="#1D3F5E"/>
<path d="M92.0399 89.3741C93.7844 89.3741 95.1986 87.9599 95.1986 86.2153C95.1986 84.4708 93.7844 83.0566 92.0399 83.0566C90.2954 83.0566 88.8812 84.4708 88.8812 86.2153C88.8812 87.9599 90.2954 89.3741 92.0399 89.3741Z" fill="#EFAEB8"/>
<path d="M62.7908 73.929C62.7908 75.0414 61.889 75.9432 60.7766 75.9432C59.6642 75.9432 58.7625 75.0414 58.7625 73.929C58.7626 72.8166 59.6642 71.9149 60.7767 71.9149C61.8891 71.9149 62.7908 72.8166 62.7908 73.929Z" fill="#4081C5"/>
<path d="M81.5211 76.5478C81.9922 76.5478 82.3741 76.1659 82.3741 75.6948C82.3741 75.2237 81.9922 74.8418 81.5211 74.8418C81.05 74.8418 80.6681 75.2237 80.6681 75.6948C80.6681 76.1659 81.05 76.5478 81.5211 76.5478Z" fill="#4081C5"/>
<path d="M56.0274 83.5429L56.7116 85.4669C56.741 85.5493 56.7989 85.6145 56.8721 85.6475L58.5814 86.4177C58.8229 86.5265 58.8229 86.9113 58.5814 87.0201L56.8721 87.7901C56.7989 87.8231 56.741 87.8884 56.7116 87.9708L56.0274 89.8947C55.9308 90.1665 55.5889 90.1665 55.4922 89.8947L54.8079 87.9708C54.7786 87.8884 54.7206 87.8231 54.6474 87.7901L52.9381 87.0201C52.6966 86.9113 52.6966 86.5265 52.9381 86.4177L54.6474 85.6475C54.7206 85.6145 54.7786 85.5493 54.8079 85.4669L55.4922 83.5429C55.5889 83.2711 55.9308 83.2711 56.0274 83.5429Z" fill="#EFAEB8"/>
<path d="M72.4516 72.2663L73.3918 74.86C73.432 74.9711 73.5117 75.059 73.6123 75.1035L75.9612 76.1418C76.293 76.2884 76.293 76.8072 75.9612 76.9538L73.6123 77.992C73.5117 78.0364 73.432 78.1245 73.3918 78.2355L72.4516 80.8292C72.3188 81.1957 71.849 81.1957 71.7162 80.8292L70.776 78.2355C70.7357 78.1245 70.656 78.0365 70.5554 77.992L68.2066 76.9538C67.8748 76.8071 67.8748 76.2883 68.2066 76.1418L70.5554 75.1035C70.656 75.059 70.7357 74.9711 70.776 74.86L71.7162 72.2663C71.8491 71.8999 72.3188 71.8999 72.4516 72.2663Z" fill="#EFAEB8"/>
</g>
<g clip-path="url(#clip2)">
<g opacity="0.7">
<path d="M242.85 103.246C242.961 103.523 242.968 103.842 242.842 104.138L238.013 115.514C237.762 116.107 237.077 116.383 236.484 116.132C235.891 115.88 235.615 115.195 235.866 114.603L240.695 103.227C240.947 102.634 241.631 102.358 242.224 102.609C242.52 102.735 242.738 102.969 242.85 103.246Z" fill="#1D3F5E"/>
<path d="M246.146 105.927C246.257 106.203 246.264 106.523 246.138 106.819L242.597 115.161C242.345 115.754 241.661 116.03 241.068 115.779C240.475 115.527 240.199 114.842 240.45 114.249L243.991 105.908C244.243 105.315 244.927 105.038 245.52 105.29C245.816 105.416 246.034 105.65 246.146 105.927Z" fill="#1D3F5E"/>
<path d="M219.13 93.1773C219.241 93.4541 219.247 93.7733 219.122 94.0698L214.625 104.663C214.373 105.256 213.689 105.533 213.096 105.281C212.503 105.029 212.227 104.345 212.478 103.752L216.975 93.1584C217.227 92.5656 217.911 92.289 218.504 92.5407C218.8 92.6664 219.018 92.9006 219.13 93.1773Z" fill="#1D3F5E"/>
<path d="M222.426 95.858C222.537 96.1347 222.544 96.4541 222.418 96.7505L218.877 105.092C218.625 105.685 217.941 105.961 217.348 105.71C216.755 105.458 216.479 104.774 216.73 104.181L220.271 95.8392C220.523 95.2464 221.207 94.9698 221.8 95.2214C222.096 95.3473 222.314 95.5813 222.426 95.858Z" fill="#1D3F5E"/>
<path d="M238.426 103.222C238.537 103.499 238.544 103.819 238.418 104.115L234.717 112.833C234.466 113.426 233.781 113.703 233.188 113.451C232.596 113.199 232.319 112.515 232.57 111.922L236.271 103.204C236.523 102.611 237.207 102.334 237.8 102.586C238.096 102.712 238.314 102.946 238.426 103.222Z" fill="#1D3F5E"/>
<path d="M266.563 113.312C266.675 113.588 266.681 113.908 266.555 114.204L261.965 125.018C261.713 125.61 261.029 125.887 260.436 125.635C259.843 125.384 259.567 124.699 259.818 124.106L264.408 113.293C264.66 112.7 265.344 112.423 265.937 112.675C266.234 112.801 266.451 113.035 266.563 113.312Z" fill="#1D3F5E"/>
<path d="M262.139 113.288C262.25 113.565 262.257 113.884 262.131 114.181L258.738 122.174C258.486 122.767 257.802 123.043 257.209 122.792C256.616 122.54 256.34 121.856 256.591 121.263L259.984 113.269C260.236 112.677 260.92 112.4 261.513 112.652C261.81 112.777 262.027 113.012 262.139 113.288Z" fill="#1D3F5E"/>
<path d="M270.323 113.702C269.659 115.267 267.85 115.998 266.284 115.333C260.07 112.696 255.967 114.872 251.216 117.391C246.559 119.861 241.281 122.66 234.45 119.761C227.687 116.89 226.248 111.342 224.979 106.447C223.628 101.233 222.46 96.7309 215.522 93.7858C213.956 93.1212 213.225 91.3129 213.89 89.747C214.555 88.1811 216.363 87.4505 217.929 88.1152C227.661 92.2464 229.481 99.2629 230.942 104.901C232.185 109.694 233.073 112.484 236.858 114.09C240.795 115.762 243.64 114.436 248.329 111.949C253.429 109.244 259.776 105.878 268.692 109.663C270.257 110.327 270.988 112.136 270.323 113.702Z" fill="#CF9FB7"/>
<path d="M222.149 98.9599C222.149 98.9601 222.149 98.9602 222.149 98.9603C223.613 101.18 224.271 103.716 224.979 106.447C226.249 111.342 227.687 116.89 234.451 119.761C241.281 122.66 246.559 119.861 251.216 117.391C253.569 116.144 255.763 114.98 258.133 114.444L258.133 114.444C257.481 112.502 256.975 110.509 256.526 108.498C256.526 108.498 256.526 108.498 256.525 108.498C253.423 109.248 250.737 110.672 248.329 111.949C243.641 114.435 240.797 115.761 236.861 114.092C236.86 114.091 236.859 114.091 236.858 114.09C236.855 114.089 236.853 114.088 236.85 114.087C233.072 112.48 232.184 109.69 230.942 104.901C230.217 102.102 229.403 98.9647 227.577 96.0085C227.577 96.008 227.577 96.0074 227.576 96.007C225.76 96.9779 223.945 97.9516 222.149 98.9599Z" fill="#E1B0B8"/>
<path d="M264.302 128.728C263.638 130.294 261.829 131.025 260.264 130.36C250.531 126.229 248.712 119.213 247.25 113.575C246.007 108.782 245.12 105.992 241.335 104.385C237.397 102.714 234.552 104.04 229.863 106.526C224.763 109.231 218.416 112.597 209.501 108.813C207.935 108.148 207.204 106.34 207.869 104.774C208.534 103.208 210.342 102.477 211.908 103.142C218.122 105.78 222.225 103.604 226.977 101.084C231.633 98.6145 236.911 95.8152 243.742 98.7145C250.505 101.585 251.944 107.134 253.213 112.028C254.565 117.242 255.732 121.744 262.67 124.69C264.236 125.354 264.967 127.163 264.302 128.728Z" fill="#2E659F"/>
<path d="M259.886 92.9043C258.739 93.2399 258.082 94.4412 258.418 95.5874C258.753 96.7337 259.955 97.3909 261.101 97.0553C262.247 96.7197 262.904 95.5184 262.569 94.3722C262.233 93.2259 261.032 92.5687 259.886 92.9043Z" fill="#CF9FB7"/>
<path d="M226.735 132.753C226.245 132.878 225.949 133.376 226.074 133.867C226.199 134.357 226.697 134.653 227.188 134.528C227.678 134.403 227.974 133.904 227.849 133.414C227.724 132.924 227.225 132.628 226.735 132.753Z" fill="#CF9FB7"/>
<path d="M237.487 133.542L239.127 132.087C239.197 132.025 239.239 131.941 239.242 131.855L239.321 129.843C239.333 129.559 239.716 129.404 239.921 129.601L241.375 130.993C241.438 131.052 241.526 131.084 241.62 131.08L243.811 130.987C244.12 130.974 244.258 131.314 244.026 131.52L242.386 132.975C242.315 133.037 242.274 133.121 242.27 133.207L242.191 135.219C242.18 135.503 241.797 135.658 241.591 135.461L240.137 134.069C240.075 134.01 239.986 133.978 239.893 133.982L237.702 134.075C237.392 134.088 237.255 133.748 237.487 133.542Z" fill="#EFAEB8"/>
<path d="M228.601 88.0468L230.241 86.5917C230.311 86.5294 230.353 86.4454 230.356 86.3592L230.436 84.3476C230.447 84.0634 230.83 83.9086 231.035 84.1053L232.49 85.4973C232.552 85.5569 232.64 85.5884 232.734 85.5845L234.925 85.4917C235.234 85.4786 235.372 85.819 235.14 86.0246L233.5 87.4797C233.43 87.542 233.388 87.6259 233.385 87.7122L233.305 89.7238C233.294 90.0079 232.911 90.1627 232.706 89.9661L231.251 88.5741C231.189 88.5145 231.101 88.483 231.007 88.4869L228.816 88.5797C228.507 88.5928 228.369 88.2524 228.601 88.0468Z" fill="#EFAEB8"/>
<path d="M243.843 86.2103L245.483 84.7552C245.553 84.6928 245.595 84.6089 245.598 84.5228L245.678 82.5112C245.689 82.227 246.072 82.0722 246.277 82.2688L247.732 83.6609C247.794 83.7205 247.882 83.752 247.976 83.7479L250.167 83.6552C250.476 83.6421 250.614 83.9824 250.382 84.188L248.742 85.6431C248.672 85.7055 248.63 85.7894 248.627 85.8756L248.547 87.8872C248.536 88.1714 248.153 88.3262 247.948 88.1296L246.493 86.7375C246.431 86.6779 246.343 86.6464 246.249 86.6504L244.058 86.7431C243.749 86.7562 243.611 86.4158 243.843 86.2103Z" fill="#EFAEB8"/>
<path d="M214.819 126.807L217.023 124.828C217.117 124.743 217.173 124.628 217.177 124.51L217.266 121.754C217.278 121.365 217.794 121.156 218.074 121.428L220.052 123.348C220.137 123.431 220.257 123.475 220.384 123.47L223.344 123.363C223.762 123.348 223.951 123.815 223.64 124.095L221.436 126.074C221.341 126.159 221.286 126.274 221.282 126.392L221.193 129.148C221.181 129.537 220.664 129.746 220.385 129.475L218.406 127.554C218.322 127.472 218.202 127.428 218.075 127.432L215.115 127.539C214.697 127.555 214.508 127.087 214.819 126.807Z" fill="#EFAEB8"/>
</g>
</g>
<g opacity="0.7" clip-path="url(#clip3)">
<path d="M148.403 48.5222L142.342 37.5867C141.372 35.8376 139.168 35.2055 137.419 36.1751L135.803 37.0707C134.054 38.0403 133.422 40.2443 134.392 41.9935L140.453 52.929C140.941 53.8083 141.048 54.853 140.729 55.8065C138.218 63.325 137.622 76.1753 141.202 82.6331C146.347 90.8752 153.067 87.1473 161.903 82.2499C170.738 77.3525 177.901 73.3842 173.197 64.898C169.618 58.4403 158.404 52.1361 150.698 50.281C149.72 50.0457 148.891 49.4015 148.403 48.5222Z" fill="#7BA6D3"/>
<path d="M143.253 67.5012C143.049 71.7603 143.676 75.5205 144.751 78.4938C147.497 85.3083 152.859 82.0784 159.716 78.3045C166.418 74.6151 172.671 71.3874 167.919 65.7216C165.912 63.3288 162.998 60.7028 159.277 58.619L143.253 67.5012Z" fill="#EFAEB8"/>
<path d="M150.697 50.281C149.72 50.0458 148.891 49.4015 148.403 48.5223L142.342 37.5868C141.372 35.8376 139.168 35.2056 137.419 36.1752L135.803 37.0708C135.507 37.2353 135.243 37.4359 135.013 37.663C136.23 37.4148 137.749 38.48 138.383 39.6242L143.276 48.4513C143.67 49.1611 144.339 49.6811 145.128 49.8709C151.349 51.3684 160.17 55.9435 163.059 61.1563C166.857 68.0065 161.074 71.2097 153.942 75.1629C148.068 78.4192 143.351 81.0339 139.55 78.1365C139.949 79.825 140.494 81.3546 141.202 82.633C146.347 90.8752 153.067 87.1473 161.903 82.2499C170.738 77.3525 177.901 73.3842 173.197 64.898C169.617 58.4403 158.404 52.136 150.697 50.281Z" fill="#466E97"/>
<path d="M163.011 61.0711C163.027 61.0995 163.044 61.1279 163.06 61.1564C166.857 68.0065 161.074 71.2098 153.943 75.163C150.626 77.0012 147.679 78.6344 145.057 79.1875C147.884 85.0741 153.105 81.9428 159.716 78.3044C166.418 74.615 172.671 71.3873 167.919 65.7215C166.642 64.199 164.996 62.5825 163.011 61.0711Z" fill="#D18E98"/>
<path d="M141.682 37.7955L134.918 41.5449C133.329 42.426 131.325 41.8517 130.444 40.262C129.563 38.6723 130.137 36.6692 131.727 35.788L138.491 32.0386C140.081 31.1574 142.084 31.7318 142.965 33.3215C143.846 34.9112 143.272 36.9143 141.682 37.7955Z" fill="#2B4158"/>
<path d="M190.013 66.6679C187.473 68.0759 184.272 67.1581 182.864 64.618L167.704 37.2676L176.902 32.1687L192.063 59.5192C193.471 62.0593 192.553 65.2598 190.013 66.6679Z" fill="#7BA6D3"/>
<path d="M178.158 34.2123L168.749 39.4273C167.007 40.3933 164.811 39.7636 163.845 38.0209C162.879 36.2781 163.508 34.0821 165.251 33.116L174.659 27.901C176.402 26.9349 178.598 27.5647 179.564 29.3074C180.53 31.0502 179.901 33.2462 178.158 34.2123Z" fill="#2B4158"/>
<path d="M190.23 66.5476L190.002 66.6741L173.454 36.8198L178.064 34.2642L192.183 59.736C193.525 62.1564 192.65 65.2061 190.23 66.5476Z" fill="#466E97"/>
<path d="M179.045 46.8804L174.446 49.4299C173.781 49.798 172.944 49.558 172.576 48.8939C172.208 48.2297 172.448 47.3928 173.112 47.0247L177.712 44.4752C178.376 44.1071 179.213 44.3471 179.581 45.0112C179.949 45.6754 179.709 46.5123 179.045 46.8804Z" fill="#95CDE6"/>
<path d="M181.825 51.8956L177.225 54.4451C176.561 54.8132 175.724 54.5733 175.356 53.9091C174.988 53.2449 175.228 52.408 175.892 52.0399L180.492 49.4904C181.156 49.1223 181.993 49.3623 182.361 50.0264C182.729 50.6906 182.489 51.5275 181.825 51.8956Z" fill="#95CDE6"/>
<path d="M184.605 56.9109L180.005 59.4603C179.341 59.8284 178.504 59.5885 178.136 58.9243C177.768 58.2601 178.008 57.4233 178.672 57.0551L183.272 54.5057C183.936 54.1375 184.773 54.3775 185.141 55.0417C185.509 55.7058 185.269 56.5427 184.605 56.9109Z" fill="#95CDE6"/>
<path d="M161.095 66.0292C160.697 66.25 160.195 66.1061 159.974 65.7075L159.167 64.2524C158.946 63.8539 159.09 63.3517 159.489 63.1308C159.887 62.91 160.389 63.0539 160.61 63.4524L161.417 64.9076C161.638 65.3061 161.494 65.8083 161.095 66.0292Z" fill="#B74A96"/>
<path d="M160.108 73.364C159.71 73.5848 159.207 73.4409 158.986 73.0424L158.18 71.5874C157.959 71.1889 158.103 70.6867 158.501 70.4658C158.9 70.2449 159.402 70.3888 159.623 70.7874L160.43 72.2424C160.65 72.6409 160.507 73.1431 160.108 73.364Z" fill="#B74A96"/>
<path d="M152.896 73.2498C151.533 74.0055 149.809 73.5111 149.053 72.1478C148.298 70.7844 148.792 69.0603 150.155 68.3046C151.519 67.5488 153.243 68.0432 153.999 69.4065C154.754 70.77 154.26 72.494 152.896 73.2498ZM150.955 69.7477C150.388 70.0623 150.182 70.7801 150.496 71.3478C150.811 71.9156 151.529 72.1213 152.097 71.8067C152.664 71.492 152.87 70.7742 152.555 70.2065C152.241 69.6389 151.523 69.433 150.955 69.7477Z" fill="#B74A96"/>
<path d="M144.985 63.3766C144.733 63.516 144.436 63.578 144.13 63.5353C143.378 63.4307 142.853 62.7362 142.957 61.984C143.107 60.9088 143.319 59.8319 143.589 58.7833C143.778 58.048 144.527 57.6049 145.263 57.7941C145.999 57.9833 146.441 58.7328 146.252 59.4682C146.008 60.4166 145.816 61.3903 145.681 62.3627C145.619 62.8083 145.35 63.1741 144.985 63.3766Z" fill="white"/>
<path d="M146.799 56.7591C146.435 56.9606 145.985 56.9957 145.576 56.8147C144.881 56.5078 144.567 55.6959 144.874 55.0013C144.941 54.8489 145.01 54.7017 145.078 54.5635C145.414 53.8826 146.239 53.6032 146.92 53.9396C147.6 54.2758 147.88 55.1004 147.544 55.7813C147.489 55.8905 147.438 56.0012 147.389 56.1125C147.263 56.3977 147.052 56.6188 146.799 56.7591Z" fill="white"/>
<path d="M141.998 21.0559C142.68 22.2876 142.235 23.8398 141.004 24.5226C139.772 25.2055 138.22 24.7604 137.537 23.5285C136.854 22.2966 137.299 20.7445 138.531 20.0617C139.763 19.3789 141.315 19.824 141.998 21.0559Z" fill="#EFAEB8"/>
<path d="M170.359 18.1367C170.648 18.6583 170.46 19.3157 169.938 19.6048C169.417 19.894 168.759 19.7056 168.47 19.1838C168.181 18.6622 168.369 18.0048 168.891 17.7156C169.413 17.4266 170.07 17.615 170.359 18.1367Z" fill="#EFAEB8"/>
<path d="M113.465 31.8944L115.403 33.6049C115.486 33.6782 115.591 33.7148 115.692 33.7063L118.058 33.5099C118.392 33.4821 118.628 33.9081 118.427 34.1769L117.007 36.079C116.946 36.1604 116.922 36.2684 116.94 36.3775L117.363 38.928C117.423 39.2884 117.045 39.4983 116.771 39.2565L114.832 37.546C114.749 37.4727 114.645 37.4361 114.544 37.4446L112.178 37.641C111.844 37.6687 111.608 37.2427 111.808 36.974L113.228 35.0719C113.289 34.9904 113.313 34.8825 113.295 34.7734L112.872 32.2229C112.812 31.8625 113.191 31.6526 113.465 31.8944Z" fill="#F7C4DB"/>
<path d="M165.421 3.09432L167.36 4.80484C167.443 4.87811 167.547 4.91474 167.649 4.90629L170.014 4.70981C170.348 4.68215 170.585 5.10814 170.384 5.37688L168.964 7.27894C168.903 7.36035 168.879 7.46834 168.897 7.57743L169.32 10.128C169.38 10.4884 169.001 10.6982 168.727 10.4565L166.789 8.74596C166.706 8.67269 166.601 8.63606 166.5 8.64451L164.135 8.84099C163.8 8.86865 163.564 8.44266 163.765 8.17392L165.185 6.27186C165.246 6.19034 165.27 6.08246 165.252 5.97336L164.829 3.42281C164.769 3.06238 165.147 2.85257 165.421 3.09432Z" fill="#F7C4DB"/>
<path d="M154.132 19.5382L156.765 21.8333C156.878 21.9315 157.02 21.9801 157.159 21.9676L160.397 21.6755C160.855 21.6343 161.173 22.2087 160.896 22.5748L158.932 25.1662C158.848 25.2771 158.814 25.4235 158.837 25.5712L159.388 29.0205C159.466 29.5079 158.946 29.7963 158.574 29.4719L155.94 27.1769C155.828 27.0786 155.685 27.0301 155.547 27.0426L152.309 27.3347C151.851 27.3759 151.533 26.8016 151.81 26.4354L153.774 23.844C153.858 23.733 153.892 23.5866 153.869 23.439L153.318 19.9896C153.24 19.5023 153.76 19.214 154.132 19.5382Z" fill="#F7C4DB"/>
</g>
<defs>
<clipPath id="clip0">
<rect width="51.8984" height="51.8984" fill="white" transform="translate(10.1869 0.828247) rotate(11)"/>
</clipPath>
<clipPath id="clip1">
<rect width="54.7837" height="54.7837" fill="white" transform="translate(51.4266 71.9149)"/>
</clipPath>
<clipPath id="clip2">
<rect width="57.5693" height="57.5693" fill="white" transform="translate(222.633 146.935) rotate(-112)"/>
</clipPath>
<clipPath id="clip3">
<rect width="67.7833" height="67.7833" fill="white" transform="translate(109.379 33.8638) rotate(-29)"/>
</clipPath>
</defs>
</svg>
