<svg width="364" height="264" viewBox="0 0 364 264" fill="none" xmlns="http://www.w3.org/2000/svg">
<g opacity="0.7" clip-path="url(#clip0)">
<path d="M124.512 171.475L85.4341 163.88C83.1741 163.44 81.6981 161.252 82.1374 158.992L93.2172 101.991C93.6565 99.7315 95.8447 98.2555 98.1047 98.6948L137.182 106.291C139.442 106.73 140.918 108.918 140.479 111.178L129.399 168.179C128.96 170.439 126.772 171.915 124.512 171.475Z" fill="#EFAEB8"/>
<path d="M128.779 124.766L98.9734 118.972C97.7453 118.734 96.9432 117.545 97.182 116.316L98.7667 108.164C99.0055 106.935 100.195 106.133 101.423 106.372L131.229 112.166C132.457 112.404 133.259 113.594 133.02 114.822L131.435 122.975C131.197 124.203 130.007 125.005 128.779 124.766Z" fill="#7A7989"/>
<path d="M101.74 134.087L95.3516 132.846C94.6157 132.703 94.1351 131.99 94.2782 131.254L95.5199 124.866C95.6629 124.13 96.3754 123.65 97.1112 123.793L103.499 125.035C104.235 125.178 104.716 125.89 104.573 126.626L103.331 133.014C103.188 133.75 102.475 134.23 101.74 134.087Z" fill="#375778"/>
<path d="M99.2364 146.965L92.8484 145.723C92.1125 145.58 91.632 144.868 91.775 144.132L93.0167 137.744C93.1597 137.008 93.8722 136.527 94.6081 136.671L100.996 137.912C101.732 138.055 102.212 138.768 102.069 139.504L100.828 145.892C100.685 146.627 99.9723 147.108 99.2364 146.965Z" fill="#375778"/>
<path d="M96.7333 159.843L90.3452 158.601C89.6094 158.458 89.1288 157.745 89.2718 157.01L90.5135 150.622C90.6566 149.886 91.369 149.405 92.1049 149.548L98.4929 150.79C99.2288 150.933 99.7093 151.646 99.5663 152.381L98.3246 158.769C98.1815 159.505 97.4691 159.986 96.7333 159.843Z" fill="#375778"/>
<path d="M114.34 136.537L107.952 135.295C107.216 135.152 106.735 134.439 106.879 133.704L108.12 127.316C108.263 126.58 108.976 126.099 109.712 126.242L116.1 127.484C116.835 127.627 117.316 128.339 117.173 129.075L115.931 135.463C115.788 136.199 115.076 136.68 114.34 136.537Z" fill="#375778"/>
<path d="M111.837 149.414L105.449 148.173C104.713 148.03 104.232 147.317 104.375 146.581L105.617 140.193C105.76 139.457 106.473 138.977 107.208 139.12L113.596 140.362C114.332 140.505 114.813 141.217 114.67 141.953L113.428 148.341C113.285 149.077 112.573 149.557 111.837 149.414Z" fill="#375778"/>
<path d="M109.334 162.292L102.946 161.05C102.21 160.907 101.729 160.195 101.872 159.459L103.114 153.071C103.257 152.335 103.969 151.855 104.705 151.998L111.093 153.239C111.829 153.382 112.31 154.095 112.167 154.831L110.925 161.219C110.782 161.954 110.069 162.435 109.334 162.292Z" fill="#375778"/>
<path d="M126.94 138.986L120.552 137.744C119.816 137.601 119.336 136.889 119.479 136.153L120.721 129.765C120.864 129.029 121.576 128.548 122.312 128.691L128.7 129.933C129.436 130.076 129.916 130.789 129.773 131.524L128.532 137.913C128.389 138.648 127.676 139.129 126.94 138.986Z" fill="#375778"/>
<path d="M126.197 142.811L119.809 141.569C119.073 141.426 118.36 141.907 118.217 142.642L116.345 152.275L116.092 153.575L114.472 161.908C114.329 162.644 114.81 163.356 115.546 163.499L121.934 164.741C122.67 164.884 123.382 164.403 123.525 163.668L125.145 155.335L125.398 154.035L127.27 144.402C127.413 143.666 126.932 142.954 126.197 142.811Z" fill="#EF8BBD"/>
<path d="M137.182 106.29L128.744 104.649C130.602 105.011 131.815 106.809 131.454 108.667L122.138 156.592C121.777 158.45 119.978 159.664 118.12 159.302L86.7525 153.205C84.8946 152.844 83.6812 151.045 84.0423 149.187L82.1366 158.991C81.6973 161.251 83.1733 163.439 85.4332 163.879L124.511 171.474C126.771 171.914 128.959 170.438 129.398 168.178L140.478 111.177C140.918 108.917 139.442 106.729 137.182 106.29Z" fill="#DD9CA6"/>
<path d="M131.228 112.166L130.79 112.081L128.341 124.681L128.779 124.766C130.007 125.005 131.196 124.203 131.435 122.975L133.02 114.822C133.259 113.594 132.457 112.404 131.228 112.166Z" fill="#62616E"/>
<path d="M90.3452 158.601L96.7332 159.843C97.4691 159.986 98.1814 159.505 98.3244 158.769L98.9452 155.575L89.8926 153.816L89.2718 157.01C89.1289 157.746 89.6093 158.458 90.3452 158.601Z" fill="#2B4158"/>
<path d="M102.946 161.05L109.334 162.292C110.069 162.435 110.782 161.954 110.925 161.219L111.546 158.025L102.493 156.265L101.872 159.459C101.729 160.195 102.21 160.907 102.946 161.05Z" fill="#2B4158"/>
<path d="M128.7 129.933L127.371 129.675L125.611 138.728L126.94 138.986C127.676 139.129 128.388 138.648 128.531 137.913L129.773 131.525C129.916 130.789 129.436 130.076 128.7 129.933Z" fill="#2B4158"/>
<path d="M126.197 142.811L124.867 142.552L122.138 156.592C121.777 158.45 119.978 159.664 118.12 159.302L115.093 158.714L114.473 161.908C114.33 162.644 114.81 163.356 115.546 163.499L121.934 164.741C122.67 164.884 123.382 164.403 123.525 163.668L125.145 155.335L125.398 154.035L127.27 144.402C127.413 143.666 126.932 142.954 126.197 142.811Z" fill="#E068BD"/>
<path d="M114.549 115.583C113.313 115.343 112.08 115.093 110.804 114.824C109.978 114.649 109.449 113.838 109.623 113.012C109.798 112.185 110.602 111.658 111.436 111.831C113.954 112.362 116.307 112.819 118.842 113.27C118.85 113.272 118.858 113.273 118.866 113.275C119.684 113.434 120.226 114.22 120.079 115.044C119.931 115.876 119.137 116.43 118.306 116.282C117.022 116.053 115.785 115.823 114.549 115.583Z" fill="white"/>
<path d="M104.846 113.666L103.097 113.326C102.268 113.164 101.726 112.362 101.887 111.532C102.048 110.703 102.851 110.162 103.681 110.323L105.429 110.663C106.259 110.824 106.8 111.627 106.639 112.456C106.478 113.285 105.675 113.827 104.846 113.666Z" fill="white"/>
<path d="M119.88 151.913C119.382 151.816 119.058 151.334 119.154 150.837L119.483 149.146C119.58 148.648 120.061 148.323 120.559 148.42C121.056 148.517 121.381 148.999 121.285 149.496L120.956 151.187C120.859 151.684 120.377 152.009 119.88 151.913Z" fill="#B74A96"/>
<path d="M121.291 157.911C120.794 157.814 120.469 157.332 120.565 156.835L120.894 155.144C120.991 154.647 121.472 154.322 121.97 154.419C122.467 154.515 122.792 154.997 122.696 155.495L122.367 157.185C122.27 157.683 121.789 158.008 121.291 157.911Z" fill="#B74A96"/>
<path d="M154.517 117.092C155.58 115.94 155.509 114.145 154.357 113.081C153.205 112.018 151.41 112.089 150.346 113.241C149.283 114.393 149.355 116.188 150.506 117.252C151.658 118.315 153.453 118.243 154.517 117.092Z" fill="#375778"/>
<path d="M90.0541 93.5035C90.7054 93.6301 91.336 93.2047 91.4626 92.5534C91.5892 91.9021 91.1639 91.2715 90.5126 91.1449C89.8613 91.0183 89.2307 91.4437 89.1041 92.095C88.9775 92.7463 89.4028 93.3769 90.0541 93.5035Z" fill="#375778"/>
<path d="M150.019 99.3787L150.448 102.223C150.467 102.344 150.529 102.45 150.622 102.516L152.778 104.04C153.083 104.255 152.979 104.787 152.616 104.872L150.046 105.478C149.936 105.504 149.838 105.578 149.775 105.684L148.312 108.161C148.106 108.51 147.633 108.418 147.572 108.017L147.143 105.173C147.125 105.051 147.062 104.945 146.97 104.88L144.814 103.356C144.509 103.14 144.612 102.609 144.976 102.523L147.546 101.918C147.656 101.892 147.754 101.817 147.816 101.711L149.279 99.2349C149.486 98.8851 149.959 98.977 150.019 99.3787Z" fill="#EFAEB8"/>
<path d="M83.8885 98.4068L84.3174 101.251C84.3357 101.373 84.3984 101.478 84.4908 101.544L86.6472 103.068C86.9517 103.283 86.8483 103.815 86.4853 103.901L83.915 104.506C83.8049 104.532 83.7071 104.606 83.6445 104.712L82.1815 107.189C81.9747 107.538 81.5021 107.447 81.4414 107.045L81.0125 104.201C80.9942 104.079 80.9315 103.973 80.8391 103.908L78.6827 102.384C78.378 102.169 78.4814 101.637 78.8446 101.551L81.4149 100.946C81.525 100.92 81.6226 100.845 81.6854 100.739L83.1484 98.2629C83.3553 97.9132 83.8278 98.005 83.8885 98.4068Z" fill="#EFAEB8"/>
</g>
<g opacity="0.7" clip-path="url(#clip1)">
<path d="M61.7038 58.9045C63.4915 58.8187 64.1372 57.1365 62.8661 55.8765L53.3727 46.4664L42.0782 35.2708C41.4883 34.686 40.6138 34.3503 39.7841 34.3902L23.8993 35.1526L10.5478 35.7933C8.75998 35.8792 8.11424 37.5614 9.38543 38.8213L18.8788 48.2314L30.1733 59.427C30.7633 60.0118 31.6378 60.3475 32.4675 60.3076L48.3522 59.5452L61.7038 58.9045Z" fill="#3471B1"/>
<path d="M44.7989 69.9091L50.8044 54.2642C51.5975 52.1981 45.4768 47.9268 37.1334 44.7241C28.7899 41.5213 21.3833 40.6 20.5902 42.6661L14.5847 58.311" fill="#3471B1"/>
<path d="M28.2558 67.851C36.5992 71.0537 44.0058 71.9752 44.7989 69.9091C45.592 67.843 39.4712 63.5718 31.1278 60.3691C22.7844 57.1663 15.3778 56.2449 14.5847 58.311C13.7916 60.377 19.9124 64.6483 28.2558 67.851Z" fill="#365474"/>
<path d="M37.1334 44.7241C36.5927 44.5165 36.056 44.3187 35.5247 44.1306C41.4552 46.6078 45.6235 49.6569 45.0353 51.1892L40.2337 63.6978C39.5996 65.3497 33.6777 64.613 27.0069 62.0523C20.3361 59.4916 15.4424 56.0766 16.0765 54.4247L14.5847 58.311C13.7916 60.3771 19.9124 64.6484 28.2557 67.8511C36.5991 71.0538 44.0057 71.9753 44.7989 69.9091L50.8044 54.2641C51.5975 52.1981 45.4768 47.9268 37.1334 44.7241Z" fill="#295583"/>
<path d="M39.4733 64.3359C37.5632 65.046 32.5432 64.1773 27.0069 62.0521C23.1077 60.5553 19.8164 58.7668 17.8805 57.209C16.0717 57.1931 14.8774 57.5483 14.5847 58.3108C13.7916 60.3769 19.9123 64.6481 28.2557 67.8508C36.5991 71.0536 44.0057 71.9749 44.7988 69.9089C45.2881 68.6344 43.1453 66.5205 39.4733 64.3359Z" fill="#2B4158"/>
<path d="M18.5825 47.8965C17.9626 47.6586 17.653 46.9632 17.8909 46.3433L19.4679 42.2351C20.0951 40.6015 22.2903 40.0424 26.1789 40.5263C29.3972 40.9266 33.4406 42.0189 37.5642 43.6017C41.6877 45.1846 45.4234 47.0785 48.0831 48.9345C51.2966 51.177 52.5539 53.0613 51.9268 54.6949C51.6889 55.3148 50.9935 55.6244 50.3737 55.3864C49.764 55.1524 49.4545 54.4759 49.6709 53.864C49.6488 53.5783 49.0021 52.4353 46.2879 50.6199C43.8125 48.9641 40.4083 47.2688 36.7026 45.8463C32.9969 44.4238 29.3328 43.4059 26.3852 42.9799C23.1573 42.5134 21.9111 42.9286 21.7013 43.1265L20.1357 47.205C19.8977 47.8248 19.2023 48.1344 18.5825 47.8965Z" fill="#1D3F5E"/>
<path d="M53.7696 67.0361C53.1498 66.7982 52.8402 66.1028 53.0781 65.4829L58.097 52.4083C58.3349 51.7884 59.0303 51.4788 59.6502 51.7168C60.27 51.9547 60.5796 52.6501 60.3417 53.2699L55.3228 66.3446C55.0848 66.9644 54.3893 67.274 53.7696 67.0361Z" fill="#1D3F5E"/>
<path d="M51.5243 72.8848C50.1939 72.3741 49.5293 70.8815 50.04 69.551L51.674 65.2944C51.8597 64.8107 52.4023 64.5692 52.8859 64.7548L55.9526 65.932C56.4363 66.1176 56.6778 66.6603 56.4922 67.1439L54.8582 71.4006C54.3474 72.731 52.8548 73.3955 51.5243 72.8848Z" fill="#CD8893"/>
<path d="M38.3104 57.8918C37.9386 57.749 37.7528 57.3318 37.8955 56.9599L38.4456 55.527C38.5883 55.155 39.0056 54.9694 39.3774 55.1121C39.7494 55.2549 39.935 55.6721 39.7923 56.0439L39.2423 57.4769C39.0996 57.8488 38.6823 58.0346 38.3104 57.8918Z" fill="#1D3F5E"/>
<path d="M42.167 57.2567C41.7951 57.114 41.6093 56.6967 41.7521 56.3248L42.3021 54.8919C42.4449 54.5201 42.8622 54.3343 43.234 54.477C43.6058 54.6198 43.7916 55.037 43.6489 55.4089L43.0988 56.8418C42.956 57.2138 42.5388 57.3994 42.167 57.2567Z" fill="#1D3F5E"/>
<path d="M42.6938 62.8556C42.3219 62.7129 42.1361 62.2956 42.2789 61.9237L42.8289 60.4908C42.9717 60.119 43.3889 59.9332 43.7608 60.0759C44.1327 60.2187 44.3184 60.6359 44.1757 61.0078L43.6256 62.4407C43.4829 62.8125 43.0656 62.9983 42.6938 62.8556Z" fill="#1D3F5E"/>
<path d="M21.7857 52.8494C21.1659 52.6114 20.8562 51.916 21.0942 51.2962L21.7982 49.4622C22.0361 48.8424 22.7315 48.5328 23.3513 48.7707C23.9712 49.0086 24.2808 49.704 24.0428 50.3238L23.3388 52.1578C23.1009 52.7777 22.4054 53.0872 21.7857 52.8494Z" fill="white"/>
<path d="M23.7985 47.6057C23.1787 47.3678 22.8691 46.6724 23.107 46.0525L23.3692 45.3697C23.6071 44.7498 24.3025 44.4402 24.9223 44.6782C25.5421 44.9161 25.8518 45.6115 25.6138 46.2313L25.3517 46.9142C25.1137 47.5341 24.4183 47.8436 23.7985 47.6057Z" fill="white"/>
<path d="M55.6619 34.9887C55.2206 36.1383 53.931 36.7125 52.7813 36.2712C51.6317 35.8299 51.0575 34.5402 51.4988 33.3906C51.9401 32.241 53.2298 31.6668 54.3794 32.1081C55.529 32.5494 56.1032 33.839 55.6619 34.9887Z" fill="#3471B1"/>
<path d="M26.7033 15.7485C27.1796 15.5364 27.3938 14.9784 27.1817 14.5021C26.9697 14.0258 26.4116 13.8116 25.9353 14.0236C25.459 14.2357 25.2448 14.7937 25.4569 15.2701C25.6689 15.7464 26.227 15.9606 26.7033 15.7485Z" fill="#3471B1"/>
<path d="M43.0072 15.9051L42.9511 18.1649C42.9488 18.2617 42.9828 18.3521 43.0453 18.4152L44.5064 19.8893C44.7128 20.0975 44.5602 20.4952 44.2675 20.5118L42.1953 20.6296C42.1066 20.6346 42.0208 20.6791 41.9578 20.7526L40.4874 22.4695C40.2796 22.7121 39.9263 22.5765 39.9343 22.2572L39.9904 19.9974C39.9928 19.9006 39.9587 19.8101 39.8962 19.747L38.4351 18.273C38.2287 18.0647 38.3813 17.6671 38.6741 17.6505L40.7462 17.5327C40.8349 17.5276 40.9207 17.4832 40.9837 17.4097L42.4541 15.6928C42.6618 15.4502 43.0151 15.5858 43.0072 15.9051Z" fill="#EFAEB8"/>
<path d="M68.2197 27.2937L68.1624 30.3472C68.1599 30.4779 68.2073 30.6005 68.2937 30.6863L70.3092 32.6911C70.5939 32.9743 70.3882 33.5104 69.987 33.5304L67.1477 33.6715C67.0262 33.6776 66.9088 33.7368 66.8232 33.8356L64.8226 36.1431C64.54 36.4691 64.0545 36.2827 64.0626 35.8514L64.12 32.7979C64.1224 32.6672 64.075 32.5446 63.9886 32.4588L61.973 30.454C61.6882 30.1708 61.894 29.6347 62.2951 29.6148L65.1345 29.4737C65.2561 29.4676 65.3734 29.4084 65.459 29.3096L67.4596 27.002C67.7422 26.676 68.2278 26.8623 68.2197 27.2937Z" fill="#EFAEB8"/>
<path d="M23.8869 19.7281L23.8296 22.7816C23.8271 22.9123 23.8745 23.0349 23.9609 23.1207L25.9765 25.1255C26.2613 25.4087 26.0555 25.9448 25.6544 25.9647L22.815 26.1058C22.6935 26.1119 22.5763 26.1712 22.4905 26.27L20.4899 28.5775C20.2073 28.9035 19.7219 28.7171 19.73 28.2858L19.7873 25.2323C19.7897 25.1016 19.7423 24.979 19.6559 24.8932L17.6403 22.8885C17.3555 22.6053 17.5613 22.0692 17.9624 22.0493L20.8018 21.9082C20.9233 21.9021 21.0405 21.8428 21.1263 21.744L23.1269 19.4365C23.4095 19.1104 23.8951 19.2968 23.8869 19.7281Z" fill="#EFAEB8"/>
</g>
<g opacity="0.7" clip-path="url(#clip2)">
<path d="M221.626 220.774C220.187 219.335 220.187 217.001 221.626 215.562L226.809 210.38C228.248 208.941 230.581 208.941 232.02 210.38C233.459 211.819 233.459 214.152 232.02 215.591L226.838 220.774C225.399 222.213 223.065 222.213 221.626 220.774Z" fill="#4081C5"/>
<path d="M218.619 250.132C218.341 250.132 218.063 250.026 217.851 249.814L192.586 224.549C192.162 224.124 192.162 223.437 192.586 223.013C193.01 222.589 193.697 222.589 194.122 223.013L219.387 248.278C219.811 248.702 219.811 249.39 219.387 249.814C219.175 250.026 218.897 250.132 218.619 250.132Z" fill="#446878"/>
<path d="M180.331 242.982C179.954 242.982 179.588 242.786 179.387 242.436C179.089 241.916 179.269 241.252 179.789 240.954L189.098 235.616C189.619 235.318 190.282 235.498 190.581 236.018C190.879 236.538 190.699 237.202 190.179 237.5L180.87 242.838C180.699 242.936 180.514 242.982 180.331 242.982Z" fill="#446878"/>
<path d="M200.837 263.49C200.654 263.49 200.468 263.444 200.298 263.346C199.777 263.048 199.598 262.385 199.896 261.864L205.234 252.555C205.532 252.035 206.195 251.855 206.716 252.153C207.236 252.452 207.416 253.115 207.118 253.636L201.78 262.945C201.579 263.294 201.213 263.49 200.837 263.49Z" fill="#446878"/>
<path d="M185.924 240.965C184.353 237.992 185.49 234.309 188.463 232.739L219.064 216.572L221.908 221.954L185.924 240.965Z" fill="#EFAEB8"/>
<path d="M201.588 256.629L201.757 256.718C204.73 258.289 208.412 257.152 209.983 254.179L226.15 223.578L220.599 220.645L201.588 256.629Z" fill="#EFAEB8"/>
<path d="M223.374 222.112L207.12 252.879C206.339 254.358 204.506 254.923 203.027 254.142L202.93 254.091L201.588 256.629L201.757 256.718C204.729 258.289 208.412 257.152 209.983 254.179L226.15 223.578L223.374 222.112Z" fill="#D58C98"/>
<path d="M219.393 231.799C224.248 231.799 228.184 227.863 228.184 223.007C228.184 218.152 224.248 214.216 219.393 214.216C214.537 214.216 210.601 218.152 210.601 223.007C210.601 227.863 214.537 231.799 219.393 231.799Z" fill="#4081C5"/>
<path d="M225.609 216.791C223.588 214.769 220.827 213.939 218.197 214.298C219.518 214.507 220.788 215.12 221.807 216.138C224.37 218.702 224.37 222.858 221.807 225.421C219.243 227.985 215.087 227.985 212.524 225.421C211.505 224.403 210.893 223.133 210.684 221.811C210.325 224.441 211.154 227.202 213.176 229.224C216.609 232.657 222.176 232.657 225.609 229.224C229.043 225.79 229.043 220.224 225.609 216.791Z" fill="#2E659F"/>
<path d="M227.541 220.785C227.112 220.785 226.706 220.529 226.534 220.107C226.147 219.152 225.577 218.295 224.841 217.559C224.091 216.808 223.676 216.58 222.989 216.203C222.895 216.151 222.798 216.098 222.697 216.042C222.173 215.75 221.985 215.088 222.278 214.565C222.57 214.041 223.231 213.853 223.755 214.145C223.852 214.199 223.944 214.25 224.034 214.299C224.771 214.704 225.408 215.053 226.377 216.023C227.32 216.965 228.05 218.065 228.547 219.291C228.772 219.847 228.505 220.48 227.949 220.705C227.815 220.76 227.677 220.785 227.541 220.785Z" fill="#1D3F5E"/>
<path d="M219.393 226.166C221.137 226.166 222.551 224.752 222.551 223.007C222.551 221.263 221.137 219.848 219.393 219.848C217.648 219.848 216.234 221.263 216.234 223.007C216.234 224.752 217.648 226.166 219.393 226.166Z" fill="#EFAEB8"/>
<path d="M190.144 210.721C190.144 211.833 189.242 212.735 188.129 212.735C187.017 212.735 186.115 211.833 186.115 210.721C186.115 209.609 187.017 208.707 188.13 208.707C189.242 208.707 190.144 209.609 190.144 210.721Z" fill="#4081C5"/>
<path d="M208.874 213.34C209.345 213.34 209.727 212.958 209.727 212.487C209.727 212.016 209.345 211.634 208.874 211.634C208.403 211.634 208.021 212.016 208.021 212.487C208.021 212.958 208.403 213.34 208.874 213.34Z" fill="#4081C5"/>
<path d="M183.38 220.335L184.064 222.259C184.094 222.341 184.152 222.406 184.225 222.439L185.934 223.21C186.176 223.318 186.176 223.703 185.934 223.812L184.225 224.582C184.152 224.615 184.094 224.68 184.064 224.763L183.38 226.687C183.284 226.958 182.942 226.958 182.845 226.687L182.161 224.763C182.131 224.68 182.073 224.615 182 224.582L180.291 223.812C180.049 223.703 180.049 223.318 180.291 223.21L182 222.439C182.073 222.406 182.131 222.341 182.161 222.259L182.845 220.335C182.942 220.063 183.284 220.063 183.38 220.335Z" fill="#EFAEB8"/>
<path d="M199.804 209.058L200.745 211.652C200.785 211.763 200.865 211.851 200.965 211.895L203.314 212.934C203.646 213.08 203.646 213.599 203.314 213.746L200.965 214.784C200.865 214.828 200.785 214.916 200.745 215.027L199.804 217.621C199.672 217.988 199.202 217.988 199.069 217.621L198.129 215.027C198.089 214.916 198.009 214.828 197.908 214.784L195.559 213.746C195.228 213.599 195.228 213.08 195.559 212.934L197.908 211.895C198.009 211.851 198.089 211.763 198.129 211.652L199.069 209.058C199.202 208.692 199.672 208.692 199.804 209.058Z" fill="#EFAEB8"/>
</g>
<g clip-path="url(#clip3)">
<g opacity="0.7">
<path d="M199.842 40.5016L204.052 43.3411L200.723 48.2768L196.513 45.4372L199.842 40.5016Z" fill="#183C5C"/>
<path opacity="0.3" d="M199.842 40.5016L204.052 43.3411L200.723 48.2768L196.513 45.4372" fill="#00CFFF"/>
<path d="M215.568 49.8431C214.554 50.0402 213.573 49.378 213.376 48.3641L205.628 8.50575C205.431 7.49177 206.093 6.51001 207.107 6.31291C208.121 6.11582 209.103 6.77802 209.3 7.792L217.048 47.6503C217.245 48.6643 216.582 49.6461 215.568 49.8431Z" fill="#183C5C"/>
<path opacity="0.3" d="M215.568 49.8431C214.554 50.0402 213.573 49.378 213.376 48.3641L205.628 8.50575C205.431 7.49177 206.093 6.51001 207.107 6.31291C208.121 6.11582 209.103 6.77802 209.3 7.792L217.048 47.6503C217.245 48.6643 216.582 49.6461 215.568 49.8431Z" fill="#00CFFF"/>
<path d="M218.47 40.4406C213.849 43.0965 207.909 43.0568 203.224 39.8211C196.867 35.4306 195.166 26.6814 199.416 20.2294C202.548 15.4744 208.04 13.2126 213.319 13.9441C214.507 14.1086 215.506 13.063 215.278 11.886C215.136 11.1568 214.548 10.5942 213.812 10.4919C207.291 9.58482 200.507 12.3481 196.593 18.1744C191.157 26.2666 193.306 37.3175 201.377 42.7841C207.188 46.7201 214.513 46.7407 220.22 43.4568C220.864 43.0863 221.198 42.3445 221.056 41.6153C220.828 40.4383 219.509 39.8431 218.47 40.4406Z" fill="#183C5C"/>
<path d="M202.108 52.9418L191.675 45.9049C190.72 45.2605 190.468 43.9637 191.112 43.0084C191.757 42.0531 193.054 41.801 194.009 42.4453L204.442 49.4823C205.397 50.1266 205.649 51.4235 205.005 52.3788C204.36 53.3341 203.063 53.5862 202.108 52.9418Z" fill="#183C5C"/>
<path d="M205.149 37.2542C210.216 40.6721 217.095 39.335 220.513 34.2677C223.931 29.2005 222.594 22.3219 217.526 18.904C212.459 15.486 205.58 16.8231 202.163 21.8904C198.745 26.9576 200.082 33.8362 205.149 37.2542Z" fill="#8BB6EF"/>
<path d="M205.149 37.2529C205.907 37.7647 206.707 38.169 207.529 38.4711C207.429 34.7442 204.197 32.5823 203.935 31.6805C203.539 30.3179 206.094 29.9026 205.504 28.4648C204.832 26.8258 201.717 26.2826 200.441 26.1268C199.695 30.3068 201.402 34.7257 205.149 37.2529Z" fill="#EFAEB8"/>
<path d="M206.927 17.9262C205.056 18.7369 203.387 20.0735 202.162 21.8891C202.115 21.96 202.068 22.0314 202.022 22.103C205.354 23.8579 207.872 23.7868 208.737 22.6501C209.47 21.6882 207.645 18.9355 206.927 17.9262Z" fill="#EFAEB8"/>
<path d="M219.464 20.5621C217.999 20.4385 214.413 20.351 213.884 22.3809C213.537 23.7158 214.435 24.3926 215.015 24.9907C215.899 25.902 215.223 26.826 214.354 27.1454C213.786 27.3542 211.882 28.5848 211.436 29.6387C210.208 32.543 215.825 35.2753 219.089 35.9796C219.61 35.4673 220.088 34.8958 220.513 34.2666C223.443 29.9223 222.878 24.247 219.464 20.5621Z" fill="#EFAEB8"/>
<path d="M217.527 18.9031C217.247 18.7144 216.962 18.5411 216.672 18.3811C220.247 21.3473 221.059 26.6 218.406 30.5329C215.581 34.7223 209.894 35.8277 205.704 33.0019C201.771 30.3491 200.557 25.1749 202.761 21.0851C202.552 21.342 202.352 21.6098 202.163 21.8896C198.745 26.9568 200.082 33.8354 205.15 37.2533C210.217 40.6712 217.095 39.3342 220.513 34.2669C223.931 29.1997 222.594 22.3211 217.527 18.9031Z" fill="#8388EF"/>
<path d="M202.758 21.0888C202.55 21.3446 202.35 21.6104 202.162 21.889C202.114 21.9599 202.068 22.0313 202.022 22.1028C202.097 22.1425 202.171 22.18 202.246 22.2178C202.389 21.8345 202.559 21.4572 202.758 21.0888Z" fill="#C38790"/>
<path d="M207.529 38.471C207.429 34.7442 204.197 32.5822 203.935 31.6805C203.906 31.5813 203.893 31.4872 203.894 31.3973C202.647 29.9555 201.904 28.1788 201.717 26.3359C201.219 26.2327 200.769 26.1668 200.441 26.1268C199.695 30.3068 201.402 34.7258 205.149 37.2529C205.907 37.7647 206.707 38.1691 207.529 38.471Z" fill="#C38790"/>
<path d="M219.089 35.9794C219.61 35.4672 220.088 34.8957 220.513 34.2665C223.443 29.9222 222.878 24.2469 219.464 20.562C219.212 20.5407 218.898 20.5206 218.547 20.5121C220.434 23.4892 220.503 27.4231 218.405 30.5324C217.311 32.1552 215.787 33.3149 214.087 33.9629C215.671 34.9335 217.619 35.6622 219.089 35.9794Z" fill="#C38790"/>
<path d="M210.249 20.7415C210.092 20.6356 209.969 20.4776 209.908 20.2828C209.767 19.8285 210.021 19.346 210.476 19.2052C211.822 18.7878 213.225 19.1033 213.284 19.117C213.748 19.224 214.036 19.6864 213.929 20.1498C213.823 20.6124 213.362 20.9012 212.899 20.7959C212.875 20.7905 211.873 20.5755 210.986 20.8505C210.726 20.9308 210.458 20.8824 210.249 20.7415Z" fill="white"/>
<path d="M217.791 26.5635C217.555 26.4039 217.492 26.0827 217.652 25.8461L218.058 25.2434C218.218 25.0068 218.539 24.9444 218.776 25.104C219.012 25.2636 219.075 25.5848 218.915 25.8213L218.509 26.424C218.349 26.6606 218.028 26.723 217.791 26.5635Z" fill="#A36A9D"/>
<path d="M218.907 29.5878C218.67 29.4282 218.608 29.107 218.767 28.8704L219.174 28.2678C219.334 28.0312 219.655 27.9687 219.891 28.1283C220.128 28.2879 220.19 28.6091 220.031 28.8457L219.624 29.4483C219.465 29.6849 219.143 29.7473 218.907 29.5878Z" fill="#A36A9D"/>
<path d="M215.906 30.3405C215.67 30.1809 215.607 29.8597 215.767 29.6232L216.173 29.0205C216.333 28.7839 216.654 28.7215 216.891 28.8811C217.127 29.0407 217.19 29.3618 217.03 29.5984L216.624 30.2011C216.464 30.4377 216.143 30.5001 215.906 30.3405Z" fill="#A36A9D"/>
<path d="M186.335 35.5966C185.842 36.3279 184.849 36.5209 184.118 36.0276C183.387 35.5343 183.194 34.5415 183.687 33.8101C184.18 33.0788 185.173 32.8858 185.904 33.3791C186.636 33.8724 186.829 34.8652 186.335 35.5966Z" fill="#183C5C"/>
<path d="M222.029 20.3604C222.339 20.5693 222.759 20.4876 222.968 20.1779C223.177 19.8682 223.095 19.4478 222.786 19.2389C222.476 19.0299 222.056 19.1117 221.847 19.4214C221.638 19.7311 221.719 20.1515 222.029 20.3604Z" fill="#183C5C"/>
<path d="M227.473 35.5843L227.07 37.1527C227.053 37.2198 227.062 37.2884 227.095 37.3426L227.877 38.6069C227.988 38.7856 227.817 39.0385 227.61 39.003L226.145 38.7513C226.082 38.7405 226.015 38.7577 225.959 38.7989L224.656 39.7604C224.472 39.8962 224.247 39.7446 224.304 39.523L224.708 37.9546C224.725 37.8875 224.716 37.8188 224.682 37.7648L223.9 36.5004C223.789 36.3217 223.96 36.0687 224.167 36.1043L225.633 36.356C225.695 36.3668 225.762 36.3496 225.818 36.3084L227.121 35.3469C227.305 35.2111 227.53 35.3627 227.473 35.5843Z" fill="#253A6A"/>
<path d="M231.434 24.2786L230.902 26.4009C230.879 26.4917 230.893 26.5849 230.939 26.6587L232.023 28.3829C232.176 28.6265 231.946 28.9676 231.663 28.9169L229.658 28.5579C229.572 28.5425 229.481 28.565 229.405 28.6201L227.637 29.9085C227.387 30.0906 227.078 29.8823 227.153 29.5824L227.685 27.4601C227.708 27.3693 227.695 27.2761 227.648 27.2023L226.564 25.4781C226.411 25.2345 226.641 24.8934 226.925 24.9441L228.929 25.3031C229.015 25.3185 229.107 25.296 229.182 25.2408L230.951 23.9525C231.2 23.7705 231.509 23.9788 231.434 24.2786Z" fill="#253A6A"/>
</g>
</g>
<g opacity="0.7" clip-path="url(#clip4)">
<path d="M71.6423 221.433L65.5266 223.904C65.0568 224.094 64.8299 224.629 65.0197 225.099L66.427 228.582C66.6167 229.051 67.1514 229.278 67.6212 229.089L73.7369 226.618C74.2066 226.428 74.4336 225.893 74.2438 225.424L72.8365 221.94C72.6467 221.471 72.112 221.244 71.6423 221.433Z" fill="#8BB6EF"/>
<path d="M57.7932 226.04C52.3003 228.259 46.0191 225.533 43.7637 219.95C41.5083 214.368 44.1328 208.044 49.6257 205.824L47.576 201.959C39.2143 205.337 35.413 215.444 39.0855 224.534C42.758 233.624 52.5137 238.254 60.8754 234.876" fill="#D797A1"/>
<path d="M71.2179 217.08L56.7138 222.94C55.4015 223.47 53.908 222.836 53.3778 221.524C52.8476 220.211 53.4816 218.718 54.7939 218.188L69.298 212.328C70.6103 211.797 72.1038 212.431 72.634 213.744C73.1642 215.056 72.5302 216.549 71.2179 217.08Z" fill="#D797A1"/>
<path d="M53.1923 235.439L61.3955 232.125C62.296 231.761 62.7311 230.736 62.3672 229.836L57.9175 218.822C57.5537 217.922 56.5286 217.487 55.6282 217.85L50.3648 219.977C49.6641 220.26 49.2226 220.959 49.2682 221.714L50.7781 233.915C50.8507 235.114 52.0782 235.889 53.1923 235.439Z" fill="#3E7CBD"/>
<path d="M55.6282 217.851L53.0264 218.902C53.6887 218.634 54.4249 218.911 54.6709 219.519L57.6789 226.964C57.9248 227.573 57.5872 228.284 56.925 228.551L50.892 230.989C50.7374 231.051 50.581 231.084 50.4285 231.09L50.7781 233.915C50.8506 235.114 52.0781 235.889 53.1923 235.439L61.3954 232.125C62.296 231.761 62.731 230.736 62.3671 229.836L57.9175 218.822C57.5537 217.922 56.5287 217.487 55.6282 217.851Z" fill="#2E659F"/>
<path d="M79.4004 228.996L54.2696 239.149C52.7188 239.776 50.9536 239.026 50.327 237.476C49.7004 235.925 50.4497 234.16 52.0006 233.533L77.1314 223.379C78.6822 222.753 80.4474 223.502 81.074 225.053C81.7005 226.604 80.9513 228.369 79.4004 228.996Z" fill="#355270"/>
<path d="M77.1313 223.379L74.5309 224.43C75.4396 224.063 76.4739 224.502 76.841 225.411C77.2081 226.319 76.7691 227.354 75.8604 227.721L52.1673 237.293C51.434 237.59 50.6193 237.36 50.1391 236.783C50.1736 237.016 50.2352 237.248 50.3271 237.475C50.9536 239.026 52.7188 239.776 54.2696 239.149L79.4005 228.995C80.9513 228.369 81.7006 226.604 81.074 225.053C80.4473 223.502 78.6822 222.753 77.1313 223.379Z" fill="#2B4158"/>
<path d="M61.1254 210.217L58.9853 211.959C58.0642 212.708 56.7096 212.569 55.96 211.648L51.0137 205.569L56.4897 201.113L61.436 207.192C62.1857 208.113 62.0465 209.467 61.1254 210.217Z" fill="#355270"/>
<path d="M56.5907 200.711L50.2857 203.259L39.3109 195.292C38.0871 194.404 38.3185 192.516 39.7206 191.95L41.8152 191.104C42.4304 190.855 43.1302 190.941 43.6671 191.331L56.5907 200.711Z" fill="#355270"/>
<path d="M58.9087 203.622L52.9791 208.448C51.9364 209.296 50.4032 209.139 49.5547 208.096L44.7295 202.166C43.881 201.124 44.0384 199.591 45.0811 198.742L51.0107 193.917C52.0534 193.068 53.5866 193.226 54.4351 194.269L59.2603 200.198C60.1088 201.241 59.9514 202.774 58.9087 203.622Z" fill="#3E7CBD"/>
<path d="M59.2603 200.198L54.435 194.268C53.5865 193.226 52.0533 193.068 51.0107 193.917L49.0119 195.543C49.788 194.912 50.9291 195.029 51.5607 195.805L55.1521 200.219C55.7837 200.995 55.6665 202.136 54.8904 202.767L50.4769 206.359C49.7008 206.99 48.5596 206.873 47.928 206.097L49.5546 208.096C50.4031 209.139 51.9363 209.296 52.979 208.448L58.9085 203.622C59.9513 202.774 60.1088 201.241 59.2603 200.198Z" fill="#2E659F"/>
<path d="M45.7001 203.43C45.4623 203.526 45.1799 203.462 45.0088 203.253C44.7982 202.996 44.836 202.616 45.0934 202.406L54.5704 194.648C54.8278 194.438 55.2069 194.476 55.4176 194.733C55.6282 194.99 55.5904 195.369 55.333 195.58L45.856 203.338C45.8078 203.377 45.7552 203.408 45.7001 203.43Z" fill="#EFAEB8"/>
<path d="M49.378 207.615C49.1401 207.711 48.8578 207.647 48.6867 207.438C48.4761 207.18 48.5139 206.801 48.7712 206.591L57.7685 199.226C58.0259 199.015 58.405 199.053 58.6157 199.31C58.8263 199.567 58.7884 199.947 58.5311 200.157L49.5339 207.522C49.4856 207.562 49.433 207.593 49.378 207.615Z" fill="#EFAEB8"/>
<path d="M53.7417 227.826C53.6698 227.855 53.5934 227.876 53.5134 227.888C52.9653 227.97 52.4547 227.592 52.3727 227.044L52.1669 225.668C52.085 225.12 52.4629 224.609 53.0109 224.527C53.5589 224.445 54.0696 224.823 54.1515 225.371L54.3574 226.748C54.4273 227.216 54.1619 227.656 53.7417 227.826Z" fill="white"/>
<path d="M53.1071 223.582C53.0353 223.611 52.959 223.632 52.879 223.644C52.3309 223.726 51.8202 223.348 51.7381 222.8L51.6995 222.541C51.6177 221.993 51.9959 221.483 52.5437 221.401C53.0918 221.319 53.6023 221.697 53.6842 222.245L53.7228 222.503C53.7929 222.971 53.5275 223.412 53.1071 223.582Z" fill="white"/>
<path d="M72.4592 190.473C72.3047 189.457 71.3558 188.758 70.3396 188.913C69.3235 189.067 68.625 190.016 68.7794 191.032C68.9339 192.049 69.8829 192.747 70.899 192.593C71.9152 192.438 72.6137 191.489 72.4592 190.473Z" fill="#355270"/>
<path d="M66.3916 200.686C66.7952 200.523 66.9901 200.064 66.8271 199.661C66.664 199.257 66.2047 199.062 65.8012 199.225C65.3976 199.388 65.2027 199.847 65.3657 200.251C65.5288 200.655 65.9881 200.849 66.3916 200.686Z" fill="#355270"/>
<path d="M59.1296 187.355L60.3816 188.766C60.4352 188.826 60.5075 188.862 60.5816 188.865L62.3124 188.933C62.557 188.943 62.6901 189.272 62.5209 189.449L61.3232 190.701C61.2718 190.754 61.2448 190.83 61.2482 190.911L61.328 192.796C61.3393 193.062 61.0465 193.18 60.8696 192.981L59.6175 191.57C59.5639 191.509 59.4917 191.473 59.4175 191.471L57.6867 191.402C57.4421 191.393 57.309 191.063 57.4782 190.886L58.6759 189.635C58.7273 189.581 58.7543 189.505 58.7509 189.425L58.6712 187.54C58.6598 187.273 58.9526 187.155 59.1296 187.355Z" fill="#3E7CBD"/>
<path d="M73.0464 198.519L74.7495 200.415C74.8224 200.496 74.9211 200.544 75.0227 200.548L77.3941 200.624C77.7291 200.635 77.9087 201.079 77.6751 201.32L76.0224 203.022C75.9516 203.095 75.9138 203.198 75.9178 203.307L76.0101 205.854C76.0231 206.214 75.6207 206.377 75.3801 206.109L73.6771 204.212C73.6042 204.131 73.5054 204.083 73.4038 204.08L71.0325 204.003C70.6974 203.993 70.5179 203.548 70.7514 203.308L72.4041 201.605C72.4749 201.533 72.5127 201.43 72.5087 201.321L72.4164 198.773C72.4034 198.413 72.8059 198.251 73.0464 198.519Z" fill="#3E7CBD"/>
</g>
<g clip-path="url(#clip5)">
<g opacity="0.7">
<path d="M238.654 118.777L230.847 123.194C229.229 124.11 228.659 126.163 229.575 127.781L255.75 174.045C256.665 175.663 258.719 176.233 260.337 175.317L268.144 170.9C269.762 169.985 270.332 167.931 269.416 166.313L243.241 120.049C242.326 118.431 240.272 117.862 238.654 118.777ZM240.794 131.667C239.716 132.277 238.348 131.898 237.738 130.82C237.129 129.742 237.508 128.374 238.586 127.764C239.664 127.155 241.032 127.534 241.641 128.612C242.251 129.69 241.872 131.058 240.794 131.667Z" fill="#EFAEB8"/>
<path d="M238.654 118.777L235.77 120.409C236.954 119.739 238.57 120.357 239.379 121.788L262.532 162.71C263.342 164.141 263.039 165.844 261.855 166.514L256.145 169.744C254.962 170.414 253.346 169.796 252.536 168.365L255.75 174.045C256.665 175.663 258.719 176.233 260.337 175.317L268.144 170.9C269.762 169.985 270.332 167.931 269.416 166.313L243.241 120.049C242.326 118.431 240.272 117.862 238.654 118.777Z" fill="#D1919B"/>
<path d="M307.639 145.94L250.91 114.495C249.591 113.764 248.142 115.225 248.885 116.539L276.117 164.672C276.524 165.39 277.436 165.643 278.154 165.237L307.65 148.548C308.667 147.973 308.661 146.506 307.639 145.94ZM289.98 146.706L279.289 152.754C279.028 152.902 278.698 152.81 278.55 152.55L268.68 135.104C268.411 134.628 268.936 134.098 269.415 134.363L289.975 145.76C290.346 145.966 290.348 146.497 289.98 146.706Z" fill="#2E659F"/>
<path d="M307.639 145.94L250.911 114.495C250.293 114.153 249.648 114.291 249.211 114.669C249.455 114.611 249.747 114.67 250.05 114.891L293.725 146.706C294.511 147.279 294.661 148.502 293.99 148.882L274.542 159.885C274.068 160.153 273.39 159.852 273.029 159.213L276.117 164.672C276.524 165.39 277.436 165.643 278.154 165.237L307.65 148.549C308.667 147.973 308.661 146.506 307.639 145.94Z" fill="#1D3F5E"/>
<path d="M245.112 138.184L237.801 142.32C237.446 142.521 236.995 142.396 236.795 142.041C236.594 141.686 236.719 141.236 237.074 141.035L244.385 136.899C244.74 136.698 245.19 136.823 245.391 137.178C245.591 137.532 245.467 137.983 245.112 138.184Z" fill="#CB7B87"/>
<path d="M245.409 144.377L240.527 147.139C240.172 147.34 239.721 147.215 239.521 146.86C239.32 146.505 239.445 146.055 239.8 145.854L244.682 143.092C245.036 142.891 245.487 143.016 245.687 143.371C245.888 143.726 245.763 144.176 245.409 144.377Z" fill="#CB7B87"/>
<path d="M250.564 147.821L243.253 151.958C242.898 152.159 242.448 152.034 242.247 151.679C242.047 151.324 242.172 150.874 242.526 150.673L249.837 146.536C250.192 146.336 250.643 146.461 250.843 146.815C251.044 147.17 250.919 147.621 250.564 147.821Z" fill="#CB7B87"/>
<path d="M250.862 154.015L245.98 156.777C245.625 156.978 245.174 156.853 244.974 156.498C244.773 156.143 244.898 155.693 245.253 155.492L250.134 152.73C250.489 152.529 250.94 152.654 251.14 153.009C251.341 153.364 251.216 153.814 250.862 154.015Z" fill="#CB7B87"/>
<path d="M256.017 157.459L248.706 161.596C248.351 161.797 247.901 161.672 247.7 161.317C247.499 160.962 247.624 160.512 247.979 160.311L255.29 156.174C255.645 155.974 256.096 156.099 256.296 156.453C256.497 156.808 256.372 157.259 256.017 157.459Z" fill="#CB7B87"/>
<path d="M256.314 163.653L251.433 166.415C251.078 166.615 250.627 166.49 250.427 166.136C250.226 165.781 250.351 165.33 250.705 165.13L255.587 162.368C255.942 162.167 256.393 162.292 256.593 162.647C256.794 163.001 256.669 163.452 256.314 163.653Z" fill="#CB7B87"/>
<path d="M261.47 167.097L254.159 171.234C253.804 171.434 253.354 171.309 253.153 170.955C252.952 170.6 253.077 170.149 253.432 169.949L260.743 165.812C261.098 165.611 261.548 165.736 261.749 166.091C261.95 166.446 261.825 166.896 261.47 167.097Z" fill="#CB7B87"/>
<path d="M263.106 132.199C262.514 132.534 261.764 132.325 261.429 131.734L259.93 129.084C259.595 128.493 259.803 127.742 260.395 127.408C260.986 127.073 261.737 127.281 262.072 127.873L263.571 130.522C263.905 131.114 263.697 131.864 263.106 132.199Z" fill="white"/>
<path d="M259.699 126.177C259.107 126.512 258.357 126.303 258.022 125.712L257.756 125.242C257.422 124.651 257.63 123.9 258.221 123.566C258.813 123.231 259.563 123.439 259.898 124.031L260.164 124.5C260.498 125.092 260.29 125.842 259.699 126.177Z" fill="white"/>
<path d="M279.645 107.363C279.243 106.168 277.948 105.526 276.754 105.928C275.559 106.33 274.917 107.624 275.319 108.819C275.721 110.013 277.016 110.656 278.21 110.253C279.405 109.851 280.047 108.557 279.645 107.363Z" fill="#2E659F"/>
<path d="M294.732 128.636C295.124 128.273 295.147 127.662 294.784 127.27C294.422 126.879 293.811 126.855 293.419 127.218C293.028 127.58 293.004 128.192 293.367 128.583C293.729 128.975 294.341 128.998 294.732 128.636Z" fill="#2E659F"/>
<path d="M259.511 106.971L261.259 108.486C261.333 108.551 261.427 108.583 261.518 108.575L263.633 108.381C263.932 108.353 264.146 108.733 263.969 108.975L262.713 110.688C262.659 110.761 262.639 110.858 262.656 110.955L263.054 113.234C263.111 113.556 262.774 113.747 262.527 113.533L260.778 112.017C260.704 111.953 260.61 111.92 260.519 111.929L258.404 112.123C258.105 112.151 257.891 111.771 258.068 111.529L259.324 109.816C259.378 109.743 259.399 109.646 259.382 109.548L258.983 107.269C258.927 106.947 259.264 106.757 259.511 106.971Z" fill="#CF9FB7"/>
<path d="M285.02 111.065L287.394 113.098C287.496 113.185 287.624 113.227 287.748 113.215L290.643 112.928C291.052 112.887 291.341 113.399 291.096 113.729L289.359 116.063C289.285 116.163 289.255 116.294 289.277 116.426L289.797 119.508C289.871 119.944 289.408 120.206 289.072 119.918L286.698 117.885C286.596 117.798 286.469 117.756 286.345 117.768L283.449 118.055C283.04 118.095 282.751 117.584 282.996 117.254L284.733 114.92C284.808 114.82 284.837 114.689 284.815 114.557L284.295 111.475C284.221 111.039 284.685 110.777 285.02 111.065Z" fill="#CF9FB7"/>
</g>
</g>
<g clip-path="url(#clip6)">
<g opacity="0.7">
<path d="M326.456 26.7555C326.752 26.7166 327.063 26.7905 327.319 26.9864L337.123 34.5095C337.634 34.9015 337.73 35.6336 337.338 36.1445C336.946 36.6553 336.214 36.7517 335.703 36.3598L325.899 28.8367C325.388 28.4447 325.292 27.7126 325.684 27.2017C325.88 26.9463 326.161 26.7945 326.456 26.7555Z" fill="#1D3F5E"/>
<path d="M329.877 24.2357C330.173 24.1968 330.484 24.2707 330.739 24.4666L337.929 29.9833C338.44 30.3753 338.536 31.1074 338.144 31.6183C337.752 32.1292 337.02 32.2255 336.509 31.8336L329.319 26.317C328.809 25.9249 328.712 25.1928 329.104 24.6819C329.3 24.4266 329.581 24.2747 329.877 24.2357Z" fill="#1D3F5E"/>
<path d="M310.77 47.199C311.066 47.1601 311.376 47.2341 311.632 47.43L320.762 54.4358C321.273 54.8279 321.369 55.5599 320.977 56.0709C320.585 56.5817 319.853 56.6779 319.342 56.2861L310.212 49.2803C309.701 48.8882 309.605 48.1562 309.997 47.6452C310.193 47.3898 310.474 47.238 310.77 47.199Z" fill="#1D3F5E"/>
<path d="M314.19 44.6792C314.486 44.6403 314.797 44.7142 315.052 44.9101L322.242 50.4268C322.753 50.8188 322.849 51.5509 322.457 52.0619C322.065 52.5727 321.333 52.669 320.822 52.2771L313.633 46.7606C313.122 46.3685 313.025 45.6364 313.417 45.1255C313.613 44.8701 313.894 44.7182 314.19 44.6792Z" fill="#1D3F5E"/>
<path d="M325.326 31.0326C325.622 30.9937 325.933 31.0677 326.188 31.2636L333.702 37.0293C334.213 37.4213 334.31 38.1534 333.918 38.6643C333.526 39.1751 332.794 39.2715 332.283 38.8796L324.769 33.1139C324.258 32.7218 324.161 31.9898 324.553 31.4788C324.749 31.2235 325.03 31.0716 325.326 31.0326Z" fill="#1D3F5E"/>
<path d="M342.139 6.31788C342.435 6.27893 342.746 6.35289 343.001 6.5488L352.321 13.7001C352.832 14.0922 352.928 14.8243 352.536 15.3352C352.144 15.846 351.412 15.9424 350.901 15.5505L341.581 8.39911C341.07 8.00707 340.974 7.27499 341.366 6.76406C341.562 6.50872 341.843 6.35683 342.139 6.31788Z" fill="#1D3F5E"/>
<path d="M341.009 10.5952C341.304 10.5562 341.615 10.6302 341.871 10.8261L348.76 16.1124C349.271 16.5044 349.367 17.2365 348.975 17.7474C348.583 18.2582 347.851 18.3546 347.34 17.9627L340.451 12.6764C339.94 12.2844 339.844 11.5523 340.236 11.0414C340.432 10.7859 340.713 10.6342 341.009 10.5952Z" fill="#1D3F5E"/>
<path d="M343.458 2.7747C344.808 3.81029 345.062 5.74388 344.027 7.09348C339.917 12.4495 340.996 16.9669 342.246 22.1976C343.471 27.3244 344.86 33.1352 340.343 39.0221C335.87 44.8513 330.138 44.8549 325.081 44.8581C319.695 44.8614 315.044 44.8644 310.455 50.8443C309.42 52.194 307.486 52.4484 306.137 51.4129C304.787 50.3773 304.533 48.4437 305.568 47.0941C312.005 38.7058 319.253 38.7012 325.077 38.6977C330.029 38.6945 332.952 38.5339 335.455 35.2719C338.059 31.8783 337.488 28.7921 336.254 23.6293C334.913 18.0146 333.243 11.0271 339.139 3.34329C340.175 1.99379 342.108 1.73912 343.458 2.7747Z" fill="#CF9FB7"/>
<path d="M317.124 45.7233C317.124 45.7233 317.124 45.7233 317.125 45.7233C319.64 44.8621 322.26 44.86 325.081 44.8581C330.138 44.8549 335.87 44.8513 340.343 39.0221C344.86 33.1354 343.471 27.3244 342.246 22.1976C341.627 19.6071 341.051 17.1917 341.125 14.7626L341.125 14.7623C339.081 14.9077 337.025 14.8987 334.966 14.8298C334.966 14.83 334.966 14.8301 334.966 14.8304C334.915 18.0219 335.621 20.9788 336.254 23.6294C337.488 28.7905 338.059 31.8765 335.458 35.2688C335.457 35.2698 335.456 35.2709 335.455 35.2719C335.453 35.2742 335.452 35.2761 335.45 35.2784C332.948 38.534 330.025 38.6946 325.077 38.6977C322.187 38.6994 318.945 38.702 315.626 39.7293C315.625 39.7295 315.625 39.7297 315.624 39.7299C316.109 41.7316 316.598 43.7326 317.124 45.7233Z" fill="#E1B0B8"/>
<path d="M356.499 12.3664C357.848 13.4019 358.103 15.3355 357.067 16.6851C350.631 25.0734 343.382 25.0779 337.558 25.0816C332.607 25.0848 329.683 25.2453 327.18 28.5074C324.576 31.9009 325.147 34.9872 326.381 40.15C327.723 45.7646 329.392 52.7521 323.496 60.4359C322.461 61.7855 320.527 62.0401 319.177 61.0045C317.828 59.9689 317.573 58.0353 318.609 56.6857C322.719 51.3298 321.639 46.8124 320.389 41.5816C319.164 36.4548 317.776 30.644 322.293 24.7572C326.766 18.928 332.497 18.9243 337.554 18.9212C342.94 18.9179 347.591 18.9149 352.18 12.935C353.216 11.5853 355.149 11.3308 356.499 12.3664Z" fill="#2E659F"/>
<path d="M320.71 7.6728C320.748 8.86657 321.746 9.8036 322.94 9.76571C324.134 9.72782 325.071 8.72936 325.033 7.53559C324.995 6.34182 323.996 5.4048 322.803 5.44269C321.609 5.48058 320.672 6.47903 320.71 7.6728Z" fill="#CF9FB7"/>
<path d="M350.989 49.7445C350.987 50.2504 351.396 50.6619 351.902 50.6637C352.407 50.6654 352.819 50.2568 352.821 49.7509C352.823 49.245 352.414 48.8335 351.908 48.8318C351.402 48.83 350.991 49.2386 350.989 49.7445Z" fill="#CF9FB7"/>
<path d="M354.445 39.5332L353.447 37.5808C353.404 37.4973 353.333 37.4359 353.251 37.411L351.323 36.8307C351.051 36.7487 350.997 36.339 351.239 36.1894L352.95 35.1299C353.024 35.0845 353.076 35.0069 353.096 34.9151L353.555 32.7709C353.619 32.4679 353.983 32.42 354.124 32.6959L355.122 34.6483C355.165 34.7319 355.236 34.7932 355.319 34.8181L357.246 35.3984C357.519 35.4804 357.573 35.8901 357.331 36.0397L355.619 37.0992C355.546 37.1446 355.493 37.2222 355.473 37.314L355.015 39.4582C354.95 39.7612 354.586 39.8091 354.445 39.5332Z" fill="#EFAEB8"/>
<path d="M308.174 36.7449L307.176 34.7925C307.133 34.709 307.062 34.6476 306.98 34.6227L305.052 34.0424C304.78 33.9604 304.726 33.5507 304.968 33.401L306.679 32.3415C306.753 32.2962 306.805 32.2186 306.825 32.1267L307.284 29.9825C307.349 29.6796 307.712 29.6317 307.853 29.9075L308.852 31.8599C308.894 31.9436 308.965 32.0049 309.048 32.0297L310.975 32.6101C311.248 32.6921 311.302 33.1017 311.06 33.2514L309.348 34.3109C309.275 34.3563 309.222 34.4339 309.202 34.5257L308.744 36.6699C308.679 36.9729 308.315 37.0208 308.174 36.7449Z" fill="#EFAEB8"/>
<path d="M310.212 21.5284L309.214 19.576C309.171 19.4924 309.101 19.4311 309.018 19.4062L307.09 18.8259C306.818 18.7439 306.764 18.3342 307.006 18.1845L308.718 17.125C308.791 17.0797 308.844 17.0021 308.863 16.9103L309.322 14.7661C309.387 14.4631 309.751 14.4152 309.892 14.691L310.89 16.6434C310.933 16.7271 311.003 16.7884 311.086 16.8133L313.014 17.3936C313.286 17.4756 313.34 17.8853 313.098 18.0349L311.386 19.0944C311.313 19.1398 311.26 19.2174 311.241 19.3092L310.782 21.4534C310.717 21.7564 310.353 21.8043 310.212 21.5284Z" fill="#EFAEB8"/>
<path d="M342.249 59.7925L340.885 57.1631C340.826 57.0506 340.729 56.968 340.616 56.9348L337.97 56.1587C337.596 56.0491 337.523 55.4969 337.856 55.2942L340.211 53.8597C340.312 53.7983 340.384 53.6934 340.412 53.5696L341.049 50.6766C341.139 50.2678 341.639 50.202 341.832 50.5736L343.196 53.203C343.255 53.3155 343.352 53.3981 343.465 53.4313L346.111 54.2074C346.485 54.317 346.558 54.8692 346.225 55.0719L343.87 56.5064C343.769 56.5678 343.697 56.6727 343.669 56.7965L343.032 59.6895C342.942 60.0981 342.442 60.164 342.249 59.7925Z" fill="#EFAEB8"/>
</g>
</g>
<defs>
<clipPath id="clip0">
<rect width="77.8988" height="77.8988" fill="white" transform="translate(81.8356 84.8275) rotate(11)"/>
</clipPath>
<clipPath id="clip1">
<rect width="58.4979" height="58.4979" fill="white" transform="translate(21.1086 4.85254) rotate(21)"/>
</clipPath>
<clipPath id="clip2">
<rect width="54.7837" height="54.7837" fill="white" transform="translate(178.779 208.707)"/>
</clipPath>
<clipPath id="clip3">
<rect width="42.0004" height="42.0004" fill="white" transform="translate(204.583 3.9494) rotate(34)"/>
</clipPath>
<clipPath id="clip4">
<rect width="49.2125" height="49.2125" fill="white" transform="translate(25.7678 197.587) rotate(-22)"/>
</clipPath>
<clipPath id="clip5">
<rect width="61.4854" height="61.4854" fill="white" transform="translate(226.823 124.417) rotate(-29.5)"/>
</clipPath>
<clipPath id="clip6">
<rect width="57.5693" height="57.5693" fill="white" transform="translate(363.692 57.2671) rotate(172.5)"/>
</clipPath>
</defs>
</svg>
