<svg width="43" height="43" viewBox="0 0 43 43" fill="none" xmlns="http://www.w3.org/2000/svg">
<path d="M12.4927 6.76413C7.06323 6.76413 2.64893 11.2297 2.64893 16.6079C2.64893 18.4843 3.5 20.1096 4.28955 21.2837C5.0791 22.4577 5.88916 23.2114 5.88916 23.2114L20.0806 37.4438L21.0239 38.3872L21.9673 37.4438L36.1587 23.2114C36.1587 23.2114 39.3989 20.3557 39.3989 16.6079C39.3989 11.2297 34.9846 6.76413 29.5552 6.76413C25.0486 6.76413 22.1467 9.47629 21.0239 10.6196C19.9011 9.47629 16.9993 6.76413 12.4927 6.76413ZM12.4927 9.38913C16.4148 9.38913 20.0396 13.2036 20.0396 13.2036L21.0239 14.311L22.0083 13.2036C22.0083 13.2036 25.6331 9.38913 29.5552 9.38913C33.5491 9.38913 36.7739 12.6653 36.7739 16.6079C36.7739 18.633 34.313 21.3657 34.313 21.3657L21.0239 34.6548L7.73486 21.3657C7.73486 21.3657 7.09912 20.7556 6.46338 19.8071C5.82764 18.8586 5.27393 17.623 5.27393 16.6079C5.27393 12.6653 8.49878 9.38913 12.4927 9.38913Z" fill="#EFAEB8"/>
</svg>
