<svg width="43" height="43" viewBox="0 0 43 43" fill="none" xmlns="http://www.w3.org/2000/svg">
<path d="M13.1768 7.3653C7.74731 7.3653 3.33301 11.8309 3.33301 17.209C3.33301 19.0855 4.18408 20.7108 4.97363 21.8848C5.76318 23.0589 6.57324 23.8126 6.57324 23.8126L20.7646 38.045L21.708 38.9883L22.6514 38.045L36.8428 23.8126C36.8428 23.8126 40.083 20.9568 40.083 17.209C40.083 11.8309 35.6687 7.3653 30.2393 7.3653C25.7327 7.3653 22.8308 10.0775 21.708 11.2208C20.5852 10.0775 17.6833 7.3653 13.1768 7.3653ZM13.1768 9.9903C17.0989 9.9903 20.7236 13.8047 20.7236 13.8047L21.708 14.9122L22.6924 13.8047C22.6924 13.8047 26.3171 9.9903 30.2393 9.9903C34.2332 9.9903 37.458 13.2664 37.458 17.209C37.458 19.2342 34.9971 21.9669 34.9971 21.9669L21.708 35.2559L8.41895 21.9669C8.41895 21.9669 7.7832 21.3568 7.14746 20.4083C6.51172 19.4598 5.95801 18.2242 5.95801 17.209C5.95801 13.2664 9.18286 9.9903 13.1768 9.9903Z" fill="white"/>
</svg>
