<svg width="33" height="33" viewBox="0 0 33 33" fill="none" xmlns="http://www.w3.org/2000/svg">
<path d="M20.9971 3.08582C16.0518 3.08582 11.9971 7.1405 11.9971 12.0858C11.9971 12.6053 12.083 13.0624 12.1533 13.5233L4.27832 21.3671L3.99707 21.6796V29.0858H10.9971V26.0858H13.9971V23.0858H16.9971V20.1171C18.1768 20.6952 19.5518 21.0858 20.9971 21.0858C25.9424 21.0858 29.9971 17.0311 29.9971 12.0858C29.9971 7.1405 25.9424 3.08582 20.9971 3.08582ZM20.9971 5.08582C24.8525 5.08582 27.9971 8.23035 27.9971 12.0858C27.9971 15.9413 24.8525 19.0858 20.9971 19.0858C19.7861 19.0858 18.54 18.7303 17.5908 18.2108L17.3408 18.0858H14.9971V21.0858H11.9971V24.0858H8.99707V27.0858H5.99707V22.5233L13.9033 14.5858L14.2783 14.2421L14.1846 13.7108C14.083 13.1093 13.9971 12.5741 13.9971 12.0858C13.9971 8.23035 17.1416 5.08582 20.9971 5.08582ZM22.9971 8.08582C21.8916 8.08582 20.9971 8.98035 20.9971 10.0858C20.9971 11.1913 21.8916 12.0858 22.9971 12.0858C24.1025 12.0858 24.9971 11.1913 24.9971 10.0858C24.9971 8.98035 24.1025 8.08582 22.9971 8.08582Z" fill="#636363"/>
</svg>
