<svg width="27" height="27" viewBox="0 0 27 27" fill="none" xmlns="http://www.w3.org/2000/svg">
<path d="M16.4081 2.86835C11.9298 2.86835 8.28308 6.51508 8.28308 10.9933C8.28308 12.9389 8.96545 14.7226 10.1112 16.1223L3.6366 22.5969L4.80457 23.7648L11.2792 17.2902C12.6788 18.436 14.4625 19.1183 16.4081 19.1183C20.8864 19.1183 24.5331 15.4716 24.5331 10.9933C24.5331 6.51508 20.8864 2.86835 16.4081 2.86835ZM16.4081 4.49335C20.0072 4.49335 22.9081 7.39423 22.9081 10.9933C22.9081 14.5925 20.0072 17.4933 16.4081 17.4933C12.809 17.4933 9.90808 14.5925 9.90808 10.9933C9.90808 7.39423 12.809 4.49335 16.4081 4.49335Z" fill="#3A3A3A" fill-opacity="0.79"/>
</svg>
