<svg width="42" height="43" viewBox="0 0 42 43" fill="none" xmlns="http://www.w3.org/2000/svg">
<path d="M24.9375 4.92487C17.7034 4.92487 11.8125 10.8157 11.8125 18.0499C11.8125 21.1927 12.9148 24.074 14.7656 26.335L4.30664 36.794L6.19336 38.6807L16.6523 28.2217C18.9133 30.0726 21.7947 31.1749 24.9375 31.1749C32.1716 31.1749 38.0625 25.284 38.0625 18.0499C38.0625 10.8157 32.1716 4.92487 24.9375 4.92487ZM24.9375 7.54987C30.7515 7.54987 35.4375 12.2359 35.4375 18.0499C35.4375 23.8638 30.7515 28.5499 24.9375 28.5499C19.1235 28.5499 14.4375 23.8638 14.4375 18.0499C14.4375 12.2359 19.1235 7.54987 24.9375 7.54987Z" fill="white"/>
</svg>
