<svg width="51" height="51" viewBox="0 0 51 51" fill="none" xmlns="http://www.w3.org/2000/svg">
<path d="M25.7928 3.76418L24.3877 6.96204L19.3487 18.2514L7.04179 19.5596L3.55322 19.9473L6.16965 22.273L15.3271 30.5583L12.7592 42.6714L12.0324 46.063L15.0849 44.3188L25.7928 38.1169L36.5008 44.3188L39.5533 46.063L38.8265 42.6714L36.2585 30.5583L45.416 22.273L48.0324 19.9473L44.5439 19.5596L32.237 18.2514L27.1979 6.96204L25.7928 3.76418ZM25.7928 11.3712L29.7659 20.3349L30.1535 21.1586L31.0257 21.2555L40.7646 22.273L33.4967 28.814L32.8184 29.4439L33.0122 30.316L35.0472 39.8612L26.5681 35.0159L25.7928 34.5314L25.0176 35.0159L16.5384 39.8612L18.5734 30.316L18.7672 29.4439L18.0889 28.814L10.8211 22.273L20.56 21.2555L21.4321 21.1586L21.8197 20.3349L25.7928 11.3712Z" fill="#EFAEB8"/>
</svg>
