<svg width="50" height="50" viewBox="0 0 50 50" fill="none" xmlns="http://www.w3.org/2000/svg">
<path d="M24.81 3.79183L23.4048 6.94154L18.3652 18.2805L6.05714 19.5404L2.56824 19.928L5.18492 22.254L14.3433 30.5401L11.7751 42.6544L11.0482 46.0464H11.0967L14.101 44.3019L24.81 38.1479L35.519 44.3019L38.5718 46.0464L37.845 42.6544L35.2767 30.5401L44.4351 22.254L47.0518 19.928L43.5629 19.5404L31.2548 18.2805L26.2153 6.94154L24.81 3.79183ZM24.81 11.3996L28.7835 20.3641L29.1711 21.1394L30.0434 21.2364L39.8317 22.254L32.5147 28.8441L31.8363 29.4256L32.0301 30.2978L34.0653 39.8923L25.5853 34.9982L24.81 34.562V11.3996Z" fill="#917ede"/>
</svg>
