<svg width="67" height="67" viewBox="0 0 67 67" fill="none" xmlns="http://www.w3.org/2000/svg">
<path d="M54.6983 8.93542C54.0054 8.96765 53.3528 9.16907 52.7727 9.39465H52.7647C52.1765 9.62829 49.3809 10.8046 45.135 12.5851C40.8892 14.3737 35.3784 16.694 29.908 18.9982C18.9832 23.5985 8.24367 28.1263 8.24367 28.1263L8.37258 28.078C8.37258 28.078 7.63137 28.3197 6.85793 28.8514C6.46315 29.1093 6.02809 29.4637 5.64943 30.0197C5.27077 30.5756 4.96462 31.4296 5.07741 32.3077C5.26271 33.7982 6.22951 34.6925 6.92238 35.184C7.62331 35.6835 8.29201 35.9171 8.29201 35.9171H8.30812L18.3789 39.309C18.8301 40.7592 21.4485 49.3636 22.0769 51.3456C22.4475 52.5299 22.8101 53.2711 23.2612 53.8351C23.4788 54.1251 23.7366 54.3668 24.0427 54.5602C24.1636 54.6327 24.2925 54.6891 24.4214 54.7374C24.4617 54.7616 24.502 54.7697 24.5503 54.7777L24.4456 54.7535C24.4778 54.7616 24.502 54.7858 24.5261 54.7938C24.6067 54.818 24.6631 54.826 24.7678 54.8422C26.3631 55.3256 27.6441 54.3346 27.6441 54.3346L27.7166 54.2782L33.6624 48.8641L43.6284 56.5099L43.854 56.6066C45.9326 57.517 48.0354 57.0094 49.1472 56.1151C50.2671 55.2128 50.7022 54.0607 50.7022 54.0607L50.7747 53.8754L58.4768 14.422C58.6944 13.4471 58.7508 12.5367 58.5091 11.6505C58.2674 10.7643 57.647 9.93445 56.8977 9.49133C56.1404 9.04016 55.3911 8.9032 54.6983 8.93542ZM54.4888 13.1652C54.4807 13.2941 54.5049 13.278 54.4485 13.5277V13.5519L46.8189 52.5944C46.7866 52.6508 46.7302 52.7716 46.5772 52.8925C46.416 53.0214 46.2871 53.1019 45.6184 52.8361L33.4287 43.4904L26.065 50.2015L27.6118 40.3241C27.6118 40.3241 46.7061 22.527 47.5279 21.7616C48.3496 20.9962 48.0757 20.8351 48.0757 20.8351C48.1321 19.9005 46.835 20.5612 46.835 20.5612L21.7224 36.1185L21.7144 36.0782L9.67775 32.0258V32.0177C9.6697 32.0177 9.65358 32.0096 9.64553 32.0096C9.65358 32.0096 9.70998 31.9855 9.70998 31.9855L9.77443 31.9532L9.83889 31.9291C9.83889 31.9291 20.5864 27.4012 31.5112 22.8009C36.9817 20.4967 42.4925 18.1764 46.7302 16.3878C50.968 14.6073 54.1021 13.3021 54.2793 13.2296C54.4485 13.1652 54.3679 13.1652 54.4888 13.1652Z" fill="#33506E"/>
</svg>
