<svg width="51" height="51" viewBox="0 0 51 51" fill="none" xmlns="http://www.w3.org/2000/svg">
<path d="M25.708 8.79987C19.6838 8.79987 14.7705 13.7132 14.7705 19.7374C14.7705 23.5032 16.6931 26.848 19.6045 28.8194C14.032 31.212 10.083 36.7418 10.083 43.1749H13.208C13.208 38.6583 15.5945 34.7276 19.165 32.5303C20.2148 35.106 22.7722 36.9249 25.708 36.9249C28.6438 36.9249 31.2012 35.106 32.251 32.5303C35.8215 34.7276 38.208 38.6583 38.208 43.1749H41.333C41.333 36.7418 37.384 31.212 31.8115 28.8194C34.7229 26.848 36.6455 23.5032 36.6455 19.7374C36.6455 13.7132 31.7322 8.79987 25.708 8.79987ZM25.708 11.9249C30.0415 11.9249 33.5205 15.4039 33.5205 19.7374C33.5205 24.0709 30.0415 27.5499 25.708 27.5499C21.3745 27.5499 17.8955 24.0709 17.8955 19.7374C17.8955 15.4039 21.3745 11.9249 25.708 11.9249ZM25.708 30.6749C26.9897 30.6749 28.2104 30.858 29.3701 31.212C28.8269 32.7195 27.4109 33.7999 25.708 33.7999C24.0051 33.7999 22.5891 32.7195 22.0459 31.212C23.2056 30.858 24.4263 30.6749 25.708 30.6749Z" fill="white"/>
</svg>
