<svg width="67" height="67" viewBox="0 0 67 67" fill="none" xmlns="http://www.w3.org/2000/svg">
<path fill-rule="evenodd" clip-rule="evenodd" d="M51.4675 16.1703C46.8108 11.5135 40.6233 8.94348 34.033 8.94348C20.4495 8.94348 9.3877 19.9972 9.3877 33.5807C9.37964 37.9232 10.5156 42.161 12.6748 45.8993L9.17822 58.6691L22.2461 55.2369C25.8394 57.2028 29.8999 58.234 34.0249 58.2421H34.033C47.6165 58.2421 58.6702 47.1884 58.6782 33.5968C58.6782 27.0145 56.1162 20.827 51.4675 16.1703ZM34.033 54.0768H34.0249C30.3511 54.0768 26.7417 53.0858 23.5996 51.2247L22.8503 50.7816L15.0918 52.8119L17.1624 45.2548L16.679 44.4813C14.6245 41.2184 13.5449 37.4479 13.5449 33.5807C13.5449 22.2933 22.7375 13.1088 34.041 13.1088C39.5115 13.1088 44.6516 15.2438 48.5188 19.111C52.386 22.9862 54.5129 28.1263 54.5129 33.5968C54.5129 44.8922 45.3203 54.0768 34.033 54.0768ZM45.2639 38.7369C44.6516 38.4308 41.6223 36.9403 41.0583 36.7389C40.4944 36.5294 40.0835 36.4327 39.6726 37.045C39.2617 37.6654 38.0854 39.0511 37.7229 39.462C37.3684 39.8649 37.0059 39.9213 36.3936 39.6151C35.7732 39.309 33.7913 38.6564 31.4387 36.5536C29.6099 34.9261 28.3691 32.9039 28.0147 32.2916C27.6521 31.6713 27.9744 31.3409 28.2805 31.0348C28.5625 30.7609 28.9009 30.3177 29.207 29.9552C29.5132 29.6007 29.6179 29.3429 29.8274 28.932C30.0288 28.5211 29.9241 28.1586 29.771 27.8524C29.6179 27.5463 28.3853 24.5089 27.8696 23.2762C27.3701 22.0758 26.8625 22.245 26.4839 22.2208C26.1294 22.2047 25.7185 22.2047 25.3076 22.2047C24.8967 22.2047 24.228 22.3578 23.6641 22.9782C23.1001 23.5905 21.5129 25.0809 21.5129 28.1102C21.5129 31.1395 23.7205 34.0721 24.0266 34.483C24.3328 34.8859 28.3691 41.1056 34.5486 43.7723C36.0149 44.4088 37.1589 44.7875 38.0532 45.0695C39.5276 45.5367 40.873 45.4723 41.9365 45.3192C43.1208 45.142 45.5781 43.8287 46.0938 42.3866C46.6013 40.9525 46.6013 39.7198 46.4482 39.462C46.2952 39.2042 45.8843 39.0511 45.2639 38.7369Z" fill="#33506E"/>
</svg>
